<svg width="253" height="88" viewBox="0 0 253 88" fill="none" xmlns="http://www.w3.org/2000/svg">
<path d="M108.5 22.5L120.5 34.5L143 12" stroke="url(#paint0_linear_1730_8220)" stroke-width="6"/>
<path d="M10.0726 82.24C8.87263 82.24 7.76863 82.032 6.76063 81.616C5.75263 81.184 4.88063 80.584 4.14463 79.816C3.40863 79.032 2.83263 78.112 2.41663 77.056C2.01663 76 1.81663 74.848 1.81663 73.6C1.81663 72.368 2.01663 71.24 2.41663 70.216C2.83263 69.176 3.41663 68.272 4.16862 67.504C4.92063 66.72 5.79263 66.12 6.78463 65.704C7.77663 65.288 8.86463 65.08 10.0486 65.08C10.8326 65.08 11.6086 65.208 12.3766 65.464C13.1446 65.704 13.8486 66.04 14.4886 66.472C15.1446 66.904 15.6806 67.4 16.0966 67.96L14.8006 69.304C14.4006 68.824 13.9366 68.408 13.4086 68.056C12.8966 67.704 12.3526 67.432 11.7766 67.24C11.2006 67.048 10.6246 66.952 10.0486 66.952C9.15263 66.952 8.31263 67.12 7.52863 67.456C6.76063 67.776 6.09663 68.232 5.53663 68.824C4.97663 69.416 4.53663 70.12 4.21663 70.936C3.91263 71.752 3.76063 72.64 3.76063 73.6C3.76063 74.592 3.91263 75.504 4.21663 76.336C4.53663 77.168 4.98463 77.888 5.56063 78.496C6.15263 79.088 6.84063 79.552 7.62463 79.888C8.42463 80.208 9.31263 80.368 10.2886 80.368C10.8646 80.368 11.4406 80.288 12.0166 80.128C12.5926 79.952 13.1206 79.712 13.6006 79.408C14.0806 79.104 14.4886 78.76 14.8246 78.376L15.7846 79.936C15.4166 80.384 14.9206 80.784 14.2966 81.136C13.6886 81.472 13.0166 81.744 12.2806 81.952C11.5446 82.144 10.8086 82.24 10.0726 82.24ZM18.6114 82V64.24H20.4114V72.208L20.0514 72.568C20.2274 71.912 20.5554 71.336 21.0354 70.84C21.5154 70.328 22.0754 69.928 22.7154 69.64C23.3714 69.352 24.0354 69.208 24.7074 69.208C25.6674 69.208 26.4674 69.392 27.1074 69.76C27.7474 70.128 28.2194 70.696 28.5234 71.464C28.8434 72.232 29.0034 73.208 29.0034 74.392V82H27.1794V74.488C27.1794 73.656 27.0674 72.976 26.8434 72.448C26.6354 71.904 26.3074 71.504 25.8594 71.248C25.4114 70.992 24.8514 70.872 24.1794 70.888C23.6514 70.888 23.1554 70.984 22.6914 71.176C22.2274 71.352 21.8274 71.6 21.4914 71.92C21.1554 72.24 20.8914 72.608 20.6994 73.024C20.5074 73.44 20.4114 73.888 20.4114 74.368V82H19.5234C19.4114 82 19.2834 82 19.1394 82C18.9954 82 18.8194 82 18.6114 82ZM37.9595 82.24C36.7115 82.24 35.5995 81.968 34.6235 81.424C33.6635 80.88 32.9115 80.12 32.3675 79.144C31.8235 78.168 31.5515 77.048 31.5515 75.784C31.5515 74.808 31.7035 73.928 32.0075 73.144C32.3115 72.344 32.7355 71.648 33.2795 71.056C33.8395 70.464 34.5035 70.008 35.2715 69.688C36.0395 69.352 36.8715 69.184 37.7675 69.184C38.6155 69.184 39.3835 69.336 40.0715 69.64C40.7755 69.944 41.3755 70.368 41.8715 70.912C42.3835 71.44 42.7675 72.072 43.0235 72.808C43.2795 73.544 43.3915 74.352 43.3595 75.232L43.3355 76.072H32.8955L32.6315 74.56H41.9675L41.5355 74.968V74.392C41.5035 73.816 41.3355 73.264 41.0315 72.736C40.7275 72.192 40.2955 71.752 39.7355 71.416C39.1915 71.08 38.5355 70.912 37.7675 70.912C36.8715 70.912 36.0955 71.096 35.4395 71.464C34.7835 71.816 34.2795 72.344 33.9275 73.048C33.5755 73.752 33.3995 74.624 33.3995 75.664C33.3995 76.656 33.5915 77.52 33.9755 78.256C34.3595 78.976 34.9035 79.536 35.6075 79.936C36.3275 80.336 37.1915 80.536 38.1995 80.536C38.7915 80.536 39.3755 80.44 39.9515 80.248C40.5435 80.04 41.1915 79.64 41.8955 79.048L42.8315 80.344C42.4635 80.712 42.0235 81.04 41.5115 81.328C40.9995 81.6 40.4395 81.824 39.8315 82C39.2235 82.16 38.5995 82.24 37.9595 82.24ZM51.1961 82.24C50.0121 82.24 48.9561 81.96 48.0281 81.4C47.1001 80.824 46.3641 80.048 45.8201 79.072C45.2921 78.08 45.0281 76.96 45.0281 75.712C45.0281 74.464 45.2921 73.352 45.8201 72.376C46.3641 71.384 47.1001 70.608 48.0281 70.048C48.9561 69.488 50.0201 69.208 51.2201 69.208C52.2921 69.208 53.2681 69.424 54.1481 69.856C55.0281 70.272 55.7321 70.856 56.2601 71.608L55.2041 72.904C54.9001 72.504 54.5321 72.152 54.1001 71.848C53.6841 71.544 53.2281 71.312 52.7321 71.152C52.2521 70.976 51.7721 70.888 51.2921 70.888C50.4441 70.888 49.6841 71.104 49.0121 71.536C48.3401 71.952 47.8041 72.52 47.4041 73.24C47.0201 73.96 46.8281 74.784 46.8281 75.712C46.8281 76.64 47.0201 77.472 47.4041 78.208C47.8041 78.928 48.3401 79.496 49.0121 79.912C49.6841 80.328 50.4361 80.536 51.2681 80.536C51.7481 80.536 52.2201 80.464 52.6841 80.32C53.1481 80.16 53.5881 79.936 54.0041 79.648C54.4201 79.36 54.8041 79 55.1561 78.568L56.2121 79.864C55.6681 80.584 54.9401 81.16 54.0281 81.592C53.1161 82.024 52.1721 82.24 51.1961 82.24ZM63.4449 82.24C62.3569 82.24 61.3729 81.96 60.4929 81.4C59.6129 80.824 58.9169 80.048 58.4049 79.072C57.8929 78.08 57.6369 76.96 57.6369 75.712C57.6369 74.448 57.9009 73.328 58.4289 72.352C58.9569 71.376 59.6609 70.608 60.5409 70.048C61.4369 69.488 62.4369 69.208 63.5409 69.208C64.1969 69.208 64.8049 69.304 65.3649 69.496C65.9249 69.688 66.4209 69.96 66.8529 70.312C67.3009 70.648 67.6689 71.048 67.9569 71.512C68.2609 71.96 68.4689 72.448 68.5809 72.976L68.0529 72.712L68.1249 69.472H69.9249V82H68.1009V78.928L68.5809 78.616C68.4689 79.096 68.2529 79.56 67.9329 80.008C67.6129 80.44 67.2209 80.824 66.7569 81.16C66.3089 81.496 65.7969 81.76 65.2209 81.952C64.6609 82.144 64.0689 82.24 63.4449 82.24ZM63.8529 80.512C64.6849 80.512 65.4289 80.312 66.0849 79.912C66.7409 79.496 67.2529 78.928 67.6209 78.208C68.0049 77.472 68.1969 76.64 68.1969 75.712C68.1969 74.784 68.0049 73.96 67.6209 73.24C67.2529 72.52 66.7409 71.952 66.0849 71.536C65.4289 71.12 64.6849 70.912 63.8529 70.912C63.0049 70.912 62.2529 71.12 61.5969 71.536C60.9569 71.952 60.4449 72.52 60.0609 73.24C59.6929 73.96 59.5089 74.784 59.5089 75.712C59.5089 76.624 59.6929 77.448 60.0609 78.184C60.4289 78.904 60.9409 79.472 61.5969 79.888C62.2529 80.304 63.0049 80.512 63.8529 80.512ZM78.8317 87.52C77.9037 87.52 77.0237 87.376 76.1917 87.088C75.3597 86.8 74.6717 86.44 74.1277 86.008L74.8477 84.496C75.1677 84.752 75.5357 84.976 75.9517 85.168C76.3837 85.376 76.8477 85.536 77.3437 85.648C77.8397 85.776 78.3437 85.84 78.8557 85.84C79.7837 85.84 80.5677 85.664 81.2077 85.312C81.8637 84.976 82.3597 84.472 82.6957 83.8C83.0477 83.128 83.2237 82.296 83.2237 81.304V78.904L83.5117 78.832C83.3677 79.44 83.0557 80.008 82.5757 80.536C82.0957 81.048 81.5117 81.464 80.8237 81.784C80.1357 82.088 79.4077 82.24 78.6397 82.24C77.4717 82.24 76.4237 81.96 75.4957 81.4C74.5837 80.84 73.8637 80.072 73.3357 79.096C72.8077 78.104 72.5437 76.984 72.5437 75.736C72.5437 74.472 72.8077 73.352 73.3357 72.376C73.8797 71.384 74.6077 70.608 75.5197 70.048C76.4317 69.488 77.4557 69.208 78.5917 69.208C79.0877 69.208 79.5677 69.272 80.0317 69.4C80.4957 69.512 80.9197 69.68 81.3037 69.904C81.7037 70.128 82.0637 70.384 82.3837 70.672C82.7037 70.96 82.9677 71.272 83.1757 71.608C83.3997 71.944 83.5597 72.288 83.6557 72.64L83.1517 72.568L83.2237 69.472H85.0237V81.232C85.0237 82.24 84.8797 83.128 84.5917 83.896C84.3037 84.68 83.8797 85.336 83.3197 85.864C82.7757 86.408 82.1197 86.816 81.3517 87.088C80.5997 87.376 79.7597 87.52 78.8317 87.52ZM78.8557 80.512C79.7037 80.512 80.4557 80.312 81.1117 79.912C81.7837 79.496 82.3117 78.928 82.6957 78.208C83.0797 77.488 83.2717 76.656 83.2717 75.712C83.2717 74.784 83.0797 73.96 82.6957 73.24C82.3277 72.52 81.8077 71.952 81.1357 71.536C80.4637 71.12 79.7037 70.912 78.8557 70.912C77.9917 70.912 77.2237 71.12 76.5517 71.536C75.8957 71.952 75.3757 72.52 74.9917 73.24C74.6077 73.96 74.4157 74.784 74.4157 75.712C74.4157 76.624 74.5997 77.448 74.9677 78.184C75.3517 78.904 75.8717 79.472 76.5277 79.888C77.1997 80.304 77.9757 80.512 78.8557 80.512ZM94.0454 82.24C92.7974 82.24 91.6854 81.968 90.7094 81.424C89.7494 80.88 88.9974 80.12 88.4534 79.144C87.9094 78.168 87.6374 77.048 87.6374 75.784C87.6374 74.808 87.7894 73.928 88.0934 73.144C88.3974 72.344 88.8214 71.648 89.3654 71.056C89.9254 70.464 90.5894 70.008 91.3574 69.688C92.1254 69.352 92.9574 69.184 93.8534 69.184C94.7014 69.184 95.4694 69.336 96.1574 69.64C96.8614 69.944 97.4614 70.368 97.9574 70.912C98.4694 71.44 98.8534 72.072 99.1094 72.808C99.3654 73.544 99.4774 74.352 99.4454 75.232L99.4214 76.072H88.9814L88.7174 74.56H98.0534L97.6214 74.968V74.392C97.5894 73.816 97.4214 73.264 97.1174 72.736C96.8134 72.192 96.3814 71.752 95.8214 71.416C95.2774 71.08 94.6214 70.912 93.8534 70.912C92.9574 70.912 92.1814 71.096 91.5254 71.464C90.8694 71.816 90.3654 72.344 90.0134 73.048C89.6614 73.752 89.4854 74.624 89.4854 75.664C89.4854 76.656 89.6774 77.52 90.0614 78.256C90.4454 78.976 90.9894 79.536 91.6934 79.936C92.4134 80.336 93.2774 80.536 94.2854 80.536C94.8774 80.536 95.4614 80.44 96.0374 80.248C96.6294 80.04 97.2774 79.64 97.9814 79.048L98.9174 80.344C98.5494 80.712 98.1094 81.04 97.5974 81.328C97.0854 81.6 96.5254 81.824 95.9174 82C95.3094 82.16 94.6854 82.24 94.0454 82.24ZM101.978 82V69.472H103.778L103.826 72.328L103.466 72.448C103.594 71.968 103.802 71.536 104.09 71.152C104.394 70.752 104.754 70.408 105.17 70.12C105.586 69.832 106.042 69.616 106.538 69.472C107.034 69.312 107.554 69.232 108.098 69.232C108.754 69.232 109.338 69.344 109.85 69.568C110.378 69.776 110.818 70.144 111.17 70.672C111.538 71.184 111.818 71.864 112.01 72.712L111.578 72.496L111.746 72.088C111.906 71.72 112.138 71.368 112.442 71.032C112.762 70.68 113.122 70.368 113.522 70.096C113.938 69.824 114.386 69.616 114.866 69.472C115.362 69.312 115.866 69.232 116.378 69.232C117.258 69.232 118.002 69.424 118.61 69.808C119.218 70.176 119.674 70.744 119.978 71.512C120.298 72.28 120.458 73.256 120.458 74.44V82H118.61V74.536C118.61 73.704 118.506 73.024 118.298 72.496C118.09 71.968 117.778 71.576 117.362 71.32C116.962 71.048 116.45 70.912 115.826 70.912C115.282 70.912 114.778 71.008 114.314 71.2C113.866 71.376 113.474 71.632 113.138 71.968C112.818 72.288 112.562 72.656 112.37 73.072C112.194 73.488 112.106 73.936 112.106 74.416V82H110.282V74.512C110.282 73.712 110.17 73.048 109.946 72.52C109.738 71.992 109.426 71.592 109.01 71.32C108.594 71.048 108.082 70.912 107.474 70.912C106.946 70.912 106.458 71.008 106.01 71.2C105.562 71.376 105.17 71.624 104.834 71.944C104.514 72.264 104.258 72.632 104.066 73.048C103.89 73.464 103.802 73.912 103.802 74.392V82H101.978ZM131.316 82V65.2H137.892C138.868 65.2 139.748 65.432 140.532 65.896C141.332 66.344 141.964 66.96 142.428 67.744C142.892 68.528 143.124 69.416 143.124 70.408C143.124 71.336 142.9 72.176 142.452 72.928C142.004 73.68 141.396 74.28 140.628 74.728C139.86 75.16 138.996 75.376 138.036 75.376H133.188V82H131.316ZM141.564 82L137.34 74.608L139.14 73.984L143.796 82H141.564ZM133.188 73.552H138.204C138.796 73.552 139.316 73.416 139.764 73.144C140.212 72.872 140.564 72.504 140.82 72.04C141.076 71.56 141.204 71.016 141.204 70.408C141.204 69.752 141.052 69.168 140.748 68.656C140.444 68.144 140.02 67.744 139.476 67.456C138.948 67.168 138.34 67.024 137.652 67.024H133.188V73.552ZM151.491 82.24C150.243 82.24 149.131 81.968 148.155 81.424C147.195 80.88 146.443 80.12 145.899 79.144C145.355 78.168 145.083 77.048 145.083 75.784C145.083 74.808 145.235 73.928 145.539 73.144C145.843 72.344 146.267 71.648 146.811 71.056C147.371 70.464 148.035 70.008 148.803 69.688C149.571 69.352 150.403 69.184 151.299 69.184C152.147 69.184 152.915 69.336 153.603 69.64C154.307 69.944 154.907 70.368 155.403 70.912C155.915 71.44 156.299 72.072 156.555 72.808C156.811 73.544 156.923 74.352 156.891 75.232L156.867 76.072H146.427L146.163 74.56H155.499L155.067 74.968V74.392C155.035 73.816 154.867 73.264 154.563 72.736C154.259 72.192 153.827 71.752 153.267 71.416C152.723 71.08 152.067 70.912 151.299 70.912C150.403 70.912 149.627 71.096 148.971 71.464C148.315 71.816 147.811 72.344 147.459 73.048C147.107 73.752 146.931 74.624 146.931 75.664C146.931 76.656 147.123 77.52 147.507 78.256C147.891 78.976 148.435 79.536 149.139 79.936C149.859 80.336 150.723 80.536 151.731 80.536C152.323 80.536 152.907 80.44 153.483 80.248C154.075 80.04 154.723 79.64 155.427 79.048L156.363 80.344C155.995 80.712 155.555 81.04 155.043 81.328C154.531 81.6 153.971 81.824 153.363 82C152.755 82.16 152.131 82.24 151.491 82.24ZM164.73 87.52C163.802 87.52 162.922 87.376 162.09 87.088C161.258 86.8 160.57 86.44 160.026 86.008L160.746 84.496C161.066 84.752 161.434 84.976 161.85 85.168C162.282 85.376 162.746 85.536 163.242 85.648C163.738 85.776 164.242 85.84 164.754 85.84C165.682 85.84 166.466 85.664 167.106 85.312C167.762 84.976 168.258 84.472 168.594 83.8C168.946 83.128 169.122 82.296 169.122 81.304V78.904L169.41 78.832C169.266 79.44 168.954 80.008 168.474 80.536C167.994 81.048 167.41 81.464 166.722 81.784C166.034 82.088 165.306 82.24 164.538 82.24C163.37 82.24 162.322 81.96 161.394 81.4C160.482 80.84 159.762 80.072 159.234 79.096C158.706 78.104 158.442 76.984 158.442 75.736C158.442 74.472 158.706 73.352 159.234 72.376C159.778 71.384 160.506 70.608 161.418 70.048C162.33 69.488 163.354 69.208 164.49 69.208C164.986 69.208 165.466 69.272 165.93 69.4C166.394 69.512 166.818 69.68 167.202 69.904C167.602 70.128 167.962 70.384 168.282 70.672C168.602 70.96 168.866 71.272 169.074 71.608C169.298 71.944 169.458 72.288 169.554 72.64L169.05 72.568L169.122 69.472H170.922V81.232C170.922 82.24 170.778 83.128 170.49 83.896C170.202 84.68 169.778 85.336 169.218 85.864C168.674 86.408 168.018 86.816 167.25 87.088C166.498 87.376 165.658 87.52 164.73 87.52ZM164.754 80.512C165.602 80.512 166.354 80.312 167.01 79.912C167.682 79.496 168.21 78.928 168.594 78.208C168.978 77.488 169.17 76.656 169.17 75.712C169.17 74.784 168.978 73.96 168.594 73.24C168.226 72.52 167.706 71.952 167.034 71.536C166.362 71.12 165.602 70.912 164.754 70.912C163.89 70.912 163.122 71.12 162.45 71.536C161.794 71.952 161.274 72.52 160.89 73.24C160.506 73.96 160.314 74.784 160.314 75.712C160.314 76.624 160.498 77.448 160.866 78.184C161.25 78.904 161.77 79.472 162.426 79.888C163.098 80.304 163.874 80.512 164.754 80.512ZM174.904 82V69.472H176.704V82H174.904ZM175.792 66.76C175.344 66.76 175 66.648 174.76 66.424C174.536 66.184 174.424 65.864 174.424 65.464C174.424 65.064 174.544 64.744 174.784 64.504C175.024 64.264 175.36 64.144 175.792 64.144C176.224 64.144 176.56 64.264 176.8 64.504C177.04 64.728 177.16 65.048 177.16 65.464C177.16 65.848 177.04 66.16 176.8 66.4C176.56 66.64 176.224 66.76 175.792 66.76ZM184.739 82.24C183.667 82.24 182.707 82.04 181.859 81.64C181.011 81.24 180.339 80.712 179.843 80.056L181.115 78.952C181.579 79.512 182.123 79.936 182.747 80.224C183.387 80.512 184.099 80.656 184.883 80.656C185.283 80.656 185.643 80.616 185.963 80.536C186.283 80.44 186.563 80.304 186.803 80.128C187.043 79.952 187.227 79.744 187.355 79.504C187.483 79.264 187.547 79 187.547 78.712C187.547 78.184 187.315 77.744 186.851 77.392C186.643 77.248 186.347 77.104 185.963 76.96C185.579 76.8 185.115 76.648 184.571 76.504C183.675 76.248 182.931 75.992 182.339 75.736C181.747 75.464 181.283 75.152 180.947 74.8C180.707 74.512 180.523 74.2 180.395 73.864C180.283 73.528 180.227 73.16 180.227 72.76C180.227 72.248 180.331 71.776 180.539 71.344C180.763 70.912 181.067 70.536 181.451 70.216C181.851 69.88 182.315 69.632 182.843 69.472C183.387 69.296 183.971 69.208 184.595 69.208C185.187 69.208 185.771 69.288 186.347 69.448C186.923 69.608 187.459 69.84 187.955 70.144C188.451 70.448 188.875 70.808 189.227 71.224L188.123 72.424C187.819 72.104 187.483 71.816 187.115 71.56C186.747 71.304 186.355 71.104 185.939 70.96C185.539 70.816 185.123 70.744 184.691 70.744C184.307 70.744 183.947 70.792 183.611 70.888C183.291 70.984 183.011 71.12 182.771 71.296C182.547 71.456 182.371 71.656 182.243 71.896C182.131 72.136 182.075 72.4 182.075 72.688C182.075 72.928 182.123 73.144 182.219 73.336C182.315 73.528 182.451 73.696 182.627 73.84C182.851 74.016 183.163 74.184 183.563 74.344C183.979 74.488 184.491 74.64 185.099 74.8C185.803 74.992 186.395 75.192 186.875 75.4C187.371 75.592 187.779 75.824 188.099 76.096C188.531 76.416 188.835 76.784 189.011 77.2C189.203 77.616 189.299 78.088 189.299 78.616C189.299 79.32 189.099 79.944 188.699 80.488C188.315 81.032 187.779 81.464 187.091 81.784C186.403 82.088 185.619 82.24 184.739 82.24ZM193.847 82V66.184H195.647V82H193.847ZM191.015 71.2V69.472H198.815V71.2H191.015ZM201.025 82V69.472H202.825L202.873 72.808L202.681 72.352C202.857 71.792 203.137 71.272 203.521 70.792C203.921 70.312 204.393 69.928 204.937 69.64C205.481 69.352 206.081 69.208 206.737 69.208C207.009 69.208 207.265 69.232 207.505 69.28C207.745 69.312 207.945 69.36 208.105 69.424L207.601 71.44C207.393 71.344 207.177 71.28 206.953 71.248C206.745 71.2 206.545 71.176 206.353 71.176C205.809 71.176 205.321 71.272 204.889 71.464C204.457 71.656 204.089 71.928 203.785 72.28C203.481 72.616 203.249 73.008 203.089 73.456C202.929 73.904 202.849 74.384 202.849 74.896V82H201.025ZM214.336 82.24C213.248 82.24 212.264 81.96 211.384 81.4C210.504 80.824 209.808 80.048 209.296 79.072C208.784 78.08 208.528 76.96 208.528 75.712C208.528 74.448 208.792 73.328 209.32 72.352C209.848 71.376 210.552 70.608 211.432 70.048C212.328 69.488 213.328 69.208 214.432 69.208C215.088 69.208 215.696 69.304 216.256 69.496C216.816 69.688 217.312 69.96 217.744 70.312C218.192 70.648 218.56 71.048 218.848 71.512C219.152 71.96 219.36 72.448 219.472 72.976L218.944 72.712L219.016 69.472H220.816V82H218.992V78.928L219.472 78.616C219.36 79.096 219.144 79.56 218.824 80.008C218.504 80.44 218.112 80.824 217.648 81.16C217.2 81.496 216.688 81.76 216.112 81.952C215.552 82.144 214.96 82.24 214.336 82.24ZM214.743 80.512C215.576 80.512 216.32 80.312 216.976 79.912C217.632 79.496 218.144 78.928 218.512 78.208C218.896 77.472 219.088 76.64 219.088 75.712C219.088 74.784 218.896 73.96 218.512 73.24C218.144 72.52 217.632 71.952 216.976 71.536C216.32 71.12 215.576 70.912 214.743 70.912C213.896 70.912 213.144 71.12 212.488 71.536C211.848 71.952 211.336 72.52 210.952 73.24C210.584 73.96 210.4 74.784 210.4 75.712C210.4 76.624 210.584 77.448 210.952 78.184C211.32 78.904 211.832 79.472 212.488 79.888C213.144 80.304 213.896 80.512 214.743 80.512ZM229.41 82.24C228.274 82.24 227.25 81.96 226.338 81.4C225.442 80.84 224.73 80.072 224.202 79.096C223.69 78.104 223.434 76.984 223.434 75.736C223.434 74.472 223.698 73.352 224.226 72.376C224.754 71.384 225.466 70.608 226.362 70.048C227.258 69.488 228.266 69.208 229.386 69.208C230.01 69.208 230.61 69.304 231.186 69.496C231.778 69.688 232.306 69.96 232.77 70.312C233.234 70.648 233.618 71.04 233.922 71.488C234.226 71.92 234.41 72.376 234.474 72.856L233.922 72.664V64.24H235.722V82H233.946L233.898 78.88L234.354 78.712C234.29 79.16 234.106 79.6 233.802 80.032C233.514 80.448 233.146 80.824 232.698 81.16C232.25 81.496 231.738 81.76 231.162 81.952C230.602 82.144 230.018 82.24 229.41 82.24ZM229.674 80.584C230.506 80.584 231.25 80.376 231.906 79.96C232.562 79.544 233.074 78.968 233.442 78.232C233.826 77.496 234.018 76.656 234.018 75.712C234.018 74.768 233.826 73.936 233.442 73.216C233.074 72.48 232.562 71.904 231.906 71.488C231.25 71.056 230.506 70.84 229.674 70.84C228.81 70.84 228.05 71.056 227.394 71.488C226.754 71.904 226.242 72.48 225.858 73.216C225.49 73.936 225.306 74.768 225.306 75.712C225.306 76.64 225.49 77.472 225.858 78.208C226.226 78.944 226.738 79.528 227.394 79.96C228.05 80.376 228.81 80.584 229.674 80.584ZM244.125 82.24C243.037 82.24 242.053 81.96 241.173 81.4C240.293 80.824 239.597 80.048 239.085 79.072C238.573 78.08 238.317 76.96 238.317 75.712C238.317 74.448 238.581 73.328 239.109 72.352C239.637 71.376 240.341 70.608 241.221 70.048C242.117 69.488 243.117 69.208 244.221 69.208C244.877 69.208 245.485 69.304 246.045 69.496C246.605 69.688 247.101 69.96 247.533 70.312C247.981 70.648 248.349 71.048 248.637 71.512C248.941 71.96 249.149 72.448 249.261 72.976L248.733 72.712L248.805 69.472H250.605V82H248.781V78.928L249.261 78.616C249.149 79.096 248.933 79.56 248.613 80.008C248.293 80.44 247.901 80.824 247.437 81.16C246.989 81.496 246.477 81.76 245.901 81.952C245.341 82.144 244.749 82.24 244.125 82.24ZM244.533 80.512C245.365 80.512 246.109 80.312 246.765 79.912C247.421 79.496 247.933 78.928 248.301 78.208C248.685 77.472 248.877 76.64 248.877 75.712C248.877 74.784 248.685 73.96 248.301 73.24C247.933 72.52 247.421 71.952 246.765 71.536C246.109 71.12 245.365 70.912 244.533 70.912C243.685 70.912 242.933 71.12 242.277 71.536C241.637 71.952 241.125 72.52 240.741 73.24C240.373 73.96 240.189 74.784 240.189 75.712C240.189 76.624 240.373 77.448 240.741 78.184C241.109 78.904 241.621 79.472 242.277 79.888C242.933 80.304 243.685 80.512 244.533 80.512Z" fill="url(#paint1_linear_1730_8220)"/>
<defs>
<linearGradient id="paint0_linear_1730_8220" x1="143" y1="23.25" x2="108.5" y2="23.25" gradientUnits="userSpaceOnUse">
<stop stop-color="#43A3D5"/>
<stop offset="1" stop-color="#9C60DA"/>
</linearGradient>
<linearGradient id="paint1_linear_1730_8220" x1="252.5" y1="73" x2="0.5" y2="73" gradientUnits="userSpaceOnUse">
<stop stop-color="#43A3D5"/>
<stop offset="1" stop-color="#9C60DA"/>
</linearGradient>
</defs>
</svg>
