<svg width="186" height="40" viewBox="0 0 186 40" fill="none" xmlns="http://www.w3.org/2000/svg">
<path d="M166 0.5C176.77 0.5 185.5 9.23045 185.5 20C185.5 30.7696 176.77 39.5 166 39.5H0.5V0.5H166Z" fill="#100D1E"/>
<path d="M166 0.5C176.77 0.5 185.5 9.23045 185.5 20C185.5 30.7696 176.77 39.5 166 39.5H0.5V0.5H166Z" stroke="url(#paint0_linear_470_5395)"/>
<path d="M22.0386 26V14.8H28.8226V16.016H23.2866V24.784H28.7906V26H22.0386ZM22.6146 20.848V19.632H27.9266V20.848H22.6146ZM33.8728 26.16C33.1581 26.16 32.5181 26.0267 31.9528 25.76C31.3874 25.4933 30.9394 25.1413 30.6088 24.704L31.4568 23.968C31.7661 24.3413 32.1288 24.624 32.5448 24.816C32.9714 25.008 33.4461 25.104 33.9688 25.104C34.2354 25.104 34.4754 25.0773 34.6888 25.024C34.9021 24.96 35.0888 24.8693 35.2488 24.752C35.4088 24.6347 35.5314 24.496 35.6168 24.336C35.7021 24.176 35.7448 24 35.7448 23.808C35.7448 23.456 35.5901 23.1627 35.2808 22.928C35.1421 22.832 34.9448 22.736 34.6888 22.64C34.4328 22.5333 34.1234 22.432 33.7608 22.336C33.1634 22.1653 32.6674 21.9947 32.2728 21.824C31.8781 21.6427 31.5688 21.4347 31.3448 21.2C31.1848 21.008 31.0621 20.8 30.9768 20.576C30.9021 20.352 30.8648 20.1067 30.8648 19.84C30.8648 19.4987 30.9341 19.184 31.0728 18.896C31.2221 18.608 31.4248 18.3573 31.6808 18.144C31.9474 17.92 32.2568 17.7547 32.6088 17.648C32.9714 17.5307 33.3608 17.472 33.7768 17.472C34.1714 17.472 34.5608 17.5253 34.9448 17.632C35.3288 17.7387 35.6861 17.8933 36.0168 18.096C36.3474 18.2987 36.6301 18.5387 36.8648 18.816L36.1288 19.616C35.9261 19.4027 35.7021 19.2107 35.4568 19.04C35.2114 18.8693 34.9501 18.736 34.6727 18.64C34.4061 18.544 34.1288 18.496 33.8408 18.496C33.5848 18.496 33.3448 18.528 33.1208 18.592C32.9074 18.656 32.7208 18.7467 32.5608 18.864C32.4114 18.9707 32.2941 19.104 32.2088 19.264C32.1341 19.424 32.0968 19.6 32.0968 19.792C32.0968 19.952 32.1288 20.096 32.1928 20.224C32.2568 20.352 32.3474 20.464 32.4648 20.56C32.6141 20.6773 32.8221 20.7893 33.0888 20.896C33.3661 20.992 33.7074 21.0933 34.1128 21.2C34.5821 21.328 34.9768 21.4613 35.2968 21.6C35.6274 21.728 35.8994 21.8827 36.1128 22.064C36.4008 22.2773 36.6034 22.5227 36.7208 22.8C36.8488 23.0773 36.9128 23.392 36.9128 23.744C36.9128 24.2133 36.7794 24.6293 36.5128 24.992C36.2568 25.3547 35.8994 25.6427 35.4408 25.856C34.9821 26.0587 34.4594 26.16 33.8728 26.16ZM42.313 26.16C41.5237 26.16 40.8197 25.9733 40.201 25.6C39.5823 25.216 39.0917 24.6987 38.729 24.048C38.377 23.3867 38.201 22.64 38.201 21.808C38.201 20.976 38.377 20.2347 38.729 19.584C39.0917 18.9227 39.5823 18.4053 40.201 18.032C40.8197 17.6587 41.529 17.472 42.329 17.472C43.0437 17.472 43.6943 17.616 44.281 17.904C44.8677 18.1813 45.337 18.5707 45.689 19.072L44.985 19.936C44.7823 19.6693 44.537 19.4347 44.249 19.232C43.9717 19.0293 43.6677 18.8747 43.337 18.768C43.017 18.6507 42.697 18.592 42.377 18.592C41.8117 18.592 41.305 18.736 40.857 19.024C40.409 19.3013 40.0517 19.68 39.785 20.16C39.529 20.64 39.401 21.1893 39.401 21.808C39.401 22.4267 39.529 22.9813 39.785 23.472C40.0517 23.952 40.409 24.3307 40.857 24.608C41.305 24.8853 41.8063 25.024 42.361 25.024C42.681 25.024 42.9957 24.976 43.305 24.88C43.6143 24.7733 43.9077 24.624 44.185 24.432C44.4623 24.24 44.7183 24 44.953 23.712L45.657 24.576C45.2943 25.056 44.809 25.44 44.201 25.728C43.593 26.016 42.9637 26.16 42.313 26.16ZM50.9109 26.16C50.0789 26.16 49.3375 25.9733 48.6869 25.6C48.0469 25.2267 47.5402 24.7093 47.1669 24.048C46.8042 23.3867 46.6229 22.6347 46.6229 21.792C46.6229 20.96 46.8042 20.2187 47.1669 19.568C47.5402 18.9173 48.0469 18.4053 48.6869 18.032C49.3375 17.6587 50.0789 17.472 50.9109 17.472C51.7322 17.472 52.4629 17.6587 53.1029 18.032C53.7535 18.4053 54.2602 18.9173 54.6229 19.568C54.9962 20.2187 55.1829 20.96 55.1829 21.792C55.1829 22.6347 54.9962 23.3867 54.6229 24.048C54.2602 24.7093 53.7535 25.2267 53.1029 25.6C52.4629 25.9733 51.7322 26.16 50.9109 26.16ZM50.9109 25.024C51.4975 25.024 52.0202 24.8853 52.4789 24.608C52.9375 24.32 53.2949 23.936 53.5509 23.456C53.8069 22.9653 53.9349 22.4107 53.9349 21.792C53.9349 21.1733 53.8069 20.624 53.5509 20.144C53.2949 19.664 52.9375 19.2907 52.4789 19.024C52.0202 18.7467 51.4975 18.608 50.9109 18.608C50.3242 18.608 49.7962 18.7467 49.3269 19.024C48.8682 19.2907 48.5055 19.6693 48.2389 20.16C47.9829 20.64 47.8602 21.184 47.8709 21.792C47.8602 22.4107 47.9829 22.9653 48.2389 23.456C48.5055 23.936 48.8682 24.32 49.3269 24.608C49.7962 24.8853 50.3242 25.024 50.9109 25.024ZM56.9656 26V14.16H58.1656V26H56.9656ZM60.5274 26V14.16H61.7274V19.472L61.4874 19.712C61.6047 19.2747 61.8234 18.8907 62.1434 18.56C62.4634 18.2187 62.8367 17.952 63.2634 17.76C63.7007 17.568 64.1434 17.472 64.5914 17.472C65.2314 17.472 65.7647 17.5947 66.1914 17.84C66.618 18.0853 66.9327 18.464 67.1354 18.976C67.3487 19.488 67.4554 20.1387 67.4554 20.928V26H66.2394V20.992C66.2394 20.4373 66.1647 19.984 66.0154 19.632C65.8767 19.2693 65.658 19.0027 65.3594 18.832C65.0607 18.6613 64.6874 18.5813 64.2394 18.592C63.8874 18.592 63.5567 18.656 63.2474 18.784C62.938 18.9013 62.6714 19.0667 62.4474 19.28C62.2234 19.4933 62.0474 19.7387 61.9194 20.016C61.7914 20.2933 61.7274 20.592 61.7274 20.912V26H61.1354C61.0607 26 60.9754 26 60.8794 26C60.7834 26 60.666 26 60.5274 26ZM73.4261 26.16C72.5941 26.16 71.8528 25.9787 71.2021 25.616C70.5621 25.2533 70.0608 24.7467 69.6981 24.096C69.3355 23.4453 69.1541 22.6987 69.1541 21.856C69.1541 21.2053 69.2555 20.6187 69.4581 20.096C69.6608 19.5627 69.9435 19.0987 70.3061 18.704C70.6795 18.3093 71.1221 18.0053 71.6341 17.792C72.1461 17.568 72.7008 17.456 73.2981 17.456C73.8635 17.456 74.3755 17.5573 74.8341 17.76C75.3035 17.9627 75.7035 18.2453 76.0341 18.608C76.3755 18.96 76.6315 19.3813 76.8021 19.872C76.9728 20.3627 77.0475 20.9013 77.0261 21.488L77.0101 22.048H70.0501L69.8741 21.04H76.0981L75.8101 21.312V20.928C75.7888 20.544 75.6768 20.176 75.4741 19.824C75.2715 19.4613 74.9835 19.168 74.6101 18.944C74.2475 18.72 73.8101 18.608 73.2981 18.608C72.7008 18.608 72.1835 18.7307 71.7461 18.976C71.3088 19.2107 70.9728 19.5627 70.7381 20.032C70.5035 20.5013 70.3861 21.0827 70.3861 21.776C70.3861 22.4373 70.5141 23.0133 70.7701 23.504C71.0261 23.984 71.3888 24.3573 71.8581 24.624C72.3381 24.8907 72.9141 25.024 73.5861 25.024C73.9808 25.024 74.3701 24.96 74.7541 24.832C75.1488 24.6933 75.5808 24.4267 76.0501 24.032L76.6741 24.896C76.4288 25.1413 76.1355 25.36 75.7941 25.552C75.4528 25.7333 75.0795 25.8827 74.6741 26C74.2688 26.1067 73.8528 26.16 73.4261 26.16ZM78.7305 26V17.648H79.9305L79.9625 19.872L79.8345 19.568C79.9518 19.1947 80.1385 18.848 80.3945 18.528C80.6612 18.208 80.9758 17.952 81.3385 17.76C81.7012 17.568 82.1012 17.472 82.5385 17.472C82.7198 17.472 82.8905 17.488 83.0505 17.52C83.2105 17.5413 83.3438 17.5733 83.4505 17.616L83.1145 18.96C82.9758 18.896 82.8318 18.8533 82.6825 18.832C82.5438 18.8 82.4105 18.784 82.2825 18.784C81.9198 18.784 81.5945 18.848 81.3065 18.976C81.0185 19.104 80.7732 19.2853 80.5705 19.52C80.3678 19.744 80.2132 20.0053 80.1065 20.304C79.9998 20.6027 79.9465 20.9227 79.9465 21.264V26H78.7305ZM94.3036 26.16C93.5036 26.16 92.7676 26.0213 92.0956 25.744C91.4236 25.456 90.8423 25.056 90.3516 24.544C89.861 24.0213 89.477 23.408 89.1996 22.704C88.933 22 88.7996 21.232 88.7996 20.4C88.7996 19.5787 88.933 18.8267 89.1996 18.144C89.477 17.4507 89.8663 16.848 90.3676 16.336C90.869 15.8133 91.4503 15.4133 92.1116 15.136C92.773 14.8587 93.4983 14.72 94.2876 14.72C94.8103 14.72 95.3276 14.8053 95.8396 14.976C96.3516 15.136 96.821 15.36 97.2476 15.648C97.685 15.936 98.0423 16.2667 98.3196 16.64L97.4556 17.536C97.189 17.216 96.8796 16.9387 96.5276 16.704C96.1863 16.4693 95.8236 16.288 95.4396 16.16C95.0556 16.032 94.6716 15.968 94.2876 15.968C93.6903 15.968 93.1303 16.08 92.6076 16.304C92.0956 16.5173 91.653 16.8213 91.2796 17.216C90.9063 17.6107 90.613 18.08 90.3996 18.624C90.197 19.168 90.0956 19.76 90.0956 20.4C90.0956 21.0613 90.197 21.6693 90.3996 22.224C90.613 22.7787 90.9116 23.2587 91.2956 23.664C91.6903 24.0587 92.149 24.368 92.6716 24.592C93.205 24.8053 93.797 24.912 94.4476 24.912C94.8316 24.912 95.2156 24.8587 95.5996 24.752C95.9836 24.6347 96.3356 24.4747 96.6556 24.272C96.9756 24.0693 97.2476 23.84 97.4716 23.584L98.1116 24.624C97.8663 24.9227 97.5356 25.1893 97.1196 25.424C96.7143 25.648 96.2663 25.8293 95.7756 25.968C95.285 26.096 94.7943 26.16 94.3036 26.16ZM100.028 26V14.16H101.228V26H100.028ZM103.91 26V17.648H105.11V26H103.91ZM104.502 15.84C104.203 15.84 103.974 15.7653 103.814 15.616C103.665 15.456 103.59 15.2427 103.59 14.976C103.59 14.7093 103.67 14.496 103.83 14.336C103.99 14.176 104.214 14.096 104.502 14.096C104.79 14.096 105.014 14.176 105.174 14.336C105.334 14.4853 105.414 14.6987 105.414 14.976C105.414 15.232 105.334 15.44 105.174 15.6C105.014 15.76 104.79 15.84 104.502 15.84ZM111.411 26.16C110.579 26.16 109.837 25.9787 109.187 25.616C108.547 25.2533 108.045 24.7467 107.683 24.096C107.32 23.4453 107.139 22.6987 107.139 21.856C107.139 21.2053 107.24 20.6187 107.443 20.096C107.645 19.5627 107.928 19.0987 108.291 18.704C108.664 18.3093 109.107 18.0053 109.619 17.792C110.131 17.568 110.685 17.456 111.283 17.456C111.848 17.456 112.36 17.5573 112.819 17.76C113.288 17.9627 113.688 18.2453 114.019 18.608C114.36 18.96 114.616 19.3813 114.786 19.872C114.957 20.3627 115.032 20.9013 115.01 21.488L114.995 22.048H108.035L107.859 21.04H114.083L113.795 21.312V20.928C113.773 20.544 113.661 20.176 113.459 19.824C113.256 19.4613 112.968 19.168 112.595 18.944C112.232 18.72 111.795 18.608 111.283 18.608C110.685 18.608 110.168 18.7307 109.731 18.976C109.293 19.2107 108.957 19.5627 108.723 20.032C108.488 20.5013 108.371 21.0827 108.371 21.776C108.371 22.4373 108.499 23.0133 108.755 23.504C109.011 23.984 109.373 24.3573 109.843 24.624C110.323 24.8907 110.899 25.024 111.571 25.024C111.965 25.024 112.355 24.96 112.739 24.832C113.133 24.6933 113.565 24.4267 114.035 24.032L114.659 24.896C114.413 25.1413 114.12 25.36 113.779 25.552C113.437 25.7333 113.064 25.8827 112.659 26C112.253 26.1067 111.837 26.16 111.411 26.16ZM116.715 26V17.648H117.899L117.947 19.392L117.755 19.472C117.862 19.1093 118.07 18.7787 118.379 18.48C118.688 18.1813 119.056 17.9413 119.483 17.76C119.92 17.568 120.368 17.472 120.827 17.472C121.446 17.472 121.963 17.5947 122.379 17.84C122.795 18.0853 123.11 18.464 123.323 18.976C123.536 19.488 123.643 20.1387 123.643 20.928V26H122.427V20.992C122.427 20.4373 122.352 19.984 122.203 19.632C122.064 19.2693 121.846 19.0027 121.547 18.832C121.248 18.6613 120.88 18.5813 120.443 18.592C120.08 18.592 119.744 18.656 119.435 18.784C119.126 18.9013 118.859 19.0667 118.635 19.28C118.411 19.4933 118.235 19.7387 118.107 20.016C117.979 20.2933 117.915 20.592 117.915 20.912V26H117.323C117.248 26 117.163 26 117.067 26C116.971 26 116.854 26 116.715 26ZM127.086 26V15.456H128.286V26H127.086ZM125.198 18.8V17.648H130.398V18.8H125.198ZM135.473 26.16C134.641 26.16 133.9 25.9787 133.249 25.616C132.609 25.2533 132.108 24.7467 131.745 24.096C131.382 23.4453 131.201 22.6987 131.201 21.856C131.201 21.2053 131.302 20.6187 131.505 20.096C131.708 19.5627 131.99 19.0987 132.353 18.704C132.726 18.3093 133.169 18.0053 133.681 17.792C134.193 17.568 134.748 17.456 135.345 17.456C135.91 17.456 136.422 17.5573 136.881 17.76C137.35 17.9627 137.75 18.2453 138.081 18.608C138.422 18.96 138.678 19.3813 138.849 19.872C139.02 20.3627 139.094 20.9013 139.073 21.488L139.057 22.048H132.097L131.921 21.04H138.145L137.857 21.312V20.928C137.836 20.544 137.724 20.176 137.521 19.824C137.318 19.4613 137.03 19.168 136.657 18.944C136.294 18.72 135.857 18.608 135.345 18.608C134.748 18.608 134.23 18.7307 133.793 18.976C133.356 19.2107 133.02 19.5627 132.785 20.032C132.55 20.5013 132.433 21.0827 132.433 21.776C132.433 22.4373 132.561 23.0133 132.817 23.504C133.073 23.984 133.436 24.3573 133.905 24.624C134.385 24.8907 134.961 25.024 135.633 25.024C136.028 25.024 136.417 24.96 136.801 24.832C137.196 24.6933 137.628 24.4267 138.097 24.032L138.721 24.896C138.476 25.1413 138.182 25.36 137.841 25.552C137.5 25.7333 137.126 25.8827 136.721 26C136.316 26.1067 135.9 26.16 135.473 26.16Z" fill="#E1DDF4"/>
<g clip-path="url(#clip0_470_5395)">
<path d="M158 20C156.9 20 155.958 19.6083 155.175 18.825C154.392 18.0417 154 17.1 154 16C154 14.9 154.392 13.9583 155.175 13.175C155.958 12.3917 156.9 12 158 12C159.1 12 160.042 12.3917 160.825 13.175C161.608 13.9583 162 14.9 162 16C162 17.1 161.608 18.0417 160.825 18.825C160.042 19.6083 159.1 20 158 20ZM150 28V25.2C150 24.6333 150.146 24.1127 150.438 23.638C150.73 23.1633 151.117 22.8007 151.6 22.55C152.633 22.0333 153.683 21.646 154.75 21.388C155.817 21.13 156.9 21.0007 158 21C159.1 20.9993 160.183 21.1287 161.25 21.388C162.317 21.6473 163.367 22.0347 164.4 22.55C164.883 22.8 165.271 23.1627 165.563 23.638C165.855 24.1133 166.001 24.634 166 25.2V28H150Z" fill="#E1DDF4"/>
</g>
<defs>
<linearGradient id="paint0_linear_470_5395" x1="186" y1="20" x2="0" y2="20" gradientUnits="userSpaceOnUse">
<stop stop-color="#43A3D5"/>
<stop offset="1" stop-color="#9C60DA"/>
</linearGradient>
<clipPath id="clip0_470_5395">
<rect width="16" height="16" fill="white" transform="translate(150 12)"/>
</clipPath>
</defs>
</svg>
