<svg width="193" height="48" viewBox="0 0 193 48" fill="none" xmlns="http://www.w3.org/2000/svg">
<path d="M6 22.5L18 34.5L40.5 12" stroke="url(#paint0_linear_3205_11055)" stroke-width="6"/>
<path d="M70.576 36.32C68.976 36.32 67.504 36.0427 66.16 35.488C64.816 34.912 63.6533 34.112 62.672 33.088C61.6907 32.0427 60.9227 30.816 60.368 29.408C59.8347 28 59.568 26.464 59.568 24.8C59.568 23.1573 59.8347 21.6533 60.368 20.288C60.9227 18.9013 61.7013 17.696 62.704 16.672C63.7067 15.6267 64.8693 14.8267 66.192 14.272C67.5147 13.7173 68.9653 13.44 70.544 13.44C71.5893 13.44 72.624 13.6107 73.648 13.952C74.672 14.272 75.6107 14.72 76.464 15.296C77.3387 15.872 78.0533 16.5333 78.608 17.28L76.88 19.072C76.3467 18.432 75.728 17.8773 75.024 17.408C74.3413 16.9387 73.616 16.576 72.848 16.32C72.08 16.064 71.312 15.936 70.544 15.936C69.3493 15.936 68.2293 16.16 67.184 16.608C66.16 17.0347 65.2747 17.6427 64.528 18.432C63.7813 19.2213 63.1947 20.16 62.768 21.248C62.3627 22.336 62.16 23.52 62.16 24.8C62.16 26.1227 62.3627 27.3387 62.768 28.448C63.1947 29.5573 63.792 30.5173 64.56 31.328C65.3493 32.1173 66.2667 32.736 67.312 33.184C68.3787 33.6107 69.5627 33.824 70.864 33.824C71.632 33.824 72.4 33.7173 73.168 33.504C73.936 33.2693 74.64 32.9493 75.28 32.544C75.92 32.1387 76.464 31.68 76.912 31.168L78.192 33.248C77.7013 33.8453 77.04 34.3787 76.208 34.848C75.3973 35.296 74.5013 35.6587 73.52 35.936C72.5387 36.192 71.5573 36.32 70.576 36.32ZM81.961 36V12.32H84.361V22.944L83.881 23.424C84.1157 22.5493 84.553 21.7813 85.193 21.12C85.833 20.4373 86.5797 19.904 87.433 19.52C88.3077 19.136 89.193 18.944 90.089 18.944C91.369 18.944 92.4357 19.1893 93.289 19.68C94.1423 20.1707 94.7717 20.928 95.177 21.952C95.6037 22.976 95.817 24.2773 95.817 25.856V36H93.385V25.984C93.385 24.8747 93.2357 23.968 92.937 23.264C92.6597 22.5387 92.2223 22.0053 91.625 21.664C91.0277 21.3227 90.281 21.1627 89.385 21.184C88.681 21.184 88.0197 21.312 87.401 21.568C86.7823 21.8027 86.249 22.1333 85.801 22.56C85.353 22.9867 85.001 23.4773 84.745 24.032C84.489 24.5867 84.361 25.184 84.361 25.824V36H83.177C83.0277 36 82.857 36 82.665 36C82.473 36 82.2383 36 81.961 36ZM107.759 36.32C106.095 36.32 104.612 35.9573 103.311 35.232C102.031 34.5067 101.028 33.4933 100.303 32.192C99.5772 30.8907 99.2145 29.3973 99.2145 27.712C99.2145 26.4107 99.4172 25.2373 99.8225 24.192C100.228 23.1253 100.793 22.1973 101.519 21.408C102.265 20.6187 103.151 20.0107 104.175 19.584C105.199 19.136 106.308 18.912 107.503 18.912C108.633 18.912 109.657 19.1147 110.575 19.52C111.513 19.9253 112.313 20.4907 112.975 21.216C113.657 21.92 114.169 22.7627 114.51 23.744C114.852 24.7253 115.001 25.8027 114.958 26.976L114.927 28.096H101.007L100.655 26.08H113.103L112.527 26.624V25.856C112.484 25.088 112.26 24.352 111.855 23.648C111.449 22.9227 110.873 22.336 110.127 21.888C109.401 21.44 108.527 21.216 107.503 21.216C106.308 21.216 105.273 21.4613 104.399 21.952C103.524 22.4213 102.852 23.1253 102.383 24.064C101.913 25.0027 101.679 26.1653 101.679 27.552C101.679 28.8747 101.935 30.0267 102.447 31.008C102.959 31.968 103.684 32.7147 104.623 33.248C105.583 33.7813 106.735 34.048 108.079 34.048C108.868 34.048 109.647 33.92 110.415 33.664C111.204 33.3867 112.068 32.8533 113.007 32.064L114.255 33.792C113.764 34.2827 113.177 34.72 112.495 35.104C111.812 35.4667 111.065 35.7653 110.255 36C109.444 36.2133 108.612 36.32 107.759 36.32ZM125.407 36.32C123.829 36.32 122.421 35.9467 121.183 35.2C119.946 34.432 118.965 33.3973 118.239 32.096C117.535 30.7733 117.183 29.28 117.183 27.616C117.183 25.952 117.535 24.4693 118.239 23.168C118.965 21.8453 119.946 20.8107 121.183 20.064C122.421 19.3173 123.839 18.944 125.439 18.944C126.869 18.944 128.17 19.232 129.343 19.808C130.517 20.3627 131.455 21.1413 132.159 22.144L130.751 23.872C130.346 23.3387 129.855 22.8693 129.279 22.464C128.725 22.0587 128.117 21.7493 127.455 21.536C126.815 21.3013 126.175 21.184 125.535 21.184C124.405 21.184 123.391 21.472 122.495 22.048C121.599 22.6027 120.885 23.36 120.351 24.32C119.839 25.28 119.583 26.3787 119.583 27.616C119.583 28.8533 119.839 29.9627 120.351 30.944C120.885 31.904 121.599 32.6613 122.495 33.216C123.391 33.7707 124.394 34.048 125.503 34.048C126.143 34.048 126.773 33.952 127.391 33.76C128.01 33.5467 128.597 33.248 129.151 32.864C129.706 32.48 130.218 32 130.687 31.424L132.095 33.152C131.37 34.112 130.399 34.88 129.183 35.456C127.967 36.032 126.709 36.32 125.407 36.32ZM137.355 30.624L137.259 27.84L145.995 19.296H149.227L137.355 30.624ZM135.211 36V12.32H137.611V36H135.211ZM146.667 36L139.627 27.84L141.323 26.176L149.803 36H146.667ZM152.338 36V12.32H154.738V36H152.338ZM160.101 36V19.296H162.501V36H160.101ZM161.285 15.68C160.688 15.68 160.229 15.5307 159.909 15.232C159.61 14.912 159.461 14.4853 159.461 13.952C159.461 13.4187 159.621 12.992 159.941 12.672C160.261 12.352 160.709 12.192 161.285 12.192C161.861 12.192 162.309 12.352 162.629 12.672C162.949 12.9707 163.109 13.3973 163.109 13.952C163.109 14.464 162.949 14.88 162.629 15.2C162.309 15.52 161.861 15.68 161.285 15.68ZM173.214 36.32C171.785 36.32 170.505 36.0533 169.374 35.52C168.244 34.9867 167.348 34.2827 166.686 33.408L168.382 31.936C169.001 32.6827 169.726 33.248 170.558 33.632C171.412 34.016 172.361 34.208 173.406 34.208C173.94 34.208 174.42 34.1547 174.846 34.048C175.273 33.92 175.646 33.7387 175.966 33.504C176.286 33.2693 176.532 32.992 176.702 32.672C176.873 32.352 176.958 32 176.958 31.616C176.958 30.912 176.649 30.3253 176.03 29.856C175.753 29.664 175.358 29.472 174.846 29.28C174.334 29.0667 173.716 28.864 172.99 28.672C171.796 28.3307 170.804 27.9893 170.014 27.648C169.225 27.2853 168.606 26.8693 168.158 26.4C167.838 26.016 167.593 25.6 167.422 25.152C167.273 24.704 167.198 24.2133 167.198 23.68C167.198 22.9973 167.337 22.368 167.614 21.792C167.913 21.216 168.318 20.7147 168.83 20.288C169.364 19.84 169.982 19.5093 170.686 19.296C171.412 19.0613 172.19 18.944 173.022 18.944C173.812 18.944 174.59 19.0507 175.358 19.264C176.126 19.4773 176.841 19.7867 177.502 20.192C178.164 20.5973 178.729 21.0773 179.198 21.632L177.726 23.232C177.321 22.8053 176.873 22.4213 176.382 22.08C175.892 21.7387 175.369 21.472 174.814 21.28C174.281 21.088 173.726 20.992 173.15 20.992C172.638 20.992 172.158 21.056 171.71 21.184C171.284 21.312 170.91 21.4933 170.59 21.728C170.292 21.9413 170.057 22.208 169.886 22.528C169.737 22.848 169.662 23.2 169.662 23.584C169.662 23.904 169.726 24.192 169.854 24.448C169.982 24.704 170.164 24.928 170.398 25.12C170.697 25.3547 171.113 25.5787 171.646 25.792C172.201 25.984 172.884 26.1867 173.694 26.4C174.633 26.656 175.422 26.9227 176.062 27.2C176.724 27.456 177.268 27.7653 177.694 28.128C178.27 28.5547 178.676 29.0453 178.91 29.6C179.166 30.1547 179.294 30.784 179.294 31.488C179.294 32.4267 179.028 33.2587 178.494 33.984C177.982 34.7093 177.268 35.2853 176.35 35.712C175.433 36.1173 174.388 36.32 173.214 36.32ZM185.359 36V14.912H187.759V36H185.359ZM181.583 21.6V19.296H191.983V21.6H181.583Z" fill="url(#paint1_linear_3205_11055)"/>
<defs>
<linearGradient id="paint0_linear_3205_11055" x1="40.5" y1="23.25" x2="6" y2="23.25" gradientUnits="userSpaceOnUse">
<stop stop-color="#43A3D5"/>
<stop offset="1" stop-color="#9C60DA"/>
</linearGradient>
<linearGradient id="paint1_linear_3205_11055" x1="193" y1="24" x2="58" y2="24" gradientUnits="userSpaceOnUse">
<stop stop-color="#43A3D5"/>
<stop offset="1" stop-color="#9C60DA"/>
</linearGradient>
</defs>
</svg>
