<svg width="264" height="40" viewBox="0 0 264 40" fill="none" xmlns="http://www.w3.org/2000/svg">
<path d="M22.0156 24.8866C16.7275 24.8866 12.4443 27.0281 12.4443 29.6722V32.065H31.5869V29.6722C31.5869 27.0281 27.3037 24.8866 22.0156 24.8866ZM17.23 17.7081C17.23 18.9773 17.7342 20.1946 18.6316 21.0921C19.5291 21.9895 20.7464 22.4937 22.0156 22.4937C23.2848 22.4937 24.5021 21.9895 25.3996 21.0921C26.297 20.1946 26.8012 18.9773 26.8012 17.7081M21.4174 9.33325C21.0585 9.33325 20.8192 9.5845 20.8192 9.93146V13.5207H19.6228V10.5297C19.6228 10.5297 16.9309 11.5586 16.9309 15.0162C16.9309 15.0162 16.0336 15.1837 16.0336 16.5117H27.9976C27.9378 15.1837 27.1003 15.0162 27.1003 15.0162C27.1003 11.5586 24.4084 10.5297 24.4084 10.5297V13.5207H23.212V9.93146C23.212 9.5845 22.9847 9.33325 22.6138 9.33325H21.4174Z" fill="#9C60DA"/>
<path d="M9.57129 21.3315C13.0077 21.3315 16.019 22.2363 17.707 23.5952C16.5807 23.8624 15.5434 24.2339 14.6387 24.6978C13.0897 25.4919 11.5799 26.7614 11.1025 28.5093H0V26.1167C7.41538e-05 23.4727 4.28321 21.3315 9.57129 21.3315ZM14.3564 14.1528C14.3564 15.422 13.8525 16.6392 12.9551 17.5366C12.0576 18.4341 10.8405 18.938 9.57129 18.938C8.3021 18.938 7.08497 18.434 6.1875 17.5366C5.29005 16.6392 4.78519 15.422 4.78516 14.1528H14.3564ZM10.1699 5.77783C10.5405 5.77804 10.7676 6.02965 10.7676 6.37646V9.96533H11.9639V6.97412C11.9639 6.97412 14.6561 8.00309 14.6562 11.4604C14.6702 11.4633 15.4944 11.6397 15.5537 12.9565H3.58887C3.58887 11.638 4.47374 11.4629 4.48633 11.4604C4.48649 8.00309 7.17871 6.97412 7.17871 6.97412V9.96533H8.375V6.37646C8.375 6.02964 8.61396 5.77802 8.97266 5.77783H10.1699Z" fill="#9C60DA"/>
<path d="M54.576 32.32C52.976 32.32 51.504 32.0427 50.16 31.488C48.816 30.912 47.6533 30.112 46.672 29.088C45.6907 28.0427 44.9227 26.816 44.368 25.408C43.8347 24 43.568 22.464 43.568 20.8C43.568 19.1573 43.8347 17.6533 44.368 16.288C44.9227 14.9013 45.7013 13.696 46.704 12.672C47.7067 11.6267 48.8693 10.8267 50.192 10.272C51.5147 9.71733 52.9653 9.44 54.544 9.44C55.5893 9.44 56.624 9.61067 57.648 9.952C58.672 10.272 59.6107 10.72 60.464 11.296C61.3387 11.872 62.0533 12.5333 62.608 13.28L60.88 15.072C60.3467 14.432 59.728 13.8773 59.024 13.408C58.3413 12.9387 57.616 12.576 56.848 12.32C56.08 12.064 55.312 11.936 54.544 11.936C53.3493 11.936 52.2293 12.16 51.184 12.608C50.16 13.0347 49.2747 13.6427 48.528 14.432C47.7813 15.2213 47.1947 16.16 46.768 17.248C46.3627 18.336 46.16 19.52 46.16 20.8C46.16 22.1227 46.3627 23.3387 46.768 24.448C47.1947 25.5573 47.792 26.5173 48.56 27.328C49.3493 28.1173 50.2667 28.736 51.312 29.184C52.3787 29.6107 53.5627 29.824 54.864 29.824C55.632 29.824 56.4 29.7173 57.168 29.504C57.936 29.2693 58.64 28.9493 59.28 28.544C59.92 28.1387 60.464 27.68 60.912 27.168L62.192 29.248C61.7013 29.8453 61.04 30.3787 60.208 30.848C59.3973 31.296 58.5013 31.6587 57.52 31.936C56.5387 32.192 55.5573 32.32 54.576 32.32ZM73.353 32.32C71.689 32.32 70.2063 31.9467 68.905 31.2C67.625 30.4533 66.6117 29.4187 65.865 28.096C65.1397 26.7733 64.777 25.2693 64.777 23.584C64.777 21.92 65.1397 20.4373 65.865 19.136C66.6117 17.8347 67.625 16.8107 68.905 16.064C70.2063 15.3173 71.689 14.944 73.353 14.944C74.9957 14.944 76.457 15.3173 77.737 16.064C79.0383 16.8107 80.0517 17.8347 80.777 19.136C81.5237 20.4373 81.897 21.92 81.897 23.584C81.897 25.2693 81.5237 26.7733 80.777 28.096C80.0517 29.4187 79.0383 30.4533 77.737 31.2C76.457 31.9467 74.9957 32.32 73.353 32.32ZM73.353 30.048C74.5263 30.048 75.5717 29.7707 76.489 29.216C77.4063 28.64 78.121 27.872 78.633 26.912C79.145 25.9307 79.401 24.8213 79.401 23.584C79.401 22.3467 79.145 21.248 78.633 20.288C78.121 19.328 77.4063 18.5813 76.489 18.048C75.5717 17.4933 74.5263 17.216 73.353 17.216C72.1797 17.216 71.1237 17.4933 70.185 18.048C69.2677 18.5813 68.5423 19.3387 68.009 20.32C67.497 21.28 67.2517 22.368 67.273 23.584C67.2517 24.8213 67.497 25.9307 68.009 26.912C68.5423 27.872 69.2677 28.64 70.185 29.216C71.1237 29.7707 72.1797 30.048 73.353 30.048ZM85.4625 32V8.32H87.8625V32H85.4625ZM98.8015 32.32C97.3508 32.32 96.0388 31.9467 94.8655 31.2C93.6922 30.432 92.7642 29.3973 92.0815 28.096C91.3988 26.7733 91.0575 25.28 91.0575 23.616C91.0575 21.9307 91.4095 20.4373 92.1135 19.136C92.8175 17.8347 93.7562 16.8107 94.9295 16.064C96.1242 15.3173 97.4575 14.944 98.9295 14.944C99.8042 14.944 100.615 15.072 101.362 15.328C102.108 15.584 102.77 15.9467 103.346 16.416C103.943 16.864 104.434 17.3973 104.818 18.016C105.223 18.6133 105.5 19.264 105.65 19.968L104.946 19.616L105.042 15.296H107.442V32H105.01V27.904L105.65 27.488C105.5 28.128 105.212 28.7467 104.786 29.344C104.359 29.92 103.836 30.432 103.218 30.88C102.62 31.328 101.938 31.68 101.17 31.936C100.423 32.192 99.6335 32.32 98.8015 32.32ZM99.3455 30.016C100.455 30.016 101.447 29.7493 102.322 29.216C103.196 28.6613 103.879 27.904 104.37 26.944C104.882 25.9627 105.138 24.8533 105.138 23.616C105.138 22.3787 104.882 21.28 104.37 20.32C103.879 19.36 103.196 18.6027 102.322 18.048C101.447 17.4933 100.455 17.216 99.3455 17.216C98.2148 17.216 97.2122 17.4933 96.3375 18.048C95.4842 18.6027 94.8015 19.36 94.2895 20.32C93.7988 21.28 93.5535 22.3787 93.5535 23.616C93.5535 24.832 93.7988 25.9307 94.2895 26.912C94.7802 27.872 95.4628 28.6293 96.3375 29.184C97.2122 29.7387 98.2148 30.016 99.3455 30.016ZM120.597 32.32C119.808 32.32 119.04 32.2027 118.293 31.968C117.547 31.712 116.864 31.3707 116.245 30.944C115.648 30.5173 115.136 30.0267 114.709 29.472C114.304 28.9173 114.027 28.3413 113.877 27.744L114.581 27.776L114.485 31.968H112.117V8.32H114.517V19.296L114.037 19.424C114.187 18.8267 114.453 18.2613 114.837 17.728C115.243 17.1733 115.744 16.6933 116.341 16.288C116.939 15.8613 117.589 15.5307 118.293 15.296C119.019 15.0613 119.765 14.944 120.533 14.944C122.027 14.944 123.36 15.3173 124.533 16.064C125.728 16.8107 126.677 17.8347 127.381 19.136C128.085 20.4373 128.437 21.9307 128.437 23.616C128.437 25.3013 128.096 26.8053 127.413 28.128C126.731 29.4293 125.792 30.4533 124.597 31.2C123.424 31.9467 122.091 32.32 120.597 32.32ZM120.213 30.048C121.344 30.048 122.347 29.7707 123.221 29.216C124.096 28.64 124.779 27.872 125.269 26.912C125.781 25.9307 126.037 24.832 126.037 23.616C126.037 22.3787 125.781 21.28 125.269 20.32C124.779 19.36 124.096 18.6027 123.221 18.048C122.347 17.4933 121.344 17.216 120.213 17.216C119.083 17.216 118.08 17.4933 117.205 18.048C116.331 18.6027 115.637 19.36 115.125 20.32C114.635 21.28 114.389 22.3787 114.389 23.616C114.389 24.8533 114.635 25.9627 115.125 26.944C115.637 27.904 116.331 28.6613 117.205 29.216C118.08 29.7707 119.083 30.048 120.213 30.048ZM139.322 32.32C137.658 32.32 136.175 31.9467 134.874 31.2C133.594 30.4533 132.58 29.4187 131.834 28.096C131.108 26.7733 130.746 25.2693 130.746 23.584C130.746 21.92 131.108 20.4373 131.834 19.136C132.58 17.8347 133.594 16.8107 134.874 16.064C136.175 15.3173 137.658 14.944 139.322 14.944C140.964 14.944 142.426 15.3173 143.706 16.064C145.007 16.8107 146.02 17.8347 146.746 19.136C147.492 20.4373 147.866 21.92 147.866 23.584C147.866 25.2693 147.492 26.7733 146.746 28.096C146.02 29.4187 145.007 30.4533 143.706 31.2C142.426 31.9467 140.964 32.32 139.322 32.32ZM139.322 30.048C140.495 30.048 141.54 29.7707 142.458 29.216C143.375 28.64 144.09 27.872 144.602 26.912C145.114 25.9307 145.37 24.8213 145.37 23.584C145.37 22.3467 145.114 21.248 144.602 20.288C144.09 19.328 143.375 18.5813 142.458 18.048C141.54 17.4933 140.495 17.216 139.322 17.216C138.148 17.216 137.092 17.4933 136.154 18.048C135.236 18.5813 134.511 19.3387 133.978 20.32C133.466 21.28 133.22 22.368 133.242 23.584C133.22 24.8213 133.466 25.9307 133.978 26.912C134.511 27.872 135.236 28.64 136.154 29.216C137.092 29.7707 138.148 30.048 139.322 30.048ZM151.367 32V15.296H153.767L153.831 19.744L153.575 19.136C153.81 18.3893 154.183 17.696 154.695 17.056C155.229 16.416 155.858 15.904 156.583 15.52C157.309 15.136 158.109 14.944 158.983 14.944C159.346 14.944 159.687 14.976 160.007 15.04C160.327 15.0827 160.594 15.1467 160.807 15.232L160.135 17.92C159.858 17.792 159.57 17.7067 159.271 17.664C158.994 17.6 158.727 17.568 158.471 17.568C157.746 17.568 157.095 17.696 156.519 17.952C155.943 18.208 155.453 18.5707 155.047 19.04C154.642 19.488 154.333 20.0107 154.119 20.608C153.906 21.2053 153.799 21.8453 153.799 22.528V32H151.367ZM169.114 32.32C167.663 32.32 166.351 31.9467 165.178 31.2C164.005 30.432 163.077 29.3973 162.394 28.096C161.711 26.7733 161.37 25.28 161.37 23.616C161.37 21.9307 161.722 20.4373 162.426 19.136C163.13 17.8347 164.069 16.8107 165.242 16.064C166.437 15.3173 167.77 14.944 169.242 14.944C170.117 14.944 170.927 15.072 171.674 15.328C172.421 15.584 173.082 15.9467 173.658 16.416C174.255 16.864 174.746 17.3973 175.13 18.016C175.535 18.6133 175.813 19.264 175.962 19.968L175.258 19.616L175.354 15.296H177.754V32H175.322V27.904L175.962 27.488C175.813 28.128 175.525 28.7467 175.098 29.344C174.671 29.92 174.149 30.432 173.53 30.88C172.933 31.328 172.25 31.68 171.482 31.936C170.735 32.192 169.946 32.32 169.114 32.32ZM169.658 30.016C170.767 30.016 171.759 29.7493 172.634 29.216C173.509 28.6613 174.191 27.904 174.682 26.944C175.194 25.9627 175.45 24.8533 175.45 23.616C175.45 22.3787 175.194 21.28 174.682 20.32C174.191 19.36 173.509 18.6027 172.634 18.048C171.759 17.4933 170.767 17.216 169.658 17.216C168.527 17.216 167.525 17.4933 166.65 18.048C165.797 18.6027 165.114 19.36 164.602 20.32C164.111 21.28 163.866 22.3787 163.866 23.616C163.866 24.832 164.111 25.9307 164.602 26.912C165.093 27.872 165.775 28.6293 166.65 29.184C167.525 29.7387 168.527 30.016 169.658 30.016ZM189.214 32.32C187.699 32.32 186.334 31.9467 185.118 31.2C183.923 30.4533 182.974 29.4293 182.27 28.128C181.587 26.8053 181.246 25.312 181.246 23.648C181.246 21.9627 181.598 20.4693 182.302 19.168C183.006 17.8453 183.955 16.8107 185.15 16.064C186.344 15.3173 187.688 14.944 189.182 14.944C190.014 14.944 190.814 15.072 191.582 15.328C192.371 15.584 193.075 15.9467 193.694 16.416C194.312 16.864 194.824 17.3867 195.23 17.984C195.635 18.56 195.88 19.168 195.966 19.808L195.23 19.552V8.32H197.63V32H195.262L195.198 27.84L195.806 27.616C195.72 28.2133 195.475 28.8 195.07 29.376C194.686 29.9307 194.195 30.432 193.598 30.88C193 31.328 192.318 31.68 191.55 31.936C190.803 32.192 190.024 32.32 189.214 32.32ZM189.566 30.112C190.675 30.112 191.667 29.8347 192.542 29.28C193.416 28.7253 194.099 27.9573 194.59 26.976C195.102 25.9947 195.358 24.8747 195.358 23.616C195.358 22.3573 195.102 21.248 194.59 20.288C194.099 19.3067 193.416 18.5387 192.542 17.984C191.667 17.408 190.675 17.12 189.566 17.12C188.414 17.12 187.4 17.408 186.526 17.984C185.672 18.5387 184.99 19.3067 184.478 20.288C183.987 21.248 183.742 22.3573 183.742 23.616C183.742 24.8533 183.987 25.9627 184.478 26.944C184.968 27.9253 185.651 28.704 186.526 29.28C187.4 29.8347 188.414 30.112 189.566 30.112ZM209.697 32.32C208.033 32.32 206.55 31.9467 205.249 31.2C203.969 30.4533 202.955 29.4187 202.209 28.096C201.483 26.7733 201.121 25.2693 201.121 23.584C201.121 21.92 201.483 20.4373 202.209 19.136C202.955 17.8347 203.969 16.8107 205.249 16.064C206.55 15.3173 208.033 14.944 209.697 14.944C211.339 14.944 212.801 15.3173 214.081 16.064C215.382 16.8107 216.395 17.8347 217.121 19.136C217.867 20.4373 218.241 21.92 218.241 23.584C218.241 25.2693 217.867 26.7733 217.121 28.096C216.395 29.4187 215.382 30.4533 214.081 31.2C212.801 31.9467 211.339 32.32 209.697 32.32ZM209.697 30.048C210.87 30.048 211.915 29.7707 212.833 29.216C213.75 28.64 214.465 27.872 214.977 26.912C215.489 25.9307 215.745 24.8213 215.745 23.584C215.745 22.3467 215.489 21.248 214.977 20.288C214.465 19.328 213.75 18.5813 212.833 18.048C211.915 17.4933 210.87 17.216 209.697 17.216C208.523 17.216 207.467 17.4933 206.529 18.048C205.611 18.5813 204.886 19.3387 204.353 20.32C203.841 21.28 203.595 22.368 203.617 23.584C203.595 24.8213 203.841 25.9307 204.353 26.912C204.886 27.872 205.611 28.64 206.529 29.216C207.467 29.7707 208.523 30.048 209.697 30.048ZM221.742 32V15.296H224.142L224.206 19.744L223.95 19.136C224.185 18.3893 224.558 17.696 225.07 17.056C225.604 16.416 226.233 15.904 226.958 15.52C227.684 15.136 228.484 14.944 229.358 14.944C229.721 14.944 230.062 14.976 230.382 15.04C230.702 15.0827 230.969 15.1467 231.182 15.232L230.51 17.92C230.233 17.792 229.945 17.7067 229.646 17.664C229.369 17.6 229.102 17.568 228.846 17.568C228.121 17.568 227.47 17.696 226.894 17.952C226.318 18.208 225.828 18.5707 225.422 19.04C225.017 19.488 224.708 20.0107 224.494 20.608C224.281 21.2053 224.174 21.8453 224.174 22.528V32H221.742ZM240.321 32.32C238.657 32.32 237.174 31.9573 235.873 31.232C234.593 30.5067 233.59 29.4933 232.865 28.192C232.14 26.8907 231.777 25.3973 231.777 23.712C231.777 22.4107 231.98 21.2373 232.385 20.192C232.79 19.1253 233.356 18.1973 234.081 17.408C234.828 16.6187 235.713 16.0107 236.737 15.584C237.761 15.136 238.87 14.912 240.065 14.912C241.196 14.912 242.22 15.1147 243.137 15.52C244.076 15.9253 244.876 16.4907 245.537 17.216C246.22 17.92 246.732 18.7627 247.073 19.744C247.414 20.7253 247.564 21.8027 247.521 22.976L247.489 24.096H233.569L233.217 22.08H245.665L245.089 22.624V21.856C245.046 21.088 244.822 20.352 244.417 19.648C244.012 18.9227 243.436 18.336 242.689 17.888C241.964 17.44 241.089 17.216 240.065 17.216C238.87 17.216 237.836 17.4613 236.961 17.952C236.086 18.4213 235.414 19.1253 234.945 20.064C234.476 21.0027 234.241 22.1653 234.241 23.552C234.241 24.8747 234.497 26.0267 235.009 27.008C235.521 27.968 236.246 28.7147 237.185 29.248C238.145 29.7813 239.297 30.048 240.641 30.048C241.43 30.048 242.209 29.92 242.977 29.664C243.766 29.3867 244.63 28.8533 245.569 28.064L246.817 29.792C246.326 30.2827 245.74 30.72 245.057 31.104C244.374 31.4667 243.628 31.7653 242.817 32C242.006 32.2133 241.174 32.32 240.321 32.32ZM256.402 32.32C254.972 32.32 253.692 32.0533 252.562 31.52C251.431 30.9867 250.535 30.2827 249.874 29.408L251.57 27.936C252.188 28.6827 252.914 29.248 253.746 29.632C254.599 30.016 255.548 30.208 256.594 30.208C257.127 30.208 257.607 30.1547 258.034 30.048C258.46 29.92 258.834 29.7387 259.154 29.504C259.474 29.2693 259.719 28.992 259.89 28.672C260.06 28.352 260.146 28 260.146 27.616C260.146 26.912 259.836 26.3253 259.218 25.856C258.94 25.664 258.546 25.472 258.034 25.28C257.522 25.0667 256.903 24.864 256.178 24.672C254.983 24.3307 253.991 23.9893 253.202 23.648C252.412 23.2853 251.794 22.8693 251.346 22.4C251.026 22.016 250.78 21.6 250.61 21.152C250.46 20.704 250.386 20.2133 250.386 19.68C250.386 18.9973 250.524 18.368 250.802 17.792C251.1 17.216 251.506 16.7147 252.018 16.288C252.551 15.84 253.17 15.5093 253.874 15.296C254.599 15.0613 255.378 14.944 256.21 14.944C256.999 14.944 257.778 15.0507 258.546 15.264C259.314 15.4773 260.028 15.7867 260.69 16.192C261.351 16.5973 261.916 17.0773 262.386 17.632L260.914 19.232C260.508 18.8053 260.06 18.4213 259.57 18.08C259.079 17.7387 258.556 17.472 258.002 17.28C257.468 17.088 256.914 16.992 256.338 16.992C255.826 16.992 255.346 17.056 254.898 17.184C254.471 17.312 254.098 17.4933 253.778 17.728C253.479 17.9413 253.244 18.208 253.074 18.528C252.924 18.848 252.85 19.2 252.85 19.584C252.85 19.904 252.914 20.192 253.042 20.448C253.17 20.704 253.351 20.928 253.586 21.12C253.884 21.3547 254.3 21.5787 254.834 21.792C255.388 21.984 256.071 22.1867 256.882 22.4C257.82 22.656 258.61 22.9227 259.25 23.2C259.911 23.456 260.455 23.7653 260.882 24.128C261.458 24.5547 261.863 25.0453 262.098 25.6C262.354 26.1547 262.482 26.784 262.482 27.488C262.482 28.4267 262.215 29.2587 261.682 29.984C261.17 30.7093 260.455 31.2853 259.538 31.712C258.62 32.1173 257.575 32.32 256.402 32.32Z" fill="url(#paint0_linear_3287_12938)"/>
<defs>
<linearGradient id="paint0_linear_3287_12938" x1="264" y1="20" x2="42" y2="20" gradientUnits="userSpaceOnUse">
<stop stop-color="#43A3D5"/>
<stop offset="1" stop-color="#9C60DA"/>
</linearGradient>
</defs>
</svg>
