<svg width="172" height="40" viewBox="0 0 172 40" fill="none" xmlns="http://www.w3.org/2000/svg">
<rect x="0.5" y="0.5" width="171" height="39" rx="19.5" stroke="#E1DDF4"/>
<path d="M61.7333 26.16C60.9333 26.16 60.1973 26.0213 59.5253 25.744C58.8533 25.456 58.272 25.056 57.7813 24.544C57.2906 24.0213 56.9066 23.408 56.6293 22.704C56.3626 22 56.2293 21.232 56.2293 20.4C56.2293 19.5787 56.3626 18.8267 56.6293 18.144C56.9066 17.4507 57.296 16.848 57.7973 16.336C58.2986 15.8133 58.88 15.4133 59.5413 15.136C60.2026 14.8587 60.928 14.72 61.7173 14.72C62.24 14.72 62.7573 14.8053 63.2693 14.976C63.7813 15.136 64.2506 15.36 64.6773 15.648C65.1146 15.936 65.472 16.2667 65.7493 16.64L64.8853 17.536C64.6186 17.216 64.3093 16.9387 63.9573 16.704C63.616 16.4693 63.2533 16.288 62.8693 16.16C62.4853 16.032 62.1013 15.968 61.7173 15.968C61.12 15.968 60.56 16.08 60.0373 16.304C59.5253 16.5173 59.0826 16.8213 58.7093 17.216C58.336 17.6107 58.0426 18.08 57.8293 18.624C57.6266 19.168 57.5253 19.76 57.5253 20.4C57.5253 21.0613 57.6266 21.6693 57.8293 22.224C58.0426 22.7787 58.3413 23.2587 58.7253 23.664C59.12 24.0587 59.5786 24.368 60.1013 24.592C60.6346 24.8053 61.2266 24.912 61.8773 24.912C62.2613 24.912 62.6453 24.8587 63.0293 24.752C63.4133 24.6347 63.7653 24.4747 64.0853 24.272C64.4053 24.0693 64.6773 23.84 64.9013 23.584L65.5413 24.624C65.296 24.9227 64.9653 25.1893 64.5493 25.424C64.144 25.648 63.696 25.8293 63.2053 25.968C62.7146 26.096 62.224 26.16 61.7333 26.16ZM71.1218 26.16C70.2898 26.16 69.5485 25.9733 68.8978 25.6C68.2578 25.2267 67.7511 24.7093 67.3778 24.048C67.0151 23.3867 66.8338 22.6347 66.8338 21.792C66.8338 20.96 67.0151 20.2187 67.3778 19.568C67.7511 18.9173 68.2578 18.4053 68.8978 18.032C69.5485 17.6587 70.2898 17.472 71.1218 17.472C71.9431 17.472 72.6738 17.6587 73.3138 18.032C73.9645 18.4053 74.4711 18.9173 74.8338 19.568C75.2071 20.2187 75.3938 20.96 75.3938 21.792C75.3938 22.6347 75.2071 23.3867 74.8338 24.048C74.4711 24.7093 73.9645 25.2267 73.3138 25.6C72.6738 25.9733 71.9431 26.16 71.1218 26.16ZM71.1218 25.024C71.7085 25.024 72.2311 24.8853 72.6898 24.608C73.1485 24.32 73.5058 23.936 73.7618 23.456C74.0178 22.9653 74.1458 22.4107 74.1458 21.792C74.1458 21.1733 74.0178 20.624 73.7618 20.144C73.5058 19.664 73.1485 19.2907 72.6898 19.024C72.2311 18.7467 71.7085 18.608 71.1218 18.608C70.5351 18.608 70.0071 18.7467 69.5378 19.024C69.0791 19.2907 68.7165 19.6693 68.4498 20.16C68.1938 20.64 68.0711 21.184 68.0818 21.792C68.0711 22.4107 68.1938 22.9653 68.4498 23.456C68.7165 23.936 69.0791 24.32 69.5378 24.608C70.0071 24.8853 70.5351 25.024 71.1218 25.024ZM77.1446 26V17.648H78.3286L78.3766 19.392L78.1846 19.472C78.2912 19.1093 78.4992 18.7787 78.8086 18.48C79.1179 18.1813 79.4859 17.9413 79.9126 17.76C80.3499 17.568 80.7979 17.472 81.2566 17.472C81.8752 17.472 82.3926 17.5947 82.8086 17.84C83.2246 18.0853 83.5392 18.464 83.7526 18.976C83.9659 19.488 84.0726 20.1387 84.0726 20.928V26H82.8566V20.992C82.8566 20.4373 82.7819 19.984 82.6326 19.632C82.4939 19.2693 82.2752 19.0027 81.9766 18.832C81.6779 18.6613 81.3099 18.5813 80.8726 18.592C80.5099 18.592 80.1739 18.656 79.8646 18.784C79.5552 18.9013 79.2886 19.0667 79.0646 19.28C78.8406 19.4933 78.6646 19.7387 78.5366 20.016C78.4086 20.2933 78.3446 20.592 78.3446 20.912V26H77.7526C77.6779 26 77.5926 26 77.4966 26C77.4006 26 77.2832 26 77.1446 26ZM89.8833 26.16C89.094 26.16 88.39 25.9733 87.7713 25.6C87.1526 25.216 86.662 24.6987 86.2993 24.048C85.9473 23.3867 85.7713 22.64 85.7713 21.808C85.7713 20.976 85.9473 20.2347 86.2993 19.584C86.662 18.9227 87.1526 18.4053 87.7713 18.032C88.39 17.6587 89.0993 17.472 89.8993 17.472C90.614 17.472 91.2646 17.616 91.8513 17.904C92.438 18.1813 92.9073 18.5707 93.2593 19.072L92.5553 19.936C92.3526 19.6693 92.1073 19.4347 91.8193 19.232C91.542 19.0293 91.238 18.8747 90.9073 18.768C90.5873 18.6507 90.2673 18.592 89.9473 18.592C89.382 18.592 88.8753 18.736 88.4273 19.024C87.9793 19.3013 87.622 19.68 87.3553 20.16C87.0993 20.64 86.9713 21.1893 86.9713 21.808C86.9713 22.4267 87.0993 22.9813 87.3553 23.472C87.622 23.952 87.9793 24.3307 88.4273 24.608C88.8753 24.8853 89.3766 25.024 89.9313 25.024C90.2513 25.024 90.566 24.976 90.8753 24.88C91.1846 24.7733 91.478 24.624 91.7553 24.432C92.0326 24.24 92.2886 24 92.5233 23.712L93.2273 24.576C92.8646 25.056 92.3793 25.44 91.7713 25.728C91.1633 26.016 90.534 26.16 89.8833 26.16ZM94.8172 26V14.16H96.0172V26H94.8172ZM101.261 26.16C100.621 26.16 100.077 26.032 99.6288 25.776C99.1915 25.5093 98.8555 25.1253 98.6208 24.624C98.3968 24.1227 98.2848 23.4987 98.2848 22.752V17.648H99.5008V22.512C99.5008 23.0773 99.5755 23.552 99.7248 23.936C99.8848 24.3093 100.119 24.592 100.429 24.784C100.749 24.976 101.138 25.072 101.597 25.072C101.949 25.072 102.274 25.0133 102.573 24.896C102.871 24.768 103.133 24.5973 103.357 24.384C103.581 24.1707 103.757 23.92 103.885 23.632C104.013 23.344 104.077 23.04 104.077 22.72V17.648H105.277V26H104.093L104.045 24.24L104.237 24.144C104.109 24.5173 103.895 24.8587 103.597 25.168C103.298 25.4667 102.941 25.7067 102.525 25.888C102.119 26.0693 101.698 26.16 101.261 26.16ZM107.933 26V17.648H109.133V26H107.933ZM108.525 15.84C108.227 15.84 107.997 15.7653 107.837 15.616C107.688 15.456 107.613 15.2427 107.613 14.976C107.613 14.7093 107.693 14.496 107.853 14.336C108.013 14.176 108.237 14.096 108.525 14.096C108.813 14.096 109.037 14.176 109.197 14.336C109.357 14.4853 109.437 14.6987 109.437 14.976C109.437 15.232 109.357 15.44 109.197 15.6C109.037 15.76 108.813 15.84 108.525 15.84ZM111.754 26V17.648H112.954L112.986 19.872L112.858 19.568C112.975 19.1947 113.162 18.848 113.418 18.528C113.685 18.208 113.999 17.952 114.362 17.76C114.725 17.568 115.125 17.472 115.562 17.472C115.743 17.472 115.914 17.488 116.074 17.52C116.234 17.5413 116.367 17.5733 116.474 17.616L116.138 18.96C115.999 18.896 115.855 18.8533 115.706 18.832C115.567 18.8 115.434 18.784 115.306 18.784C114.943 18.784 114.618 18.848 114.33 18.976C114.042 19.104 113.797 19.2853 113.594 19.52C113.391 19.744 113.237 20.0053 113.13 20.304C113.023 20.6027 112.97 20.9227 112.97 21.264V26H111.754Z" fill="#E1DDF4"/>
</svg>
