<svg width="122" height="40" viewBox="0 0 122 40" fill="none" xmlns="http://www.w3.org/2000/svg">
<rect x="0.5" y="0.5" width="121" height="39" rx="19.5" stroke="#E1DDF4"/>
<path d="M23.6667 28C23.1778 28 22.7594 27.8261 22.4116 27.4782C22.0637 27.1304 21.8895 26.7117 21.8889 26.2222V14.6667H21V12.8889H25.4444V12H30.7778V12.8889H35.2222V14.6667H34.3333V26.2222C34.3333 26.7111 34.1594 27.1298 33.8116 27.4782C33.4637 27.8267 33.045 28.0006 32.5556 28H23.6667ZM32.5556 14.6667H23.6667V26.2222H32.5556V14.6667ZM25.4444 24.4444H27.2222V16.4444H25.4444V24.4444ZM29 24.4444H30.7778V16.4444H29V24.4444Z" fill="#E1DDF4"/>
<path d="M48.1246 26V14.8H52.3486C53.1166 14.8 53.8152 14.9387 54.4446 15.216C55.0846 15.4827 55.6392 15.8667 56.1086 16.368C56.5779 16.8693 56.9406 17.4613 57.1966 18.144C57.4526 18.8267 57.5806 19.5787 57.5806 20.4C57.5806 21.2213 57.4526 21.9787 57.1966 22.672C56.9406 23.3547 56.5779 23.9467 56.1086 24.448C55.6499 24.9387 55.1006 25.3227 54.4606 25.6C53.8206 25.8667 53.1166 26 52.3486 26H48.1246ZM49.3726 25.008L49.2286 24.784H52.2686C52.8552 24.784 53.3939 24.6827 53.8846 24.48C54.3859 24.2667 54.8126 23.968 55.1646 23.584C55.5272 23.1893 55.8046 22.7253 55.9966 22.192C56.1992 21.6587 56.3006 21.0613 56.3006 20.4C56.3006 19.7387 56.1992 19.1413 55.9966 18.608C55.8046 18.0747 55.5272 17.616 55.1646 17.232C54.8019 16.8373 54.3752 16.5387 53.8846 16.336C53.3939 16.1227 52.8552 16.016 52.2686 16.016H49.1806L49.3726 15.824V25.008ZM63.2152 26.16C62.3832 26.16 61.6419 25.9787 60.9912 25.616C60.3512 25.2533 59.8499 24.7467 59.4872 24.096C59.1245 23.4453 58.9432 22.6987 58.9432 21.856C58.9432 21.2053 59.0445 20.6187 59.2472 20.096C59.4499 19.5627 59.7325 19.0987 60.0952 18.704C60.4685 18.3093 60.9112 18.0053 61.4232 17.792C61.9352 17.568 62.4899 17.456 63.0872 17.456C63.6525 17.456 64.1645 17.5573 64.6232 17.76C65.0925 17.9627 65.4925 18.2453 65.8232 18.608C66.1645 18.96 66.4205 19.3813 66.5912 19.872C66.7619 20.3627 66.8365 20.9013 66.8152 21.488L66.7992 22.048H59.8392L59.6632 21.04H65.8872L65.5992 21.312V20.928C65.5779 20.544 65.4659 20.176 65.2632 19.824C65.0605 19.4613 64.7725 19.168 64.3992 18.944C64.0365 18.72 63.5992 18.608 63.0872 18.608C62.4899 18.608 61.9725 18.7307 61.5352 18.976C61.0979 19.2107 60.7619 19.5627 60.5272 20.032C60.2925 20.5013 60.1752 21.0827 60.1752 21.776C60.1752 22.4373 60.3032 23.0133 60.5592 23.504C60.8152 23.984 61.1779 24.3573 61.6472 24.624C62.1272 24.8907 62.7032 25.024 63.3752 25.024C63.7699 25.024 64.1592 24.96 64.5432 24.832C64.9379 24.6933 65.3699 24.4267 65.8392 24.032L66.4632 24.896C66.2179 25.1413 65.9245 25.36 65.5832 25.552C65.2419 25.7333 64.8685 25.8827 64.4632 26C64.0579 26.1067 63.6419 26.16 63.2152 26.16ZM68.5516 26V14.16H69.7516V26H68.5516ZM75.6371 26.16C74.8051 26.16 74.0637 25.9787 73.4131 25.616C72.7731 25.2533 72.2717 24.7467 71.9091 24.096C71.5464 23.4453 71.3651 22.6987 71.3651 21.856C71.3651 21.2053 71.4664 20.6187 71.6691 20.096C71.8717 19.5627 72.1544 19.0987 72.5171 18.704C72.8904 18.3093 73.3331 18.0053 73.8451 17.792C74.3571 17.568 74.9117 17.456 75.5091 17.456C76.0744 17.456 76.5864 17.5573 77.0451 17.76C77.5144 17.9627 77.9144 18.2453 78.2451 18.608C78.5864 18.96 78.8424 19.3813 79.0131 19.872C79.1837 20.3627 79.2584 20.9013 79.2371 21.488L79.2211 22.048H72.2611L72.0851 21.04H78.3091L78.0211 21.312V20.928C77.9997 20.544 77.8877 20.176 77.6851 19.824C77.4824 19.4613 77.1944 19.168 76.8211 18.944C76.4584 18.72 76.0211 18.608 75.5091 18.608C74.9117 18.608 74.3944 18.7307 73.9571 18.976C73.5197 19.2107 73.1837 19.5627 72.9491 20.032C72.7144 20.5013 72.5971 21.0827 72.5971 21.776C72.5971 22.4373 72.7251 23.0133 72.9811 23.504C73.2371 23.984 73.5997 24.3573 74.0691 24.624C74.5491 24.8907 75.1251 25.024 75.7971 25.024C76.1917 25.024 76.5811 24.96 76.9651 24.832C77.3597 24.6933 77.7917 24.4267 78.2611 24.032L78.8851 24.896C78.6397 25.1413 78.3464 25.36 78.0051 25.552C77.6637 25.7333 77.2904 25.8827 76.8851 26C76.4797 26.1067 76.0637 26.16 75.6371 26.16ZM82.0934 26V15.456H83.2934V26H82.0934ZM80.2054 18.8V17.648H85.4054V18.8H80.2054ZM90.0648 26.16C89.3395 26.16 88.6835 25.9733 88.0968 25.6C87.5101 25.216 87.0461 24.6987 86.7048 24.048C86.3635 23.3867 86.1928 22.64 86.1928 21.808C86.1928 20.9653 86.3688 20.2187 86.7208 19.568C87.0728 18.9173 87.5421 18.4053 88.1288 18.032C88.7261 17.6587 89.3928 17.472 90.1288 17.472C90.5661 17.472 90.9715 17.536 91.3448 17.664C91.7181 17.792 92.0488 17.9733 92.3368 18.208C92.6355 18.432 92.8808 18.6987 93.0728 19.008C93.2755 19.3067 93.4141 19.632 93.4888 19.984L93.1368 19.808L93.1848 17.648H94.3848V26H93.1688V23.952L93.4888 23.744C93.4141 24.064 93.2701 24.3733 93.0568 24.672C92.8435 24.96 92.5821 25.216 92.2728 25.44C91.9741 25.664 91.6328 25.84 91.2488 25.968C90.8755 26.096 90.4808 26.16 90.0648 26.16ZM90.3368 25.008C90.8915 25.008 91.3875 24.8747 91.8248 24.608C92.2621 24.3307 92.6035 23.952 92.8488 23.472C93.1048 22.9813 93.2328 22.4267 93.2328 21.808C93.2328 21.1893 93.1048 20.64 92.8488 20.16C92.6035 19.68 92.2621 19.3013 91.8248 19.024C91.3875 18.7467 90.8915 18.608 90.3368 18.608C89.7715 18.608 89.2701 18.7467 88.8328 19.024C88.4061 19.3013 88.0648 19.68 87.8088 20.16C87.5635 20.64 87.4408 21.1893 87.4408 21.808C87.4408 22.416 87.5635 22.9653 87.8088 23.456C88.0541 23.936 88.3955 24.3147 88.8328 24.592C89.2701 24.8693 89.7715 25.008 90.3368 25.008ZM96.7227 26V17.648H97.9227L97.9547 19.872L97.8267 19.568C97.944 19.1947 98.1307 18.848 98.3867 18.528C98.6534 18.208 98.968 17.952 99.3307 17.76C99.6934 17.568 100.093 17.472 100.531 17.472C100.712 17.472 100.883 17.488 101.043 17.52C101.203 17.5413 101.336 17.5733 101.443 17.616L101.107 18.96C100.968 18.896 100.824 18.8533 100.675 18.832C100.536 18.8 100.403 18.784 100.275 18.784C99.912 18.784 99.5867 18.848 99.2987 18.976C99.0107 19.104 98.7654 19.2853 98.5627 19.52C98.36 19.744 98.2054 20.0053 98.0987 20.304C97.992 20.6027 97.9387 20.9227 97.9387 21.264V26H96.7227Z" fill="#E1DDF4"/>
</svg>
