<svg width="213" height="98" viewBox="0 0 213 98" fill="none" xmlns="http://www.w3.org/2000/svg">
<path d="M88.5 22.5L100.5 34.5L123 12" stroke="url(#paint0_linear_930_6167)" stroke-width="6"/>
<path d="M3.31163 90V67.6H16.8796V70.032H5.80763V87.568H16.8156V90H3.31163ZM4.46363 79.696V77.264H15.0876V79.696H4.46363ZM26.2231 90L19.1831 73.296H21.8391L27.4071 86.96L26.7671 87.312L32.8791 73.296H35.4391L27.9511 90H26.2231ZM45.1491 90.32C43.4851 90.32 42.0025 89.9573 40.7011 89.232C39.4211 88.5067 38.4185 87.4933 37.6931 86.192C36.9678 84.8907 36.6051 83.3973 36.6051 81.712C36.6051 80.4107 36.8078 79.2373 37.2131 78.192C37.6185 77.1253 38.1838 76.1973 38.9091 75.408C39.6558 74.6187 40.5411 74.0107 41.5651 73.584C42.5891 73.136 43.6985 72.912 44.8931 72.912C46.0238 72.912 47.0478 73.1147 47.9651 73.52C48.9038 73.9253 49.7038 74.4907 50.3651 75.216C51.0478 75.92 51.5598 76.7627 51.9011 77.744C52.2425 78.7253 52.3918 79.8027 52.3491 80.976L52.3171 82.096H38.3971L38.0451 80.08H50.4931L49.9171 80.624V79.856C49.8745 79.088 49.6505 78.352 49.2451 77.648C48.8398 76.9227 48.2638 76.336 47.5171 75.888C46.7918 75.44 45.9171 75.216 44.8931 75.216C43.6985 75.216 42.6638 75.4613 41.7891 75.952C40.9145 76.4213 40.2425 77.1253 39.7731 78.064C39.3038 79.0027 39.0691 80.1653 39.0691 81.552C39.0691 82.8747 39.3251 84.0267 39.8371 85.008C40.3491 85.968 41.0745 86.7147 42.0131 87.248C42.9731 87.7813 44.1251 88.048 45.4691 88.048C46.2585 88.048 47.0371 87.92 47.8051 87.664C48.5945 87.3867 49.4585 86.8533 50.3971 86.064L51.6451 87.792C51.1545 88.2827 50.5678 88.72 49.8851 89.104C49.2025 89.4667 48.4558 89.7653 47.6451 90C46.8345 90.2133 46.0025 90.32 45.1491 90.32ZM55.7579 90V73.296H58.1259L58.2219 76.784L57.8379 76.944C58.0512 76.2187 58.4672 75.5573 59.0859 74.96C59.7045 74.3627 60.4405 73.8827 61.2939 73.52C62.1685 73.136 63.0645 72.944 63.9819 72.944C65.2192 72.944 66.2539 73.1893 67.0859 73.68C67.9179 74.1707 68.5472 74.928 68.9739 75.952C69.4005 76.976 69.6139 78.2773 69.6139 79.856V90H67.1819V79.984C67.1819 78.8747 67.0325 77.968 66.7339 77.264C66.4565 76.5387 66.0192 76.0053 65.4219 75.664C64.8245 75.3227 64.0885 75.1627 63.2139 75.184C62.4885 75.184 61.8165 75.312 61.1979 75.568C60.5792 75.8027 60.0459 76.1333 59.5979 76.56C59.1499 76.9867 58.7979 77.4773 58.5419 78.032C58.2859 78.5867 58.1579 79.184 58.1579 79.824V90H56.9739C56.8245 90 56.6539 90 56.4619 90C56.2699 90 56.0352 90 55.7579 90ZM76.4994 90V68.912H78.8994V90H76.4994ZM72.7234 75.6V73.296H83.1234V75.6H72.7234ZM93.3061 90.32C91.6421 90.32 90.1595 89.9467 88.8581 89.2C87.5781 88.4533 86.5648 87.4187 85.8181 86.096C85.0928 84.7733 84.7301 83.2693 84.7301 81.584C84.7301 79.92 85.0928 78.4373 85.8181 77.136C86.5648 75.8347 87.5781 74.8107 88.8581 74.064C90.1595 73.3173 91.6421 72.944 93.3061 72.944C94.9488 72.944 96.4101 73.3173 97.6901 74.064C98.9915 74.8107 100.005 75.8347 100.73 77.136C101.477 78.4373 101.85 79.92 101.85 81.584C101.85 83.2693 101.477 84.7733 100.73 86.096C100.005 87.4187 98.9915 88.4533 97.6901 89.2C96.4101 89.9467 94.9488 90.32 93.3061 90.32ZM93.3061 88.048C94.4795 88.048 95.5248 87.7707 96.4421 87.216C97.3595 86.64 98.0741 85.872 98.5861 84.912C99.0981 83.9307 99.3541 82.8213 99.3541 81.584C99.3541 80.3467 99.0981 79.248 98.5861 78.288C98.0741 77.328 97.3595 76.5813 96.4421 76.048C95.5248 75.4933 94.4795 75.216 93.3061 75.216C92.1328 75.216 91.0768 75.4933 90.1381 76.048C89.2208 76.5813 88.4955 77.3387 87.9621 78.32C87.4501 79.28 87.2048 80.368 87.2261 81.584C87.2048 82.8213 87.4501 83.9307 87.9621 84.912C88.4955 85.872 89.2208 86.64 90.1381 87.216C91.0768 87.7707 92.1328 88.048 93.3061 88.048ZM124.56 90.32C122.96 90.32 121.488 90.0427 120.144 89.488C118.8 88.912 117.638 88.112 116.656 87.088C115.675 86.0427 114.907 84.816 114.352 83.408C113.819 82 113.552 80.464 113.552 78.8C113.552 77.1573 113.819 75.6533 114.352 74.288C114.907 72.9013 115.686 71.696 116.688 70.672C117.691 69.6267 118.854 68.8267 120.176 68.272C121.499 67.7173 122.95 67.44 124.528 67.44C125.574 67.44 126.608 67.6107 127.632 67.952C128.656 68.272 129.595 68.72 130.448 69.296C131.323 69.872 132.038 70.5333 132.592 71.28L130.864 73.072C130.331 72.432 129.712 71.8773 129.008 71.408C128.326 70.9387 127.6 70.576 126.832 70.32C126.064 70.064 125.296 69.936 124.528 69.936C123.334 69.936 122.214 70.16 121.168 70.608C120.144 71.0347 119.259 71.6427 118.512 72.432C117.766 73.2213 117.179 74.16 116.752 75.248C116.347 76.336 116.144 77.52 116.144 78.8C116.144 80.1227 116.347 81.3387 116.752 82.448C117.179 83.5573 117.776 84.5173 118.544 85.328C119.334 86.1173 120.251 86.736 121.296 87.184C122.363 87.6107 123.547 87.824 124.848 87.824C125.616 87.824 126.384 87.7173 127.152 87.504C127.92 87.2693 128.624 86.9493 129.264 86.544C129.904 86.1387 130.448 85.68 130.896 85.168L132.176 87.248C131.686 87.8453 131.024 88.3787 130.192 88.848C129.382 89.296 128.486 89.6587 127.504 89.936C126.523 90.192 125.542 90.32 124.56 90.32ZM135.945 90V73.296H138.345L138.409 77.744L138.153 77.136C138.388 76.3893 138.761 75.696 139.273 75.056C139.807 74.416 140.436 73.904 141.161 73.52C141.887 73.136 142.687 72.944 143.561 72.944C143.924 72.944 144.265 72.976 144.585 73.04C144.905 73.0827 145.172 73.1467 145.385 73.232L144.713 75.92C144.436 75.792 144.148 75.7067 143.849 75.664C143.572 75.6 143.305 75.568 143.049 75.568C142.324 75.568 141.673 75.696 141.097 75.952C140.521 76.208 140.031 76.5707 139.625 77.04C139.22 77.488 138.911 78.0107 138.697 78.608C138.484 79.2053 138.377 79.8453 138.377 80.528V90H135.945ZM148.523 90V73.296H150.923V90H148.523ZM149.707 69.68C149.11 69.68 148.651 69.5307 148.331 69.232C148.032 68.912 147.883 68.4853 147.883 67.952C147.883 67.4187 148.043 66.992 148.363 66.672C148.683 66.352 149.131 66.192 149.707 66.192C150.283 66.192 150.731 66.352 151.051 66.672C151.371 66.9707 151.531 67.3973 151.531 67.952C151.531 68.464 151.371 68.88 151.051 69.2C150.731 69.52 150.283 69.68 149.707 69.68ZM162.692 90.32C161.241 90.32 159.929 89.9467 158.756 89.2C157.583 88.432 156.655 87.3973 155.972 86.096C155.289 84.7733 154.948 83.28 154.948 81.616C154.948 79.9307 155.3 78.4373 156.004 77.136C156.708 75.8347 157.647 74.8107 158.82 74.064C160.015 73.3173 161.348 72.944 162.82 72.944C163.695 72.944 164.505 73.072 165.252 73.328C165.999 73.584 166.66 73.9467 167.236 74.416C167.833 74.864 168.324 75.3973 168.708 76.016C169.113 76.6133 169.391 77.264 169.54 77.968L168.836 77.616L168.932 73.296H171.332V90H168.9V85.904L169.54 85.488C169.391 86.128 169.103 86.7467 168.676 87.344C168.249 87.92 167.727 88.432 167.108 88.88C166.511 89.328 165.828 89.68 165.06 89.936C164.313 90.192 163.524 90.32 162.692 90.32ZM163.236 88.016C164.345 88.016 165.337 87.7493 166.212 87.216C167.087 86.6613 167.769 85.904 168.26 84.944C168.772 83.9627 169.028 82.8533 169.028 81.616C169.028 80.3787 168.772 79.28 168.26 78.32C167.769 77.36 167.087 76.6027 166.212 76.048C165.337 75.4933 164.345 75.216 163.236 75.216C162.105 75.216 161.103 75.4933 160.228 76.048C159.375 76.6027 158.692 77.36 158.18 78.32C157.689 79.28 157.444 80.3787 157.444 81.616C157.444 82.832 157.689 83.9307 158.18 84.912C158.671 85.872 159.353 86.6293 160.228 87.184C161.103 87.7387 162.105 88.016 163.236 88.016ZM182.792 90.32C181.277 90.32 179.912 89.9467 178.696 89.2C177.501 88.4533 176.552 87.4293 175.848 86.128C175.165 84.8053 174.824 83.312 174.824 81.648C174.824 79.9627 175.176 78.4693 175.88 77.168C176.584 75.8453 177.533 74.8107 178.728 74.064C179.923 73.3173 181.267 72.944 182.76 72.944C183.592 72.944 184.392 73.072 185.16 73.328C185.949 73.584 186.653 73.9467 187.272 74.416C187.891 74.864 188.403 75.3867 188.808 75.984C189.213 76.56 189.459 77.168 189.544 77.808L188.808 77.552V66.32H191.208V90H188.84L188.776 85.84L189.384 85.616C189.299 86.2133 189.053 86.8 188.648 87.376C188.264 87.9307 187.773 88.432 187.176 88.88C186.579 89.328 185.896 89.68 185.128 89.936C184.381 90.192 183.603 90.32 182.792 90.32ZM183.144 88.112C184.253 88.112 185.245 87.8347 186.12 87.28C186.995 86.7253 187.677 85.9573 188.168 84.976C188.68 83.9947 188.936 82.8747 188.936 81.616C188.936 80.3573 188.68 79.248 188.168 78.288C187.677 77.3067 186.995 76.5387 186.12 75.984C185.245 75.408 184.253 75.12 183.144 75.12C181.992 75.12 180.979 75.408 180.104 75.984C179.251 76.5387 178.568 77.3067 178.056 78.288C177.565 79.248 177.32 80.3573 177.32 81.616C177.32 82.8533 177.565 83.9627 178.056 84.944C178.547 85.9253 179.229 86.704 180.104 87.28C180.979 87.8347 181.992 88.112 183.144 88.112ZM203.275 90.32C201.611 90.32 200.128 89.9467 198.827 89.2C197.547 88.4533 196.534 87.4187 195.787 86.096C195.062 84.7733 194.699 83.2693 194.699 81.584C194.699 79.92 195.062 78.4373 195.787 77.136C196.534 75.8347 197.547 74.8107 198.827 74.064C200.128 73.3173 201.611 72.944 203.275 72.944C204.918 72.944 206.379 73.3173 207.659 74.064C208.96 74.8107 209.974 75.8347 210.699 77.136C211.446 78.4373 211.819 79.92 211.819 81.584C211.819 83.2693 211.446 84.7733 210.699 86.096C209.974 87.4187 208.96 88.4533 207.659 89.2C206.379 89.9467 204.918 90.32 203.275 90.32ZM203.275 88.048C204.448 88.048 205.494 87.7707 206.411 87.216C207.328 86.64 208.043 85.872 208.555 84.912C209.067 83.9307 209.323 82.8213 209.323 81.584C209.323 80.3467 209.067 79.248 208.555 78.288C208.043 77.328 207.328 76.5813 206.411 76.048C205.494 75.4933 204.448 75.216 203.275 75.216C202.102 75.216 201.046 75.4933 200.107 76.048C199.19 76.5813 198.464 77.3387 197.931 78.32C197.419 79.28 197.174 80.368 197.195 81.584C197.174 82.8213 197.419 83.9307 197.931 84.912C198.464 85.872 199.19 86.64 200.107 87.216C201.046 87.7707 202.102 88.048 203.275 88.048Z" fill="url(#paint1_linear_930_6167)"/>
<defs>
<linearGradient id="paint0_linear_930_6167" x1="123" y1="23.25" x2="88.5" y2="23.25" gradientUnits="userSpaceOnUse">
<stop stop-color="#43A3D5"/>
<stop offset="1" stop-color="#9C60DA"/>
</linearGradient>
<linearGradient id="paint1_linear_930_6167" x1="213" y1="78" x2="0" y2="78" gradientUnits="userSpaceOnUse">
<stop stop-color="#43A3D5"/>
<stop offset="1" stop-color="#9C60DA"/>
</linearGradient>
</defs>
</svg>
