<svg width="216" height="40" viewBox="0 0 216 40" fill="none" xmlns="http://www.w3.org/2000/svg">
<rect x="0.5" y="0.5" width="215" height="39" rx="19.5" stroke="#E1DDF4"/>
<g clip-path="url(#clip0_3008_4432)">
<path d="M35.925 17.404L27.0715 26.2574C26.8646 26.4641 26.5841 26.5803 26.2917 26.5803C25.9992 26.5803 25.7187 26.4641 25.5118 26.2574L20.5735 21.2929C20.3669 21.086 20.2509 20.8057 20.2509 20.5134C20.2509 20.2211 20.3669 19.9407 20.5735 19.7339L21.9525 18.3548C22.1593 18.1489 22.4392 18.0333 22.731 18.0333C23.0228 18.0333 23.3027 18.1489 23.5095 18.3548L26.3192 21.0798L32.991 14.4901C33.1978 14.2839 33.4779 14.1682 33.7699 14.1682C34.0618 14.1682 34.3419 14.2839 34.5487 14.4901L35.9243 15.8374C36.0277 15.9399 36.1098 16.0619 36.1659 16.1963C36.222 16.3307 36.2509 16.4749 36.2509 16.6205C36.251 16.7662 36.2222 16.9104 36.1663 17.0448C36.1103 17.1793 36.0283 17.3014 35.925 17.404Z" fill="#E1DDF4"/>
</g>
<path d="M48.0855 26V14.8H49.3335V26H48.0855ZM48.7095 21.008V19.776H54.3735V21.008H48.7095ZM48.7095 16.016V14.8H55.1255V16.016H48.7095ZM57.4099 26V17.648H58.6099V26H57.4099ZM58.0019 15.84C57.7032 15.84 57.4739 15.7653 57.3139 15.616C57.1645 15.456 57.0899 15.2427 57.0899 14.976C57.0899 14.7093 57.1699 14.496 57.3299 14.336C57.4899 14.176 57.7139 14.096 58.0019 14.096C58.2899 14.096 58.5139 14.176 58.6739 14.336C58.8339 14.4853 58.9139 14.6987 58.9139 14.976C58.9139 15.232 58.8339 15.44 58.6739 15.6C58.5139 15.76 58.2899 15.84 58.0019 15.84ZM61.2305 26V17.648H62.4145L62.4625 19.392L62.2705 19.472C62.3772 19.1093 62.5852 18.7787 62.8945 18.48C63.2038 18.1813 63.5718 17.9413 63.9985 17.76C64.4358 17.568 64.8838 17.472 65.3425 17.472C65.9612 17.472 66.4785 17.5947 66.8945 17.84C67.3105 18.0853 67.6252 18.464 67.8385 18.976C68.0518 19.488 68.1585 20.1387 68.1585 20.928V26H66.9425V20.992C66.9425 20.4373 66.8678 19.984 66.7185 19.632C66.5798 19.2693 66.3612 19.0027 66.0625 18.832C65.7638 18.6613 65.3958 18.5813 64.9585 18.592C64.5958 18.592 64.2598 18.656 63.9505 18.784C63.6412 18.9013 63.3745 19.0667 63.1505 19.28C62.9265 19.4933 62.7505 19.7387 62.6225 20.016C62.4945 20.2933 62.4305 20.592 62.4305 20.912V26H61.8385C61.7638 26 61.6785 26 61.5825 26C61.4865 26 61.3692 26 61.2305 26ZM73.7133 26.16C72.9879 26.16 72.3319 25.9733 71.7453 25.6C71.1586 25.216 70.6946 24.6987 70.3533 24.048C70.0119 23.3867 69.8413 22.64 69.8413 21.808C69.8413 20.9653 70.0173 20.2187 70.3693 19.568C70.7213 18.9173 71.1906 18.4053 71.7773 18.032C72.3746 17.6587 73.0413 17.472 73.7773 17.472C74.2146 17.472 74.6199 17.536 74.9933 17.664C75.3666 17.792 75.6973 17.9733 75.9853 18.208C76.2839 18.432 76.5293 18.6987 76.7213 19.008C76.9239 19.3067 77.0626 19.632 77.1373 19.984L76.7853 19.808L76.8333 17.648H78.0333V26H76.8173V23.952L77.1373 23.744C77.0626 24.064 76.9186 24.3733 76.7053 24.672C76.4919 24.96 76.2306 25.216 75.9213 25.44C75.6226 25.664 75.2813 25.84 74.8973 25.968C74.5239 26.096 74.1293 26.16 73.7133 26.16ZM73.9852 25.008C74.5399 25.008 75.0359 24.8747 75.4733 24.608C75.9106 24.3307 76.2519 23.952 76.4973 23.472C76.7533 22.9813 76.8813 22.4267 76.8813 21.808C76.8813 21.1893 76.7533 20.64 76.4973 20.16C76.2519 19.68 75.9106 19.3013 75.4733 19.024C75.0359 18.7467 74.5399 18.608 73.9852 18.608C73.4199 18.608 72.9186 18.7467 72.4813 19.024C72.0546 19.3013 71.7133 19.68 71.4573 20.16C71.2119 20.64 71.0893 21.1893 71.0893 21.808C71.0893 22.416 71.2119 22.9653 71.4573 23.456C71.7026 23.936 72.0439 24.3147 72.4813 24.592C72.9186 24.8693 73.4199 25.008 73.9852 25.008ZM80.4031 26V14.16H81.6031V26H80.4031ZM84.2849 26V17.648H85.4849V26H84.2849ZM84.8769 15.84C84.5782 15.84 84.3489 15.7653 84.1889 15.616C84.0395 15.456 83.9649 15.2427 83.9649 14.976C83.9649 14.7093 84.0449 14.496 84.2049 14.336C84.3649 14.176 84.5889 14.096 84.8769 14.096C85.1649 14.096 85.3889 14.176 85.5489 14.336C85.7089 14.4853 85.7889 14.6987 85.7889 14.976C85.7889 15.232 85.7089 15.44 85.5489 15.6C85.3889 15.76 85.1649 15.84 84.8769 15.84ZM87.6415 26V24.96L92.2495 18.464L92.3935 18.72H87.6415V17.648H93.5135V18.672L88.9215 25.152L88.7615 24.912H93.6895V26H87.6415ZM98.6351 26.16C97.9098 26.16 97.2538 25.9733 96.6671 25.6C96.0805 25.216 95.6165 24.6987 95.2751 24.048C94.9338 23.3867 94.7631 22.64 94.7631 21.808C94.7631 20.9653 94.9391 20.2187 95.2911 19.568C95.6431 18.9173 96.1125 18.4053 96.6991 18.032C97.2965 17.6587 97.9631 17.472 98.6991 17.472C99.1365 17.472 99.5418 17.536 99.9151 17.664C100.288 17.792 100.619 17.9733 100.907 18.208C101.206 18.432 101.451 18.6987 101.643 19.008C101.846 19.3067 101.984 19.632 102.059 19.984L101.707 19.808L101.755 17.648H102.955V26H101.739V23.952L102.059 23.744C101.984 24.064 101.84 24.3733 101.627 24.672C101.414 24.96 101.152 25.216 100.843 25.44C100.544 25.664 100.203 25.84 99.8191 25.968C99.4458 26.096 99.0511 26.16 98.6351 26.16ZM98.9071 25.008C99.4618 25.008 99.9578 24.8747 100.395 24.608C100.832 24.3307 101.174 23.952 101.419 23.472C101.675 22.9813 101.803 22.4267 101.803 21.808C101.803 21.1893 101.675 20.64 101.419 20.16C101.174 19.68 100.832 19.3013 100.395 19.024C99.9578 18.7467 99.4618 18.608 98.9071 18.608C98.3418 18.608 97.8405 18.7467 97.4031 19.024C96.9765 19.3013 96.6351 19.68 96.3791 20.16C96.1338 20.64 96.0111 21.1893 96.0111 21.808C96.0111 22.416 96.1338 22.9653 96.3791 23.456C96.6245 23.936 96.9658 24.3147 97.4031 24.592C97.8405 24.8693 98.3418 25.008 98.9071 25.008ZM105.293 26V17.648H106.493L106.525 19.872L106.397 19.568C106.514 19.1947 106.701 18.848 106.957 18.528C107.224 18.208 107.538 17.952 107.901 17.76C108.264 17.568 108.664 17.472 109.101 17.472C109.282 17.472 109.453 17.488 109.613 17.52C109.773 17.5413 109.906 17.5733 110.013 17.616L109.677 18.96C109.538 18.896 109.394 18.8533 109.245 18.832C109.106 18.8 108.973 18.784 108.845 18.784C108.482 18.784 108.157 18.848 107.869 18.976C107.581 19.104 107.336 19.2853 107.133 19.52C106.93 19.744 106.776 20.0053 106.669 20.304C106.562 20.6027 106.509 20.9227 106.509 21.264V26H105.293ZM120.866 26.16C120.066 26.16 119.33 26.0213 118.658 25.744C117.986 25.456 117.405 25.056 116.914 24.544C116.423 24.0213 116.039 23.408 115.762 22.704C115.495 22 115.362 21.232 115.362 20.4C115.362 19.5787 115.495 18.8267 115.762 18.144C116.039 17.4507 116.429 16.848 116.93 16.336C117.431 15.8133 118.013 15.4133 118.674 15.136C119.335 14.8587 120.061 14.72 120.85 14.72C121.373 14.72 121.89 14.8053 122.402 14.976C122.914 15.136 123.383 15.36 123.81 15.648C124.247 15.936 124.605 16.2667 124.882 16.64L124.018 17.536C123.751 17.216 123.442 16.9387 123.09 16.704C122.749 16.4693 122.386 16.288 122.002 16.16C121.618 16.032 121.234 15.968 120.85 15.968C120.253 15.968 119.693 16.08 119.17 16.304C118.658 16.5173 118.215 16.8213 117.842 17.216C117.469 17.6107 117.175 18.08 116.962 18.624C116.759 19.168 116.658 19.76 116.658 20.4C116.658 21.0613 116.759 21.6693 116.962 22.224C117.175 22.7787 117.474 23.2587 117.858 23.664C118.253 24.0587 118.711 24.368 119.234 24.592C119.767 24.8053 120.359 24.912 121.01 24.912C121.394 24.912 121.778 24.8587 122.162 24.752C122.546 24.6347 122.898 24.4747 123.218 24.272C123.538 24.0693 123.81 23.84 124.034 23.584L124.674 24.624C124.429 24.9227 124.098 25.1893 123.682 25.424C123.277 25.648 122.829 25.8293 122.338 25.968C121.847 26.096 121.357 26.16 120.866 26.16ZM126.559 26V14.16H127.759V19.472L127.519 19.712C127.636 19.2747 127.855 18.8907 128.175 18.56C128.495 18.2187 128.868 17.952 129.295 17.76C129.732 17.568 130.175 17.472 130.623 17.472C131.263 17.472 131.796 17.5947 132.223 17.84C132.649 18.0853 132.964 18.464 133.167 18.976C133.38 19.488 133.487 20.1387 133.487 20.928V26H132.271V20.992C132.271 20.4373 132.196 19.984 132.047 19.632C131.908 19.2693 131.689 19.0027 131.391 18.832C131.092 18.6613 130.719 18.5813 130.271 18.592C129.919 18.592 129.588 18.656 129.279 18.784C128.969 18.9013 128.703 19.0667 128.479 19.28C128.255 19.4933 128.079 19.7387 127.951 20.016C127.823 20.2933 127.759 20.592 127.759 20.912V26H127.167C127.092 26 127.007 26 126.911 26C126.815 26 126.697 26 126.559 26ZM139.457 26.16C138.625 26.16 137.884 25.9787 137.233 25.616C136.593 25.2533 136.092 24.7467 135.729 24.096C135.367 23.4453 135.185 22.6987 135.185 21.856C135.185 21.2053 135.287 20.6187 135.489 20.096C135.692 19.5627 135.975 19.0987 136.337 18.704C136.711 18.3093 137.153 18.0053 137.665 17.792C138.177 17.568 138.732 17.456 139.329 17.456C139.895 17.456 140.407 17.5573 140.865 17.76C141.335 17.9627 141.735 18.2453 142.065 18.608C142.407 18.96 142.663 19.3813 142.833 19.872C143.004 20.3627 143.079 20.9013 143.057 21.488L143.041 22.048H136.081L135.905 21.04H142.129L141.841 21.312V20.928C141.82 20.544 141.708 20.176 141.505 19.824C141.303 19.4613 141.015 19.168 140.641 18.944C140.279 18.72 139.841 18.608 139.329 18.608C138.732 18.608 138.215 18.7307 137.777 18.976C137.34 19.2107 137.004 19.5627 136.769 20.032C136.535 20.5013 136.417 21.0827 136.417 21.776C136.417 22.4373 136.545 23.0133 136.801 23.504C137.057 23.984 137.42 24.3573 137.889 24.624C138.369 24.8907 138.945 25.024 139.617 25.024C140.012 25.024 140.401 24.96 140.785 24.832C141.18 24.6933 141.612 24.4267 142.081 24.032L142.705 24.896C142.46 25.1413 142.167 25.36 141.825 25.552C141.484 25.7333 141.111 25.8827 140.705 26C140.3 26.1067 139.884 26.16 139.457 26.16ZM148.282 26.16C147.492 26.16 146.788 25.9733 146.17 25.6C145.551 25.216 145.06 24.6987 144.698 24.048C144.346 23.3867 144.17 22.64 144.17 21.808C144.17 20.976 144.346 20.2347 144.698 19.584C145.06 18.9227 145.551 18.4053 146.17 18.032C146.788 17.6587 147.498 17.472 148.298 17.472C149.012 17.472 149.663 17.616 150.25 17.904C150.836 18.1813 151.306 18.5707 151.658 19.072L150.954 19.936C150.751 19.6693 150.506 19.4347 150.218 19.232C149.94 19.0293 149.636 18.8747 149.306 18.768C148.986 18.6507 148.666 18.592 148.346 18.592C147.78 18.592 147.274 18.736 146.826 19.024C146.378 19.3013 146.02 19.68 145.754 20.16C145.498 20.64 145.37 21.1893 145.37 21.808C145.37 22.4267 145.498 22.9813 145.754 23.472C146.02 23.952 146.378 24.3307 146.826 24.608C147.274 24.8853 147.775 25.024 148.33 25.024C148.65 25.024 148.964 24.976 149.274 24.88C149.583 24.7733 149.876 24.624 150.154 24.432C150.431 24.24 150.687 24 150.922 23.712L151.626 24.576C151.263 25.056 150.778 25.44 150.17 25.728C149.562 26.016 148.932 26.16 148.282 26.16ZM156.448 26.16C155.722 26.16 155.066 25.9733 154.48 25.6C153.893 25.216 153.429 24.6987 153.088 24.048C152.746 23.3867 152.576 22.64 152.576 21.808C152.576 20.9653 152.752 20.2187 153.104 19.568C153.456 18.9173 153.925 18.4053 154.512 18.032C155.109 17.6587 155.776 17.472 156.512 17.472C156.949 17.472 157.354 17.536 157.728 17.664C158.101 17.792 158.432 17.9733 158.72 18.208C159.018 18.432 159.264 18.6987 159.456 19.008C159.658 19.3067 159.797 19.632 159.872 19.984L159.52 19.808L159.568 17.648H160.768V26H159.552V23.952L159.872 23.744C159.797 24.064 159.653 24.3733 159.44 24.672C159.226 24.96 158.965 25.216 158.656 25.44C158.357 25.664 158.016 25.84 157.632 25.968C157.258 26.096 156.864 26.16 156.448 26.16ZM156.72 25.008C157.274 25.008 157.77 24.8747 158.208 24.608C158.645 24.3307 158.986 23.952 159.232 23.472C159.488 22.9813 159.616 22.4267 159.616 21.808C159.616 21.1893 159.488 20.64 159.232 20.16C158.986 19.68 158.645 19.3013 158.208 19.024C157.77 18.7467 157.274 18.608 156.72 18.608C156.154 18.608 155.653 18.7467 155.216 19.024C154.789 19.3013 154.448 19.68 154.192 20.16C153.946 20.64 153.824 21.1893 153.824 21.808C153.824 22.416 153.946 22.9653 154.192 23.456C154.437 23.936 154.778 24.3147 155.216 24.592C155.653 24.8693 156.154 25.008 156.72 25.008ZM166.706 29.68C166.087 29.68 165.5 29.584 164.946 29.392C164.391 29.2 163.932 28.96 163.57 28.672L164.049 27.664C164.263 27.8347 164.508 27.984 164.786 28.112C165.074 28.2507 165.383 28.3573 165.714 28.432C166.044 28.5173 166.38 28.56 166.722 28.56C167.34 28.56 167.863 28.4427 168.29 28.208C168.727 27.984 169.058 27.648 169.282 27.2C169.516 26.752 169.634 26.1973 169.634 25.536V23.936L169.826 23.888C169.73 24.2933 169.522 24.672 169.202 25.024C168.882 25.3653 168.492 25.6427 168.034 25.856C167.575 26.0587 167.09 26.16 166.578 26.16C165.799 26.16 165.1 25.9733 164.482 25.6C163.874 25.2267 163.394 24.7147 163.042 24.064C162.69 23.4027 162.514 22.656 162.514 21.824C162.514 20.9813 162.69 20.2347 163.042 19.584C163.404 18.9227 163.89 18.4053 164.498 18.032C165.106 17.6587 165.788 17.472 166.546 17.472C166.876 17.472 167.196 17.5147 167.506 17.6C167.815 17.6747 168.098 17.7867 168.354 17.936C168.62 18.0853 168.86 18.256 169.074 18.448C169.287 18.64 169.463 18.848 169.602 19.072C169.751 19.296 169.858 19.5253 169.922 19.76L169.586 19.712L169.634 17.648H170.834V25.488C170.834 26.16 170.738 26.752 170.546 27.264C170.354 27.7867 170.071 28.224 169.698 28.576C169.335 28.9387 168.898 29.2107 168.386 29.392C167.884 29.584 167.324 29.68 166.706 29.68ZM166.722 25.008C167.287 25.008 167.788 24.8747 168.226 24.608C168.674 24.3307 169.026 23.952 169.282 23.472C169.538 22.992 169.666 22.4373 169.666 21.808C169.666 21.1893 169.538 20.64 169.282 20.16C169.036 19.68 168.69 19.3013 168.242 19.024C167.794 18.7467 167.287 18.608 166.722 18.608C166.146 18.608 165.634 18.7467 165.186 19.024C164.748 19.3013 164.402 19.68 164.146 20.16C163.89 20.64 163.762 21.1893 163.762 21.808C163.762 22.416 163.884 22.9653 164.13 23.456C164.386 23.936 164.732 24.3147 165.17 24.592C165.618 24.8693 166.135 25.008 166.722 25.008ZM176.848 26.16C176.016 26.16 175.275 25.9787 174.624 25.616C173.984 25.2533 173.483 24.7467 173.12 24.096C172.757 23.4453 172.576 22.6987 172.576 21.856C172.576 21.2053 172.677 20.6187 172.88 20.096C173.083 19.5627 173.365 19.0987 173.728 18.704C174.101 18.3093 174.544 18.0053 175.056 17.792C175.568 17.568 176.123 17.456 176.72 17.456C177.285 17.456 177.797 17.5573 178.256 17.76C178.725 17.9627 179.125 18.2453 179.456 18.608C179.797 18.96 180.053 19.3813 180.224 19.872C180.395 20.3627 180.469 20.9013 180.448 21.488L180.432 22.048H173.472L173.296 21.04H179.52L179.232 21.312V20.928C179.211 20.544 179.099 20.176 178.896 19.824C178.693 19.4613 178.405 19.168 178.032 18.944C177.669 18.72 177.232 18.608 176.72 18.608C176.123 18.608 175.605 18.7307 175.168 18.976C174.731 19.2107 174.395 19.5627 174.16 20.032C173.925 20.5013 173.808 21.0827 173.808 21.776C173.808 22.4373 173.936 23.0133 174.192 23.504C174.448 23.984 174.811 24.3573 175.28 24.624C175.76 24.8907 176.336 25.024 177.008 25.024C177.403 25.024 177.792 24.96 178.176 24.832C178.571 24.6933 179.003 24.4267 179.472 24.032L180.096 24.896C179.851 25.1413 179.557 25.36 179.216 25.552C178.875 25.7333 178.501 25.8827 178.096 26C177.691 26.1067 177.275 26.16 176.848 26.16ZM182.136 26V17.648H183.336L183.368 19.552L183.128 19.632C183.214 19.312 183.352 19.024 183.544 18.768C183.747 18.5013 183.987 18.272 184.264 18.08C184.542 17.888 184.846 17.744 185.176 17.648C185.507 17.5413 185.854 17.488 186.216 17.488C186.654 17.488 187.043 17.5627 187.384 17.712C187.736 17.8507 188.03 18.096 188.264 18.448C188.51 18.7893 188.696 19.2427 188.824 19.808L188.536 19.664L188.648 19.392C188.755 19.1467 188.91 18.912 189.112 18.688C189.326 18.4533 189.566 18.2453 189.832 18.064C190.11 17.8827 190.408 17.744 190.728 17.648C191.059 17.5413 191.395 17.488 191.736 17.488C192.323 17.488 192.819 17.616 193.224 17.872C193.63 18.1173 193.934 18.496 194.136 19.008C194.35 19.52 194.456 20.1707 194.456 20.96V26H193.224V21.024C193.224 20.4693 193.155 20.016 193.016 19.664C192.878 19.312 192.67 19.0507 192.392 18.88C192.126 18.6987 191.784 18.608 191.368 18.608C191.006 18.608 190.67 18.672 190.36 18.8C190.062 18.9173 189.8 19.088 189.576 19.312C189.363 19.5253 189.192 19.7707 189.064 20.048C188.947 20.3253 188.888 20.624 188.888 20.944V26H187.672V21.008C187.672 20.4747 187.598 20.032 187.448 19.68C187.31 19.328 187.102 19.0613 186.824 18.88C186.547 18.6987 186.206 18.608 185.8 18.608C185.448 18.608 185.123 18.672 184.824 18.8C184.526 18.9173 184.264 19.0827 184.04 19.296C183.827 19.5093 183.656 19.7547 183.528 20.032C183.411 20.3093 183.352 20.608 183.352 20.928V26H182.136Z" fill="#E1DDF4"/>
<defs>
<clipPath id="clip0_3008_4432">
<rect width="16" height="16" fill="white" transform="translate(20 12)"/>
</clipPath>
</defs>
</svg>
