<svg width="150" height="40" viewBox="0 0 150 40" fill="none" xmlns="http://www.w3.org/2000/svg">
<path d="M130 0.5C140.77 0.5 149.5 9.23045 149.5 20C149.5 30.7696 140.77 39.5 130 39.5H0.5V0.5H130Z" stroke="#E1DDF4"/>
<g clip-path="url(#clip0_3306_14447)">
<path d="M45.925 17.404L37.0715 26.2574C36.8647 26.4641 36.5842 26.5803 36.2917 26.5803C35.9992 26.5803 35.7187 26.4641 35.5119 26.2574L30.5735 21.2929C30.367 21.086 30.251 20.8057 30.251 20.5134C30.251 20.2211 30.367 19.9407 30.5735 19.7339L31.9525 18.3548C32.1593 18.1489 32.4392 18.0333 32.731 18.0333C33.0228 18.0333 33.3027 18.1489 33.5095 18.3548L36.3193 21.0798L42.9911 14.4901C43.1979 14.2839 43.4779 14.1682 43.7699 14.1682C44.0619 14.1682 44.3419 14.2839 44.5487 14.4901L45.9243 15.8374C46.0277 15.9399 46.1099 16.0619 46.1659 16.1963C46.222 16.3307 46.2509 16.4749 46.251 16.6205C46.251 16.7662 46.2223 16.9104 46.1663 17.0448C46.1104 17.1793 46.0283 17.3014 45.925 17.404Z" fill="#E1DDF4"/>
</g>
<path d="M57.8199 26V14.8H59.0679V26H57.8199ZM58.4439 21.008V19.776H64.1079V21.008H58.4439ZM58.4439 16.016V14.8H64.8599V16.016H58.4439ZM67.1443 26V17.648H68.3443V26H67.1443ZM67.7363 15.84C67.4376 15.84 67.2083 15.7653 67.0483 15.616C66.8989 15.456 66.8243 15.2427 66.8243 14.976C66.8243 14.7093 66.9043 14.496 67.0643 14.336C67.2243 14.176 67.4483 14.096 67.7363 14.096C68.0243 14.096 68.2483 14.176 68.4083 14.336C68.5683 14.4853 68.6483 14.6987 68.6483 14.976C68.6483 15.232 68.5683 15.44 68.4083 15.6C68.2483 15.76 68.0243 15.84 67.7363 15.84ZM70.9649 26V17.648H72.1489L72.1969 19.392L72.0049 19.472C72.1115 19.1093 72.3195 18.7787 72.6289 18.48C72.9382 18.1813 73.3062 17.9413 73.7329 17.76C74.1702 17.568 74.6182 17.472 75.0769 17.472C75.6955 17.472 76.2129 17.5947 76.6289 17.84C77.0449 18.0853 77.3595 18.464 77.5729 18.976C77.7862 19.488 77.8929 20.1387 77.8929 20.928V26H76.6769V20.992C76.6769 20.4373 76.6022 19.984 76.4529 19.632C76.3142 19.2693 76.0955 19.0027 75.7969 18.832C75.4982 18.6613 75.1302 18.5813 74.6929 18.592C74.3302 18.592 73.9942 18.656 73.6849 18.784C73.3755 18.9013 73.1089 19.0667 72.8849 19.28C72.6609 19.4933 72.4849 19.7387 72.3569 20.016C72.2289 20.2933 72.1649 20.592 72.1649 20.912V26H71.5729C71.4982 26 71.4129 26 71.3169 26C71.2209 26 71.1035 26 70.9649 26ZM83.4476 26.16C82.7223 26.16 82.0663 25.9733 81.4796 25.6C80.893 25.216 80.429 24.6987 80.0876 24.048C79.7463 23.3867 79.5756 22.64 79.5756 21.808C79.5756 20.9653 79.7516 20.2187 80.1036 19.568C80.4556 18.9173 80.925 18.4053 81.5116 18.032C82.109 17.6587 82.7756 17.472 83.5116 17.472C83.949 17.472 84.3543 17.536 84.7276 17.664C85.101 17.792 85.4316 17.9733 85.7196 18.208C86.0183 18.432 86.2636 18.6987 86.4556 19.008C86.6583 19.3067 86.797 19.632 86.8716 19.984L86.5196 19.808L86.5676 17.648H87.7676V26H86.5516V23.952L86.8716 23.744C86.797 24.064 86.653 24.3733 86.4396 24.672C86.2263 24.96 85.965 25.216 85.6556 25.44C85.357 25.664 85.0156 25.84 84.6316 25.968C84.2583 26.096 83.8636 26.16 83.4476 26.16ZM83.7196 25.008C84.2743 25.008 84.7703 24.8747 85.2076 24.608C85.645 24.3307 85.9863 23.952 86.2316 23.472C86.4876 22.9813 86.6156 22.4267 86.6156 21.808C86.6156 21.1893 86.4876 20.64 86.2316 20.16C85.9863 19.68 85.645 19.3013 85.2076 19.024C84.7703 18.7467 84.2743 18.608 83.7196 18.608C83.1543 18.608 82.653 18.7467 82.2156 19.024C81.789 19.3013 81.4476 19.68 81.1916 20.16C80.9463 20.64 80.8236 21.1893 80.8236 21.808C80.8236 22.416 80.9463 22.9653 81.1916 23.456C81.437 23.936 81.7783 24.3147 82.2156 24.592C82.653 24.8693 83.1543 25.008 83.7196 25.008ZM90.1375 26V14.16H91.3375V26H90.1375ZM94.0193 26V17.648H95.2193V26H94.0193ZM94.6113 15.84C94.3126 15.84 94.0833 15.7653 93.9233 15.616C93.7739 15.456 93.6993 15.2427 93.6993 14.976C93.6993 14.7093 93.7793 14.496 93.9393 14.336C94.0993 14.176 94.3233 14.096 94.6113 14.096C94.8993 14.096 95.1233 14.176 95.2833 14.336C95.4433 14.4853 95.5233 14.6987 95.5233 14.976C95.5233 15.232 95.4433 15.44 95.2833 15.6C95.1233 15.76 94.8993 15.84 94.6113 15.84ZM97.3759 26V24.96L101.984 18.464L102.128 18.72H97.3759V17.648H103.248V18.672L98.6559 25.152L98.4959 24.912H103.424V26H97.3759ZM108.37 26.16C107.644 26.16 106.988 25.9733 106.402 25.6C105.815 25.216 105.351 24.6987 105.01 24.048C104.668 23.3867 104.498 22.64 104.498 21.808C104.498 20.9653 104.674 20.2187 105.026 19.568C105.378 18.9173 105.847 18.4053 106.434 18.032C107.031 17.6587 107.698 17.472 108.434 17.472C108.871 17.472 109.276 17.536 109.65 17.664C110.023 17.792 110.354 17.9733 110.642 18.208C110.94 18.432 111.186 18.6987 111.378 19.008C111.58 19.3067 111.719 19.632 111.794 19.984L111.442 19.808L111.49 17.648H112.69V26H111.474V23.952L111.794 23.744C111.719 24.064 111.575 24.3733 111.362 24.672C111.148 24.96 110.887 25.216 110.578 25.44C110.279 25.664 109.938 25.84 109.554 25.968C109.18 26.096 108.786 26.16 108.37 26.16ZM108.641 25.008C109.196 25.008 109.692 24.8747 110.13 24.608C110.567 24.3307 110.908 23.952 111.154 23.472C111.41 22.9813 111.538 22.4267 111.538 21.808C111.538 21.1893 111.41 20.64 111.154 20.16C110.908 19.68 110.567 19.3013 110.13 19.024C109.692 18.7467 109.196 18.608 108.641 18.608C108.076 18.608 107.575 18.7467 107.138 19.024C106.711 19.3013 106.37 19.68 106.114 20.16C105.868 20.64 105.746 21.1893 105.746 21.808C105.746 22.416 105.868 22.9653 106.114 23.456C106.359 23.936 106.7 24.3147 107.138 24.592C107.575 24.8693 108.076 25.008 108.641 25.008ZM115.027 26V17.648H116.227L116.259 19.872L116.131 19.568C116.249 19.1947 116.435 18.848 116.691 18.528C116.958 18.208 117.273 17.952 117.635 17.76C117.998 17.568 118.398 17.472 118.835 17.472C119.017 17.472 119.187 17.488 119.347 17.52C119.507 17.5413 119.641 17.5733 119.747 17.616L119.411 18.96C119.273 18.896 119.129 18.8533 118.979 18.832C118.841 18.8 118.707 18.784 118.579 18.784C118.217 18.784 117.891 18.848 117.603 18.976C117.315 19.104 117.07 19.2853 116.867 19.52C116.665 19.744 116.51 20.0053 116.403 20.304C116.297 20.6027 116.243 20.9227 116.243 21.264V26H115.027Z" fill="#E1DDF4"/>
<defs>
<clipPath id="clip0_3306_14447">
<rect width="16" height="16" fill="white" transform="translate(30 12)"/>
</clipPath>
</defs>
</svg>
