<svg width="259" height="88" viewBox="0 0 259 88" fill="none" xmlns="http://www.w3.org/2000/svg">
<path d="M111.5 22.5L123.5 34.5L146 12" stroke="url(#paint0_linear_1570_5587)" stroke-width="6"/>
<path d="M3.08919 82V65.2H4.91319L11.3692 75.688L10.5052 75.664L17.0332 65.2H18.7372V82H16.8652V74.32C16.8652 72.88 16.8892 71.584 16.9372 70.432C16.9852 69.28 17.0732 68.136 17.2012 67L17.5372 67.672L11.5132 77.128H10.2172L4.36119 67.792L4.62519 67C4.75319 68.072 4.84119 69.176 4.88919 70.312C4.93719 71.432 4.96119 72.768 4.96119 74.32V82H3.08919ZM27.8668 82.24C26.7788 82.24 25.7948 81.96 24.9148 81.4C24.0348 80.824 23.3388 80.048 22.8268 79.072C22.3148 78.08 22.0588 76.96 22.0588 75.712C22.0588 74.448 22.3228 73.328 22.8508 72.352C23.3788 71.376 24.0828 70.608 24.9628 70.048C25.8588 69.488 26.8588 69.208 27.9628 69.208C28.6188 69.208 29.2268 69.304 29.7868 69.496C30.3468 69.688 30.8428 69.96 31.2748 70.312C31.7228 70.648 32.0908 71.048 32.3788 71.512C32.6828 71.96 32.8908 72.448 33.0028 72.976L32.4748 72.712L32.5468 69.472H34.3468V82H32.5228V78.928L33.0028 78.616C32.8908 79.096 32.6748 79.56 32.3548 80.008C32.0348 80.44 31.6428 80.824 31.1788 81.16C30.7308 81.496 30.2188 81.76 29.6428 81.952C29.0828 82.144 28.4908 82.24 27.8668 82.24ZM28.2747 80.512C29.1068 80.512 29.8508 80.312 30.5068 79.912C31.1628 79.496 31.6748 78.928 32.0428 78.208C32.4268 77.472 32.6188 76.64 32.6188 75.712C32.6188 74.784 32.4268 73.96 32.0428 73.24C31.6748 72.52 31.1628 71.952 30.5068 71.536C29.8508 71.12 29.1068 70.912 28.2747 70.912C27.4268 70.912 26.6748 71.12 26.0188 71.536C25.3788 71.952 24.8668 72.52 24.4828 73.24C24.1148 73.96 23.9308 74.784 23.9308 75.712C23.9308 76.624 24.1148 77.448 24.4828 78.184C24.8508 78.904 25.3628 79.472 26.0188 79.888C26.6748 80.304 27.4268 80.512 28.2747 80.512ZM39.5816 82V66.184H41.3816V82H39.5816ZM36.7496 71.2V69.472H44.5496V71.2H36.7496ZM52.1626 82.24C50.9146 82.24 49.8026 81.968 48.8266 81.424C47.8666 80.88 47.1146 80.12 46.5706 79.144C46.0266 78.168 45.7546 77.048 45.7546 75.784C45.7546 74.808 45.9066 73.928 46.2106 73.144C46.5146 72.344 46.9386 71.648 47.4826 71.056C48.0426 70.464 48.7066 70.008 49.4746 69.688C50.2426 69.352 51.0746 69.184 51.9706 69.184C52.8186 69.184 53.5866 69.336 54.2746 69.64C54.9786 69.944 55.5786 70.368 56.0746 70.912C56.5866 71.44 56.9706 72.072 57.2266 72.808C57.4826 73.544 57.5946 74.352 57.5626 75.232L57.5386 76.072H47.0986L46.8346 74.56H56.1706L55.7386 74.968V74.392C55.7066 73.816 55.5386 73.264 55.2346 72.736C54.9306 72.192 54.4986 71.752 53.9386 71.416C53.3946 71.08 52.7386 70.912 51.9706 70.912C51.0746 70.912 50.2986 71.096 49.6426 71.464C48.9866 71.816 48.4826 72.344 48.1306 73.048C47.7786 73.752 47.6026 74.624 47.6026 75.664C47.6026 76.656 47.7946 77.52 48.1786 78.256C48.5626 78.976 49.1066 79.536 49.8106 79.936C50.5306 80.336 51.3946 80.536 52.4026 80.536C52.9946 80.536 53.5786 80.44 54.1546 80.248C54.7466 80.04 55.3946 79.64 56.0986 79.048L57.0346 80.344C56.6666 80.712 56.2266 81.04 55.7146 81.328C55.2026 81.6 54.6426 81.824 54.0346 82C53.4266 82.16 52.8026 82.24 52.1626 82.24ZM60.1192 82V69.472H61.9192L61.9672 72.808L61.7752 72.352C61.9512 71.792 62.2312 71.272 62.6152 70.792C63.0152 70.312 63.4872 69.928 64.0312 69.64C64.5752 69.352 65.1752 69.208 65.8312 69.208C66.1032 69.208 66.3592 69.232 66.5992 69.28C66.8392 69.312 67.0392 69.36 67.1992 69.424L66.6952 71.44C66.4872 71.344 66.2712 71.28 66.0472 71.248C65.8392 71.2 65.6392 71.176 65.4472 71.176C64.9032 71.176 64.4152 71.272 63.9832 71.464C63.5512 71.656 63.1832 71.928 62.8792 72.28C62.5752 72.616 62.3432 73.008 62.1832 73.456C62.0232 73.904 61.9432 74.384 61.9432 74.896V82H60.1192ZM69.5523 82V69.472H71.3523V82H69.5523ZM70.4403 66.76C69.9923 66.76 69.6483 66.648 69.4083 66.424C69.1843 66.184 69.0723 65.864 69.0723 65.464C69.0723 65.064 69.1923 64.744 69.4323 64.504C69.6723 64.264 70.0083 64.144 70.4403 64.144C70.8723 64.144 71.2083 64.264 71.4483 64.504C71.6883 64.728 71.8083 65.048 71.8083 65.464C71.8083 65.848 71.6883 66.16 71.4483 66.4C71.2083 66.64 70.8723 66.76 70.4403 66.76ZM80.1793 82.24C79.0913 82.24 78.1073 81.96 77.2273 81.4C76.3473 80.824 75.6513 80.048 75.1393 79.072C74.6273 78.08 74.3713 76.96 74.3713 75.712C74.3713 74.448 74.6353 73.328 75.1633 72.352C75.6913 71.376 76.3953 70.608 77.2753 70.048C78.1713 69.488 79.1713 69.208 80.2753 69.208C80.9313 69.208 81.5393 69.304 82.0993 69.496C82.6593 69.688 83.1553 69.96 83.5873 70.312C84.0353 70.648 84.4033 71.048 84.6913 71.512C84.9953 71.96 85.2033 72.448 85.3153 72.976L84.7873 72.712L84.8593 69.472H86.6593V82H84.8353V78.928L85.3153 78.616C85.2033 79.096 84.9873 79.56 84.6673 80.008C84.3473 80.44 83.9553 80.824 83.4913 81.16C83.0433 81.496 82.5313 81.76 81.9553 81.952C81.3953 82.144 80.8033 82.24 80.1793 82.24ZM80.5872 80.512C81.4193 80.512 82.1633 80.312 82.8193 79.912C83.4753 79.496 83.9873 78.928 84.3553 78.208C84.7393 77.472 84.9313 76.64 84.9313 75.712C84.9313 74.784 84.7393 73.96 84.3553 73.24C83.9873 72.52 83.4753 71.952 82.8193 71.536C82.1633 71.12 81.4193 70.912 80.5872 70.912C79.7393 70.912 78.9873 71.12 78.3313 71.536C77.6913 71.952 77.1793 72.52 76.7953 73.24C76.4273 73.96 76.2433 74.784 76.2433 75.712C76.2433 76.624 76.4273 77.448 76.7953 78.184C77.1633 78.904 77.6753 79.472 78.3313 79.888C78.9873 80.304 79.7393 80.512 80.5872 80.512ZM90.6461 82V69.472H92.4461V82H90.6461ZM91.5341 66.76C91.0861 66.76 90.7421 66.648 90.5021 66.424C90.2781 66.184 90.1661 65.864 90.1661 65.464C90.1661 65.064 90.2861 64.744 90.5261 64.504C90.7661 64.264 91.1021 64.144 91.5341 64.144C91.9661 64.144 92.3021 64.264 92.5421 64.504C92.7821 64.728 92.9021 65.048 92.9021 65.464C92.9021 65.848 92.7821 66.16 92.5421 66.4C92.3021 66.64 91.9661 66.76 91.5341 66.76ZM100.481 82.24C99.409 82.24 98.449 82.04 97.601 81.64C96.753 81.24 96.081 80.712 95.585 80.056L96.857 78.952C97.321 79.512 97.865 79.936 98.489 80.224C99.129 80.512 99.841 80.656 100.625 80.656C101.025 80.656 101.385 80.616 101.705 80.536C102.025 80.44 102.305 80.304 102.545 80.128C102.785 79.952 102.969 79.744 103.097 79.504C103.225 79.264 103.289 79 103.289 78.712C103.289 78.184 103.057 77.744 102.593 77.392C102.385 77.248 102.089 77.104 101.705 76.96C101.321 76.8 100.857 76.648 100.313 76.504C99.417 76.248 98.673 75.992 98.081 75.736C97.489 75.464 97.025 75.152 96.689 74.8C96.449 74.512 96.265 74.2 96.137 73.864C96.025 73.528 95.969 73.16 95.969 72.76C95.969 72.248 96.073 71.776 96.281 71.344C96.505 70.912 96.809 70.536 97.193 70.216C97.593 69.88 98.057 69.632 98.585 69.472C99.129 69.296 99.713 69.208 100.337 69.208C100.929 69.208 101.513 69.288 102.089 69.448C102.665 69.608 103.201 69.84 103.697 70.144C104.193 70.448 104.617 70.808 104.969 71.224L103.865 72.424C103.561 72.104 103.225 71.816 102.857 71.56C102.489 71.304 102.097 71.104 101.681 70.96C101.281 70.816 100.865 70.744 100.433 70.744C100.049 70.744 99.689 70.792 99.353 70.888C99.033 70.984 98.753 71.12 98.513 71.296C98.289 71.456 98.113 71.656 97.985 71.896C97.873 72.136 97.817 72.4 97.817 72.688C97.817 72.928 97.865 73.144 97.961 73.336C98.057 73.528 98.193 73.696 98.369 73.84C98.593 74.016 98.905 74.184 99.305 74.344C99.721 74.488 100.233 74.64 100.841 74.8C101.545 74.992 102.137 75.192 102.617 75.4C103.113 75.592 103.521 75.824 103.841 76.096C104.273 76.416 104.577 76.784 104.753 77.2C104.945 77.616 105.041 78.088 105.041 78.616C105.041 79.32 104.841 79.944 104.441 80.488C104.057 81.032 103.521 81.464 102.833 81.784C102.145 82.088 101.361 82.24 100.481 82.24ZM122.268 82.24C121.068 82.24 119.964 82.032 118.956 81.616C117.948 81.184 117.076 80.584 116.34 79.816C115.604 79.032 115.028 78.112 114.612 77.056C114.212 76 114.012 74.848 114.012 73.6C114.012 72.368 114.212 71.24 114.612 70.216C115.028 69.176 115.612 68.272 116.364 67.504C117.116 66.72 117.988 66.12 118.98 65.704C119.972 65.288 121.06 65.08 122.244 65.08C123.028 65.08 123.804 65.208 124.572 65.464C125.34 65.704 126.044 66.04 126.684 66.472C127.34 66.904 127.876 67.4 128.292 67.96L126.996 69.304C126.596 68.824 126.132 68.408 125.604 68.056C125.092 67.704 124.548 67.432 123.972 67.24C123.396 67.048 122.82 66.952 122.244 66.952C121.348 66.952 120.508 67.12 119.724 67.456C118.956 67.776 118.292 68.232 117.732 68.824C117.172 69.416 116.732 70.12 116.412 70.936C116.108 71.752 115.956 72.64 115.956 73.6C115.956 74.592 116.108 75.504 116.412 76.336C116.732 77.168 117.18 77.888 117.756 78.496C118.348 79.088 119.036 79.552 119.82 79.888C120.62 80.208 121.508 80.368 122.484 80.368C123.06 80.368 123.636 80.288 124.212 80.128C124.788 79.952 125.316 79.712 125.796 79.408C126.276 79.104 126.684 78.76 127.02 78.376L127.98 79.936C127.612 80.384 127.116 80.784 126.492 81.136C125.884 81.472 125.212 81.744 124.476 81.952C123.74 82.144 123.004 82.24 122.268 82.24ZM135.703 82.24C134.615 82.24 133.631 81.96 132.751 81.4C131.871 80.824 131.175 80.048 130.663 79.072C130.151 78.08 129.895 76.96 129.895 75.712C129.895 74.448 130.159 73.328 130.687 72.352C131.215 71.376 131.919 70.608 132.799 70.048C133.695 69.488 134.695 69.208 135.799 69.208C136.455 69.208 137.063 69.304 137.623 69.496C138.183 69.688 138.679 69.96 139.111 70.312C139.559 70.648 139.927 71.048 140.215 71.512C140.519 71.96 140.727 72.448 140.839 72.976L140.311 72.712L140.383 69.472H142.183V82H140.359V78.928L140.839 78.616C140.727 79.096 140.511 79.56 140.191 80.008C139.871 80.44 139.479 80.824 139.015 81.16C138.567 81.496 138.055 81.76 137.479 81.952C136.919 82.144 136.327 82.24 135.703 82.24ZM136.111 80.512C136.943 80.512 137.687 80.312 138.343 79.912C138.999 79.496 139.511 78.928 139.879 78.208C140.263 77.472 140.455 76.64 140.455 75.712C140.455 74.784 140.263 73.96 139.879 73.24C139.511 72.52 138.999 71.952 138.343 71.536C137.687 71.12 136.943 70.912 136.111 70.912C135.263 70.912 134.511 71.12 133.855 71.536C133.215 71.952 132.703 72.52 132.319 73.24C131.951 73.96 131.767 74.784 131.767 75.712C131.767 76.624 131.951 77.448 132.319 78.184C132.687 78.904 133.199 79.472 133.855 79.888C134.511 80.304 135.263 80.512 136.111 80.512ZM150.778 82.24C149.642 82.24 148.618 81.96 147.706 81.4C146.81 80.84 146.098 80.072 145.57 79.096C145.058 78.104 144.802 76.984 144.802 75.736C144.802 74.472 145.066 73.352 145.594 72.376C146.122 71.384 146.834 70.608 147.73 70.048C148.626 69.488 149.634 69.208 150.754 69.208C151.378 69.208 151.978 69.304 152.554 69.496C153.146 69.688 153.674 69.96 154.138 70.312C154.602 70.648 154.986 71.04 155.29 71.488C155.594 71.92 155.778 72.376 155.842 72.856L155.29 72.664V64.24H157.09V82H155.314L155.266 78.88L155.722 78.712C155.658 79.16 155.474 79.6 155.17 80.032C154.882 80.448 154.514 80.824 154.066 81.16C153.618 81.496 153.106 81.76 152.53 81.952C151.97 82.144 151.386 82.24 150.778 82.24ZM151.042 80.584C151.874 80.584 152.618 80.376 153.274 79.96C153.93 79.544 154.442 78.968 154.81 78.232C155.194 77.496 155.386 76.656 155.386 75.712C155.386 74.768 155.194 73.936 154.81 73.216C154.442 72.48 153.93 71.904 153.274 71.488C152.618 71.056 151.874 70.84 151.042 70.84C150.178 70.84 149.418 71.056 148.762 71.488C148.122 71.904 147.61 72.48 147.226 73.216C146.858 73.936 146.674 74.768 146.674 75.712C146.674 76.64 146.858 77.472 147.226 78.208C147.594 78.944 148.106 79.528 148.762 79.96C149.418 80.376 150.178 80.584 151.042 80.584ZM165.492 82.24C164.404 82.24 163.42 81.96 162.54 81.4C161.66 80.824 160.964 80.048 160.452 79.072C159.94 78.08 159.684 76.96 159.684 75.712C159.684 74.448 159.948 73.328 160.476 72.352C161.004 71.376 161.708 70.608 162.588 70.048C163.484 69.488 164.484 69.208 165.588 69.208C166.244 69.208 166.852 69.304 167.412 69.496C167.972 69.688 168.468 69.96 168.9 70.312C169.348 70.648 169.716 71.048 170.004 71.512C170.308 71.96 170.516 72.448 170.628 72.976L170.1 72.712L170.172 69.472H171.972V82H170.148V78.928L170.628 78.616C170.516 79.096 170.3 79.56 169.98 80.008C169.66 80.44 169.268 80.824 168.804 81.16C168.356 81.496 167.844 81.76 167.268 81.952C166.708 82.144 166.116 82.24 165.492 82.24ZM165.9 80.512C166.732 80.512 167.476 80.312 168.132 79.912C168.788 79.496 169.3 78.928 169.668 78.208C170.052 77.472 170.244 76.64 170.244 75.712C170.244 74.784 170.052 73.96 169.668 73.24C169.3 72.52 168.788 71.952 168.132 71.536C167.476 71.12 166.732 70.912 165.9 70.912C165.052 70.912 164.3 71.12 163.644 71.536C163.004 71.952 162.492 72.52 162.108 73.24C161.74 73.96 161.556 74.784 161.556 75.712C161.556 76.624 161.74 77.448 162.108 78.184C162.476 78.904 162.988 79.472 163.644 79.888C164.3 80.304 165.052 80.512 165.9 80.512ZM179.583 82.24C178.511 82.24 177.551 82.04 176.703 81.64C175.855 81.24 175.183 80.712 174.687 80.056L175.959 78.952C176.423 79.512 176.967 79.936 177.591 80.224C178.231 80.512 178.943 80.656 179.727 80.656C180.127 80.656 180.487 80.616 180.807 80.536C181.127 80.44 181.407 80.304 181.647 80.128C181.887 79.952 182.071 79.744 182.199 79.504C182.327 79.264 182.391 79 182.391 78.712C182.391 78.184 182.159 77.744 181.695 77.392C181.487 77.248 181.191 77.104 180.807 76.96C180.423 76.8 179.959 76.648 179.415 76.504C178.519 76.248 177.775 75.992 177.183 75.736C176.591 75.464 176.127 75.152 175.791 74.8C175.551 74.512 175.367 74.2 175.239 73.864C175.127 73.528 175.071 73.16 175.071 72.76C175.071 72.248 175.175 71.776 175.383 71.344C175.607 70.912 175.911 70.536 176.295 70.216C176.695 69.88 177.159 69.632 177.687 69.472C178.231 69.296 178.815 69.208 179.439 69.208C180.031 69.208 180.615 69.288 181.191 69.448C181.767 69.608 182.303 69.84 182.799 70.144C183.295 70.448 183.719 70.808 184.071 71.224L182.967 72.424C182.663 72.104 182.327 71.816 181.959 71.56C181.591 71.304 181.199 71.104 180.783 70.96C180.383 70.816 179.967 70.744 179.535 70.744C179.151 70.744 178.791 70.792 178.455 70.888C178.135 70.984 177.855 71.12 177.615 71.296C177.391 71.456 177.215 71.656 177.087 71.896C176.975 72.136 176.919 72.4 176.919 72.688C176.919 72.928 176.967 73.144 177.063 73.336C177.159 73.528 177.295 73.696 177.471 73.84C177.695 74.016 178.007 74.184 178.407 74.344C178.823 74.488 179.335 74.64 179.943 74.8C180.647 74.992 181.239 75.192 181.719 75.4C182.215 75.592 182.623 75.824 182.943 76.096C183.375 76.416 183.679 76.784 183.855 77.2C184.047 77.616 184.143 78.088 184.143 78.616C184.143 79.32 183.943 79.944 183.543 80.488C183.159 81.032 182.623 81.464 181.935 81.784C181.247 82.088 180.463 82.24 179.583 82.24ZM188.691 82V66.184H190.491V82H188.691ZM185.859 71.2V69.472H193.659V71.2H185.859ZM195.869 82V69.472H197.669L197.717 72.808L197.525 72.352C197.701 71.792 197.981 71.272 198.365 70.792C198.765 70.312 199.237 69.928 199.781 69.64C200.325 69.352 200.925 69.208 201.581 69.208C201.853 69.208 202.109 69.232 202.349 69.28C202.589 69.312 202.789 69.36 202.949 69.424L202.445 71.44C202.237 71.344 202.021 71.28 201.797 71.248C201.589 71.2 201.389 71.176 201.197 71.176C200.653 71.176 200.165 71.272 199.733 71.464C199.301 71.656 198.933 71.928 198.629 72.28C198.325 72.616 198.093 73.008 197.933 73.456C197.773 73.904 197.693 74.384 197.693 74.896V82H195.869ZM209.179 82.24C208.091 82.24 207.107 81.96 206.227 81.4C205.347 80.824 204.651 80.048 204.139 79.072C203.627 78.08 203.371 76.96 203.371 75.712C203.371 74.448 203.635 73.328 204.163 72.352C204.691 71.376 205.395 70.608 206.275 70.048C207.171 69.488 208.171 69.208 209.275 69.208C209.931 69.208 210.539 69.304 211.099 69.496C211.659 69.688 212.155 69.96 212.587 70.312C213.035 70.648 213.403 71.048 213.691 71.512C213.995 71.96 214.203 72.448 214.315 72.976L213.787 72.712L213.859 69.472H215.659V82H213.835V78.928L214.315 78.616C214.203 79.096 213.987 79.56 213.667 80.008C213.347 80.44 212.955 80.824 212.491 81.16C212.043 81.496 211.531 81.76 210.955 81.952C210.395 82.144 209.803 82.24 209.179 82.24ZM209.587 80.512C210.419 80.512 211.163 80.312 211.819 79.912C212.475 79.496 212.987 78.928 213.355 78.208C213.739 77.472 213.931 76.64 213.931 75.712C213.931 74.784 213.739 73.96 213.355 73.24C212.987 72.52 212.475 71.952 211.819 71.536C211.163 71.12 210.419 70.912 209.587 70.912C208.739 70.912 207.987 71.12 207.331 71.536C206.691 71.952 206.179 72.52 205.795 73.24C205.427 73.96 205.243 74.784 205.243 75.712C205.243 76.624 205.427 77.448 205.795 78.184C206.163 78.904 206.675 79.472 207.331 79.888C207.987 80.304 208.739 80.512 209.587 80.512ZM224.254 82.24C223.118 82.24 222.094 81.96 221.182 81.4C220.286 80.84 219.574 80.072 219.046 79.096C218.534 78.104 218.278 76.984 218.278 75.736C218.278 74.472 218.542 73.352 219.07 72.376C219.598 71.384 220.31 70.608 221.206 70.048C222.102 69.488 223.11 69.208 224.23 69.208C224.854 69.208 225.454 69.304 226.03 69.496C226.622 69.688 227.15 69.96 227.614 70.312C228.078 70.648 228.462 71.04 228.766 71.488C229.07 71.92 229.254 72.376 229.318 72.856L228.766 72.664V64.24H230.566V82H228.79L228.742 78.88L229.198 78.712C229.134 79.16 228.95 79.6 228.646 80.032C228.358 80.448 227.99 80.824 227.542 81.16C227.094 81.496 226.582 81.76 226.006 81.952C225.446 82.144 224.862 82.24 224.254 82.24ZM224.518 80.584C225.35 80.584 226.094 80.376 226.75 79.96C227.406 79.544 227.918 78.968 228.286 78.232C228.67 77.496 228.862 76.656 228.862 75.712C228.862 74.768 228.67 73.936 228.286 73.216C227.918 72.48 227.406 71.904 226.75 71.488C226.094 71.056 225.35 70.84 224.518 70.84C223.654 70.84 222.894 71.056 222.238 71.488C221.598 71.904 221.086 72.48 220.702 73.216C220.334 73.936 220.15 74.768 220.15 75.712C220.15 76.64 220.334 77.472 220.702 78.208C221.07 78.944 221.582 79.528 222.238 79.96C222.894 80.376 223.654 80.584 224.518 80.584ZM239.616 82.24C238.368 82.24 237.256 81.96 236.28 81.4C235.32 80.84 234.56 80.064 234 79.072C233.456 78.08 233.184 76.952 233.184 75.688C233.184 74.44 233.456 73.328 234 72.352C234.56 71.376 235.32 70.608 236.28 70.048C237.256 69.488 238.368 69.208 239.616 69.208C240.848 69.208 241.944 69.488 242.904 70.048C243.88 70.608 244.64 71.376 245.184 72.352C245.744 73.328 246.024 74.44 246.024 75.688C246.024 76.952 245.744 78.08 245.184 79.072C244.64 80.064 243.88 80.84 242.904 81.4C241.944 81.96 240.848 82.24 239.616 82.24ZM239.616 80.536C240.496 80.536 241.28 80.328 241.968 79.912C242.656 79.48 243.192 78.904 243.576 78.184C243.96 77.448 244.152 76.616 244.152 75.688C244.152 74.76 243.96 73.936 243.576 73.216C243.192 72.496 242.656 71.936 241.968 71.536C241.28 71.12 240.496 70.912 239.616 70.912C238.736 70.912 237.944 71.12 237.24 71.536C236.552 71.936 236.008 72.504 235.608 73.24C235.224 73.96 235.04 74.776 235.056 75.688C235.04 76.616 235.224 77.448 235.608 78.184C236.008 78.904 236.552 79.48 237.24 79.912C237.944 80.328 238.736 80.536 239.616 80.536ZM252.754 82.24C251.682 82.24 250.722 82.04 249.874 81.64C249.026 81.24 248.354 80.712 247.858 80.056L249.13 78.952C249.594 79.512 250.138 79.936 250.762 80.224C251.402 80.512 252.114 80.656 252.898 80.656C253.298 80.656 253.658 80.616 253.978 80.536C254.298 80.44 254.578 80.304 254.818 80.128C255.058 79.952 255.242 79.744 255.37 79.504C255.498 79.264 255.562 79 255.562 78.712C255.562 78.184 255.33 77.744 254.866 77.392C254.658 77.248 254.362 77.104 253.978 76.96C253.594 76.8 253.13 76.648 252.586 76.504C251.69 76.248 250.946 75.992 250.354 75.736C249.762 75.464 249.298 75.152 248.962 74.8C248.722 74.512 248.538 74.2 248.41 73.864C248.298 73.528 248.242 73.16 248.242 72.76C248.242 72.248 248.346 71.776 248.554 71.344C248.778 70.912 249.082 70.536 249.466 70.216C249.866 69.88 250.33 69.632 250.858 69.472C251.402 69.296 251.986 69.208 252.61 69.208C253.202 69.208 253.786 69.288 254.362 69.448C254.938 69.608 255.474 69.84 255.97 70.144C256.466 70.448 256.89 70.808 257.242 71.224L256.138 72.424C255.834 72.104 255.498 71.816 255.13 71.56C254.762 71.304 254.37 71.104 253.954 70.96C253.554 70.816 253.138 70.744 252.706 70.744C252.322 70.744 251.962 70.792 251.626 70.888C251.306 70.984 251.026 71.12 250.786 71.296C250.562 71.456 250.386 71.656 250.258 71.896C250.146 72.136 250.09 72.4 250.09 72.688C250.09 72.928 250.138 73.144 250.234 73.336C250.33 73.528 250.466 73.696 250.642 73.84C250.866 74.016 251.178 74.184 251.578 74.344C251.994 74.488 252.506 74.64 253.114 74.8C253.818 74.992 254.41 75.192 254.89 75.4C255.386 75.592 255.794 75.824 256.114 76.096C256.546 76.416 256.85 76.784 257.026 77.2C257.218 77.616 257.314 78.088 257.314 78.616C257.314 79.32 257.114 79.944 256.714 80.488C256.33 81.032 255.794 81.464 255.106 81.784C254.418 82.088 253.634 82.24 252.754 82.24Z" fill="url(#paint1_linear_1570_5587)"/>
<defs>
<linearGradient id="paint0_linear_1570_5587" x1="146" y1="23.25" x2="111.5" y2="23.25" gradientUnits="userSpaceOnUse">
<stop stop-color="#43A3D5"/>
<stop offset="1" stop-color="#9C60DA"/>
</linearGradient>
<linearGradient id="paint1_linear_1570_5587" x1="258.5" y1="73" x2="0.5" y2="73" gradientUnits="userSpaceOnUse">
<stop stop-color="#43A3D5"/>
<stop offset="1" stop-color="#9C60DA"/>
</linearGradient>
</defs>
</svg>
