<svg width="163" height="40" viewBox="0 0 163 40" fill="none" xmlns="http://www.w3.org/2000/svg">
<rect x="0.5" y="0.5" width="162" height="39" rx="19.5" stroke="#E1DDF4"/>
<path d="M46.648 26V14.8H47.864L52.168 21.792L51.592 21.776L55.944 14.8H57.08V26H55.832V20.88C55.832 19.92 55.848 19.056 55.88 18.288C55.912 17.52 55.9707 16.7573 56.056 16L56.28 16.448L52.264 22.752H51.4L47.496 16.528L47.672 16C47.7573 16.7147 47.816 17.4507 47.848 18.208C47.88 18.9547 47.896 19.8453 47.896 20.88V26H46.648ZM63.5984 26.16C62.7664 26.16 62.025 25.9733 61.3744 25.6C60.7344 25.2267 60.2277 24.7093 59.8544 24.048C59.4917 23.3867 59.3104 22.6347 59.3104 21.792C59.3104 20.96 59.4917 20.2187 59.8544 19.568C60.2277 18.9173 60.7344 18.4053 61.3744 18.032C62.025 17.6587 62.7664 17.472 63.5984 17.472C64.4197 17.472 65.1504 17.6587 65.7904 18.032C66.441 18.4053 66.9477 18.9173 67.3104 19.568C67.6837 20.2187 67.8704 20.96 67.8704 21.792C67.8704 22.6347 67.6837 23.3867 67.3104 24.048C66.9477 24.7093 66.441 25.2267 65.7904 25.6C65.1504 25.9733 64.4197 26.16 63.5984 26.16ZM63.5984 25.024C64.185 25.024 64.7077 24.8853 65.1664 24.608C65.625 24.32 65.9824 23.936 66.2384 23.456C66.4944 22.9653 66.6224 22.4107 66.6224 21.792C66.6224 21.1733 66.4944 20.624 66.2384 20.144C65.9824 19.664 65.625 19.2907 65.1664 19.024C64.7077 18.7467 64.185 18.608 63.5984 18.608C63.0117 18.608 62.4837 18.7467 62.0144 19.024C61.5557 19.2907 61.193 19.6693 60.9264 20.16C60.6704 20.64 60.5477 21.184 60.5584 21.792C60.5477 22.4107 60.6704 22.9653 60.9264 23.456C61.193 23.936 61.5557 24.32 62.0144 24.608C62.4837 24.8853 63.0117 25.024 63.5984 25.024ZM73.0131 26.16C72.2558 26.16 71.5731 25.9733 70.9651 25.6C70.3678 25.2267 69.8931 24.7147 69.5411 24.064C69.1998 23.4027 69.0291 22.656 69.0291 21.824C69.0291 20.9813 69.2051 20.2347 69.5571 19.584C69.9091 18.9227 70.3838 18.4053 70.9811 18.032C71.5785 17.6587 72.2505 17.472 72.9971 17.472C73.4131 17.472 73.8131 17.536 74.1971 17.664C74.5918 17.792 74.9438 17.9733 75.2531 18.208C75.5625 18.432 75.8185 18.6933 76.0211 18.992C76.2238 19.28 76.3465 19.584 76.3891 19.904L76.0211 19.776V14.16H77.2211V26H76.0371L76.0051 23.92L76.3091 23.808C76.2665 24.1067 76.1438 24.4 75.9411 24.688C75.7491 24.9653 75.5038 25.216 75.2051 25.44C74.9065 25.664 74.5651 25.84 74.1811 25.968C73.8078 26.096 73.4185 26.16 73.0131 26.16ZM73.1891 25.056C73.7438 25.056 74.2398 24.9173 74.6771 24.64C75.1145 24.3627 75.4558 23.9787 75.7011 23.488C75.9571 22.9973 76.0851 22.4373 76.0851 21.808C76.0851 21.1787 75.9571 20.624 75.7011 20.144C75.4558 19.6533 75.1145 19.2693 74.6771 18.992C74.2398 18.704 73.7438 18.56 73.1891 18.56C72.6131 18.56 72.1065 18.704 71.6691 18.992C71.2425 19.2693 70.9011 19.6533 70.6451 20.144C70.3998 20.624 70.2771 21.1787 70.2771 21.808C70.2771 22.4267 70.3998 22.9813 70.6451 23.472C70.8905 23.9627 71.2318 24.352 71.6691 24.64C72.1065 24.9173 72.6131 25.056 73.1891 25.056ZM79.8786 26V17.648H81.0786V26H79.8786ZM80.4706 15.84C80.172 15.84 79.9426 15.7653 79.7826 15.616C79.6333 15.456 79.5586 15.2427 79.5586 14.976C79.5586 14.7093 79.6386 14.496 79.7986 14.336C79.9586 14.176 80.1826 14.096 80.4706 14.096C80.7586 14.096 80.9826 14.176 81.1426 14.336C81.3026 14.4853 81.3826 14.6987 81.3826 14.976C81.3826 15.232 81.3026 15.44 81.1426 15.6C80.9826 15.76 80.7586 15.84 80.4706 15.84ZM84.6593 26V16.352C84.6593 15.936 84.7499 15.568 84.9313 15.248C85.1126 14.928 85.3686 14.6773 85.6993 14.496C86.0406 14.304 86.4353 14.208 86.8833 14.208C87.2246 14.208 87.5286 14.272 87.7953 14.4C88.0726 14.5173 88.3019 14.6827 88.4833 14.896L88.0673 15.84C87.8966 15.6587 87.7099 15.5307 87.5073 15.456C87.3153 15.3707 87.1286 15.328 86.9473 15.328C86.7126 15.328 86.5153 15.3707 86.3553 15.456C86.1953 15.5307 86.0726 15.648 85.9873 15.808C85.9126 15.9573 85.8753 16.1387 85.8753 16.352V26H85.3153C85.1979 26 85.0859 26 84.9793 26C84.8726 26 84.7659 26 84.6593 26ZM83.1713 18.832V17.712H88.0033V18.832H83.1713ZM90.0673 26V17.648H91.2673V26H90.0673ZM90.6593 15.84C90.3606 15.84 90.1313 15.7653 89.9713 15.616C89.8219 15.456 89.7473 15.2427 89.7473 14.976C89.7473 14.7093 89.8273 14.496 89.9873 14.336C90.1473 14.176 90.3713 14.096 90.6593 14.096C90.9473 14.096 91.1713 14.176 91.3313 14.336C91.4913 14.4853 91.5712 14.6987 91.5712 14.976C91.5712 15.232 91.4913 15.44 91.3313 15.6C91.1713 15.76 90.9473 15.84 90.6593 15.84ZM97.4068 26.16C96.6174 26.16 95.9134 25.9733 95.2948 25.6C94.6761 25.216 94.1854 24.6987 93.8228 24.048C93.4708 23.3867 93.2948 22.64 93.2948 21.808C93.2948 20.976 93.4708 20.2347 93.8228 19.584C94.1854 18.9227 94.6761 18.4053 95.2948 18.032C95.9134 17.6587 96.6228 17.472 97.4227 17.472C98.1374 17.472 98.7881 17.616 99.3748 17.904C99.9614 18.1813 100.431 18.5707 100.783 19.072L100.079 19.936C99.8761 19.6693 99.6308 19.4347 99.3428 19.232C99.0654 19.0293 98.7614 18.8747 98.4308 18.768C98.1108 18.6507 97.7908 18.592 97.4708 18.592C96.9054 18.592 96.3988 18.736 95.9508 19.024C95.5028 19.3013 95.1454 19.68 94.8788 20.16C94.6228 20.64 94.4948 21.1893 94.4948 21.808C94.4948 22.4267 94.6228 22.9813 94.8788 23.472C95.1454 23.952 95.5028 24.3307 95.9508 24.608C96.3988 24.8853 96.9001 25.024 97.4548 25.024C97.7748 25.024 98.0894 24.976 98.3988 24.88C98.7081 24.7733 99.0014 24.624 99.2788 24.432C99.5561 24.24 99.8121 24 100.047 23.712L100.751 24.576C100.388 25.056 99.9028 25.44 99.2948 25.728C98.6868 26.016 98.0574 26.16 97.4068 26.16ZM105.573 26.16C104.847 26.16 104.191 25.9733 103.605 25.6C103.018 25.216 102.554 24.6987 102.213 24.048C101.871 23.3867 101.701 22.64 101.701 21.808C101.701 20.9653 101.877 20.2187 102.229 19.568C102.581 18.9173 103.05 18.4053 103.637 18.032C104.234 17.6587 104.901 17.472 105.637 17.472C106.074 17.472 106.479 17.536 106.853 17.664C107.226 17.792 107.557 17.9733 107.845 18.208C108.143 18.432 108.389 18.6987 108.581 19.008C108.783 19.3067 108.922 19.632 108.997 19.984L108.645 19.808L108.693 17.648H109.893V26H108.677V23.952L108.997 23.744C108.922 24.064 108.778 24.3733 108.565 24.672C108.351 24.96 108.09 25.216 107.781 25.44C107.482 25.664 107.141 25.84 106.757 25.968C106.383 26.096 105.989 26.16 105.573 26.16ZM105.845 25.008C106.399 25.008 106.895 24.8747 107.333 24.608C107.77 24.3307 108.111 23.952 108.357 23.472C108.613 22.9813 108.741 22.4267 108.741 21.808C108.741 21.1893 108.613 20.64 108.357 20.16C108.111 19.68 107.77 19.3013 107.333 19.024C106.895 18.7467 106.399 18.608 105.845 18.608C105.279 18.608 104.778 18.7467 104.341 19.024C103.914 19.3013 103.573 19.68 103.317 20.16C103.071 20.64 102.949 21.1893 102.949 21.808C102.949 22.416 103.071 22.9653 103.317 23.456C103.562 23.936 103.903 24.3147 104.341 24.592C104.778 24.8693 105.279 25.008 105.845 25.008ZM112.231 26V17.648H113.431L113.463 19.872L113.335 19.568C113.452 19.1947 113.639 18.848 113.895 18.528C114.161 18.208 114.476 17.952 114.839 17.76C115.201 17.568 115.601 17.472 116.039 17.472C116.22 17.472 116.391 17.488 116.551 17.52C116.711 17.5413 116.844 17.5733 116.951 17.616L116.615 18.96C116.476 18.896 116.332 18.8533 116.183 18.832C116.044 18.8 115.911 18.784 115.783 18.784C115.42 18.784 115.095 18.848 114.807 18.976C114.519 19.104 114.273 19.2853 114.071 19.52C113.868 19.744 113.713 20.0053 113.607 20.304C113.5 20.6027 113.447 20.9227 113.447 21.264V26H112.231Z" fill="#E1DDF4"/>
</svg>
