<svg width="136" height="24" viewBox="0 0 136 24" fill="none" xmlns="http://www.w3.org/2000/svg">
<g clip-path="url(#clip0_3005_4355)">
<path d="M18.8402 2L22.0001 5.15989L19.5912 7.56983L16.4313 4.40994L18.8402 2ZM7.26655 16.7335H10.4264L18.1018 9.05814L14.9419 5.89825L7.26655 13.5736V16.7335Z" fill="#9C60DA"/>
<path d="M18.8528 19.8934H7.43297C7.40558 19.8934 7.37714 19.9039 7.34976 19.9039C7.315 19.9039 7.28024 19.8945 7.24443 19.8934H4.10665V5.14725H11.3186L13.4252 3.04066H4.10665C2.94487 3.04066 2.00006 3.98441 2.00006 5.14725V19.8934C2.00006 21.0562 2.94487 22 4.10665 22H18.8528C19.4115 22 19.9473 21.7781 20.3424 21.383C20.7375 20.9879 20.9594 20.4521 20.9594 19.8934V10.7634L18.8528 12.87V19.8934Z" fill="#9C60DA"/>
</g>
<path d="M35.7574 18V6.8H36.9734L41.2774 13.792L40.7014 13.776L45.0534 6.8H46.1894V18H44.9414V12.88C44.9414 11.92 44.9574 11.056 44.9894 10.288C45.0214 9.52 45.08 8.75733 45.1654 8L45.3894 8.448L41.3734 14.752H40.5094L36.6054 8.528L36.7814 8C36.8667 8.71467 36.9254 9.45067 36.9574 10.208C36.9894 10.9547 37.0054 11.8453 37.0054 12.88V18H35.7574ZM51.9718 18.16C51.3318 18.16 50.7878 18.032 50.3398 17.776C49.9024 17.5093 49.5664 17.1253 49.3318 16.624C49.1078 16.1227 48.9958 15.4987 48.9958 14.752V9.648H50.2118V14.512C50.2118 15.0773 50.2864 15.552 50.4358 15.936C50.5958 16.3093 50.8304 16.592 51.1398 16.784C51.4598 16.976 51.8491 17.072 52.3078 17.072C52.6598 17.072 52.9851 17.0133 53.2838 16.896C53.5824 16.768 53.8438 16.5973 54.0678 16.384C54.2918 16.1707 54.4678 15.92 54.5958 15.632C54.7238 15.344 54.7878 15.04 54.7878 14.72V9.648H55.9878V18H54.8038L54.7558 16.24L54.9478 16.144C54.8198 16.5173 54.6064 16.8587 54.3078 17.168C54.0091 17.4667 53.6518 17.7067 53.2358 17.888C52.8304 18.0693 52.4091 18.16 51.9718 18.16ZM61.7163 18.16C60.9589 18.16 60.2763 17.9733 59.6683 17.6C59.0709 17.2267 58.5963 16.7147 58.2443 16.064C57.9029 15.4027 57.7323 14.656 57.7323 13.824C57.7323 12.9813 57.9083 12.2347 58.2603 11.584C58.6123 10.9227 59.0869 10.4053 59.6843 10.032C60.2816 9.65867 60.9536 9.472 61.7003 9.472C62.1163 9.472 62.5163 9.536 62.9003 9.664C63.2949 9.792 63.6469 9.97333 63.9563 10.208C64.2656 10.432 64.5216 10.6933 64.7243 10.992C64.9269 11.28 65.0496 11.584 65.0923 11.904L64.7243 11.776V6.16H65.9243V18H64.7403L64.7083 15.92L65.0123 15.808C64.9696 16.1067 64.8469 16.4 64.6443 16.688C64.4523 16.9653 64.2069 17.216 63.9083 17.44C63.6096 17.664 63.2683 17.84 62.8843 17.968C62.5109 18.096 62.1216 18.16 61.7163 18.16ZM61.8923 17.056C62.4469 17.056 62.9429 16.9173 63.3803 16.64C63.8176 16.3627 64.1589 15.9787 64.4043 15.488C64.6603 14.9973 64.7883 14.4373 64.7883 13.808C64.7883 13.1787 64.6603 12.624 64.4043 12.144C64.1589 11.6533 63.8176 11.2693 63.3803 10.992C62.9429 10.704 62.4469 10.56 61.8923 10.56C61.3163 10.56 60.8096 10.704 60.3723 10.992C59.9456 11.2693 59.6043 11.6533 59.3483 12.144C59.1029 12.624 58.9803 13.1787 58.9803 13.808C58.9803 14.4267 59.1029 14.9813 59.3483 15.472C59.5936 15.9627 59.9349 16.352 60.3723 16.64C60.8096 16.9173 61.3163 17.056 61.8923 17.056ZM71.5258 18.16C70.8004 18.16 70.1444 17.9733 69.5578 17.6C68.9711 17.216 68.5071 16.6987 68.1658 16.048C67.8244 15.3867 67.6538 14.64 67.6538 13.808C67.6538 12.9653 67.8298 12.2187 68.1818 11.568C68.5338 10.9173 69.0031 10.4053 69.5898 10.032C70.1871 9.65867 70.8538 9.472 71.5898 9.472C72.0271 9.472 72.4324 9.536 72.8058 9.664C73.1791 9.792 73.5098 9.97333 73.7978 10.208C74.0964 10.432 74.3418 10.6987 74.5338 11.008C74.7364 11.3067 74.8751 11.632 74.9498 11.984L74.5978 11.808L74.6458 9.648H75.8458V18H74.6298V15.952L74.9498 15.744C74.8751 16.064 74.7311 16.3733 74.5178 16.672C74.3044 16.96 74.0431 17.216 73.7338 17.44C73.4351 17.664 73.0938 17.84 72.7098 17.968C72.3364 18.096 71.9418 18.16 71.5258 18.16ZM71.7977 17.008C72.3524 17.008 72.8484 16.8747 73.2858 16.608C73.7231 16.3307 74.0644 15.952 74.3098 15.472C74.5658 14.9813 74.6938 14.4267 74.6938 13.808C74.6938 13.1893 74.5658 12.64 74.3098 12.16C74.0644 11.68 73.7231 11.3013 73.2858 11.024C72.8484 10.7467 72.3524 10.608 71.7977 10.608C71.2324 10.608 70.7311 10.7467 70.2938 11.024C69.8671 11.3013 69.5258 11.68 69.2698 12.16C69.0244 12.64 68.9018 13.1893 68.9018 13.808C68.9018 14.416 69.0244 14.9653 69.2698 15.456C69.5151 15.936 69.8564 16.3147 70.2938 16.592C70.7311 16.8693 71.2324 17.008 71.7977 17.008ZM78.1836 18V9.648H79.3836L79.4156 11.872L79.2876 11.568C79.405 11.1947 79.5916 10.848 79.8476 10.528C80.1143 10.208 80.429 9.952 80.7916 9.76C81.1543 9.568 81.5543 9.472 81.9916 9.472C82.173 9.472 82.3436 9.488 82.5036 9.52C82.6636 9.54133 82.797 9.57333 82.9036 9.616L82.5676 10.96C82.429 10.896 82.285 10.8533 82.1356 10.832C81.997 10.8 81.8636 10.784 81.7356 10.784C81.373 10.784 81.0476 10.848 80.7596 10.976C80.4716 11.104 80.2263 11.2853 80.0236 11.52C79.821 11.744 79.6663 12.0053 79.5596 12.304C79.453 12.6027 79.3996 12.9227 79.3996 13.264V18H78.1836ZM92.3808 18.16C91.8154 18.16 91.2821 18.08 90.7808 17.92C90.2794 17.76 89.8208 17.52 89.4048 17.2C88.9888 16.88 88.6208 16.4853 88.3008 16.016L89.1648 15.056C89.6661 15.7707 90.1781 16.272 90.7008 16.56C91.2341 16.848 91.8314 16.992 92.4928 16.992C92.9728 16.992 93.4101 16.912 93.8048 16.752C94.1994 16.592 94.5088 16.368 94.7328 16.08C94.9568 15.792 95.0688 15.4613 95.0688 15.088C95.0688 14.8427 95.0261 14.624 94.9408 14.432C94.8661 14.24 94.7488 14.0693 94.5888 13.92C94.4288 13.7707 94.2314 13.6373 93.9968 13.52C93.7621 13.4027 93.4901 13.296 93.1808 13.2C92.8821 13.104 92.5461 13.008 92.1727 12.912C91.6288 12.784 91.1488 12.6347 90.7328 12.464C90.3274 12.2827 89.9808 12.064 89.6928 11.808C89.4154 11.552 89.2021 11.2587 89.0528 10.928C88.9141 10.5867 88.8448 10.1867 88.8448 9.728C88.8448 9.29067 88.9354 8.88533 89.1168 8.512C89.3088 8.13867 89.5701 7.81867 89.9008 7.552C90.2314 7.27467 90.6208 7.06133 91.0688 6.912C91.5168 6.76267 91.9968 6.688 92.5088 6.688C93.0848 6.688 93.5968 6.768 94.0448 6.928C94.5034 7.07733 94.9088 7.30133 95.2608 7.6C95.6128 7.89867 95.9168 8.256 96.1728 8.672L95.2928 9.536C95.0688 9.184 94.8128 8.88 94.5248 8.624C94.2474 8.368 93.9381 8.176 93.5968 8.048C93.2661 7.90933 92.8981 7.84 92.4928 7.84C92.0234 7.84 91.6074 7.92 91.2448 8.08C90.8928 8.24 90.6154 8.464 90.4128 8.752C90.2101 9.02933 90.1088 9.34933 90.1088 9.712C90.1088 9.97867 90.1568 10.2187 90.2528 10.432C90.3488 10.6347 90.4981 10.816 90.7008 10.976C90.9141 11.1253 91.1861 11.264 91.5168 11.392C91.8581 11.5093 92.2634 11.6213 92.7328 11.728C93.2874 11.856 93.7834 12.0107 94.2208 12.192C94.6688 12.3733 95.0474 12.592 95.3568 12.848C95.6768 13.0933 95.9168 13.3813 96.0768 13.712C96.2474 14.0427 96.3328 14.4213 96.3328 14.848C96.3328 15.5093 96.1674 16.0907 95.8368 16.592C95.5061 17.0827 95.0421 17.4667 94.4448 17.744C93.8581 18.0213 93.1701 18.16 92.3808 18.16ZM99.5231 18V7.456H100.723V18H99.5231ZM97.6351 10.8V9.648H102.835V10.8H97.6351ZM107.495 18.16C106.769 18.16 106.113 17.9733 105.527 17.6C104.94 17.216 104.476 16.6987 104.135 16.048C103.793 15.3867 103.623 14.64 103.623 13.808C103.623 12.9653 103.799 12.2187 104.151 11.568C104.503 10.9173 104.972 10.4053 105.559 10.032C106.156 9.65867 106.823 9.472 107.559 9.472C107.996 9.472 108.401 9.536 108.775 9.664C109.148 9.792 109.479 9.97333 109.767 10.208C110.065 10.432 110.311 10.6987 110.503 11.008C110.705 11.3067 110.844 11.632 110.919 11.984L110.567 11.808L110.615 9.648H111.815V18H110.599V15.952L110.919 15.744C110.844 16.064 110.7 16.3733 110.487 16.672C110.273 16.96 110.012 17.216 109.703 17.44C109.404 17.664 109.063 17.84 108.679 17.968C108.305 18.096 107.911 18.16 107.495 18.16ZM107.766 17.008C108.321 17.008 108.817 16.8747 109.255 16.608C109.692 16.3307 110.033 15.952 110.279 15.472C110.535 14.9813 110.663 14.4267 110.663 13.808C110.663 13.1893 110.535 12.64 110.279 12.16C110.033 11.68 109.692 11.3013 109.255 11.024C108.817 10.7467 108.321 10.608 107.766 10.608C107.201 10.608 106.7 10.7467 106.263 11.024C105.836 11.3013 105.495 11.68 105.239 12.16C104.993 12.64 104.871 13.1893 104.871 13.808C104.871 14.416 104.993 14.9653 105.239 15.456C105.484 15.936 105.825 16.3147 106.263 16.592C106.7 16.8693 107.201 17.008 107.766 17.008ZM115.304 18V7.456H116.504V18H115.304ZM113.416 10.8V9.648H118.616V10.8H113.416ZM123.05 18.16C122.41 18.16 121.866 18.032 121.418 17.776C120.981 17.5093 120.645 17.1253 120.41 16.624C120.186 16.1227 120.074 15.4987 120.074 14.752V9.648H121.29V14.512C121.29 15.0773 121.365 15.552 121.514 15.936C121.674 16.3093 121.909 16.592 122.218 16.784C122.538 16.976 122.927 17.072 123.386 17.072C123.738 17.072 124.063 17.0133 124.362 16.896C124.661 16.768 124.922 16.5973 125.146 16.384C125.37 16.1707 125.546 15.92 125.674 15.632C125.802 15.344 125.866 15.04 125.866 14.72V9.648H127.066V18H125.882L125.834 16.24L126.026 16.144C125.898 16.5173 125.685 16.8587 125.386 17.168C125.087 17.4667 124.73 17.7067 124.314 17.888C123.909 18.0693 123.487 18.16 123.05 18.16ZM132.138 18.16C131.424 18.16 130.784 18.0267 130.218 17.76C129.653 17.4933 129.205 17.1413 128.874 16.704L129.722 15.968C130.032 16.3413 130.394 16.624 130.81 16.816C131.237 17.008 131.712 17.104 132.234 17.104C132.501 17.104 132.741 17.0773 132.954 17.024C133.168 16.96 133.354 16.8693 133.514 16.752C133.674 16.6347 133.797 16.496 133.882 16.336C133.968 16.176 134.01 16 134.01 15.808C134.01 15.456 133.856 15.1627 133.546 14.928C133.408 14.832 133.21 14.736 132.954 14.64C132.698 14.5333 132.389 14.432 132.026 14.336C131.429 14.1653 130.933 13.9947 130.538 13.824C130.144 13.6427 129.834 13.4347 129.61 13.2C129.45 13.008 129.328 12.8 129.242 12.576C129.168 12.352 129.13 12.1067 129.13 11.84C129.13 11.4987 129.2 11.184 129.338 10.896C129.488 10.608 129.69 10.3573 129.946 10.144C130.213 9.92 130.522 9.75467 130.874 9.648C131.237 9.53067 131.626 9.472 132.042 9.472C132.437 9.472 132.826 9.52533 133.21 9.632C133.594 9.73867 133.952 9.89333 134.282 10.096C134.613 10.2987 134.896 10.5387 135.13 10.816L134.394 11.616C134.192 11.4027 133.968 11.2107 133.722 11.04C133.477 10.8693 133.216 10.736 132.938 10.64C132.672 10.544 132.394 10.496 132.106 10.496C131.85 10.496 131.61 10.528 131.386 10.592C131.173 10.656 130.986 10.7467 130.826 10.864C130.677 10.9707 130.56 11.104 130.474 11.264C130.4 11.424 130.362 11.6 130.362 11.792C130.362 11.952 130.394 12.096 130.458 12.224C130.522 12.352 130.613 12.464 130.73 12.56C130.88 12.6773 131.088 12.7893 131.354 12.896C131.632 12.992 131.973 13.0933 132.378 13.2C132.848 13.328 133.242 13.4613 133.562 13.6C133.893 13.728 134.165 13.8827 134.378 14.064C134.666 14.2773 134.869 14.5227 134.986 14.8C135.114 15.0773 135.178 15.392 135.178 15.744C135.178 16.2133 135.045 16.6293 134.778 16.992C134.522 17.3547 134.165 17.6427 133.706 17.856C133.248 18.0587 132.725 18.16 132.138 18.16Z" fill="url(#paint0_linear_3005_4355)"/>
<defs>
<linearGradient id="paint0_linear_3005_4355" x1="136" y1="12" x2="34" y2="12" gradientUnits="userSpaceOnUse">
<stop stop-color="#43A3D5"/>
<stop offset="1" stop-color="#9C60DA"/>
</linearGradient>
<clipPath id="clip0_3005_4355">
<rect width="20" height="20" fill="white" transform="translate(2.00006 2)"/>
</clipPath>
</defs>
</svg>
