<svg width="214" height="44" viewBox="0 0 214 44" fill="none" xmlns="http://www.w3.org/2000/svg">
<rect x="0.5" y="0.5" width="213" height="43" rx="21.5" stroke="#E1DDF4"/>
<path d="M28 25.4375C23.58 25.4375 20 27.2275 20 29.4375V31.4375H36V29.4375C36 27.2275 32.42 25.4375 28 25.4375ZM24 19.4375C24 20.4984 24.4214 21.5158 25.1716 22.2659C25.9217 23.0161 26.9391 23.4375 28 23.4375C29.0609 23.4375 30.0783 23.0161 30.8284 22.2659C31.5786 21.5158 32 20.4984 32 19.4375M27.5 12.4375C27.2 12.4375 27 12.6475 27 12.9375V15.9375H26V13.4375C26 13.4375 23.75 14.2975 23.75 17.1875C23.75 17.1875 23 17.3275 23 18.4375H33C32.95 17.3275 32.25 17.1875 32.25 17.1875C32.25 14.2975 30 13.4375 30 13.4375V15.9375H29V12.9375C29 12.6475 28.81 12.4375 28.5 12.4375H27.5Z" fill="#E1DDF4"/>
<path d="M38.2727 19V15.625H35V13.375H38.2727V10H40.4545V13.375H43.7273V15.625H40.4545V19H38.2727Z" fill="#E1DDF4"/>
<path d="M55.9839 28V16.8H57.1199L64.4479 26.496L64.2239 26.784C64.1919 26.6133 64.1653 26.3573 64.1439 26.016C64.1333 25.6747 64.1173 25.2907 64.0959 24.864C64.0853 24.4267 64.0746 23.9733 64.0639 23.504C64.0533 23.0347 64.0426 22.576 64.0319 22.128C64.0319 21.68 64.0319 21.2747 64.0319 20.912V16.8H65.2799V28H64.1119L56.8159 18.432L57.0079 18.096C57.0399 18.5227 57.0666 18.944 57.0879 19.36C57.1199 19.776 57.1413 20.176 57.1519 20.56C57.1733 20.944 57.1893 21.296 57.1999 21.616C57.2106 21.936 57.2159 22.208 57.2159 22.432C57.2266 22.656 57.2319 22.816 57.2319 22.912V28H55.9839ZM71.7937 28.16C70.9617 28.16 70.2204 27.9733 69.5697 27.6C68.9297 27.2267 68.423 26.7093 68.0497 26.048C67.687 25.3867 67.5057 24.6347 67.5057 23.792C67.5057 22.96 67.687 22.2187 68.0497 21.568C68.423 20.9173 68.9297 20.4053 69.5697 20.032C70.2204 19.6587 70.9617 19.472 71.7937 19.472C72.615 19.472 73.3457 19.6587 73.9857 20.032C74.6364 20.4053 75.143 20.9173 75.5057 21.568C75.879 22.2187 76.0657 22.96 76.0657 23.792C76.0657 24.6347 75.879 25.3867 75.5057 26.048C75.143 26.7093 74.6364 27.2267 73.9857 27.6C73.3457 27.9733 72.615 28.16 71.7937 28.16ZM71.7937 27.024C72.3804 27.024 72.903 26.8853 73.3617 26.608C73.8204 26.32 74.1777 25.936 74.4337 25.456C74.6897 24.9653 74.8177 24.4107 74.8177 23.792C74.8177 23.1733 74.6897 22.624 74.4337 22.144C74.1777 21.664 73.8204 21.2907 73.3617 21.024C72.903 20.7467 72.3804 20.608 71.7937 20.608C71.207 20.608 70.679 20.7467 70.2097 21.024C69.751 21.2907 69.3884 21.6693 69.1217 22.16C68.8657 22.64 68.743 23.184 68.7537 23.792C68.743 24.4107 68.8657 24.9653 69.1217 25.456C69.3884 25.936 69.751 26.32 70.2097 26.608C70.679 26.8853 71.207 27.024 71.7937 27.024ZM80.1741 28L76.6541 19.648H77.9821L80.7661 26.48L80.4461 26.656L83.5021 19.648H84.7821L81.0381 28H80.1741ZM89.6531 28.16C88.8211 28.16 88.0797 27.9733 87.4291 27.6C86.7891 27.2267 86.2824 26.7093 85.9091 26.048C85.5464 25.3867 85.3651 24.6347 85.3651 23.792C85.3651 22.96 85.5464 22.2187 85.9091 21.568C86.2824 20.9173 86.7891 20.4053 87.4291 20.032C88.0797 19.6587 88.8211 19.472 89.6531 19.472C90.4744 19.472 91.2051 19.6587 91.8451 20.032C92.4957 20.4053 93.0024 20.9173 93.3651 21.568C93.7384 22.2187 93.9251 22.96 93.9251 23.792C93.9251 24.6347 93.7384 25.3867 93.3651 26.048C93.0024 26.7093 92.4957 27.2267 91.8451 27.6C91.2051 27.9733 90.4744 28.16 89.6531 28.16ZM89.6531 27.024C90.2397 27.024 90.7624 26.8853 91.2211 26.608C91.6797 26.32 92.0371 25.936 92.2931 25.456C92.5491 24.9653 92.6771 24.4107 92.6771 23.792C92.6771 23.1733 92.5491 22.624 92.2931 22.144C92.0371 21.664 91.6797 21.2907 91.2211 21.024C90.7624 20.7467 90.2397 20.608 89.6531 20.608C89.0664 20.608 88.5384 20.7467 88.0691 21.024C87.6104 21.2907 87.2477 21.6693 86.9811 22.16C86.7251 22.64 86.6024 23.184 86.6131 23.792C86.6024 24.4107 86.7251 24.9653 86.9811 25.456C87.2477 25.936 87.6104 26.32 88.0691 26.608C88.5384 26.8853 89.0664 27.024 89.6531 27.024ZM105.28 28.16C104.48 28.16 103.744 28.0213 103.072 27.744C102.4 27.456 101.819 27.056 101.328 26.544C100.838 26.0213 100.454 25.408 100.176 24.704C99.9095 24 99.7762 23.232 99.7762 22.4C99.7762 21.5787 99.9095 20.8267 100.176 20.144C100.454 19.4507 100.843 18.848 101.344 18.336C101.846 17.8133 102.427 17.4133 103.088 17.136C103.75 16.8587 104.475 16.72 105.264 16.72C105.787 16.72 106.304 16.8053 106.816 16.976C107.328 17.136 107.798 17.36 108.224 17.648C108.662 17.936 109.019 18.2667 109.296 18.64L108.432 19.536C108.166 19.216 107.856 18.9387 107.504 18.704C107.163 18.4693 106.8 18.288 106.416 18.16C106.032 18.032 105.648 17.968 105.264 17.968C104.667 17.968 104.107 18.08 103.584 18.304C103.072 18.5173 102.63 18.8213 102.256 19.216C101.883 19.6107 101.59 20.08 101.376 20.624C101.174 21.168 101.072 21.76 101.072 22.4C101.072 23.0613 101.174 23.6693 101.376 24.224C101.59 24.7787 101.888 25.2587 102.272 25.664C102.667 26.0587 103.126 26.368 103.648 26.592C104.182 26.8053 104.774 26.912 105.424 26.912C105.808 26.912 106.192 26.8587 106.576 26.752C106.96 26.6347 107.312 26.4747 107.632 26.272C107.952 26.0693 108.224 25.84 108.448 25.584L109.088 26.624C108.843 26.9227 108.512 27.1893 108.096 27.424C107.691 27.648 107.243 27.8293 106.752 27.968C106.262 28.096 105.771 28.16 105.28 28.16ZM114.669 28.16C113.837 28.16 113.095 27.9733 112.445 27.6C111.805 27.2267 111.298 26.7093 110.925 26.048C110.562 25.3867 110.381 24.6347 110.381 23.792C110.381 22.96 110.562 22.2187 110.925 21.568C111.298 20.9173 111.805 20.4053 112.445 20.032C113.095 19.6587 113.837 19.472 114.669 19.472C115.49 19.472 116.221 19.6587 116.861 20.032C117.511 20.4053 118.018 20.9173 118.381 21.568C118.754 22.2187 118.941 22.96 118.941 23.792C118.941 24.6347 118.754 25.3867 118.381 26.048C118.018 26.7093 117.511 27.2267 116.861 27.6C116.221 27.9733 115.49 28.16 114.669 28.16ZM114.669 27.024C115.255 27.024 115.778 26.8853 116.237 26.608C116.695 26.32 117.053 25.936 117.309 25.456C117.565 24.9653 117.693 24.4107 117.693 23.792C117.693 23.1733 117.565 22.624 117.309 22.144C117.053 21.664 116.695 21.2907 116.237 21.024C115.778 20.7467 115.255 20.608 114.669 20.608C114.082 20.608 113.554 20.7467 113.085 21.024C112.626 21.2907 112.263 21.6693 111.997 22.16C111.741 22.64 111.618 23.184 111.629 23.792C111.618 24.4107 111.741 24.9653 111.997 25.456C112.263 25.936 112.626 26.32 113.085 26.608C113.554 26.8853 114.082 27.024 114.669 27.024ZM120.723 28V16.16H121.923V28H120.723ZM127.393 28.16C126.668 28.16 126.012 27.9733 125.425 27.6C124.838 27.216 124.374 26.6987 124.033 26.048C123.692 25.3867 123.521 24.64 123.521 23.808C123.521 22.9653 123.697 22.2187 124.049 21.568C124.401 20.9173 124.87 20.4053 125.457 20.032C126.054 19.6587 126.721 19.472 127.457 19.472C127.894 19.472 128.3 19.536 128.673 19.664C129.046 19.792 129.377 19.9733 129.665 20.208C129.964 20.432 130.209 20.6987 130.401 21.008C130.604 21.3067 130.742 21.632 130.817 21.984L130.465 21.808L130.513 19.648H131.713V28H130.497V25.952L130.817 25.744C130.742 26.064 130.598 26.3733 130.385 26.672C130.172 26.96 129.91 27.216 129.601 27.44C129.302 27.664 128.961 27.84 128.577 27.968C128.204 28.096 127.809 28.16 127.393 28.16ZM127.665 27.008C128.22 27.008 128.716 26.8747 129.153 26.608C129.59 26.3307 129.932 25.952 130.177 25.472C130.433 24.9813 130.561 24.4267 130.561 23.808C130.561 23.1893 130.433 22.64 130.177 22.16C129.932 21.68 129.59 21.3013 129.153 21.024C128.716 20.7467 128.22 20.608 127.665 20.608C127.1 20.608 126.598 20.7467 126.161 21.024C125.734 21.3013 125.393 21.68 125.137 22.16C124.892 22.64 124.769 23.1893 124.769 23.808C124.769 24.416 124.892 24.9653 125.137 25.456C125.382 25.936 125.724 26.3147 126.161 26.592C126.598 26.8693 127.1 27.008 127.665 27.008ZM138.291 28.16C137.896 28.16 137.512 28.1013 137.139 27.984C136.765 27.856 136.424 27.6853 136.115 27.472C135.816 27.2587 135.56 27.0133 135.347 26.736C135.144 26.4587 135.005 26.1707 134.931 25.872L135.283 25.888L135.235 27.984H134.051V16.16H135.251V21.648L135.011 21.712C135.085 21.4133 135.219 21.1307 135.411 20.864C135.613 20.5867 135.864 20.3467 136.163 20.144C136.461 19.9307 136.787 19.7653 137.139 19.648C137.501 19.5307 137.875 19.472 138.259 19.472C139.005 19.472 139.672 19.6587 140.259 20.032C140.856 20.4053 141.331 20.9173 141.683 21.568C142.035 22.2187 142.211 22.9653 142.211 23.808C142.211 24.6507 142.04 25.4027 141.699 26.064C141.357 26.7147 140.888 27.2267 140.291 27.6C139.704 27.9733 139.037 28.16 138.291 28.16ZM138.099 27.024C138.664 27.024 139.165 26.8853 139.603 26.608C140.04 26.32 140.381 25.936 140.627 25.456C140.883 24.9653 141.011 24.416 141.011 23.808C141.011 23.1893 140.883 22.64 140.627 22.16C140.381 21.68 140.04 21.3013 139.603 21.024C139.165 20.7467 138.664 20.608 138.099 20.608C137.533 20.608 137.032 20.7467 136.595 21.024C136.157 21.3013 135.811 21.68 135.555 22.16C135.309 22.64 135.187 23.1893 135.187 23.808C135.187 24.4267 135.309 24.9813 135.555 25.472C135.811 25.952 136.157 26.3307 136.595 26.608C137.032 26.8853 137.533 27.024 138.099 27.024ZM147.653 28.16C146.821 28.16 146.08 27.9733 145.429 27.6C144.789 27.2267 144.282 26.7093 143.909 26.048C143.546 25.3867 143.365 24.6347 143.365 23.792C143.365 22.96 143.546 22.2187 143.909 21.568C144.282 20.9173 144.789 20.4053 145.429 20.032C146.08 19.6587 146.821 19.472 147.653 19.472C148.474 19.472 149.205 19.6587 149.845 20.032C150.496 20.4053 151.002 20.9173 151.365 21.568C151.738 22.2187 151.925 22.96 151.925 23.792C151.925 24.6347 151.738 25.3867 151.365 26.048C151.002 26.7093 150.496 27.2267 149.845 27.6C149.205 27.9733 148.474 28.16 147.653 28.16ZM147.653 27.024C148.24 27.024 148.762 26.8853 149.221 26.608C149.68 26.32 150.037 25.936 150.293 25.456C150.549 24.9653 150.677 24.4107 150.677 23.792C150.677 23.1733 150.549 22.624 150.293 22.144C150.037 21.664 149.68 21.2907 149.221 21.024C148.762 20.7467 148.24 20.608 147.653 20.608C147.066 20.608 146.538 20.7467 146.069 21.024C145.61 21.2907 145.248 21.6693 144.981 22.16C144.725 22.64 144.602 23.184 144.613 23.792C144.602 24.4107 144.725 24.9653 144.981 25.456C145.248 25.936 145.61 26.32 146.069 26.608C146.538 26.8853 147.066 27.024 147.653 27.024ZM153.676 28V19.648H154.876L154.908 21.872L154.78 21.568C154.897 21.1947 155.084 20.848 155.34 20.528C155.606 20.208 155.921 19.952 156.284 19.76C156.646 19.568 157.046 19.472 157.484 19.472C157.665 19.472 157.836 19.488 157.996 19.52C158.156 19.5413 158.289 19.5733 158.396 19.616L158.06 20.96C157.921 20.896 157.777 20.8533 157.628 20.832C157.489 20.8 157.356 20.784 157.228 20.784C156.865 20.784 156.54 20.848 156.252 20.976C155.964 21.104 155.718 21.2853 155.516 21.52C155.313 21.744 155.158 22.0053 155.052 22.304C154.945 22.6027 154.892 22.9227 154.892 23.264V28H153.676ZM162.549 28.16C161.824 28.16 161.168 27.9733 160.581 27.6C159.995 27.216 159.531 26.6987 159.189 26.048C158.848 25.3867 158.677 24.64 158.677 23.808C158.677 22.9653 158.853 22.2187 159.205 21.568C159.557 20.9173 160.027 20.4053 160.613 20.032C161.211 19.6587 161.877 19.472 162.613 19.472C163.051 19.472 163.456 19.536 163.829 19.664C164.203 19.792 164.533 19.9733 164.821 20.208C165.12 20.432 165.365 20.6987 165.557 21.008C165.76 21.3067 165.899 21.632 165.973 21.984L165.621 21.808L165.669 19.648H166.869V28H165.653V25.952L165.973 25.744C165.899 26.064 165.755 26.3733 165.541 26.672C165.328 26.96 165.067 27.216 164.757 27.44C164.459 27.664 164.117 27.84 163.733 27.968C163.36 28.096 162.965 28.16 162.549 28.16ZM162.821 27.008C163.376 27.008 163.872 26.8747 164.309 26.608C164.747 26.3307 165.088 25.952 165.333 25.472C165.589 24.9813 165.717 24.4267 165.717 23.808C165.717 23.1893 165.589 22.64 165.333 22.16C165.088 21.68 164.747 21.3013 164.309 21.024C163.872 20.7467 163.376 20.608 162.821 20.608C162.256 20.608 161.755 20.7467 161.317 21.024C160.891 21.3013 160.549 21.68 160.293 22.16C160.048 22.64 159.925 23.1893 159.925 23.808C159.925 24.416 160.048 24.9653 160.293 25.456C160.539 25.936 160.88 26.3147 161.317 26.592C161.755 26.8693 162.256 27.008 162.821 27.008ZM172.599 28.16C171.842 28.16 171.159 27.9733 170.551 27.6C169.954 27.2267 169.479 26.7147 169.127 26.064C168.786 25.4027 168.615 24.656 168.615 23.824C168.615 22.9813 168.791 22.2347 169.143 21.584C169.495 20.9227 169.97 20.4053 170.567 20.032C171.164 19.6587 171.836 19.472 172.583 19.472C172.999 19.472 173.399 19.536 173.783 19.664C174.178 19.792 174.53 19.9733 174.839 20.208C175.148 20.432 175.404 20.6933 175.607 20.992C175.81 21.28 175.932 21.584 175.975 21.904L175.607 21.776V16.16H176.807V28H175.623L175.591 25.92L175.895 25.808C175.852 26.1067 175.73 26.4 175.527 26.688C175.335 26.9653 175.09 27.216 174.791 27.44C174.492 27.664 174.151 27.84 173.767 27.968C173.394 28.096 173.004 28.16 172.599 28.16ZM172.775 27.056C173.33 27.056 173.826 26.9173 174.263 26.64C174.7 26.3627 175.042 25.9787 175.287 25.488C175.543 24.9973 175.671 24.4373 175.671 23.808C175.671 23.1787 175.543 22.624 175.287 22.144C175.042 21.6533 174.7 21.2693 174.263 20.992C173.826 20.704 173.33 20.56 172.775 20.56C172.199 20.56 171.692 20.704 171.255 20.992C170.828 21.2693 170.487 21.6533 170.231 22.144C169.986 22.624 169.863 23.1787 169.863 23.808C169.863 24.4267 169.986 24.9813 170.231 25.472C170.476 25.9627 170.818 26.352 171.255 26.64C171.692 26.9173 172.199 27.056 172.775 27.056ZM182.841 28.16C182.009 28.16 181.267 27.9733 180.617 27.6C179.977 27.2267 179.47 26.7093 179.097 26.048C178.734 25.3867 178.553 24.6347 178.553 23.792C178.553 22.96 178.734 22.2187 179.097 21.568C179.47 20.9173 179.977 20.4053 180.617 20.032C181.267 19.6587 182.009 19.472 182.841 19.472C183.662 19.472 184.393 19.6587 185.033 20.032C185.683 20.4053 186.19 20.9173 186.553 21.568C186.926 22.2187 187.113 22.96 187.113 23.792C187.113 24.6347 186.926 25.3867 186.553 26.048C186.19 26.7093 185.683 27.2267 185.033 27.6C184.393 27.9733 183.662 28.16 182.841 28.16ZM182.841 27.024C183.427 27.024 183.95 26.8853 184.409 26.608C184.867 26.32 185.225 25.936 185.481 25.456C185.737 24.9653 185.865 24.4107 185.865 23.792C185.865 23.1733 185.737 22.624 185.481 22.144C185.225 21.664 184.867 21.2907 184.409 21.024C183.95 20.7467 183.427 20.608 182.841 20.608C182.254 20.608 181.726 20.7467 181.257 21.024C180.798 21.2907 180.435 21.6693 180.169 22.16C179.913 22.64 179.79 23.184 179.801 23.792C179.79 24.4107 179.913 24.9653 180.169 25.456C180.435 25.936 180.798 26.32 181.257 26.608C181.726 26.8853 182.254 27.024 182.841 27.024ZM188.863 28V19.648H190.063L190.095 21.872L189.967 21.568C190.085 21.1947 190.271 20.848 190.527 20.528C190.794 20.208 191.109 19.952 191.471 19.76C191.834 19.568 192.234 19.472 192.671 19.472C192.853 19.472 193.023 19.488 193.183 19.52C193.343 19.5413 193.477 19.5733 193.583 19.616L193.247 20.96C193.109 20.896 192.965 20.8533 192.815 20.832C192.677 20.8 192.543 20.784 192.415 20.784C192.053 20.784 191.727 20.848 191.439 20.976C191.151 21.104 190.906 21.2853 190.703 21.52C190.501 21.744 190.346 22.0053 190.239 22.304C190.133 22.6027 190.079 22.9227 190.079 23.264V28H188.863Z" fill="#E1DDF4"/>
</svg>
