<svg width="235" height="40" viewBox="0 0 235 40" fill="none" xmlns="http://www.w3.org/2000/svg">
<path d="M10.3361 26.4791C10.3285 27.7834 10.7664 28.3736 11.6776 28.8392C12.5088 29.2647 13.3352 29.1524 14.1749 29.0163C18.0414 28.3879 21.6089 27.0227 24.7613 24.6598C25.6392 24.002 26.4265 23.2442 27.0692 22.3503C27.1482 22.2408 27.1854 22.0361 27.1406 21.9123C26.4265 19.9521 25.7077 17.9929 24.9651 16.0432C24.3995 14.558 23.5122 14.1058 21.9517 14.4571C20.6064 14.7599 19.4305 15.4244 18.3166 16.2003C15.4907 18.1671 13.1667 20.6119 11.411 23.5803C10.834 24.558 10.377 25.5843 10.3361 26.4791ZM12.6268 27.3455C12.6145 27.3141 12.603 27.2817 12.5907 27.2503C12.1356 27.2598 11.9651 27.1332 12.0737 26.681C12.2327 26.0193 12.4259 25.3462 12.7325 24.7436C13.7579 22.7311 15.2413 21.066 16.8808 19.5371C18.2042 18.3023 19.62 17.1856 21.2976 16.4621C21.7584 16.264 22.264 16.1441 22.761 16.0622C23.1523 15.9984 23.3141 16.1603 23.2456 16.5563C23.1551 17.0752 23.0295 17.6035 22.8162 18.0833C21.9955 19.9312 20.7244 21.4649 19.3267 22.8977C17.8948 24.3647 16.3438 25.689 14.4977 26.6134C13.9017 26.9133 13.2524 27.1056 12.6268 27.3455Z" fill="#9C60DA"/>
<path d="M27.9318 24.0391C24.6699 27.4911 20.5502 29.2552 16.0696 30.43C16.1629 30.4776 16.2277 30.5204 16.2991 30.5471C17.6872 31.0621 19.0744 31.5829 20.4693 32.0798C20.7006 32.1627 20.9796 32.1893 21.2224 32.1522C23.1646 31.8542 25.0603 31.3934 26.8017 30.4405C27.7709 29.9102 28.6268 29.2419 29.2505 28.3146C29.3266 28.2013 29.3952 28.0157 29.3552 27.9034C28.8972 26.621 28.4174 25.3462 27.9318 24.0391Z" fill="#9C60DA"/>
<path d="M13.279 6.55543C12.9877 6.97526 12.742 7.30942 12.5183 7.65786C12.1793 8.18432 11.9956 8.75077 12.1651 9.381C12.3926 10.2292 13.0381 10.7557 13.9693 10.8547C14.3577 10.8957 14.7491 10.9166 15.1746 10.9499C15.128 11.0318 15.089 11.1099 15.0423 11.1822C14.85 11.4811 14.6319 11.7667 14.4653 12.079C13.9483 13.0453 14.1645 14.0449 15.0375 14.7037C15.803 15.2816 16.7132 15.4606 17.6387 15.5615C17.9367 15.5938 18.1309 15.4072 18.1937 15.1159C18.2699 14.7684 18.3413 14.42 18.3927 14.0678C18.4594 13.6156 18.3023 13.4071 17.8538 13.3071C17.4292 13.2119 17.0055 13.1176 16.5342 13.0129C16.8132 12.6102 17.0569 12.2761 17.2807 11.9286C17.6282 11.3926 17.8186 10.8166 17.6406 10.1731C17.4092 9.34006 16.7732 8.81931 15.8583 8.7184C15.4603 8.67461 15.0604 8.65271 14.6205 8.61844C14.8271 8.30903 15.0299 8.02438 15.2137 7.72735C15.9668 6.50592 15.6574 5.2407 14.3635 4.6257C13.7122 4.31629 12.9715 4.18301 12.2603 4.01831C11.9118 3.93739 11.6966 4.12303 11.6148 4.47242C11.5338 4.81895 11.4662 5.16834 11.4148 5.51964C11.352 5.95375 11.5062 6.15939 11.9385 6.25745C12.3641 6.3555 12.7896 6.44785 13.279 6.55543Z" fill="#9C60DA"/>
<path d="M6.96852 19.1772C6.90568 18.6412 6.89044 18.1281 6.77905 17.6359C6.48961 16.3564 5.22808 15.7423 4.04558 16.3145C3.53906 16.5592 3.08301 16.9086 2.55078 17.2437C2.45938 16.8476 2.35846 16.4725 2.28705 16.0927C2.17185 15.4805 1.95667 15.3225 1.35209 15.4396C1.06075 15.4958 0.767503 15.5434 0.479969 15.6119C0.122933 15.6966 -0.0379721 15.8956 0.00677649 16.2498C0.102938 17.0171 0.258133 17.772 0.650397 18.4537C1.33496 19.6427 2.51365 19.9502 3.68187 19.24C3.99226 19.0515 4.28646 18.8383 4.61398 18.6193C4.6473 19.0401 4.67015 19.4266 4.71014 19.8112C4.8758 21.4116 6.32395 22.176 7.72924 21.3925C8.15197 21.1574 8.53948 20.8594 9.0041 20.5491C9.09931 20.9537 9.20309 21.3249 9.27259 21.7019C9.39065 22.3398 9.59821 22.4921 10.2275 22.3684C10.5065 22.3131 10.7883 22.2693 11.0654 22.2056C11.4415 22.118 11.6033 21.919 11.5548 21.5449C11.4577 20.7899 11.3044 20.0464 10.9226 19.3733C10.2361 18.1662 9.0498 17.8558 7.8673 18.5784C7.56548 18.7621 7.27699 18.9706 6.96852 19.1772Z" fill="#9C60DA"/>
<path d="M1.2207 9.82654C1.21975 10.5225 1.13787 10.6015 1.97381 10.6843C4.82725 10.9661 7.20178 12.3103 9.29259 14.1772C10.1361 14.9312 10.8521 15.829 11.6071 16.6791C11.9156 17.0266 11.9727 17.0599 12.3669 16.7962C12.5545 16.6706 12.743 16.5478 12.9286 16.4202C13.2476 16.2012 13.2771 16.0565 13.0524 15.7509C11.352 13.4356 9.2326 11.6078 6.6667 10.3111C5.20428 9.57235 3.65998 9.09635 2.01856 8.96021C1.9243 8.95259 1.82909 8.94403 1.73483 8.94117C1.34257 8.92879 1.22737 9.04018 1.2207 9.43526C1.2188 9.56474 1.2207 9.69612 1.2207 9.82654Z" fill="#9C60DA"/>
<path d="M30.1311 30.0111C28.4802 31.818 26.358 32.7329 23.9673 33.3822C24.5519 33.6011 25.0308 33.7811 25.5106 33.9601C27.2311 34.6017 28.9544 35.2377 30.6719 35.8898C31.0718 36.0412 31.4355 36.0745 31.7564 35.7508C32.0782 35.4271 32.0363 35.0625 31.8849 34.6645C31.3413 33.2356 30.8167 31.7999 30.2835 30.3681C30.2425 30.2577 30.1921 30.1511 30.1311 30.0111Z" fill="#9C60DA"/>
<path d="M20.0361 7.78162C20.0361 8.11387 20.0389 8.44612 20.0351 8.77742C20.0322 9.07064 20.1674 9.2182 20.4645 9.21535C20.7492 9.21249 21.0339 9.21249 21.3185 9.21535C21.6156 9.2182 21.7489 9.06969 21.747 8.77647C21.7432 8.11197 21.7451 7.44841 21.746 6.78391C21.746 6.50783 21.6156 6.36407 21.3357 6.36407C21.0396 6.36407 20.7425 6.36407 20.4464 6.36407C20.1665 6.36407 20.0351 6.50878 20.0361 6.78391C20.037 7.11711 20.0361 7.44937 20.0361 7.78162Z" fill="#9C60DA"/>
<path d="M6.09164 25.748C6.41154 25.748 6.7324 25.7451 7.0523 25.749C7.3446 25.7528 7.49503 25.6195 7.49217 25.3215C7.49026 25.0254 7.49312 24.7284 7.49027 24.4323C7.48741 24.1715 7.35126 24.0391 7.09134 24.0391C6.40392 24.0382 5.71556 24.0363 5.02814 24.0401C4.76536 24.042 4.64254 24.1886 4.64159 24.4456C4.64159 24.7417 4.64159 25.0387 4.64159 25.3348C4.64159 25.6128 4.78345 25.748 5.05956 25.747C5.40422 25.748 5.74793 25.748 6.09164 25.748Z" fill="#9C60DA"/>
<path d="M2.48699 5.314C2.53079 5.39111 2.56126 5.48536 2.62314 5.5482C3.11347 6.04705 3.60761 6.54305 4.10556 7.03429C4.29026 7.21612 4.48259 7.20375 4.66634 7.01906C4.87485 6.80866 5.08431 6.59922 5.29473 6.38978C5.49467 6.1908 5.48134 5.99659 5.28711 5.80334C4.80916 5.32543 4.34072 4.83609 3.84373 4.37912C3.74566 4.28868 3.47432 4.24203 3.38673 4.30963C3.08967 4.54001 2.83736 4.82847 2.57458 5.1017C2.53079 5.14835 2.52127 5.22832 2.48699 5.314Z" fill="#9C60DA"/>
<path d="M45.296 32V9.6H47.568L62.224 28.992L61.776 29.568C61.712 29.2267 61.6587 28.7147 61.616 28.032C61.5947 27.3493 61.5627 26.5813 61.52 25.728C61.4987 24.8533 61.4773 23.9467 61.456 23.008C61.4347 22.0693 61.4133 21.152 61.392 20.256C61.392 19.36 61.392 18.5493 61.392 17.824V9.6H63.888V32H61.552L46.96 12.864L47.344 12.192C47.408 13.0453 47.4613 13.888 47.504 14.72C47.568 15.552 47.6107 16.352 47.632 17.12C47.6747 17.888 47.7067 18.592 47.728 19.232C47.7493 19.872 47.76 20.416 47.76 20.864C47.7813 21.312 47.792 21.632 47.792 21.824V32H45.296ZM76.9155 32.32C75.2515 32.32 73.7688 31.9467 72.4675 31.2C71.1875 30.4533 70.1742 29.4187 69.4275 28.096C68.7022 26.7733 68.3395 25.2693 68.3395 23.584C68.3395 21.92 68.7022 20.4373 69.4275 19.136C70.1742 17.8347 71.1875 16.8107 72.4675 16.064C73.7688 15.3173 75.2515 14.944 76.9155 14.944C78.5582 14.944 80.0195 15.3173 81.2995 16.064C82.6008 16.8107 83.6142 17.8347 84.3395 19.136C85.0862 20.4373 85.4595 21.92 85.4595 23.584C85.4595 25.2693 85.0862 26.7733 84.3395 28.096C83.6142 29.4187 82.6008 30.4533 81.2995 31.2C80.0195 31.9467 78.5582 32.32 76.9155 32.32ZM76.9155 30.048C78.0888 30.048 79.1342 29.7707 80.0515 29.216C80.9688 28.64 81.6835 27.872 82.1955 26.912C82.7075 25.9307 82.9635 24.8213 82.9635 23.584C82.9635 22.3467 82.7075 21.248 82.1955 20.288C81.6835 19.328 80.9688 18.5813 80.0515 18.048C79.1342 17.4933 78.0888 17.216 76.9155 17.216C75.7422 17.216 74.6862 17.4933 73.7475 18.048C72.8302 18.5813 72.1048 19.3387 71.5715 20.32C71.0595 21.28 70.8142 22.368 70.8355 23.584C70.8142 24.8213 71.0595 25.9307 71.5715 26.912C72.1048 27.872 72.8302 28.64 73.7475 29.216C74.6862 29.7707 75.7422 30.048 76.9155 30.048ZM93.6763 32L86.6363 15.296H89.2923L94.8603 28.96L94.2203 29.312L100.332 15.296H102.892L95.4043 32H93.6763ZM112.634 32.32C110.97 32.32 109.488 31.9467 108.186 31.2C106.906 30.4533 105.893 29.4187 105.146 28.096C104.421 26.7733 104.058 25.2693 104.058 23.584C104.058 21.92 104.421 20.4373 105.146 19.136C105.893 17.8347 106.906 16.8107 108.186 16.064C109.488 15.3173 110.97 14.944 112.634 14.944C114.277 14.944 115.738 15.3173 117.018 16.064C118.32 16.8107 119.333 17.8347 120.058 19.136C120.805 20.4373 121.178 21.92 121.178 23.584C121.178 25.2693 120.805 26.7733 120.058 28.096C119.333 29.4187 118.32 30.4533 117.018 31.2C115.738 31.9467 114.277 32.32 112.634 32.32ZM112.634 30.048C113.808 30.048 114.853 29.7707 115.77 29.216C116.688 28.64 117.402 27.872 117.914 26.912C118.426 25.9307 118.682 24.8213 118.682 23.584C118.682 22.3467 118.426 21.248 117.914 20.288C117.402 19.328 116.688 18.5813 115.77 18.048C114.853 17.4933 113.808 17.216 112.634 17.216C111.461 17.216 110.405 17.4933 109.466 18.048C108.549 18.5813 107.824 19.3387 107.29 20.32C106.778 21.28 106.533 22.368 106.554 23.584C106.533 24.8213 106.778 25.9307 107.29 26.912C107.824 27.872 108.549 28.64 109.466 29.216C110.405 29.7707 111.461 30.048 112.634 30.048ZM134.609 32V9.6H148.177V12.032H137.105V29.568H148.113V32H134.609ZM135.761 21.696V19.264H146.385V21.696H135.761ZM157.52 32L150.48 15.296H153.136L158.704 28.96L158.064 29.312L164.176 15.296H166.736L159.248 32H157.52ZM176.446 32.32C174.782 32.32 173.299 31.9573 171.998 31.232C170.718 30.5067 169.715 29.4933 168.99 28.192C168.265 26.8907 167.902 25.3973 167.902 23.712C167.902 22.4107 168.105 21.2373 168.51 20.192C168.915 19.1253 169.481 18.1973 170.206 17.408C170.953 16.6187 171.838 16.0107 172.862 15.584C173.886 15.136 174.995 14.912 176.19 14.912C177.321 14.912 178.345 15.1147 179.262 15.52C180.201 15.9253 181.001 16.4907 181.662 17.216C182.345 17.92 182.857 18.7627 183.198 19.744C183.539 20.7253 183.689 21.8027 183.646 22.976L183.614 24.096H169.694L169.342 22.08H181.79L181.214 22.624V21.856C181.171 21.088 180.947 20.352 180.542 19.648C180.137 18.9227 179.561 18.336 178.814 17.888C178.089 17.44 177.214 17.216 176.19 17.216C174.995 17.216 173.961 17.4613 173.086 17.952C172.211 18.4213 171.539 19.1253 171.07 20.064C170.601 21.0027 170.366 22.1653 170.366 23.552C170.366 24.8747 170.622 26.0267 171.134 27.008C171.646 27.968 172.371 28.7147 173.31 29.248C174.27 29.7813 175.422 30.048 176.766 30.048C177.555 30.048 178.334 29.92 179.102 29.664C179.891 29.3867 180.755 28.8533 181.694 28.064L182.942 29.792C182.451 30.2827 181.865 30.72 181.182 31.104C180.499 31.4667 179.753 31.7653 178.942 32C178.131 32.2133 177.299 32.32 176.446 32.32ZM187.055 32V15.296H189.423L189.519 18.784L189.135 18.944C189.348 18.2187 189.764 17.5573 190.383 16.96C191.001 16.3627 191.737 15.8827 192.591 15.52C193.465 15.136 194.361 14.944 195.279 14.944C196.516 14.944 197.551 15.1893 198.383 15.68C199.215 16.1707 199.844 16.928 200.271 17.952C200.697 18.976 200.911 20.2773 200.911 21.856V32H198.479V21.984C198.479 20.8747 198.329 19.968 198.031 19.264C197.753 18.5387 197.316 18.0053 196.719 17.664C196.121 17.3227 195.385 17.1627 194.511 17.184C193.785 17.184 193.113 17.312 192.495 17.568C191.876 17.8027 191.343 18.1333 190.895 18.56C190.447 18.9867 190.095 19.4773 189.839 20.032C189.583 20.5867 189.455 21.184 189.455 21.824V32H188.271C188.121 32 187.951 32 187.759 32C187.567 32 187.332 32 187.055 32ZM207.796 32V10.912H210.196V32H207.796ZM204.02 17.6V15.296H214.42V17.6H204.02ZM224.603 32.32C222.939 32.32 221.456 31.9467 220.155 31.2C218.875 30.4533 217.862 29.4187 217.115 28.096C216.39 26.7733 216.027 25.2693 216.027 23.584C216.027 21.92 216.39 20.4373 217.115 19.136C217.862 17.8347 218.875 16.8107 220.155 16.064C221.456 15.3173 222.939 14.944 224.603 14.944C226.246 14.944 227.707 15.3173 228.987 16.064C230.288 16.8107 231.302 17.8347 232.027 19.136C232.774 20.4373 233.147 21.92 233.147 23.584C233.147 25.2693 232.774 26.7733 232.027 28.096C231.302 29.4187 230.288 30.4533 228.987 31.2C227.707 31.9467 226.246 32.32 224.603 32.32ZM224.603 30.048C225.776 30.048 226.822 29.7707 227.739 29.216C228.656 28.64 229.371 27.872 229.883 26.912C230.395 25.9307 230.651 24.8213 230.651 23.584C230.651 22.3467 230.395 21.248 229.883 20.288C229.371 19.328 228.656 18.5813 227.739 18.048C226.822 17.4933 225.776 17.216 224.603 17.216C223.43 17.216 222.374 17.4933 221.435 18.048C220.518 18.5813 219.792 19.3387 219.259 20.32C218.747 21.28 218.502 22.368 218.523 23.584C218.502 24.8213 218.747 25.9307 219.259 26.912C219.792 27.872 220.518 28.64 221.435 29.216C222.374 29.7707 223.43 30.048 224.603 30.048Z" fill="url(#paint0_linear_3307_7178)"/>
<defs>
<linearGradient id="paint0_linear_3307_7178" x1="235" y1="20" x2="42" y2="20" gradientUnits="userSpaceOnUse">
<stop stop-color="#43A3D5"/>
<stop offset="1" stop-color="#9C60DA"/>
</linearGradient>
</defs>
</svg>
