<svg width="389" height="98" viewBox="0 0 389 98" fill="none" xmlns="http://www.w3.org/2000/svg">
<path d="M176.5 22.5L188.5 34.5L211 12" stroke="url(#paint0_linear_2396_7395)" stroke-width="6"/>
<path d="M3.4835 90V67.6H5.7555L20.4115 86.992L19.9635 87.568C19.8995 87.2267 19.8462 86.7147 19.8035 86.032C19.7822 85.3493 19.7502 84.5813 19.7075 83.728C19.6862 82.8533 19.6648 81.9467 19.6435 81.008C19.6222 80.0693 19.6008 79.152 19.5795 78.256C19.5795 77.36 19.5795 76.5493 19.5795 75.824V67.6H22.0755V90H19.7395L5.1475 70.864L5.5315 70.192C5.5955 71.0453 5.64883 71.888 5.6915 72.72C5.7555 73.552 5.79817 74.352 5.8195 75.12C5.86217 75.888 5.89417 76.592 5.9155 77.232C5.93683 77.872 5.9475 78.416 5.9475 78.864C5.96883 79.312 5.9795 79.632 5.9795 79.824V90H3.4835ZM35.103 90.32C33.439 90.32 31.9563 89.9467 30.655 89.2C29.375 88.4533 28.3617 87.4187 27.615 86.096C26.8897 84.7733 26.527 83.2693 26.527 81.584C26.527 79.92 26.8897 78.4373 27.615 77.136C28.3617 75.8347 29.375 74.8107 30.655 74.064C31.9563 73.3173 33.439 72.944 35.103 72.944C36.7457 72.944 38.207 73.3173 39.487 74.064C40.7883 74.8107 41.8017 75.8347 42.527 77.136C43.2737 78.4373 43.647 79.92 43.647 81.584C43.647 83.2693 43.2737 84.7733 42.527 86.096C41.8017 87.4187 40.7883 88.4533 39.487 89.2C38.207 89.9467 36.7457 90.32 35.103 90.32ZM35.103 88.048C36.2763 88.048 37.3217 87.7707 38.239 87.216C39.1563 86.64 39.871 85.872 40.383 84.912C40.895 83.9307 41.151 82.8213 41.151 81.584C41.151 80.3467 40.895 79.248 40.383 78.288C39.871 77.328 39.1563 76.5813 38.239 76.048C37.3217 75.4933 36.2763 75.216 35.103 75.216C33.9297 75.216 32.8737 75.4933 31.935 76.048C31.0177 76.5813 30.2923 77.3387 29.759 78.32C29.247 79.28 29.0017 80.368 29.023 81.584C29.0017 82.8213 29.247 83.9307 29.759 84.912C30.2923 85.872 31.0177 86.64 31.935 87.216C32.8737 87.7707 33.9297 88.048 35.103 88.048ZM51.8638 90L44.8238 73.296H47.4798L53.0478 86.96L52.4078 87.312L58.5198 73.296H61.0798L53.5918 90H51.8638ZM70.8218 90.32C69.1578 90.32 67.6751 89.9467 66.3738 89.2C65.0938 88.4533 64.0804 87.4187 63.3338 86.096C62.6084 84.7733 62.2458 83.2693 62.2458 81.584C62.2458 79.92 62.6084 78.4373 63.3338 77.136C64.0804 75.8347 65.0938 74.8107 66.3738 74.064C67.6751 73.3173 69.1578 72.944 70.8218 72.944C72.4644 72.944 73.9258 73.3173 75.2058 74.064C76.5071 74.8107 77.5204 75.8347 78.2458 77.136C78.9924 78.4373 79.3658 79.92 79.3658 81.584C79.3658 83.2693 78.9924 84.7733 78.2458 86.096C77.5204 87.4187 76.5071 88.4533 75.2058 89.2C73.9258 89.9467 72.4644 90.32 70.8218 90.32ZM70.8218 88.048C71.9951 88.048 73.0404 87.7707 73.9578 87.216C74.8751 86.64 75.5898 85.872 76.1018 84.912C76.6138 83.9307 76.8698 82.8213 76.8698 81.584C76.8698 80.3467 76.6138 79.248 76.1018 78.288C75.5898 77.328 74.8751 76.5813 73.9578 76.048C73.0404 75.4933 71.9951 75.216 70.8218 75.216C69.6484 75.216 68.5924 75.4933 67.6538 76.048C66.7364 76.5813 66.0111 77.3387 65.4778 78.32C64.9658 79.28 64.7204 80.368 64.7418 81.584C64.7204 82.8213 64.9658 83.9307 65.4778 84.912C66.0111 85.872 66.7364 86.64 67.6538 87.216C68.5924 87.7707 69.6484 88.048 70.8218 88.048ZM102.076 90.32C100.476 90.32 99.004 90.0427 97.66 89.488C96.316 88.912 95.1533 88.112 94.172 87.088C93.1907 86.0427 92.4227 84.816 91.868 83.408C91.3347 82 91.068 80.464 91.068 78.8C91.068 77.1573 91.3347 75.6533 91.868 74.288C92.4227 72.9013 93.2013 71.696 94.204 70.672C95.2067 69.6267 96.3693 68.8267 97.692 68.272C99.0147 67.7173 100.465 67.44 102.044 67.44C103.089 67.44 104.124 67.6107 105.148 67.952C106.172 68.272 107.111 68.72 107.964 69.296C108.839 69.872 109.553 70.5333 110.108 71.28L108.38 73.072C107.847 72.432 107.228 71.8773 106.524 71.408C105.841 70.9387 105.116 70.576 104.348 70.32C103.58 70.064 102.812 69.936 102.044 69.936C100.849 69.936 99.7293 70.16 98.684 70.608C97.66 71.0347 96.7747 71.6427 96.028 72.432C95.2813 73.2213 94.6947 74.16 94.268 75.248C93.8627 76.336 93.66 77.52 93.66 78.8C93.66 80.1227 93.8627 81.3387 94.268 82.448C94.6947 83.5573 95.292 84.5173 96.06 85.328C96.8493 86.1173 97.7667 86.736 98.812 87.184C99.8787 87.6107 101.063 87.824 102.364 87.824C103.132 87.824 103.9 87.7173 104.668 87.504C105.436 87.2693 106.14 86.9493 106.78 86.544C107.42 86.1387 107.964 85.68 108.412 85.168L109.692 87.248C109.201 87.8453 108.54 88.3787 107.708 88.848C106.897 89.296 106.001 89.6587 105.02 89.936C104.039 90.192 103.057 90.32 102.076 90.32ZM120.853 90.32C119.189 90.32 117.706 89.9467 116.405 89.2C115.125 88.4533 114.112 87.4187 113.365 86.096C112.64 84.7733 112.277 83.2693 112.277 81.584C112.277 79.92 112.64 78.4373 113.365 77.136C114.112 75.8347 115.125 74.8107 116.405 74.064C117.706 73.3173 119.189 72.944 120.853 72.944C122.496 72.944 123.957 73.3173 125.237 74.064C126.538 74.8107 127.552 75.8347 128.277 77.136C129.024 78.4373 129.397 79.92 129.397 81.584C129.397 83.2693 129.024 84.7733 128.277 86.096C127.552 87.4187 126.538 88.4533 125.237 89.2C123.957 89.9467 122.496 90.32 120.853 90.32ZM120.853 88.048C122.026 88.048 123.072 87.7707 123.989 87.216C124.906 86.64 125.621 85.872 126.133 84.912C126.645 83.9307 126.901 82.8213 126.901 81.584C126.901 80.3467 126.645 79.248 126.133 78.288C125.621 77.328 124.906 76.5813 123.989 76.048C123.072 75.4933 122.026 75.216 120.853 75.216C119.68 75.216 118.624 75.4933 117.685 76.048C116.768 76.5813 116.042 77.3387 115.509 78.32C114.997 79.28 114.752 80.368 114.773 81.584C114.752 82.8213 114.997 83.9307 115.509 84.912C116.042 85.872 116.768 86.64 117.685 87.216C118.624 87.7707 119.68 88.048 120.853 88.048ZM132.963 90V66.32H135.363V90H132.963ZM146.302 90.32C144.851 90.32 143.539 89.9467 142.366 89.2C141.192 88.432 140.264 87.3973 139.582 86.096C138.899 84.7733 138.558 83.28 138.558 81.616C138.558 79.9307 138.91 78.4373 139.614 77.136C140.318 75.8347 141.256 74.8107 142.43 74.064C143.624 73.3173 144.958 72.944 146.43 72.944C147.304 72.944 148.115 73.072 148.862 73.328C149.608 73.584 150.27 73.9467 150.846 74.416C151.443 74.864 151.934 75.3973 152.318 76.016C152.723 76.6133 153 77.264 153.15 77.968L152.446 77.616L152.542 73.296H154.942V90H152.51V85.904L153.15 85.488C153 86.128 152.712 86.7467 152.286 87.344C151.859 87.92 151.336 88.432 150.718 88.88C150.12 89.328 149.438 89.68 148.67 89.936C147.923 90.192 147.134 90.32 146.302 90.32ZM146.845 88.016C147.955 88.016 148.947 87.7493 149.822 87.216C150.696 86.6613 151.379 85.904 151.87 84.944C152.382 83.9627 152.638 82.8533 152.638 81.616C152.638 80.3787 152.382 79.28 151.87 78.32C151.379 77.36 150.696 76.6027 149.822 76.048C148.947 75.4933 147.955 75.216 146.845 75.216C145.715 75.216 144.712 75.4933 143.838 76.048C142.984 76.6027 142.302 77.36 141.79 78.32C141.299 79.28 141.054 80.3787 141.054 81.616C141.054 82.832 141.299 83.9307 141.79 84.912C142.28 85.872 142.963 86.6293 143.838 87.184C144.712 87.7387 145.715 88.016 146.845 88.016ZM168.097 90.32C167.308 90.32 166.54 90.2027 165.793 89.968C165.047 89.712 164.364 89.3707 163.745 88.944C163.148 88.5173 162.636 88.0267 162.209 87.472C161.804 86.9173 161.527 86.3413 161.377 85.744L162.081 85.776L161.985 89.968H159.617V66.32H162.017V77.296L161.537 77.424C161.687 76.8267 161.953 76.2613 162.337 75.728C162.743 75.1733 163.244 74.6933 163.841 74.288C164.439 73.8613 165.089 73.5307 165.793 73.296C166.519 73.0613 167.265 72.944 168.033 72.944C169.527 72.944 170.86 73.3173 172.033 74.064C173.228 74.8107 174.177 75.8347 174.881 77.136C175.585 78.4373 175.937 79.9307 175.937 81.616C175.937 83.3013 175.596 84.8053 174.913 86.128C174.231 87.4293 173.292 88.4533 172.097 89.2C170.924 89.9467 169.591 90.32 168.097 90.32ZM167.713 88.048C168.844 88.048 169.847 87.7707 170.721 87.216C171.596 86.64 172.279 85.872 172.769 84.912C173.281 83.9307 173.537 82.832 173.537 81.616C173.537 80.3787 173.281 79.28 172.769 78.32C172.279 77.36 171.596 76.6027 170.721 76.048C169.847 75.4933 168.844 75.216 167.713 75.216C166.583 75.216 165.58 75.4933 164.705 76.048C163.831 76.6027 163.137 77.36 162.625 78.32C162.135 79.28 161.889 80.3787 161.889 81.616C161.889 82.8533 162.135 83.9627 162.625 84.944C163.137 85.904 163.831 86.6613 164.705 87.216C165.58 87.7707 166.583 88.048 167.713 88.048ZM186.822 90.32C185.158 90.32 183.675 89.9467 182.374 89.2C181.094 88.4533 180.08 87.4187 179.334 86.096C178.608 84.7733 178.246 83.2693 178.246 81.584C178.246 79.92 178.608 78.4373 179.334 77.136C180.08 75.8347 181.094 74.8107 182.374 74.064C183.675 73.3173 185.158 72.944 186.822 72.944C188.464 72.944 189.926 73.3173 191.206 74.064C192.507 74.8107 193.52 75.8347 194.246 77.136C194.992 78.4373 195.366 79.92 195.366 81.584C195.366 83.2693 194.992 84.7733 194.246 86.096C193.52 87.4187 192.507 88.4533 191.206 89.2C189.926 89.9467 188.464 90.32 186.822 90.32ZM186.822 88.048C187.995 88.048 189.04 87.7707 189.958 87.216C190.875 86.64 191.59 85.872 192.102 84.912C192.614 83.9307 192.87 82.8213 192.87 81.584C192.87 80.3467 192.614 79.248 192.102 78.288C191.59 77.328 190.875 76.5813 189.958 76.048C189.04 75.4933 187.995 75.216 186.822 75.216C185.648 75.216 184.592 75.4933 183.654 76.048C182.736 76.5813 182.011 77.3387 181.478 78.32C180.966 79.28 180.72 80.368 180.742 81.584C180.72 82.8213 180.966 83.9307 181.478 84.912C182.011 85.872 182.736 86.64 183.654 87.216C184.592 87.7707 185.648 88.048 186.822 88.048ZM198.867 90V73.296H201.267L201.331 77.744L201.075 77.136C201.31 76.3893 201.683 75.696 202.195 75.056C202.729 74.416 203.358 73.904 204.083 73.52C204.809 73.136 205.609 72.944 206.483 72.944C206.846 72.944 207.187 72.976 207.507 73.04C207.827 73.0827 208.094 73.1467 208.307 73.232L207.635 75.92C207.358 75.792 207.07 75.7067 206.771 75.664C206.494 75.6 206.227 75.568 205.971 75.568C205.246 75.568 204.595 75.696 204.019 75.952C203.443 76.208 202.953 76.5707 202.547 77.04C202.142 77.488 201.833 78.0107 201.619 78.608C201.406 79.2053 201.299 79.8453 201.299 80.528V90H198.867ZM216.614 90.32C215.163 90.32 213.851 89.9467 212.678 89.2C211.505 88.432 210.577 87.3973 209.894 86.096C209.211 84.7733 208.87 83.28 208.87 81.616C208.87 79.9307 209.222 78.4373 209.926 77.136C210.63 75.8347 211.569 74.8107 212.742 74.064C213.937 73.3173 215.27 72.944 216.742 72.944C217.617 72.944 218.427 73.072 219.174 73.328C219.921 73.584 220.582 73.9467 221.158 74.416C221.755 74.864 222.246 75.3973 222.63 76.016C223.035 76.6133 223.313 77.264 223.462 77.968L222.758 77.616L222.854 73.296H225.254V90H222.822V85.904L223.462 85.488C223.313 86.128 223.025 86.7467 222.598 87.344C222.171 87.92 221.649 88.432 221.03 88.88C220.433 89.328 219.75 89.68 218.982 89.936C218.235 90.192 217.446 90.32 216.614 90.32ZM217.158 88.016C218.267 88.016 219.259 87.7493 220.134 87.216C221.009 86.6613 221.691 85.904 222.182 84.944C222.694 83.9627 222.95 82.8533 222.95 81.616C222.95 80.3787 222.694 79.28 222.182 78.32C221.691 77.36 221.009 76.6027 220.134 76.048C219.259 75.4933 218.267 75.216 217.158 75.216C216.027 75.216 215.025 75.4933 214.15 76.048C213.297 76.6027 212.614 77.36 212.102 78.32C211.611 79.28 211.366 80.3787 211.366 81.616C211.366 82.832 211.611 83.9307 212.102 84.912C212.593 85.872 213.275 86.6293 214.15 87.184C215.025 87.7387 216.027 88.016 217.158 88.016ZM236.714 90.32C235.199 90.32 233.834 89.9467 232.618 89.2C231.423 88.4533 230.474 87.4293 229.77 86.128C229.087 84.8053 228.746 83.312 228.746 81.648C228.746 79.9627 229.098 78.4693 229.802 77.168C230.506 75.8453 231.455 74.8107 232.65 74.064C233.844 73.3173 235.188 72.944 236.682 72.944C237.514 72.944 238.314 73.072 239.082 73.328C239.871 73.584 240.575 73.9467 241.194 74.416C241.812 74.864 242.324 75.3867 242.73 75.984C243.135 76.56 243.38 77.168 243.466 77.808L242.73 77.552V66.32H245.13V90H242.762L242.698 85.84L243.306 85.616C243.22 86.2133 242.975 86.8 242.57 87.376C242.186 87.9307 241.695 88.432 241.098 88.88C240.5 89.328 239.818 89.68 239.05 89.936C238.303 90.192 237.524 90.32 236.714 90.32ZM237.066 88.112C238.175 88.112 239.167 87.8347 240.042 87.28C240.916 86.7253 241.599 85.9573 242.09 84.976C242.602 83.9947 242.858 82.8747 242.858 81.616C242.858 80.3573 242.602 79.248 242.09 78.288C241.599 77.3067 240.916 76.5387 240.042 75.984C239.167 75.408 238.175 75.12 237.066 75.12C235.914 75.12 234.9 75.408 234.026 75.984C233.172 76.5387 232.49 77.3067 231.978 78.288C231.487 79.248 231.242 80.3573 231.242 81.616C231.242 82.8533 231.487 83.9627 231.978 84.944C232.468 85.9253 233.151 86.704 234.026 87.28C234.9 87.8347 235.914 88.112 237.066 88.112ZM257.197 90.32C255.533 90.32 254.05 89.9467 252.749 89.2C251.469 88.4533 250.455 87.4187 249.709 86.096C248.983 84.7733 248.621 83.2693 248.621 81.584C248.621 79.92 248.983 78.4373 249.709 77.136C250.455 75.8347 251.469 74.8107 252.749 74.064C254.05 73.3173 255.533 72.944 257.197 72.944C258.839 72.944 260.301 73.3173 261.581 74.064C262.882 74.8107 263.895 75.8347 264.621 77.136C265.367 78.4373 265.741 79.92 265.741 81.584C265.741 83.2693 265.367 84.7733 264.621 86.096C263.895 87.4187 262.882 88.4533 261.581 89.2C260.301 89.9467 258.839 90.32 257.197 90.32ZM257.197 88.048C258.37 88.048 259.415 87.7707 260.333 87.216C261.25 86.64 261.965 85.872 262.477 84.912C262.989 83.9307 263.245 82.8213 263.245 81.584C263.245 80.3467 262.989 79.248 262.477 78.288C261.965 77.328 261.25 76.5813 260.333 76.048C259.415 75.4933 258.37 75.216 257.197 75.216C256.023 75.216 254.967 75.4933 254.029 76.048C253.111 76.5813 252.386 77.3387 251.853 78.32C251.341 79.28 251.095 80.368 251.117 81.584C251.095 82.8213 251.341 83.9307 251.853 84.912C252.386 85.872 253.111 86.64 254.029 87.216C254.967 87.7707 256.023 88.048 257.197 88.048ZM269.242 90V73.296H271.642L271.706 77.744L271.45 77.136C271.685 76.3893 272.058 75.696 272.57 75.056C273.104 74.416 273.733 73.904 274.458 73.52C275.184 73.136 275.984 72.944 276.858 72.944C277.221 72.944 277.562 72.976 277.882 73.04C278.202 73.0827 278.469 73.1467 278.682 73.232L278.01 75.92C277.733 75.792 277.445 75.7067 277.146 75.664C276.869 75.6 276.602 75.568 276.346 75.568C275.621 75.568 274.97 75.696 274.394 75.952C273.818 76.208 273.328 76.5707 272.922 77.04C272.517 77.488 272.208 78.0107 271.994 78.608C271.781 79.2053 271.674 79.8453 271.674 80.528V90H269.242ZM300.389 90.32C298.789 90.32 297.317 90.0427 295.973 89.488C294.629 88.912 293.466 88.112 292.485 87.088C291.503 86.0427 290.735 84.816 290.181 83.408C289.647 82 289.381 80.464 289.381 78.8C289.381 77.1573 289.647 75.6533 290.181 74.288C290.735 72.9013 291.514 71.696 292.516 70.672C293.519 69.6267 294.682 68.8267 296.005 68.272C297.327 67.7173 298.778 67.44 300.357 67.44C301.402 67.44 302.437 67.6107 303.461 67.952C304.485 68.272 305.423 68.72 306.277 69.296C307.151 69.872 307.866 70.5333 308.421 71.28L306.693 73.072C306.159 72.432 305.541 71.8773 304.837 71.408C304.154 70.9387 303.429 70.576 302.661 70.32C301.893 70.064 301.125 69.936 300.357 69.936C299.162 69.936 298.042 70.16 296.997 70.608C295.973 71.0347 295.087 71.6427 294.341 72.432C293.594 73.2213 293.007 74.16 292.581 75.248C292.175 76.336 291.973 77.52 291.973 78.8C291.973 80.1227 292.175 81.3387 292.581 82.448C293.007 83.5573 293.605 84.5173 294.373 85.328C295.162 86.1173 296.079 86.736 297.125 87.184C298.191 87.6107 299.375 87.824 300.677 87.824C301.445 87.824 302.213 87.7173 302.981 87.504C303.749 87.2693 304.453 86.9493 305.093 86.544C305.733 86.1387 306.277 85.68 306.725 85.168L308.005 87.248C307.514 87.8453 306.853 88.3787 306.021 88.848C305.21 89.296 304.314 89.6587 303.333 89.936C302.351 90.192 301.37 90.32 300.389 90.32ZM311.774 90V73.296H314.174L314.238 77.744L313.982 77.136C314.216 76.3893 314.59 75.696 315.102 75.056C315.635 74.416 316.264 73.904 316.99 73.52C317.715 73.136 318.515 72.944 319.39 72.944C319.752 72.944 320.094 72.976 320.414 73.04C320.734 73.0827 321 73.1467 321.214 73.232L320.542 75.92C320.264 75.792 319.976 75.7067 319.678 75.664C319.4 75.6 319.134 75.568 318.878 75.568C318.152 75.568 317.502 75.696 316.926 75.952C316.35 76.208 315.859 76.5707 315.454 77.04C315.048 77.488 314.739 78.0107 314.526 78.608C314.312 79.2053 314.206 79.8453 314.206 80.528V90H311.774ZM324.351 90V73.296H326.751V90H324.351ZM325.535 69.68C324.938 69.68 324.479 69.5307 324.159 69.232C323.86 68.912 323.711 68.4853 323.711 67.952C323.711 67.4187 323.871 66.992 324.191 66.672C324.511 66.352 324.959 66.192 325.535 66.192C326.111 66.192 326.559 66.352 326.879 66.672C327.199 66.9707 327.359 67.3973 327.359 67.952C327.359 68.464 327.199 68.88 326.879 69.2C326.559 69.52 326.111 69.68 325.535 69.68ZM338.52 90.32C337.07 90.32 335.758 89.9467 334.584 89.2C333.411 88.432 332.483 87.3973 331.8 86.096C331.118 84.7733 330.776 83.28 330.776 81.616C330.776 79.9307 331.128 78.4373 331.832 77.136C332.536 75.8347 333.475 74.8107 334.648 74.064C335.843 73.3173 337.176 72.944 338.648 72.944C339.523 72.944 340.334 73.072 341.08 73.328C341.827 73.584 342.488 73.9467 343.064 74.416C343.662 74.864 344.152 75.3973 344.536 76.016C344.942 76.6133 345.219 77.264 345.368 77.968L344.664 77.616L344.76 73.296H347.16V90H344.728V85.904L345.368 85.488C345.219 86.128 344.931 86.7467 344.504 87.344C344.078 87.92 343.555 88.432 342.936 88.88C342.339 89.328 341.656 89.68 340.888 89.936C340.142 90.192 339.352 90.32 338.52 90.32ZM339.064 88.016C340.174 88.016 341.166 87.7493 342.04 87.216C342.915 86.6613 343.598 85.904 344.088 84.944C344.6 83.9627 344.856 82.8533 344.856 81.616C344.856 80.3787 344.6 79.28 344.088 78.32C343.598 77.36 342.915 76.6027 342.04 76.048C341.166 75.4933 340.174 75.216 339.064 75.216C337.934 75.216 336.931 75.4933 336.056 76.048C335.203 76.6027 334.52 77.36 334.008 78.32C333.518 79.28 333.272 80.3787 333.272 81.616C333.272 82.832 333.518 83.9307 334.008 84.912C334.499 85.872 335.182 86.6293 336.056 87.184C336.931 87.7387 337.934 88.016 339.064 88.016ZM358.62 90.32C357.105 90.32 355.74 89.9467 354.524 89.2C353.329 88.4533 352.38 87.4293 351.676 86.128C350.993 84.8053 350.652 83.312 350.652 81.648C350.652 79.9627 351.004 78.4693 351.708 77.168C352.412 75.8453 353.361 74.8107 354.556 74.064C355.751 73.3173 357.095 72.944 358.588 72.944C359.42 72.944 360.22 73.072 360.988 73.328C361.777 73.584 362.481 73.9467 363.1 74.416C363.719 74.864 364.231 75.3867 364.636 75.984C365.041 76.56 365.287 77.168 365.372 77.808L364.636 77.552V66.32H367.036V90H364.668L364.604 85.84L365.212 85.616C365.127 86.2133 364.881 86.8 364.476 87.376C364.092 87.9307 363.601 88.432 363.004 88.88C362.407 89.328 361.724 89.68 360.956 89.936C360.209 90.192 359.431 90.32 358.62 90.32ZM358.972 88.112C360.081 88.112 361.073 87.8347 361.948 87.28C362.823 86.7253 363.505 85.9573 363.996 84.976C364.508 83.9947 364.764 82.8747 364.764 81.616C364.764 80.3573 364.508 79.248 363.996 78.288C363.505 77.3067 362.823 76.5387 361.948 75.984C361.073 75.408 360.081 75.12 358.972 75.12C357.82 75.12 356.807 75.408 355.932 75.984C355.079 76.5387 354.396 77.3067 353.884 78.288C353.393 79.248 353.148 80.3573 353.148 81.616C353.148 82.8533 353.393 83.9627 353.884 84.944C354.375 85.9253 355.057 86.704 355.932 87.28C356.807 87.8347 357.82 88.112 358.972 88.112ZM379.103 90.32C377.439 90.32 375.956 89.9467 374.655 89.2C373.375 88.4533 372.362 87.4187 371.615 86.096C370.89 84.7733 370.527 83.2693 370.527 81.584C370.527 79.92 370.89 78.4373 371.615 77.136C372.362 75.8347 373.375 74.8107 374.655 74.064C375.956 73.3173 377.439 72.944 379.103 72.944C380.746 72.944 382.207 73.3173 383.487 74.064C384.788 74.8107 385.802 75.8347 386.527 77.136C387.274 78.4373 387.647 79.92 387.647 81.584C387.647 83.2693 387.274 84.7733 386.527 86.096C385.802 87.4187 384.788 88.4533 383.487 89.2C382.207 89.9467 380.746 90.32 379.103 90.32ZM379.103 88.048C380.276 88.048 381.322 87.7707 382.239 87.216C383.156 86.64 383.871 85.872 384.383 84.912C384.895 83.9307 385.151 82.8213 385.151 81.584C385.151 80.3467 384.895 79.248 384.383 78.288C383.871 77.328 383.156 76.5813 382.239 76.048C381.322 75.4933 380.276 75.216 379.103 75.216C377.93 75.216 376.874 75.4933 375.935 76.048C375.018 76.5813 374.292 77.3387 373.759 78.32C373.247 79.28 373.002 80.368 373.023 81.584C373.002 82.8213 373.247 83.9307 373.759 84.912C374.292 85.872 375.018 86.64 375.935 87.216C376.874 87.7707 377.93 88.048 379.103 88.048Z" fill="url(#paint1_linear_2396_7395)"/>
<defs>
<linearGradient id="paint0_linear_2396_7395" x1="211" y1="23.25" x2="176.5" y2="23.25" gradientUnits="userSpaceOnUse">
<stop stop-color="#43A3D5"/>
<stop offset="1" stop-color="#9C60DA"/>
</linearGradient>
<linearGradient id="paint1_linear_2396_7395" x1="389" y1="78" x2="0" y2="78" gradientUnits="userSpaceOnUse">
<stop stop-color="#43A3D5"/>
<stop offset="1" stop-color="#9C60DA"/>
</linearGradient>
</defs>
</svg>
 