<svg width="172" height="40" viewBox="0 0 172 40" fill="none" xmlns="http://www.w3.org/2000/svg">
<rect x="0.5" y="0.5" width="171" height="39" rx="19.5" stroke="#E1DDF4"/>
<path d="M81.6861 26.16C80.8967 26.16 80.1661 26.0213 79.4941 25.744C78.8327 25.456 78.2514 25.056 77.7501 24.544C77.2594 24.032 76.8754 23.4293 76.5981 22.736C76.3314 22.032 76.1981 21.264 76.1981 20.432C76.1981 19.6 76.3314 18.8373 76.5981 18.144C76.8754 17.44 77.2594 16.832 77.7501 16.32C78.2514 15.7973 78.8327 15.3973 79.4941 15.12C80.1661 14.832 80.8967 14.688 81.6861 14.688C82.4861 14.688 83.2167 14.832 83.8781 15.12C84.5501 15.3973 85.1314 15.7973 85.6221 16.32C86.1234 16.832 86.5074 17.44 86.7741 18.144C87.0514 18.8373 87.1901 19.6 87.1901 20.432C87.1901 21.2533 87.0514 22.016 86.7741 22.72C86.5074 23.4133 86.1234 24.0213 85.6221 24.544C85.1314 25.056 84.5501 25.456 83.8781 25.744C83.2167 26.0213 82.4861 26.16 81.6861 26.16ZM81.6861 24.928C82.2941 24.928 82.8541 24.8213 83.3661 24.608C83.8887 24.384 84.3367 24.0693 84.7101 23.664C85.0834 23.2587 85.3714 22.784 85.5741 22.24C85.7874 21.6853 85.8941 21.0827 85.8941 20.432C85.8941 19.7707 85.7874 19.168 85.5741 18.624C85.3714 18.0693 85.0834 17.5893 84.7101 17.184C84.3367 16.7787 83.8887 16.464 83.3661 16.24C82.8541 16.016 82.2941 15.904 81.6861 15.904C81.0781 15.904 80.5127 16.016 79.9901 16.24C79.4781 16.464 79.0354 16.7787 78.6621 17.184C78.2887 17.5893 78.0007 18.0693 77.7981 18.624C77.5954 19.168 77.4941 19.7707 77.4941 20.432C77.4941 21.0827 77.5954 21.6853 77.7981 22.24C78.0007 22.784 78.2887 23.2587 78.6621 23.664C79.0354 24.0693 79.4781 24.384 79.9901 24.608C80.5127 24.8213 81.0781 24.928 81.6861 24.928ZM90.2166 23.312L90.1686 21.92L94.5366 17.648H96.1526L90.2166 23.312ZM89.1446 26V14.16H90.3446V26H89.1446ZM94.8726 26L91.3526 21.92L92.2006 21.088L96.4406 26H94.8726Z" fill="#E1DDF4"/>
</svg>
