<svg width="375" height="40" viewBox="0 0 375 40" fill="none" xmlns="http://www.w3.org/2000/svg">
<g clip-path="url(#clip0_1135_4916)">
<path fill-rule="evenodd" clip-rule="evenodd" d="M10.6665 4.82031C16.1043 4.82031 20.5126 9.22862 20.5126 14.6665C20.5126 15.6612 20.3651 16.6214 20.0908 17.5265L30.3588 27.7947C32.1714 29.6073 32.1714 32.5462 30.3588 34.3588C28.5462 36.1714 25.6072 36.1714 23.7947 34.3588L13.5265 24.0908C12.6214 24.3651 11.6612 24.5126 10.6665 24.5126C5.22862 24.5126 0.820312 20.1043 0.820312 14.6665C0.820312 13.6171 0.984466 12.606 1.28854 11.6576L5.94608 16.3075L10.5625 14.77L10.7687 14.5639L12.3075 9.9517L7.64454 5.29285C8.5967 4.98608 9.61224 4.82031 10.6665 4.82031Z" fill="#9C60DA"/>
</g>
<path d="M45.296 32V9.6H54.064C55.3653 9.6 56.5387 9.90933 57.584 10.528C58.6507 11.1253 59.4933 11.9467 60.112 12.992C60.7307 14.0373 61.04 15.2213 61.04 16.544C61.04 17.7813 60.7413 18.9013 60.144 19.904C59.5467 20.9067 58.736 21.7067 57.712 22.304C56.688 22.88 55.536 23.168 54.256 23.168H47.792V32H45.296ZM58.96 32L53.328 22.144L55.728 21.312L61.936 32H58.96ZM47.792 20.736H54.48C55.2693 20.736 55.9627 20.5547 56.56 20.192C57.1573 19.8293 57.6267 19.3387 57.968 18.72C58.3093 18.08 58.48 17.3547 58.48 16.544C58.48 15.6693 58.2773 14.8907 57.872 14.208C57.4667 13.5253 56.9013 12.992 56.176 12.608C55.472 12.224 54.6613 12.032 53.744 12.032H47.792V20.736ZM72.196 32.32C70.532 32.32 69.0493 31.9573 67.748 31.232C66.468 30.5067 65.4653 29.4933 64.74 28.192C64.0147 26.8907 63.652 25.3973 63.652 23.712C63.652 22.4107 63.8547 21.2373 64.26 20.192C64.6653 19.1253 65.2307 18.1973 65.956 17.408C66.7027 16.6187 67.588 16.0107 68.612 15.584C69.636 15.136 70.7453 14.912 71.94 14.912C73.0707 14.912 74.0947 15.1147 75.012 15.52C75.9507 15.9253 76.7507 16.4907 77.412 17.216C78.0947 17.92 78.6067 18.7627 78.948 19.744C79.2893 20.7253 79.4387 21.8027 79.396 22.976L79.364 24.096H65.444L65.092 22.08H77.54L76.964 22.624V21.856C76.9213 21.088 76.6973 20.352 76.292 19.648C75.8867 18.9227 75.3107 18.336 74.564 17.888C73.8387 17.44 72.964 17.216 71.94 17.216C70.7453 17.216 69.7107 17.4613 68.836 17.952C67.9613 18.4213 67.2893 19.1253 66.82 20.064C66.3507 21.0027 66.116 22.1653 66.116 23.552C66.116 24.8747 66.372 26.0267 66.884 27.008C67.396 27.968 68.1213 28.7147 69.06 29.248C70.02 29.7813 71.172 30.048 72.516 30.048C73.3053 30.048 74.084 29.92 74.852 29.664C75.6413 29.3867 76.5053 28.8533 77.444 28.064L78.692 29.792C78.2013 30.2827 77.6147 30.72 76.932 31.104C76.2493 31.4667 75.5027 31.7653 74.692 32C73.8813 32.2133 73.0493 32.32 72.196 32.32ZM89.8448 32.32C88.2661 32.32 86.8581 31.9467 85.6208 31.2C84.3834 30.432 83.4021 29.3973 82.6768 28.096C81.9728 26.7733 81.6208 25.28 81.6208 23.616C81.6208 21.952 81.9728 20.4693 82.6768 19.168C83.4021 17.8453 84.3834 16.8107 85.6208 16.064C86.8581 15.3173 88.2768 14.944 89.8767 14.944C91.3061 14.944 92.6074 15.232 93.7808 15.808C94.9541 16.3627 95.8928 17.1413 96.5968 18.144L95.1888 19.872C94.7834 19.3387 94.2928 18.8693 93.7168 18.464C93.1621 18.0587 92.5541 17.7493 91.8928 17.536C91.2528 17.3013 90.6128 17.184 89.9728 17.184C88.8421 17.184 87.8288 17.472 86.9328 18.048C86.0368 18.6027 85.3221 19.36 84.7888 20.32C84.2768 21.28 84.0208 22.3787 84.0208 23.616C84.0208 24.8533 84.2768 25.9627 84.7888 26.944C85.3221 27.904 86.0368 28.6613 86.9328 29.216C87.8288 29.7707 88.8314 30.048 89.9408 30.048C90.5808 30.048 91.2101 29.952 91.8288 29.76C92.4474 29.5467 93.0341 29.248 93.5888 28.864C94.1434 28.48 94.6554 28 95.1248 27.424L96.5328 29.152C95.8074 30.112 94.8368 30.88 93.6208 31.456C92.4048 32.032 91.1461 32.32 89.8448 32.32ZM99.6485 32V15.296H102.049L102.113 19.744L101.857 19.136C102.091 18.3893 102.465 17.696 102.977 17.056C103.51 16.416 104.139 15.904 104.865 15.52C105.59 15.136 106.39 14.944 107.265 14.944C107.627 14.944 107.969 14.976 108.289 15.04C108.609 15.0827 108.875 15.1467 109.089 15.232L108.417 17.92C108.139 17.792 107.851 17.7067 107.553 17.664C107.275 17.6 107.009 17.568 106.753 17.568C106.027 17.568 105.377 17.696 104.801 17.952C104.225 18.208 103.734 18.5707 103.329 19.04C102.923 19.488 102.614 20.0107 102.401 20.608C102.187 21.2053 102.081 21.8453 102.081 22.528V32H99.6485ZM117.506 32.32C116.226 32.32 115.138 32.064 114.242 31.552C113.367 31.0187 112.695 30.2507 112.226 29.248C111.778 28.2453 111.554 26.9973 111.554 25.504V15.296H113.986V25.024C113.986 26.1547 114.135 27.104 114.434 27.872C114.754 28.6187 115.223 29.184 115.842 29.568C116.482 29.952 117.261 30.144 118.178 30.144C118.882 30.144 119.533 30.0267 120.13 29.792C120.727 29.536 121.25 29.1947 121.698 28.768C122.146 28.3413 122.498 27.84 122.754 27.264C123.01 26.688 123.138 26.08 123.138 25.44V15.296H125.538V32H123.17L123.074 28.48L123.458 28.288C123.202 29.0347 122.775 29.7173 122.178 30.336C121.581 30.9333 120.866 31.4133 120.034 31.776C119.223 32.1387 118.381 32.32 117.506 32.32ZM132.515 32V10.912H134.915V32H132.515ZM128.739 17.6V15.296H139.139V17.6H128.739ZM148.458 32.32C147.007 32.32 145.695 31.9467 144.522 31.2C143.348 30.432 142.42 29.3973 141.738 28.096C141.055 26.7733 140.714 25.28 140.714 23.616C140.714 21.9307 141.066 20.4373 141.77 19.136C142.474 17.8347 143.412 16.8107 144.586 16.064C145.78 15.3173 147.114 14.944 148.586 14.944C149.46 14.944 150.271 15.072 151.018 15.328C151.764 15.584 152.426 15.9467 153.002 16.416C153.599 16.864 154.09 17.3973 154.474 18.016C154.879 18.6133 155.156 19.264 155.306 19.968L154.602 19.616L154.698 15.296H157.098V32H154.666V27.904L155.306 27.488C155.156 28.128 154.868 28.7467 154.442 29.344C154.015 29.92 153.492 30.432 152.874 30.88C152.276 31.328 151.594 31.68 150.826 31.936C150.079 32.192 149.29 32.32 148.458 32.32ZM149.002 30.016C150.111 30.016 151.103 29.7493 151.978 29.216C152.852 28.6613 153.535 27.904 154.026 26.944C154.538 25.9627 154.794 24.8533 154.794 23.616C154.794 22.3787 154.538 21.28 154.026 20.32C153.535 19.36 152.852 18.6027 151.978 18.048C151.103 17.4933 150.111 17.216 149.002 17.216C147.871 17.216 146.868 17.4933 145.994 18.048C145.14 18.6027 144.458 19.36 143.946 20.32C143.455 21.28 143.21 22.3787 143.21 23.616C143.21 24.832 143.455 25.9307 143.946 26.912C144.436 27.872 145.119 28.6293 145.994 29.184C146.868 29.7387 147.871 30.016 149.002 30.016ZM161.774 32V15.296H164.174L164.238 19.744L163.982 19.136C164.216 18.3893 164.59 17.696 165.102 17.056C165.635 16.416 166.264 15.904 166.99 15.52C167.715 15.136 168.515 14.944 169.39 14.944C169.752 14.944 170.094 14.976 170.414 15.04C170.734 15.0827 171 15.1467 171.214 15.232L170.542 17.92C170.264 17.792 169.976 17.7067 169.678 17.664C169.4 17.6 169.134 17.568 168.878 17.568C168.152 17.568 167.502 17.696 166.926 17.952C166.35 18.208 165.859 18.5707 165.454 19.04C165.048 19.488 164.739 20.0107 164.526 20.608C164.312 21.2053 164.206 21.8453 164.206 22.528V32H161.774ZM183.64 32V9.6H197.208V12.032H186.136V29.568H197.144V32H183.64ZM184.792 21.696V19.264H195.416V21.696H184.792ZM201.836 32V15.296H204.204L204.3 18.784L203.916 18.944C204.129 18.2187 204.545 17.5573 205.164 16.96C205.783 16.3627 206.519 15.8827 207.372 15.52C208.247 15.136 209.143 14.944 210.06 14.944C211.297 14.944 212.332 15.1893 213.164 15.68C213.996 16.1707 214.625 16.928 215.052 17.952C215.479 18.976 215.692 20.2773 215.692 21.856V32H213.26V21.984C213.26 20.8747 213.111 19.968 212.812 19.264C212.535 18.5387 212.097 18.0053 211.5 17.664C210.903 17.3227 210.167 17.1627 209.292 17.184C208.567 17.184 207.895 17.312 207.276 17.568C206.657 17.8027 206.124 18.1333 205.676 18.56C205.228 18.9867 204.876 19.4773 204.62 20.032C204.364 20.5867 204.236 21.184 204.236 21.824V32H203.052C202.903 32 202.732 32 202.54 32C202.348 32 202.113 32 201.836 32ZM227.314 32.32C225.735 32.32 224.327 31.9467 223.09 31.2C221.852 30.432 220.871 29.3973 220.146 28.096C219.442 26.7733 219.09 25.28 219.09 23.616C219.09 21.952 219.442 20.4693 220.146 19.168C220.871 17.8453 221.852 16.8107 223.09 16.064C224.327 15.3173 225.746 14.944 227.345 14.944C228.775 14.944 230.076 15.232 231.25 15.808C232.423 16.3627 233.362 17.1413 234.066 18.144L232.658 19.872C232.252 19.3387 231.762 18.8693 231.186 18.464C230.631 18.0587 230.023 17.7493 229.362 17.536C228.722 17.3013 228.082 17.184 227.442 17.184C226.311 17.184 225.298 17.472 224.402 18.048C223.506 18.6027 222.791 19.36 222.258 20.32C221.746 21.28 221.49 22.3787 221.49 23.616C221.49 24.8533 221.746 25.9627 222.258 26.944C222.791 27.904 223.506 28.6613 224.402 29.216C225.298 29.7707 226.3 30.048 227.41 30.048C228.05 30.048 228.679 29.952 229.298 29.76C229.916 29.5467 230.503 29.248 231.058 28.864C231.612 28.48 232.124 28 232.594 27.424L234.002 29.152C233.276 30.112 232.306 30.88 231.09 31.456C229.874 32.032 228.615 32.32 227.314 32.32ZM243.645 32.32C242.195 32.32 240.883 31.9467 239.709 31.2C238.536 30.432 237.608 29.3973 236.925 28.096C236.243 26.7733 235.901 25.28 235.901 23.616C235.901 21.9307 236.253 20.4373 236.957 19.136C237.661 17.8347 238.6 16.8107 239.773 16.064C240.968 15.3173 242.301 14.944 243.773 14.944C244.648 14.944 245.459 15.072 246.205 15.328C246.952 15.584 247.613 15.9467 248.189 16.416C248.787 16.864 249.277 17.3973 249.661 18.016C250.067 18.6133 250.344 19.264 250.493 19.968L249.789 19.616L249.885 15.296H252.285V32H249.853V27.904L250.493 27.488C250.344 28.128 250.056 28.7467 249.629 29.344C249.203 29.92 248.68 30.432 248.061 30.88C247.464 31.328 246.781 31.68 246.013 31.936C245.267 32.192 244.477 32.32 243.645 32.32ZM244.189 30.016C245.299 30.016 246.291 29.7493 247.165 29.216C248.04 28.6613 248.723 27.904 249.213 26.944C249.725 25.9627 249.981 24.8533 249.981 23.616C249.981 22.3787 249.725 21.28 249.213 20.32C248.723 19.36 248.04 18.6027 247.165 18.048C246.291 17.4933 245.299 17.216 244.189 17.216C243.059 17.216 242.056 17.4933 241.181 18.048C240.328 18.6027 239.645 19.36 239.133 20.32C238.643 21.28 238.397 22.3787 238.397 23.616C238.397 24.832 238.643 25.9307 239.133 26.912C239.624 27.872 240.307 28.6293 241.181 29.184C242.056 29.7387 243.059 30.016 244.189 30.016ZM256.961 32V15.296H259.361L259.425 19.744L259.169 19.136C259.404 18.3893 259.777 17.696 260.289 17.056C260.822 16.416 261.452 15.904 262.177 15.52C262.902 15.136 263.702 14.944 264.577 14.944C264.94 14.944 265.281 14.976 265.601 15.04C265.921 15.0827 266.188 15.1467 266.401 15.232L265.729 17.92C265.452 17.792 265.164 17.7067 264.865 17.664C264.588 17.6 264.321 17.568 264.065 17.568C263.34 17.568 262.689 17.696 262.113 17.952C261.537 18.208 261.046 18.5707 260.641 19.04C260.236 19.488 259.926 20.0107 259.713 20.608C259.5 21.2053 259.393 21.8453 259.393 22.528V32H256.961ZM268.899 32V15.296H271.299L271.363 19.744L271.107 19.136C271.341 18.3893 271.715 17.696 272.227 17.056C272.76 16.416 273.389 15.904 274.115 15.52C274.84 15.136 275.64 14.944 276.515 14.944C276.877 14.944 277.219 14.976 277.539 15.04C277.859 15.0827 278.125 15.1467 278.339 15.232L277.667 17.92C277.389 17.792 277.101 17.7067 276.803 17.664C276.525 17.6 276.259 17.568 276.003 17.568C275.277 17.568 274.627 17.696 274.051 17.952C273.475 18.208 272.984 18.5707 272.579 19.04C272.173 19.488 271.864 20.0107 271.651 20.608C271.437 21.2053 271.331 21.8453 271.331 22.528V32H268.899ZM287.477 32.32C285.813 32.32 284.331 31.9573 283.029 31.232C281.749 30.5067 280.747 29.4933 280.021 28.192C279.296 26.8907 278.933 25.3973 278.933 23.712C278.933 22.4107 279.136 21.2373 279.541 20.192C279.947 19.1253 280.512 18.1973 281.237 17.408C281.984 16.6187 282.869 16.0107 283.893 15.584C284.917 15.136 286.027 14.912 287.221 14.912C288.352 14.912 289.376 15.1147 290.293 15.52C291.232 15.9253 292.032 16.4907 292.693 17.216C293.376 17.92 293.888 18.7627 294.229 19.744C294.571 20.7253 294.72 21.8027 294.677 22.976L294.645 24.096H280.725L280.373 22.08H292.821L292.245 22.624V21.856C292.203 21.088 291.979 20.352 291.573 19.648C291.168 18.9227 290.592 18.336 289.845 17.888C289.12 17.44 288.245 17.216 287.221 17.216C286.027 17.216 284.992 17.4613 284.117 17.952C283.243 18.4213 282.571 19.1253 282.101 20.064C281.632 21.0027 281.397 22.1653 281.397 23.552C281.397 24.8747 281.653 26.0267 282.165 27.008C282.677 27.968 283.403 28.7147 284.341 29.248C285.301 29.7813 286.453 30.048 287.797 30.048C288.587 30.048 289.365 29.92 290.133 29.664C290.923 29.3867 291.787 28.8533 292.725 28.064L293.973 29.792C293.483 30.2827 292.896 30.72 292.213 31.104C291.531 31.4667 290.784 31.7653 289.973 32C289.163 32.2133 288.331 32.32 287.477 32.32ZM305.13 39.36C303.892 39.36 302.719 39.168 301.61 38.784C300.5 38.4 299.583 37.92 298.858 37.344L299.818 35.328C300.244 35.6693 300.735 35.968 301.29 36.224C301.866 36.5013 302.484 36.7147 303.146 36.864C303.807 37.0347 304.479 37.12 305.162 37.12C306.399 37.12 307.444 36.8853 308.298 36.416C309.172 35.968 309.834 35.296 310.282 34.4C310.751 33.504 310.986 32.3947 310.986 31.072V27.872L311.37 27.776C311.178 28.5867 310.762 29.344 310.122 30.048C309.482 30.7307 308.703 31.2853 307.786 31.712C306.868 32.1173 305.898 32.32 304.874 32.32C303.316 32.32 301.919 31.9467 300.682 31.2C299.466 30.4533 298.506 29.4293 297.802 28.128C297.098 26.8053 296.746 25.312 296.746 23.648C296.746 21.9627 297.098 20.4693 297.802 19.168C298.527 17.8453 299.498 16.8107 300.714 16.064C301.93 15.3173 303.295 14.944 304.81 14.944C305.471 14.944 306.111 15.0293 306.73 15.2C307.348 15.3493 307.914 15.5733 308.426 15.872C308.959 16.1707 309.439 16.512 309.866 16.896C310.292 17.28 310.644 17.696 310.922 18.144C311.22 18.592 311.434 19.0507 311.562 19.52L310.89 19.424L310.986 15.296H313.386V30.976C313.386 32.32 313.194 33.504 312.81 34.528C312.426 35.5733 311.86 36.448 311.114 37.152C310.388 37.8773 309.514 38.4213 308.49 38.784C307.487 39.168 306.367 39.36 305.13 39.36ZM305.162 30.016C306.292 30.016 307.295 29.7493 308.17 29.216C309.066 28.6613 309.77 27.904 310.282 26.944C310.794 25.984 311.05 24.8747 311.05 23.616C311.05 22.3787 310.794 21.28 310.282 20.32C309.791 19.36 309.098 18.6027 308.202 18.048C307.306 17.4933 306.292 17.216 305.162 17.216C304.01 17.216 302.986 17.4933 302.09 18.048C301.215 18.6027 300.522 19.36 300.01 20.32C299.498 21.28 299.242 22.3787 299.242 23.616C299.242 24.832 299.487 25.9307 299.978 26.912C300.49 27.872 301.183 28.6293 302.058 29.184C302.954 29.7387 303.988 30.016 305.162 30.016ZM324.583 32.32C323.132 32.32 321.82 31.9467 320.647 31.2C319.473 30.432 318.545 29.3973 317.863 28.096C317.18 26.7733 316.839 25.28 316.839 23.616C316.839 21.9307 317.191 20.4373 317.895 19.136C318.599 17.8347 319.537 16.8107 320.711 16.064C321.905 15.3173 323.239 14.944 324.711 14.944C325.585 14.944 326.396 15.072 327.143 15.328C327.889 15.584 328.551 15.9467 329.127 16.416C329.724 16.864 330.215 17.3973 330.599 18.016C331.004 18.6133 331.281 19.264 331.431 19.968L330.727 19.616L330.823 15.296H333.223V32H330.791V27.904L331.431 27.488C331.281 28.128 330.993 28.7467 330.567 29.344C330.14 29.92 329.617 30.432 328.999 30.88C328.401 31.328 327.719 31.68 326.951 31.936C326.204 32.192 325.415 32.32 324.583 32.32ZM325.127 30.016C326.236 30.016 327.228 29.7493 328.103 29.216C328.977 28.6613 329.66 27.904 330.151 26.944C330.663 25.9627 330.919 24.8533 330.919 23.616C330.919 22.3787 330.663 21.28 330.151 20.32C329.66 19.36 328.977 18.6027 328.103 18.048C327.228 17.4933 326.236 17.216 325.127 17.216C323.996 17.216 322.993 17.4933 322.119 18.048C321.265 18.6027 320.583 19.36 320.071 20.32C319.58 21.28 319.335 22.3787 319.335 23.616C319.335 24.832 319.58 25.9307 320.071 26.912C320.561 27.872 321.244 28.6293 322.119 29.184C322.993 29.7387 323.996 30.016 325.127 30.016ZM344.683 32.32C343.168 32.32 341.803 31.9467 340.587 31.2C339.392 30.4533 338.443 29.4293 337.739 28.128C337.056 26.8053 336.715 25.312 336.715 23.648C336.715 21.9627 337.067 20.4693 337.771 19.168C338.475 17.8453 339.424 16.8107 340.619 16.064C341.813 15.3173 343.157 14.944 344.651 14.944C345.483 14.944 346.283 15.072 347.051 15.328C347.84 15.584 348.544 15.9467 349.163 16.416C349.781 16.864 350.293 17.3867 350.699 17.984C351.104 18.56 351.349 19.168 351.435 19.808L350.699 19.552V8.32H353.099V32H350.731L350.667 27.84L351.275 27.616C351.189 28.2133 350.944 28.8 350.539 29.376C350.155 29.9307 349.664 30.432 349.067 30.88C348.469 31.328 347.787 31.68 347.019 31.936C346.272 32.192 345.493 32.32 344.683 32.32ZM345.035 30.112C346.144 30.112 347.136 29.8347 348.011 29.28C348.885 28.7253 349.568 27.9573 350.059 26.976C350.571 25.9947 350.827 24.8747 350.827 23.616C350.827 22.3573 350.571 21.248 350.059 20.288C349.568 19.3067 348.885 18.5387 348.011 17.984C347.136 17.408 346.144 17.12 345.035 17.12C343.883 17.12 342.869 17.408 341.995 17.984C341.141 18.5387 340.459 19.3067 339.947 20.288C339.456 21.248 339.211 22.3573 339.211 23.616C339.211 24.8533 339.456 25.9627 339.947 26.944C340.437 27.9253 341.12 28.704 341.995 29.28C342.869 29.8347 343.883 30.112 345.035 30.112ZM365.166 32.32C363.502 32.32 362.019 31.9467 360.718 31.2C359.438 30.4533 358.424 29.4187 357.678 28.096C356.952 26.7733 356.59 25.2693 356.59 23.584C356.59 21.92 356.952 20.4373 357.678 19.136C358.424 17.8347 359.438 16.8107 360.718 16.064C362.019 15.3173 363.502 14.944 365.166 14.944C366.808 14.944 368.27 15.3173 369.55 16.064C370.851 16.8107 371.864 17.8347 372.59 19.136C373.336 20.4373 373.71 21.92 373.71 23.584C373.71 25.2693 373.336 26.7733 372.59 28.096C371.864 29.4187 370.851 30.4533 369.55 31.2C368.27 31.9467 366.808 32.32 365.166 32.32ZM365.166 30.048C366.339 30.048 367.384 29.7707 368.302 29.216C369.219 28.64 369.934 27.872 370.446 26.912C370.958 25.9307 371.214 24.8213 371.214 23.584C371.214 22.3467 370.958 21.248 370.446 20.288C369.934 19.328 369.219 18.5813 368.302 18.048C367.384 17.4933 366.339 17.216 365.166 17.216C363.992 17.216 362.936 17.4933 361.998 18.048C361.08 18.5813 360.355 19.3387 359.822 20.32C359.31 21.28 359.064 22.368 359.086 23.584C359.064 24.8213 359.31 25.9307 359.822 26.912C360.355 27.872 361.08 28.64 361.998 29.216C362.936 29.7707 363.992 30.048 365.166 30.048Z" fill="url(#paint0_linear_1135_4916)"/>
<defs>
<linearGradient id="paint0_linear_1135_4916" x1="375" y1="20" x2="42" y2="20" gradientUnits="userSpaceOnUse">
<stop stop-color="#43A3D5"/>
<stop offset="1" stop-color="#9C60DA"/>
</linearGradient>
<clipPath id="clip0_1135_4916">
<rect width="32" height="32" fill="white" transform="translate(0 4)"/>
</clipPath>
</defs>
</svg>
