<svg width="177" height="40" viewBox="0 0 177 40" fill="none" xmlns="http://www.w3.org/2000/svg">
<rect x="0.5" y="0.5" width="176" height="39" rx="1.5" stroke="#463C61"/>
<path d="M15 29C14.45 29 13.9793 28.8043 13.588 28.413C13.1967 28.0217 13.0007 27.5507 13 27V20.4L15.3 22.7C15.5 22.9 15.7333 23 16 23C16.2667 23 16.5 22.9 16.7 22.7L20 19.4L23.3 22.7C23.5 22.9 23.7333 23 24 23C24.2667 23 24.5 22.9 24.7 22.7L28 19.4L31 22.4V27C31 27.55 30.8043 28.021 30.413 28.413C30.0217 28.805 29.5507 29.0007 29 29H15ZM15 11H29C29.55 11 30.021 11.196 30.413 11.588C30.805 11.98 31.0007 12.4507 31 13V19.575L28.7 17.275C28.5 17.075 28.2667 16.975 28 16.975C27.7333 16.975 27.5 17.075 27.3 17.275L24 20.575L20.7 17.275C20.5 17.075 20.2667 16.975 20 16.975C19.7333 16.975 19.5 17.075 19.3 17.275L16 20.575L13 17.575V13C13 12.45 13.196 11.9793 13.588 11.588C13.98 11.1967 14.4507 11.0007 15 11Z" fill="#E1DDF4"/>
<path d="M44.4234 26L48.7114 14.8H50.1354L54.3914 26H53.0314L50.2954 18.736C50.2208 18.5333 50.1354 18.2987 50.0394 18.032C49.9541 17.7547 49.8581 17.472 49.7514 17.184C49.6554 16.8853 49.5594 16.5973 49.4634 16.32C49.3781 16.0427 49.2981 15.7973 49.2234 15.584H49.5434C49.4581 15.8507 49.3674 16.1227 49.2714 16.4C49.1861 16.6667 49.0954 16.9387 48.9994 17.216C48.9034 17.4827 48.8074 17.7493 48.7114 18.016C48.6154 18.2827 48.5194 18.5493 48.4234 18.816L45.7034 26H44.4234ZM46.2474 22.912L46.7114 21.696H52.0074L52.5194 22.912H46.2474ZM57.7522 26L54.2322 17.648H55.5602L58.3442 24.48L58.0242 24.656L61.0802 17.648H62.3602L58.6162 26H57.7522ZM66.7992 26.16C66.0739 26.16 65.4179 25.9733 64.8312 25.6C64.2445 25.216 63.7805 24.6987 63.4392 24.048C63.0979 23.3867 62.9272 22.64 62.9272 21.808C62.9272 20.9653 63.1032 20.2187 63.4552 19.568C63.8072 18.9173 64.2765 18.4053 64.8632 18.032C65.4605 17.6587 66.1272 17.472 66.8632 17.472C67.3005 17.472 67.7059 17.536 68.0792 17.664C68.4525 17.792 68.7832 17.9733 69.0712 18.208C69.3699 18.432 69.6152 18.6987 69.8072 19.008C70.0099 19.3067 70.1485 19.632 70.2232 19.984L69.8712 19.808L69.9192 17.648H71.1192V26H69.9032V23.952L70.2232 23.744C70.1485 24.064 70.0045 24.3733 69.7912 24.672C69.5779 24.96 69.3165 25.216 69.0072 25.44C68.7085 25.664 68.3672 25.84 67.9832 25.968C67.6099 26.096 67.2152 26.16 66.7992 26.16ZM67.0712 25.008C67.6259 25.008 68.1219 24.8747 68.5592 24.608C68.9965 24.3307 69.3379 23.952 69.5832 23.472C69.8392 22.9813 69.9672 22.4267 69.9672 21.808C69.9672 21.1893 69.8392 20.64 69.5832 20.16C69.3379 19.68 68.9965 19.3013 68.5592 19.024C68.1219 18.7467 67.6259 18.608 67.0712 18.608C66.5059 18.608 66.0045 18.7467 65.5672 19.024C65.1405 19.3013 64.7992 19.68 64.5432 20.16C64.2979 20.64 64.1752 21.1893 64.1752 21.808C64.1752 22.416 64.2979 22.9653 64.5432 23.456C64.7885 23.936 65.1299 24.3147 65.5672 24.592C66.0045 24.8693 66.5059 25.008 67.0712 25.008ZM73.4571 26V17.648H74.6571L74.6891 19.872L74.5611 19.568C74.6784 19.1947 74.8651 18.848 75.1211 18.528C75.3877 18.208 75.7024 17.952 76.0651 17.76C76.4277 17.568 76.8277 17.472 77.2651 17.472C77.4464 17.472 77.6171 17.488 77.7771 17.52C77.9371 17.5413 78.0704 17.5733 78.1771 17.616L77.8411 18.96C77.7024 18.896 77.5584 18.8533 77.4091 18.832C77.2704 18.8 77.1371 18.784 77.0091 18.784C76.6464 18.784 76.3211 18.848 76.0331 18.976C75.7451 19.104 75.4997 19.2853 75.2971 19.52C75.0944 19.744 74.9397 20.0053 74.8331 20.304C74.7264 20.6027 74.6731 20.9227 74.6731 21.264V26H73.4571ZM79.7458 26V17.648H80.9458V26H79.7458ZM80.3378 15.84C80.0391 15.84 79.8098 15.7653 79.6498 15.616C79.5005 15.456 79.4258 15.2427 79.4258 14.976C79.4258 14.7093 79.5058 14.496 79.6658 14.336C79.8258 14.176 80.0498 14.096 80.3378 14.096C80.6258 14.096 80.8498 14.176 81.0098 14.336C81.1698 14.4853 81.2498 14.6987 81.2498 14.976C81.2498 15.232 81.1698 15.44 81.0098 15.6C80.8498 15.76 80.6258 15.84 80.3378 15.84ZM86.8304 26.16C86.1051 26.16 85.4491 25.9733 84.8624 25.6C84.2758 25.216 83.8118 24.6987 83.4704 24.048C83.1291 23.3867 82.9584 22.64 82.9584 21.808C82.9584 20.9653 83.1344 20.2187 83.4864 19.568C83.8384 18.9173 84.3078 18.4053 84.8944 18.032C85.4918 17.6587 86.1584 17.472 86.8944 17.472C87.3318 17.472 87.7371 17.536 88.1104 17.664C88.4838 17.792 88.8144 17.9733 89.1024 18.208C89.4011 18.432 89.6464 18.6987 89.8384 19.008C90.0411 19.3067 90.1798 19.632 90.2544 19.984L89.9024 19.808L89.9504 17.648H91.1504V26H89.9344V23.952L90.2544 23.744C90.1798 24.064 90.0358 24.3733 89.8224 24.672C89.6091 24.96 89.3478 25.216 89.0384 25.44C88.7398 25.664 88.3984 25.84 88.0144 25.968C87.6411 26.096 87.2464 26.16 86.8304 26.16ZM87.1024 25.008C87.6571 25.008 88.1531 24.8747 88.5904 24.608C89.0278 24.3307 89.3691 23.952 89.6144 23.472C89.8704 22.9813 89.9984 22.4267 89.9984 21.808C89.9984 21.1893 89.8704 20.64 89.6144 20.16C89.3691 19.68 89.0278 19.3013 88.5904 19.024C88.1531 18.7467 87.6571 18.608 87.1024 18.608C86.5371 18.608 86.0358 18.7467 85.5984 19.024C85.1718 19.3013 84.8304 19.68 84.5744 20.16C84.3291 20.64 84.2064 21.1893 84.2064 21.808C84.2064 22.416 84.3291 22.9653 84.5744 23.456C84.8198 23.936 85.1611 24.3147 85.5984 24.592C86.0358 24.8693 86.5371 25.008 87.1024 25.008ZM96.8803 26.16C96.123 26.16 95.4403 25.9733 94.8323 25.6C94.235 25.2267 93.7603 24.7147 93.4083 24.064C93.067 23.4027 92.8963 22.656 92.8963 21.824C92.8963 20.9813 93.0723 20.2347 93.4243 19.584C93.7763 18.9227 94.251 18.4053 94.8483 18.032C95.4456 17.6587 96.1176 17.472 96.8643 17.472C97.2803 17.472 97.6803 17.536 98.0643 17.664C98.459 17.792 98.811 17.9733 99.1203 18.208C99.4296 18.432 99.6856 18.6933 99.8883 18.992C100.091 19.28 100.214 19.584 100.256 19.904L99.8883 19.776V14.16H101.088V26H99.9043L99.8723 23.92L100.176 23.808C100.134 24.1067 100.011 24.4 99.8083 24.688C99.6163 24.9653 99.371 25.216 99.0723 25.44C98.7736 25.664 98.4323 25.84 98.0483 25.968C97.675 26.096 97.2856 26.16 96.8803 26.16ZM97.0563 25.056C97.611 25.056 98.107 24.9173 98.5443 24.64C98.9816 24.3627 99.323 23.9787 99.5683 23.488C99.8243 22.9973 99.9523 22.4373 99.9523 21.808C99.9523 21.1787 99.8243 20.624 99.5683 20.144C99.323 19.6533 98.9816 19.2693 98.5443 18.992C98.107 18.704 97.611 18.56 97.0563 18.56C96.4803 18.56 95.9736 18.704 95.5363 18.992C95.1096 19.2693 94.7683 19.6533 94.5123 20.144C94.267 20.624 94.1443 21.1787 94.1443 21.808C94.1443 22.4267 94.267 22.9813 94.5123 23.472C94.7576 23.9627 95.099 24.352 95.5363 24.64C95.9736 24.9173 96.4803 25.056 97.0563 25.056ZM107.122 26.16C106.29 26.16 105.548 25.9733 104.898 25.6C104.258 25.2267 103.751 24.7093 103.378 24.048C103.015 23.3867 102.834 22.6347 102.834 21.792C102.834 20.96 103.015 20.2187 103.378 19.568C103.751 18.9173 104.258 18.4053 104.898 18.032C105.548 17.6587 106.29 17.472 107.122 17.472C107.943 17.472 108.674 17.6587 109.314 18.032C109.964 18.4053 110.471 18.9173 110.834 19.568C111.207 20.2187 111.394 20.96 111.394 21.792C111.394 22.6347 111.207 23.3867 110.834 24.048C110.471 24.7093 109.964 25.2267 109.314 25.6C108.674 25.9733 107.943 26.16 107.122 26.16ZM107.122 25.024C107.708 25.024 108.231 24.8853 108.69 24.608C109.148 24.32 109.506 23.936 109.762 23.456C110.018 22.9653 110.146 22.4107 110.146 21.792C110.146 21.1733 110.018 20.624 109.762 20.144C109.506 19.664 109.148 19.2907 108.69 19.024C108.231 18.7467 107.708 18.608 107.122 18.608C106.535 18.608 106.007 18.7467 105.538 19.024C105.079 19.2907 104.716 19.6693 104.45 20.16C104.194 20.64 104.071 21.184 104.082 21.792C104.071 22.4107 104.194 22.9653 104.45 23.456C104.716 23.936 105.079 24.32 105.538 24.608C106.007 24.8853 106.535 25.024 107.122 25.024Z" fill="white"/>
</svg>
