<svg width="185" height="44" viewBox="0 0 185 44" fill="none" xmlns="http://www.w3.org/2000/svg">
<g filter="url(#filter0_d_3287_12974)">
<rect x="4" width="177" height="36" rx="2" fill="#E1DDF4" shape-rendering="crispEdges"/>
<g clip-path="url(#clip0_3287_12974)">
<path d="M19.2548 11C17.7254 11 16.4282 11.5326 15.3631 12.5977C14.298 13.6628 13.7652 14.9603 13.7646 16.4902C13.7646 17.8889 14.2256 19.108 15.1474 20.1475C16.0692 21.1869 17.2227 21.7848 18.6078 21.9412L17.9019 22.6863C17.7581 22.8431 17.6862 23.0261 17.6862 23.2353C17.6862 23.4444 17.7581 23.6209 17.9019 23.7647C18.0588 23.9216 18.2483 24 18.4705 24C18.6927 24 18.8758 23.9281 19.0195 23.7843L21.0588 21.7451C21.2156 21.5882 21.2941 21.4052 21.2941 21.1961C21.2941 20.9869 21.2156 20.8039 21.0588 20.6471L19.0392 18.6275C18.8823 18.4706 18.6961 18.3922 18.4807 18.3922C18.2653 18.3922 18.0789 18.4706 17.9215 18.6275C17.7777 18.7843 17.7058 18.9705 17.7058 19.1859C17.7058 19.4013 17.7777 19.5812 17.9215 19.7255L18.5294 20.3333C17.6012 20.1503 16.8365 19.6994 16.2352 18.9804C15.6339 18.2614 15.3333 17.4314 15.3333 16.4902C15.3333 15.4052 15.7158 14.4803 16.4807 13.7153C17.2457 12.9503 18.1704 12.5681 19.2548 12.5686H20.8235C21.0457 12.5686 21.2321 12.4933 21.3827 12.3428C21.5333 12.1922 21.6083 12.006 21.6078 11.7843C21.6073 11.5626 21.532 11.3762 21.3819 11.2251C21.2318 11.074 21.0457 10.999 20.8235 11H19.2548ZM23.9607 18.0588C23.7385 18.0588 23.5524 18.1341 23.4023 18.2847C23.2522 18.4353 23.1769 18.6214 23.1764 18.8431V22.7647C23.1764 22.9869 23.2517 23.1731 23.4023 23.3231C23.5529 23.4732 23.739 23.5485 23.9607 23.549H29.4509C29.6731 23.549 29.8595 23.4737 30.0101 23.3231C30.1607 23.1725 30.2357 22.9864 30.2352 22.7647V18.8431C30.2352 18.6209 30.1599 18.4345 30.0093 18.2839C29.8588 18.1333 29.6726 18.0583 29.4509 18.0588H23.9607ZM23.9607 11C23.7385 11 23.5524 11.0753 23.4023 11.2259C23.2522 11.3765 23.1769 11.5626 23.1764 11.7843V15.7059C23.1764 15.9281 23.2517 16.1143 23.4023 16.2643C23.5529 16.4144 23.739 16.4897 23.9607 16.4902H29.4509C29.6731 16.4902 29.8595 16.4149 30.0101 16.2643C30.1607 16.1137 30.2357 15.9276 30.2352 15.7059V11.7843C30.2352 11.5621 30.1599 11.3757 30.0093 11.2251C29.8588 11.0745 29.6726 10.9995 29.4509 11H23.9607ZM24.745 12.5686H28.6666V14.9216H24.745V12.5686Z" fill="#1D1933"/>
</g>
<path d="M41.9683 24V12.8H48.7523V14.016H43.2163V22.784H48.7203V24H41.9683ZM42.5443 18.848V17.632H47.8563V18.848H42.5443ZM51.0504 24V15.648H52.2504L52.2824 17.552L52.0424 17.632C52.1278 17.312 52.2664 17.024 52.4584 16.768C52.6611 16.5013 52.9011 16.272 53.1784 16.08C53.4558 15.888 53.7598 15.744 54.0904 15.648C54.4211 15.5413 54.7678 15.488 55.1304 15.488C55.5678 15.488 55.9571 15.5627 56.2984 15.712C56.6504 15.8507 56.9438 16.096 57.1784 16.448C57.4238 16.7893 57.6104 17.2427 57.7384 17.808L57.4504 17.664L57.5624 17.392C57.6691 17.1467 57.8238 16.912 58.0264 16.688C58.2398 16.4533 58.4798 16.2453 58.7464 16.064C59.0238 15.8827 59.3224 15.744 59.6424 15.648C59.9731 15.5413 60.3091 15.488 60.6504 15.488C61.2371 15.488 61.7331 15.616 62.1384 15.872C62.5438 16.1173 62.8478 16.496 63.0504 17.008C63.2638 17.52 63.3704 18.1707 63.3704 18.96V24H62.1384V19.024C62.1384 18.4693 62.0691 18.016 61.9304 17.664C61.7918 17.312 61.5838 17.0507 61.3064 16.88C61.0398 16.6987 60.6984 16.608 60.2824 16.608C59.9198 16.608 59.5838 16.672 59.2744 16.8C58.9758 16.9173 58.7144 17.088 58.4904 17.312C58.2771 17.5253 58.1064 17.7707 57.9784 18.048C57.8611 18.3253 57.8024 18.624 57.8024 18.944V24H56.5864V19.008C56.5864 18.4747 56.5118 18.032 56.3624 17.68C56.2238 17.328 56.0158 17.0613 55.7384 16.88C55.4611 16.6987 55.1198 16.608 54.7144 16.608C54.3624 16.608 54.0371 16.672 53.7384 16.8C53.4398 16.9173 53.1784 17.0827 52.9544 17.296C52.7411 17.5093 52.5704 17.7547 52.4424 18.032C52.3251 18.3093 52.2664 18.608 52.2664 18.928V24H51.0504ZM70.6089 24V12.8H74.9929C75.6436 12.8 76.2303 12.9547 76.7529 13.264C77.2863 13.5627 77.7076 13.9733 78.0169 14.496C78.3263 15.0187 78.4809 15.6107 78.4809 16.272C78.4809 16.8907 78.3316 17.4507 78.0329 17.952C77.7343 18.4533 77.3289 18.8533 76.8169 19.152C76.3049 19.44 75.7289 19.584 75.0889 19.584H71.8569V24H70.6089ZM77.4409 24L74.6249 19.072L75.8249 18.656L78.9289 24H77.4409ZM71.8569 18.368H75.2009C75.5956 18.368 75.9423 18.2773 76.2409 18.096C76.5396 17.9147 76.7743 17.6693 76.9449 17.36C77.1156 17.04 77.2009 16.6773 77.2009 16.272C77.2009 15.8347 77.0996 15.4453 76.8969 15.104C76.6943 14.7627 76.4116 14.496 76.0489 14.304C75.6969 14.112 75.2916 14.016 74.8329 14.016H71.8569V18.368ZM84.0589 24.16C83.2269 24.16 82.4856 23.9787 81.8349 23.616C81.1949 23.2533 80.6936 22.7467 80.3309 22.096C79.9683 21.4453 79.7869 20.6987 79.7869 19.856C79.7869 19.2053 79.8883 18.6187 80.0909 18.096C80.2936 17.5627 80.5763 17.0987 80.9389 16.704C81.3123 16.3093 81.7549 16.0053 82.2669 15.792C82.7789 15.568 83.3336 15.456 83.9309 15.456C84.4963 15.456 85.0083 15.5573 85.4669 15.76C85.9363 15.9627 86.3363 16.2453 86.6669 16.608C87.0083 16.96 87.2643 17.3813 87.4349 17.872C87.6056 18.3627 87.6803 18.9013 87.6589 19.488L87.6429 20.048H80.6829L80.5069 19.04H86.7309L86.4429 19.312V18.928C86.4216 18.544 86.3096 18.176 86.1069 17.824C85.9043 17.4613 85.6163 17.168 85.2429 16.944C84.8803 16.72 84.4429 16.608 83.9309 16.608C83.3336 16.608 82.8163 16.7307 82.3789 16.976C81.9416 17.2107 81.6056 17.5627 81.3709 18.032C81.1363 18.5013 81.0189 19.0827 81.0189 19.776C81.0189 20.4373 81.1469 21.0133 81.4029 21.504C81.6589 21.984 82.0216 22.3573 82.4909 22.624C82.9709 22.8907 83.5469 23.024 84.2189 23.024C84.6136 23.024 85.0029 22.96 85.3869 22.832C85.7816 22.6933 86.2136 22.4267 86.6829 22.032L87.3069 22.896C87.0616 23.1413 86.7683 23.36 86.4269 23.552C86.0856 23.7333 85.7123 23.8827 85.3069 24C84.9016 24.1067 84.4856 24.16 84.0589 24.16ZM92.6273 24.16C91.902 24.16 91.246 23.9733 90.6593 23.6C90.0726 23.216 89.6086 22.6987 89.2673 22.048C88.926 21.3867 88.7553 20.64 88.7553 19.808C88.7553 18.9653 88.9313 18.2187 89.2833 17.568C89.6353 16.9173 90.1046 16.4053 90.6913 16.032C91.2886 15.6587 91.9553 15.472 92.6913 15.472C93.1286 15.472 93.534 15.536 93.9073 15.664C94.2806 15.792 94.6113 15.9733 94.8993 16.208C95.198 16.432 95.4433 16.6987 95.6353 17.008C95.838 17.3067 95.9766 17.632 96.0513 17.984L95.6993 17.808L95.7473 15.648H96.9473V24H95.7313V21.952L96.0513 21.744C95.9766 22.064 95.8326 22.3733 95.6193 22.672C95.406 22.96 95.1446 23.216 94.8353 23.44C94.5366 23.664 94.1953 23.84 93.8113 23.968C93.438 24.096 93.0433 24.16 92.6273 24.16ZM92.8993 23.008C93.454 23.008 93.95 22.8747 94.3873 22.608C94.8246 22.3307 95.166 21.952 95.4113 21.472C95.6673 20.9813 95.7953 20.4267 95.7953 19.808C95.7953 19.1893 95.6673 18.64 95.4113 18.16C95.166 17.68 94.8246 17.3013 94.3873 17.024C93.95 16.7467 93.454 16.608 92.8993 16.608C92.334 16.608 91.8326 16.7467 91.3953 17.024C90.9686 17.3013 90.6273 17.68 90.3713 18.16C90.126 18.64 90.0033 19.1893 90.0033 19.808C90.0033 20.416 90.126 20.9653 90.3713 21.456C90.6166 21.936 90.958 22.3147 91.3953 22.592C91.8326 22.8693 92.334 23.008 92.8993 23.008ZM99.3172 24V12.16H100.517V24H99.3172ZM106.419 24.16C105.587 24.16 104.845 23.9733 104.195 23.6C103.555 23.2267 103.048 22.7093 102.675 22.048C102.312 21.3867 102.131 20.6347 102.131 19.792C102.131 18.96 102.312 18.2187 102.675 17.568C103.048 16.9173 103.555 16.4053 104.195 16.032C104.845 15.6587 105.587 15.472 106.419 15.472C107.24 15.472 107.971 15.6587 108.611 16.032C109.261 16.4053 109.768 16.9173 110.131 17.568C110.504 18.2187 110.691 18.96 110.691 19.792C110.691 20.6347 110.504 21.3867 110.131 22.048C109.768 22.7093 109.261 23.2267 108.611 23.6C107.971 23.9733 107.24 24.16 106.419 24.16ZM106.419 23.024C107.005 23.024 107.528 22.8853 107.987 22.608C108.445 22.32 108.803 21.936 109.059 21.456C109.315 20.9653 109.443 20.4107 109.443 19.792C109.443 19.1733 109.315 18.624 109.059 18.144C108.803 17.664 108.445 17.2907 107.987 17.024C107.528 16.7467 107.005 16.608 106.419 16.608C105.832 16.608 105.304 16.7467 104.835 17.024C104.376 17.2907 104.013 17.6693 103.747 18.16C103.491 18.64 103.368 19.184 103.379 19.792C103.368 20.4107 103.491 20.9653 103.747 21.456C104.013 21.936 104.376 22.32 104.835 22.608C105.304 22.8853 105.832 23.024 106.419 23.024ZM115.961 24.16C115.172 24.16 114.468 23.9733 113.849 23.6C113.231 23.216 112.74 22.6987 112.377 22.048C112.025 21.3867 111.849 20.64 111.849 19.808C111.849 18.976 112.025 18.2347 112.377 17.584C112.74 16.9227 113.231 16.4053 113.849 16.032C114.468 15.6587 115.177 15.472 115.977 15.472C116.692 15.472 117.343 15.616 117.929 15.904C118.516 16.1813 118.985 16.5707 119.337 17.072L118.633 17.936C118.431 17.6693 118.185 17.4347 117.897 17.232C117.62 17.0293 117.316 16.8747 116.985 16.768C116.665 16.6507 116.345 16.592 116.025 16.592C115.46 16.592 114.953 16.736 114.505 17.024C114.057 17.3013 113.7 17.68 113.433 18.16C113.177 18.64 113.049 19.1893 113.049 19.808C113.049 20.4267 113.177 20.9813 113.433 21.472C113.7 21.952 114.057 22.3307 114.505 22.608C114.953 22.8853 115.455 23.024 116.009 23.024C116.329 23.024 116.644 22.976 116.953 22.88C117.263 22.7733 117.556 22.624 117.833 22.432C118.111 22.24 118.367 22 118.601 21.712L119.305 22.576C118.943 23.056 118.457 23.44 117.849 23.728C117.241 24.016 116.612 24.16 115.961 24.16ZM124.127 24.16C123.402 24.16 122.746 23.9733 122.159 23.6C121.573 23.216 121.109 22.6987 120.767 22.048C120.426 21.3867 120.255 20.64 120.255 19.808C120.255 18.9653 120.431 18.2187 120.783 17.568C121.135 16.9173 121.605 16.4053 122.191 16.032C122.789 15.6587 123.455 15.472 124.191 15.472C124.629 15.472 125.034 15.536 125.407 15.664C125.781 15.792 126.111 15.9733 126.399 16.208C126.698 16.432 126.943 16.6987 127.135 17.008C127.338 17.3067 127.477 17.632 127.551 17.984L127.199 17.808L127.247 15.648H128.447V24H127.231V21.952L127.551 21.744C127.477 22.064 127.333 22.3733 127.119 22.672C126.906 22.96 126.645 23.216 126.335 23.44C126.037 23.664 125.695 23.84 125.311 23.968C124.938 24.096 124.543 24.16 124.127 24.16ZM124.399 23.008C124.954 23.008 125.45 22.8747 125.887 22.608C126.325 22.3307 126.666 21.952 126.911 21.472C127.167 20.9813 127.295 20.4267 127.295 19.808C127.295 19.1893 127.167 18.64 126.911 18.16C126.666 17.68 126.325 17.3013 125.887 17.024C125.45 16.7467 124.954 16.608 124.399 16.608C123.834 16.608 123.333 16.7467 122.895 17.024C122.469 17.3013 122.127 17.68 121.871 18.16C121.626 18.64 121.503 19.1893 121.503 19.808C121.503 20.416 121.626 20.9653 121.871 21.456C122.117 21.936 122.458 22.3147 122.895 22.592C123.333 22.8693 123.834 23.008 124.399 23.008ZM134.305 24.16C133.516 24.16 132.812 23.9733 132.193 23.6C131.575 23.216 131.084 22.6987 130.721 22.048C130.369 21.3867 130.193 20.64 130.193 19.808C130.193 18.976 130.369 18.2347 130.721 17.584C131.084 16.9227 131.575 16.4053 132.193 16.032C132.812 15.6587 133.521 15.472 134.321 15.472C135.036 15.472 135.687 15.616 136.273 15.904C136.86 16.1813 137.329 16.5707 137.681 17.072L136.977 17.936C136.775 17.6693 136.529 17.4347 136.241 17.232C135.964 17.0293 135.66 16.8747 135.329 16.768C135.009 16.6507 134.689 16.592 134.369 16.592C133.804 16.592 133.297 16.736 132.849 17.024C132.401 17.3013 132.044 17.68 131.777 18.16C131.521 18.64 131.393 19.1893 131.393 19.808C131.393 20.4267 131.521 20.9813 131.777 21.472C132.044 21.952 132.401 22.3307 132.849 22.608C133.297 22.8853 133.799 23.024 134.353 23.024C134.673 23.024 134.988 22.976 135.297 22.88C135.607 22.7733 135.9 22.624 136.177 22.432C136.455 22.24 136.711 22 136.945 21.712L137.649 22.576C137.287 23.056 136.801 23.44 136.193 23.728C135.585 24.016 134.956 24.16 134.305 24.16ZM132.833 27.792L132.721 27.104C133.009 27.0933 133.292 27.0507 133.569 26.976C133.857 26.9013 134.092 26.7947 134.273 26.656C134.465 26.528 134.561 26.384 134.561 26.224C134.561 26.0533 134.476 25.92 134.305 25.824C134.135 25.728 133.932 25.6587 133.697 25.616C133.473 25.584 133.276 25.568 133.105 25.568L132.897 25.408L133.953 23.76H134.769L134.081 24.848C134.593 24.944 134.977 25.104 135.233 25.328C135.489 25.5627 135.617 25.8507 135.617 26.192C135.617 26.4693 135.532 26.7093 135.361 26.912C135.191 27.1253 134.967 27.296 134.689 27.424C134.423 27.552 134.124 27.6427 133.793 27.696C133.473 27.76 133.153 27.792 132.833 27.792ZM142.471 24.16C141.746 24.16 141.09 23.9733 140.503 23.6C139.916 23.216 139.452 22.6987 139.111 22.048C138.77 21.3867 138.599 20.64 138.599 19.808C138.599 18.9653 138.775 18.2187 139.127 17.568C139.479 16.9173 139.948 16.4053 140.535 16.032C141.132 15.6587 141.799 15.472 142.535 15.472C142.972 15.472 143.378 15.536 143.751 15.664C144.124 15.792 144.455 15.9733 144.743 16.208C145.042 16.432 145.287 16.6987 145.479 17.008C145.682 17.3067 145.82 17.632 145.895 17.984L145.543 17.808L145.591 15.648H146.791V24H145.575V21.952L145.895 21.744C145.82 22.064 145.676 22.3733 145.463 22.672C145.25 22.96 144.988 23.216 144.679 23.44C144.38 23.664 144.039 23.84 143.655 23.968C143.282 24.096 142.887 24.16 142.471 24.16ZM142.743 23.008C143.298 23.008 143.794 22.8747 144.231 22.608C144.668 22.3307 145.01 21.952 145.255 21.472C145.511 20.9813 145.639 20.4267 145.639 19.808C145.639 19.1893 145.511 18.64 145.255 18.16C145.01 17.68 144.668 17.3013 144.231 17.024C143.794 16.7467 143.298 16.608 142.743 16.608C142.178 16.608 141.676 16.7467 141.239 17.024C140.812 17.3013 140.471 17.68 140.215 18.16C139.97 18.64 139.847 19.1893 139.847 19.808C139.847 20.416 139.97 20.9653 140.215 21.456C140.46 21.936 140.802 22.3147 141.239 22.592C141.676 22.8693 142.178 23.008 142.743 23.008ZM143.943 14.192C143.719 14.192 143.522 14.144 143.351 14.048C143.191 13.952 143.004 13.808 142.791 13.616C142.642 13.4773 142.514 13.376 142.407 13.312C142.311 13.248 142.21 13.216 142.103 13.216C141.922 13.216 141.767 13.296 141.639 13.456C141.511 13.6053 141.426 13.8347 141.383 14.144L140.519 14.032C140.562 13.552 140.732 13.1467 141.031 12.816C141.33 12.4747 141.714 12.304 142.183 12.304C142.386 12.304 142.567 12.3467 142.727 12.432C142.887 12.5173 143.074 12.656 143.287 12.848C143.447 12.976 143.575 13.0773 143.671 13.152C143.767 13.2267 143.874 13.264 143.991 13.264C144.151 13.264 144.284 13.1893 144.391 13.04C144.508 12.8907 144.583 12.688 144.615 12.432L145.495 12.544C145.474 12.8427 145.394 13.12 145.255 13.376C145.127 13.6213 144.951 13.8187 144.727 13.968C144.503 14.1173 144.242 14.192 143.943 14.192ZM152.825 24.16C151.993 24.16 151.252 23.9733 150.601 23.6C149.961 23.2267 149.454 22.7093 149.081 22.048C148.718 21.3867 148.537 20.6347 148.537 19.792C148.537 18.96 148.718 18.2187 149.081 17.568C149.454 16.9173 149.961 16.4053 150.601 16.032C151.252 15.6587 151.993 15.472 152.825 15.472C153.646 15.472 154.377 15.6587 155.017 16.032C155.668 16.4053 156.174 16.9173 156.537 17.568C156.91 18.2187 157.097 18.96 157.097 19.792C157.097 20.6347 156.91 21.3867 156.537 22.048C156.174 22.7093 155.668 23.2267 155.017 23.6C154.377 23.9733 153.646 24.16 152.825 24.16ZM152.825 23.024C153.412 23.024 153.934 22.8853 154.393 22.608C154.852 22.32 155.209 21.936 155.465 21.456C155.721 20.9653 155.849 20.4107 155.849 19.792C155.849 19.1733 155.721 18.624 155.465 18.144C155.209 17.664 154.852 17.2907 154.393 17.024C153.934 16.7467 153.412 16.608 152.825 16.608C152.238 16.608 151.71 16.7467 151.241 17.024C150.782 17.2907 150.42 17.6693 150.153 18.16C149.897 18.64 149.774 19.184 149.785 19.792C149.774 20.4107 149.897 20.9653 150.153 21.456C150.42 21.936 150.782 22.32 151.241 22.608C151.71 22.8853 152.238 23.024 152.825 23.024Z" fill="#1D1933"/>
</g>
<defs>
<filter id="filter0_d_3287_12974" x="0" y="0" width="185" height="44" filterUnits="userSpaceOnUse" color-interpolation-filters="sRGB">
<feFlood flood-opacity="0" result="BackgroundImageFix"/>
<feColorMatrix in="SourceAlpha" type="matrix" values="0 0 0 0 0 0 0 0 0 0 0 0 0 0 0 0 0 0 127 0" result="hardAlpha"/>
<feOffset dy="4"/>
<feGaussianBlur stdDeviation="2"/>
<feComposite in2="hardAlpha" operator="out"/>
<feColorMatrix type="matrix" values="0 0 0 0 0 0 0 0 0 0 0 0 0 0 0 0 0 0 0.25 0"/>
<feBlend mode="normal" in2="BackgroundImageFix" result="effect1_dropShadow_3287_12974"/>
<feBlend mode="normal" in="SourceGraphic" in2="effect1_dropShadow_3287_12974" result="shape"/>
</filter>
<clipPath id="clip0_3287_12974">
<rect width="16" height="16" fill="white" transform="matrix(1 0 0 -1 14 26)"/>
</clipPath>
</defs>
</svg>
