<svg width="177" height="40" viewBox="0 0 177 40" fill="none" xmlns="http://www.w3.org/2000/svg">
<rect x="0.5" y="0.5" width="176" height="39" rx="1.5" stroke="#463C61"/>
<path d="M18.7983 22.8187C19.2447 22.9674 19.7256 22.9777 20.1779 22.8483C20.6302 22.7188 21.0329 22.4557 21.333 22.0933V29.0153L13.3331 26V20.9973L18.7983 22.8187Z" fill="#E1DDF4"/>
<path fill-rule="evenodd" clip-rule="evenodd" d="M30.6662 26L22.6663 29.0153V22.0933C22.9664 22.4557 23.369 22.7188 23.8213 22.8483C24.2737 22.9777 24.7546 22.9674 25.2009 22.8187L30.6662 20.9973V26ZM22.2176 11.0367C22.0764 10.9878 21.9229 10.9878 21.7816 11.0367L13.1164 14.0367L13.1011 14.0413C12.9846 14.0847 12.8825 14.1597 12.8064 14.258L10.1464 17.5833C10.0793 17.6672 10.0333 17.766 10.0126 17.8714C9.9918 17.9768 9.99683 18.0857 10.0272 18.1887C10.0576 18.2918 10.1124 18.386 10.187 18.4633C10.2617 18.5405 10.3538 18.5987 10.4558 18.6326L19.4557 21.6327C19.592 21.678 19.7392 21.678 19.8756 21.6329C20.0119 21.5877 20.13 21.4997 20.2123 21.382L21.9996 18.8287L23.7863 21.382C23.8686 21.4998 23.9868 21.5879 24.1233 21.6331C24.2598 21.6783 24.4072 21.6781 24.5436 21.6327L33.5435 18.6326C33.6455 18.5987 33.7377 18.5407 33.8124 18.4634C33.8871 18.3862 33.942 18.292 33.9725 18.1889C34.0029 18.0859 34.008 17.977 33.9873 17.8715C33.9666 17.7661 33.9207 17.6672 33.8535 17.5833L31.1935 14.258C31.1138 14.1553 31.0058 14.0781 30.8828 14.036L22.2176 11.0367ZM21.9996 16.9613L28.6282 14.6667L21.9996 12.372L15.371 14.6667L21.9996 16.9613Z" fill="#E1DDF4"/>
<path d="M45.8121 26V14.8H52.5961V16.016H47.0601V24.784H52.5641V26H45.8121ZM46.3881 20.848V19.632H51.7001V20.848H46.3881ZM54.8942 26V17.648H56.0942L56.1262 19.552L55.8862 19.632C55.9715 19.312 56.1102 19.024 56.3022 18.768C56.5049 18.5013 56.7449 18.272 57.0222 18.08C57.2995 17.888 57.6035 17.744 57.9342 17.648C58.2649 17.5413 58.6115 17.488 58.9742 17.488C59.4115 17.488 59.8009 17.5627 60.1422 17.712C60.4942 17.8507 60.7875 18.096 61.0222 18.448C61.2675 18.7893 61.4542 19.2427 61.5822 19.808L61.2942 19.664L61.4062 19.392C61.5129 19.1467 61.6675 18.912 61.8702 18.688C62.0835 18.4533 62.3235 18.2453 62.5902 18.064C62.8675 17.8827 63.1662 17.744 63.4862 17.648C63.8169 17.5413 64.1529 17.488 64.4942 17.488C65.0809 17.488 65.5769 17.616 65.9822 17.872C66.3875 18.1173 66.6915 18.496 66.8942 19.008C67.1075 19.52 67.2142 20.1707 67.2142 20.96V26H65.9822V21.024C65.9822 20.4693 65.9129 20.016 65.7742 19.664C65.6355 19.312 65.4275 19.0507 65.1502 18.88C64.8835 18.6987 64.5422 18.608 64.1262 18.608C63.7635 18.608 63.4275 18.672 63.1182 18.8C62.8195 18.9173 62.5582 19.088 62.3342 19.312C62.1209 19.5253 61.9502 19.7707 61.8222 20.048C61.7049 20.3253 61.6462 20.624 61.6462 20.944V26H60.4302V21.008C60.4302 20.4747 60.3555 20.032 60.2062 19.68C60.0675 19.328 59.8595 19.0613 59.5822 18.88C59.3049 18.6987 58.9635 18.608 58.5582 18.608C58.2062 18.608 57.8809 18.672 57.5822 18.8C57.2835 18.9173 57.0222 19.0827 56.7982 19.296C56.5849 19.5093 56.4142 19.7547 56.2862 20.032C56.1689 20.3093 56.1102 20.608 56.1102 20.928V26H54.8942ZM74.4527 26V14.8H81.2367V16.016H75.7007V24.784H81.2047V26H74.4527ZM75.0287 20.848V19.632H80.3407V20.848H75.0287ZM86.2868 26.16C85.5721 26.16 84.9321 26.0267 84.3668 25.76C83.8015 25.4933 83.3535 25.1413 83.0228 24.704L83.8708 23.968C84.1801 24.3413 84.5428 24.624 84.9588 24.816C85.3855 25.008 85.8601 25.104 86.3828 25.104C86.6495 25.104 86.8895 25.0773 87.1028 25.024C87.3161 24.96 87.5028 24.8693 87.6628 24.752C87.8228 24.6347 87.9455 24.496 88.0308 24.336C88.1161 24.176 88.1588 24 88.1588 23.808C88.1588 23.456 88.0041 23.1627 87.6948 22.928C87.5561 22.832 87.3588 22.736 87.1028 22.64C86.8468 22.5333 86.5375 22.432 86.1748 22.336C85.5775 22.1653 85.0815 21.9947 84.6868 21.824C84.2921 21.6427 83.9828 21.4347 83.7588 21.2C83.5988 21.008 83.4761 20.8 83.3908 20.576C83.3161 20.352 83.2788 20.1067 83.2788 19.84C83.2788 19.4987 83.3481 19.184 83.4868 18.896C83.6361 18.608 83.8388 18.3573 84.0948 18.144C84.3615 17.92 84.6708 17.7547 85.0228 17.648C85.3855 17.5307 85.7748 17.472 86.1908 17.472C86.5855 17.472 86.9748 17.5253 87.3588 17.632C87.7428 17.7387 88.1001 17.8933 88.4308 18.096C88.7615 18.2987 89.0441 18.5387 89.2788 18.816L88.5428 19.616C88.3401 19.4027 88.1161 19.2107 87.8708 19.04C87.6255 18.8693 87.3641 18.736 87.0868 18.64C86.8201 18.544 86.5428 18.496 86.2548 18.496C85.9988 18.496 85.7588 18.528 85.5348 18.592C85.3215 18.656 85.1348 18.7467 84.9748 18.864C84.8255 18.9707 84.7081 19.104 84.6228 19.264C84.5481 19.424 84.5108 19.6 84.5108 19.792C84.5108 19.952 84.5428 20.096 84.6068 20.224C84.6708 20.352 84.7615 20.464 84.8788 20.56C85.0281 20.6773 85.2361 20.7893 85.5028 20.896C85.7801 20.992 86.1215 21.0933 86.5268 21.2C86.9961 21.328 87.3908 21.4613 87.7108 21.6C88.0415 21.728 88.3135 21.8827 88.5268 22.064C88.8148 22.2773 89.0175 22.5227 89.1348 22.8C89.2628 23.0773 89.3268 23.392 89.3268 23.744C89.3268 24.2133 89.1935 24.6293 88.9268 24.992C88.6708 25.3547 88.3135 25.6427 87.8548 25.856C87.3961 26.0587 86.8735 26.16 86.2868 26.16ZM92.3591 26V15.456H93.5591V26H92.3591ZM90.4711 18.8V17.648H95.6711V18.8H90.4711ZM100.762 26.16C99.9304 26.16 99.1891 25.9733 98.5384 25.6C97.8984 25.2267 97.3918 24.7093 97.0184 24.048C96.6558 23.3867 96.4744 22.6347 96.4744 21.792C96.4744 20.96 96.6558 20.2187 97.0184 19.568C97.3918 18.9173 97.8984 18.4053 98.5384 18.032C99.1891 17.6587 99.9304 17.472 100.762 17.472C101.584 17.472 102.314 17.6587 102.954 18.032C103.605 18.4053 104.112 18.9173 104.474 19.568C104.848 20.2187 105.034 20.96 105.034 21.792C105.034 22.6347 104.848 23.3867 104.474 24.048C104.112 24.7093 103.605 25.2267 102.954 25.6C102.314 25.9733 101.584 26.16 100.762 26.16ZM100.762 25.024C101.349 25.024 101.872 24.8853 102.33 24.608C102.789 24.32 103.146 23.936 103.402 23.456C103.658 22.9653 103.786 22.4107 103.786 21.792C103.786 21.1733 103.658 20.624 103.402 20.144C103.146 19.664 102.789 19.2907 102.33 19.024C101.872 18.7467 101.349 18.608 100.762 18.608C100.176 18.608 99.6478 18.7467 99.1784 19.024C98.7198 19.2907 98.3571 19.6693 98.0904 20.16C97.8344 20.64 97.7118 21.184 97.7224 21.792C97.7118 22.4107 97.8344 22.9653 98.0904 23.456C98.3571 23.936 98.7198 24.32 99.1784 24.608C99.6478 24.8853 100.176 25.024 100.762 25.024ZM113.169 29.52V23.952L113.425 23.808C113.383 24.1067 113.26 24.4 113.057 24.688C112.865 24.9653 112.62 25.216 112.321 25.44C112.023 25.664 111.687 25.84 111.313 25.968C110.94 26.096 110.556 26.16 110.161 26.16C109.404 26.16 108.727 25.9733 108.129 25.6C107.532 25.2267 107.057 24.7147 106.705 24.064C106.364 23.4027 106.193 22.656 106.193 21.824C106.193 20.9813 106.364 20.2347 106.705 19.584C107.057 18.9227 107.532 18.4053 108.129 18.032C108.727 17.6587 109.393 17.472 110.129 17.472C110.556 17.472 110.956 17.5413 111.329 17.68C111.713 17.808 112.06 17.984 112.369 18.208C112.679 18.432 112.935 18.6933 113.137 18.992C113.34 19.28 113.463 19.584 113.505 19.904L113.121 19.808L113.169 17.632H114.369V29.52H113.169ZM110.305 25.008C110.86 25.008 111.356 24.8747 111.793 24.608C112.241 24.3307 112.593 23.952 112.849 23.472C113.105 22.992 113.233 22.4373 113.233 21.808C113.233 21.1893 113.105 20.64 112.849 20.16C112.593 19.68 112.247 19.3013 111.809 19.024C111.372 18.7467 110.871 18.608 110.305 18.608C109.74 18.608 109.239 18.7467 108.801 19.024C108.364 19.3013 108.017 19.68 107.761 20.16C107.516 20.64 107.393 21.1893 107.393 21.808C107.393 22.416 107.516 22.9653 107.761 23.456C108.007 23.936 108.348 24.3147 108.785 24.592C109.223 24.8693 109.729 25.008 110.305 25.008ZM119.667 26.16C119.027 26.16 118.483 26.032 118.035 25.776C117.598 25.5093 117.262 25.1253 117.027 24.624C116.803 24.1227 116.691 23.4987 116.691 22.752V17.648H117.907V22.512C117.907 23.0773 117.982 23.552 118.131 23.936C118.291 24.3093 118.526 24.592 118.835 24.784C119.155 24.976 119.544 25.072 120.003 25.072C120.355 25.072 120.68 25.0133 120.979 24.896C121.278 24.768 121.539 24.5973 121.763 24.384C121.987 24.1707 122.163 23.92 122.291 23.632C122.419 23.344 122.483 23.04 122.483 22.72V17.648H123.683V26H122.499L122.451 24.24L122.643 24.144C122.515 24.5173 122.302 24.8587 122.003 25.168C121.704 25.4667 121.347 25.7067 120.931 25.888C120.526 26.0693 120.104 26.16 119.667 26.16ZM129.7 26.16C128.868 26.16 128.126 25.9787 127.476 25.616C126.836 25.2533 126.334 24.7467 125.972 24.096C125.609 23.4453 125.428 22.6987 125.428 21.856C125.428 21.2053 125.529 20.6187 125.732 20.096C125.934 19.5627 126.217 19.0987 126.58 18.704C126.953 18.3093 127.396 18.0053 127.908 17.792C128.42 17.568 128.974 17.456 129.572 17.456C130.137 17.456 130.649 17.5573 131.108 17.76C131.577 17.9627 131.977 18.2453 132.308 18.608C132.649 18.96 132.905 19.3813 133.076 19.872C133.246 20.3627 133.321 20.9013 133.3 21.488L133.284 22.048H126.324L126.148 21.04H132.372L132.084 21.312V20.928C132.062 20.544 131.95 20.176 131.748 19.824C131.545 19.4613 131.257 19.168 130.884 18.944C130.521 18.72 130.084 18.608 129.572 18.608C128.974 18.608 128.457 18.7307 128.02 18.976C127.582 19.2107 127.246 19.5627 127.012 20.032C126.777 20.5013 126.66 21.0827 126.66 21.776C126.66 22.4373 126.788 23.0133 127.044 23.504C127.3 23.984 127.662 24.3573 128.132 24.624C128.612 24.8907 129.188 25.024 129.86 25.024C130.254 25.024 130.644 24.96 131.028 24.832C131.422 24.6933 131.854 24.4267 132.324 24.032L132.948 24.896C132.702 25.1413 132.409 25.36 132.068 25.552C131.726 25.7333 131.353 25.8827 130.948 26C130.542 26.1067 130.126 26.16 129.7 26.16Z" fill="white"/>
</svg>
