<svg width="185" height="47" viewBox="0 0 185 47" fill="none" xmlns="http://www.w3.org/2000/svg">
<g filter="url(#filter0_d_2772_8644)">
<rect x="4" width="177" height="38.0125" rx="2" fill="#E1DDF4" shape-rendering="crispEdges"/>
<path d="M25.2 19C25.2 18.1167 24.8875 17.3625 24.2625 16.7375C23.6375 16.1125 22.8833 15.8 22 15.8C21.1167 15.8 20.3625 16.1125 19.7375 16.7375C19.1125 17.3625 18.8 18.1167 18.8 19C18.8 19.8833 19.1125 20.6375 19.7375 21.2625C20.3625 21.8875 21.1167 22.2 22 22.2C22.8833 22.2 23.6375 21.8875 24.2625 21.2625C24.8875 20.6375 25.2 19.8833 25.2 19ZM34.8 25.4C34.8 24.9667 34.6417 24.5917 34.325 24.275C34.0083 23.9583 33.6333 23.8 33.2 23.8C32.7667 23.8 32.3917 23.9583 32.075 24.275C31.7583 24.5917 31.6 24.9667 31.6 25.4C31.6 25.8417 31.7563 26.2188 32.0688 26.5312C32.3813 26.8438 32.7583 27 33.2 27C33.6417 27 34.0188 26.8438 34.3313 26.5312C34.6438 26.2188 34.8 25.8417 34.8 25.4ZM34.8 12.6C34.8 12.1667 34.6417 11.7917 34.325 11.475C34.0083 11.1583 33.6333 11 33.2 11C32.7667 11 32.3917 11.1583 32.075 11.475C31.7583 11.7917 31.6 12.1667 31.6 12.6C31.6 13.0417 31.7563 13.4188 32.0688 13.7313C32.3813 14.0438 32.7583 14.2 33.2 14.2C33.6417 14.2 34.0188 14.0438 34.3313 13.7313C34.6438 13.4188 34.8 13.0417 34.8 12.6ZM30 17.8625V20.175C30 20.2583 29.9708 20.3396 29.9125 20.4187C29.8542 20.4979 29.7875 20.5417 29.7125 20.55L27.775 20.85C27.6833 21.1417 27.55 21.4583 27.375 21.8C27.6583 22.2 28.0333 22.6792 28.5 23.2375C28.5583 23.3292 28.5875 23.4125 28.5875 23.4875C28.5875 23.5875 28.5583 23.6667 28.5 23.725C28.3083 23.975 27.9646 24.3479 27.4688 24.8438C26.9729 25.3396 26.6458 25.5875 26.4875 25.5875C26.3958 25.5875 26.3083 25.5583 26.225 25.5L24.7875 24.375C24.4792 24.5333 24.1583 24.6625 23.825 24.7625C23.7333 25.6625 23.6375 26.3083 23.5375 26.7C23.4792 26.9 23.3542 27 23.1625 27H20.8375C20.7458 27 20.6625 26.9688 20.5875 26.9062C20.5125 26.8438 20.4708 26.7708 20.4625 26.6875L20.175 24.775C19.8917 24.6917 19.5792 24.5625 19.2375 24.3875L17.7625 25.5C17.7042 25.5583 17.6208 25.5875 17.5125 25.5875C17.4208 25.5875 17.3333 25.5542 17.25 25.4875C16.05 24.3792 15.45 23.7125 15.45 23.4875C15.45 23.4125 15.4792 23.3333 15.5375 23.25C15.6208 23.1333 15.7917 22.9125 16.05 22.5875C16.3083 22.2625 16.5042 22.0083 16.6375 21.825C16.4458 21.4583 16.3 21.1167 16.2 20.8L14.3 20.5C14.2167 20.4917 14.1458 20.4521 14.0875 20.3813C14.0292 20.3104 14 20.2292 14 20.1375V17.825C14 17.7417 14.0292 17.6604 14.0875 17.5813C14.1458 17.5021 14.2125 17.4583 14.2875 17.45L16.225 17.15C16.3167 16.8583 16.45 16.5417 16.625 16.2C16.3417 15.8 15.9667 15.3208 15.5 14.7625C15.4417 14.6708 15.4125 14.5875 15.4125 14.5125C15.4125 14.4125 15.4417 14.3292 15.5 14.2625C15.6833 14.0125 16.025 13.6417 16.525 13.15C17.025 12.6583 17.3542 12.4125 17.5125 12.4125C17.6042 12.4125 17.6917 12.4417 17.775 12.5L19.2125 13.625C19.4958 13.475 19.8167 13.3417 20.175 13.225C20.2667 12.325 20.3625 11.6833 20.4625 11.3C20.5208 11.1 20.6458 11 20.8375 11H23.1625C23.2542 11 23.3375 11.0312 23.4125 11.0938C23.4875 11.1562 23.5292 11.2292 23.5375 11.3125L23.825 13.225C24.1083 13.3083 24.4208 13.4375 24.7625 13.6125L26.2375 12.5C26.3042 12.4417 26.3875 12.4125 26.4875 12.4125C26.5792 12.4125 26.6667 12.4458 26.75 12.5125C27.95 13.6208 28.55 14.2875 28.55 14.5125C28.55 14.5792 28.5208 14.6583 28.4625 14.75C28.3625 14.8833 28.1875 15.1083 27.9375 15.425C27.6875 15.7417 27.5 15.9917 27.375 16.175C27.5667 16.575 27.7083 16.9167 27.8 17.2L29.7 17.4875C29.7833 17.5042 29.8542 17.5479 29.9125 17.6188C29.9708 17.6896 30 17.7708 30 17.8625ZM38 24.525V26.275C38 26.4083 37.3792 26.5375 36.1375 26.6625C36.0375 26.8875 35.9125 27.1042 35.7625 27.3125C36.1875 28.2542 36.4 28.8292 36.4 29.0375C36.4 29.0708 36.3833 29.1 36.35 29.125C35.3333 29.7167 34.8167 30.0125 34.8 30.0125C34.7333 30.0125 34.5417 29.8167 34.225 29.425C33.9083 29.0333 33.6917 28.75 33.575 28.575C33.4083 28.5917 33.2833 28.6 33.2 28.6C33.1167 28.6 32.9917 28.5917 32.825 28.575C32.7083 28.75 32.4917 29.0333 32.175 29.425C31.8583 29.8167 31.6667 30.0125 31.6 30.0125C31.5833 30.0125 31.0667 29.7167 30.05 29.125C30.0167 29.1 30 29.0708 30 29.0375C30 28.8292 30.2125 28.2542 30.6375 27.3125C30.4875 27.1042 30.3625 26.8875 30.2625 26.6625C29.0208 26.5375 28.4 26.4083 28.4 26.275V24.525C28.4 24.3917 29.0208 24.2625 30.2625 24.1375C30.3708 23.8958 30.4958 23.6792 30.6375 23.4875C30.2125 22.5458 30 21.9708 30 21.7625C30 21.7292 30.0167 21.7 30.05 21.675C30.0833 21.6583 30.2292 21.575 30.4875 21.425C30.7458 21.275 30.9917 21.1333 31.225 21C31.4583 20.8667 31.5833 20.8 31.6 20.8C31.6667 20.8 31.8583 20.9938 32.175 21.3813C32.4917 21.7688 32.7083 22.05 32.825 22.225C32.9917 22.2083 33.1167 22.2 33.2 22.2C33.2833 22.2 33.4083 22.2083 33.575 22.225C34 21.6333 34.3833 21.1667 34.725 20.825L34.8 20.8C34.8333 20.8 35.35 21.0917 36.35 21.675C36.3833 21.7 36.4 21.7292 36.4 21.7625C36.4 21.9708 36.1875 22.5458 35.7625 23.4875C35.9042 23.6792 36.0292 23.8958 36.1375 24.1375C37.3792 24.2625 38 24.3917 38 24.525ZM38 11.725V13.475C38 13.6083 37.3792 13.7375 36.1375 13.8625C36.0375 14.0875 35.9125 14.3042 35.7625 14.5125C36.1875 15.4542 36.4 16.0292 36.4 16.2375C36.4 16.2708 36.3833 16.3 36.35 16.325C35.3333 16.9167 34.8167 17.2125 34.8 17.2125C34.7333 17.2125 34.5417 17.0167 34.225 16.625C33.9083 16.2333 33.6917 15.95 33.575 15.775C33.4083 15.7917 33.2833 15.8 33.2 15.8C33.1167 15.8 32.9917 15.7917 32.825 15.775C32.7083 15.95 32.4917 16.2333 32.175 16.625C31.8583 17.0167 31.6667 17.2125 31.6 17.2125C31.5833 17.2125 31.0667 16.9167 30.05 16.325C30.0167 16.3 30 16.2708 30 16.2375C30 16.0292 30.2125 15.4542 30.6375 14.5125C30.4875 14.3042 30.3625 14.0875 30.2625 13.8625C29.0208 13.7375 28.4 13.6083 28.4 13.475V11.725C28.4 11.5917 29.0208 11.4625 30.2625 11.3375C30.3708 11.0958 30.4958 10.8792 30.6375 10.6875C30.2125 9.74583 30 9.17083 30 8.9625C30 8.92917 30.0167 8.9 30.05 8.875C30.0833 8.85833 30.2292 8.775 30.4875 8.625C30.7458 8.475 30.9917 8.33333 31.225 8.2C31.4583 8.06667 31.5833 8 31.6 8C31.6667 8 31.8583 8.19375 32.175 8.58125C32.4917 8.96875 32.7083 9.25 32.825 9.425C32.9917 9.40833 33.1167 9.4 33.2 9.4C33.2833 9.4 33.4083 9.40833 33.575 9.425C34 8.83333 34.3833 8.36667 34.725 8.025L34.8 8C34.8333 8 35.35 8.29167 36.35 8.875C36.3833 8.9 36.4 8.92917 36.4 8.9625C36.4 9.17083 36.1875 9.74583 35.7625 10.6875C35.9042 10.8792 36.0292 11.0958 36.1375 11.3375C37.3792 11.4625 38 11.5917 38 11.725Z" fill="#1D1933"/>
<path d="M49.9839 25.0062V13.8062H56.7679V15.0222H51.2319V23.7902H56.7359V25.0062H49.9839ZM50.5599 19.8542V18.6382H55.8719V19.8542H50.5599ZM59.0661 25.0062V16.6542H60.2661L60.2981 18.5582L60.0581 18.6382C60.1434 18.3182 60.2821 18.0302 60.4741 17.7742C60.6767 17.5076 60.9167 17.2782 61.1941 17.0862C61.4714 16.8942 61.7754 16.7502 62.1061 16.6542C62.4367 16.5476 62.7834 16.4942 63.1461 16.4942C63.5834 16.4942 63.9727 16.5689 64.3141 16.7182C64.6661 16.8569 64.9594 17.1022 65.1941 17.4542C65.4394 17.7956 65.6261 18.2489 65.7541 18.8142L65.4661 18.6702L65.5781 18.3982C65.6847 18.1529 65.8394 17.9182 66.0421 17.6942C66.2554 17.4596 66.4954 17.2516 66.7621 17.0702C67.0394 16.8889 67.3381 16.7502 67.6581 16.6542C67.9887 16.5476 68.3247 16.4942 68.6661 16.4942C69.2527 16.4942 69.7487 16.6222 70.1541 16.8782C70.5594 17.1236 70.8634 17.5022 71.0661 18.0142C71.2794 18.5262 71.3861 19.1769 71.3861 19.9662V25.0062H70.1541V20.0302C70.1541 19.4756 70.0847 19.0222 69.9461 18.6702C69.8074 18.3182 69.5994 18.0569 69.3221 17.8862C69.0554 17.7049 68.7141 17.6142 68.2981 17.6142C67.9354 17.6142 67.5994 17.6782 67.2901 17.8062C66.9914 17.9236 66.7301 18.0942 66.5061 18.3182C66.2927 18.5316 66.1221 18.7769 65.9941 19.0542C65.8767 19.3316 65.8181 19.6302 65.8181 19.9502V25.0062H64.6021V20.0142C64.6021 19.4809 64.5274 19.0382 64.3781 18.6862C64.2394 18.3342 64.0314 18.0676 63.7541 17.8862C63.4767 17.7049 63.1354 17.6142 62.7301 17.6142C62.3781 17.6142 62.0527 17.6782 61.7541 17.8062C61.4554 17.9236 61.1941 18.0889 60.9701 18.3022C60.7567 18.5156 60.5861 18.7609 60.4581 19.0382C60.3407 19.3156 60.2821 19.6142 60.2821 19.9342V25.0062H59.0661ZM81.1046 25.1662C80.4646 25.1662 79.9206 25.0382 79.4726 24.7822C79.0352 24.5156 78.6992 24.1316 78.4646 23.6302C78.2406 23.1289 78.1286 22.5049 78.1286 21.7582V16.6542H79.3446V21.5182C79.3446 22.0836 79.4192 22.5582 79.5686 22.9422C79.7286 23.3156 79.9632 23.5982 80.2726 23.7902C80.5926 23.9822 80.9819 24.0782 81.4406 24.0782C81.7926 24.0782 82.1179 24.0196 82.4166 23.9022C82.7152 23.7742 82.9766 23.6036 83.2006 23.3902C83.4246 23.1769 83.6006 22.9262 83.7286 22.6382C83.8566 22.3502 83.9206 22.0462 83.9206 21.7262V16.6542H85.1206V25.0062H83.9366L83.8886 23.2462L84.0806 23.1502C83.9526 23.5236 83.7392 23.8649 83.4406 24.1742C83.1419 24.4729 82.7846 24.7129 82.3686 24.8942C81.9632 25.0756 81.5419 25.1662 81.1046 25.1662ZM90.1931 25.1662C89.4784 25.1662 88.8384 25.0329 88.2731 24.7662C87.7077 24.4996 87.2597 24.1476 86.9291 23.7102L87.7771 22.9742C88.0864 23.3476 88.4491 23.6302 88.8651 23.8222C89.2917 24.0142 89.7664 24.1102 90.2891 24.1102C90.5557 24.1102 90.7957 24.0836 91.0091 24.0302C91.2224 23.9662 91.4091 23.8756 91.5691 23.7582C91.7291 23.6409 91.8517 23.5022 91.9371 23.3422C92.0224 23.1822 92.0651 23.0062 92.0651 22.8142C92.0651 22.4622 91.9104 22.1689 91.6011 21.9342C91.4624 21.8382 91.2651 21.7422 91.0091 21.6462C90.7531 21.5396 90.4437 21.4382 90.0811 21.3422C89.4837 21.1716 88.9877 21.0009 88.5931 20.8302C88.1984 20.6489 87.8891 20.4409 87.6651 20.2062C87.5051 20.0142 87.3824 19.8062 87.2971 19.5822C87.2224 19.3582 87.1851 19.1129 87.1851 18.8462C87.1851 18.5049 87.2544 18.1902 87.3931 17.9022C87.5424 17.6142 87.7451 17.3636 88.0011 17.1502C88.2677 16.9262 88.5771 16.7609 88.9291 16.6542C89.2917 16.5369 89.6811 16.4782 90.0971 16.4782C90.4917 16.4782 90.8811 16.5316 91.2651 16.6382C91.6491 16.7449 92.0064 16.8996 92.3371 17.1022C92.6677 17.3049 92.9504 17.5449 93.1851 17.8222L92.4491 18.6222C92.2464 18.4089 92.0224 18.2169 91.7771 18.0462C91.5317 17.8756 91.2704 17.7422 90.9931 17.6462C90.7264 17.5502 90.4491 17.5022 90.1611 17.5022C89.9051 17.5022 89.6651 17.5342 89.4411 17.5982C89.2277 17.6622 89.0411 17.7529 88.8811 17.8702C88.7317 17.9769 88.6144 18.1102 88.5291 18.2702C88.4544 18.4302 88.4171 18.6062 88.4171 18.7982C88.4171 18.9582 88.4491 19.1022 88.5131 19.2302C88.5771 19.3582 88.6677 19.4702 88.7851 19.5662C88.9344 19.6836 89.1424 19.7956 89.4091 19.9022C89.6864 19.9982 90.0277 20.0996 90.4331 20.2062C90.9024 20.3342 91.2971 20.4676 91.6171 20.6062C91.9477 20.7342 92.2197 20.8889 92.4331 21.0702C92.7211 21.2836 92.9237 21.5289 93.0411 21.8062C93.1691 22.0836 93.2331 22.3982 93.2331 22.7502C93.2331 23.2196 93.0997 23.6356 92.8331 23.9982C92.5771 24.3609 92.2197 24.6489 91.7611 24.8622C91.3024 25.0649 90.7797 25.1662 90.1931 25.1662ZM98.8093 25.1662C97.9773 25.1662 97.236 24.9796 96.5853 24.6062C95.9453 24.2329 95.4386 23.7156 95.0653 23.0542C94.7026 22.3929 94.5213 21.6409 94.5213 20.7982C94.5213 19.9662 94.7026 19.2249 95.0653 18.5742C95.4386 17.9236 95.9453 17.4116 96.5853 17.0382C97.236 16.6649 97.9773 16.4782 98.8093 16.4782C99.6306 16.4782 100.361 16.6649 101.001 17.0382C101.652 17.4116 102.159 17.9236 102.521 18.5742C102.895 19.2249 103.081 19.9662 103.081 20.7982C103.081 21.6409 102.895 22.3929 102.521 23.0542C102.159 23.7156 101.652 24.2329 101.001 24.6062C100.361 24.9796 99.6306 25.1662 98.8093 25.1662ZM98.8093 24.0302C99.396 24.0302 99.9186 23.8916 100.377 23.6142C100.836 23.3262 101.193 22.9422 101.449 22.4622C101.705 21.9716 101.833 21.4169 101.833 20.7982C101.833 20.1796 101.705 19.6302 101.449 19.1502C101.193 18.6702 100.836 18.2969 100.377 18.0302C99.9186 17.7529 99.396 17.6142 98.8093 17.6142C98.2226 17.6142 97.6946 17.7529 97.2253 18.0302C96.7666 18.2969 96.404 18.6756 96.1373 19.1662C95.8813 19.6462 95.7586 20.1902 95.7693 20.7982C95.7586 21.4169 95.8813 21.9716 96.1373 22.4622C96.404 22.9422 96.7666 23.3262 97.2253 23.6142C97.6946 23.8916 98.2226 24.0302 98.8093 24.0302Z" fill="#1D1933"/>
</g>
<defs>
<filter id="filter0_d_2772_8644" x="0" y="0" width="185" height="46.0125" filterUnits="userSpaceOnUse" color-interpolation-filters="sRGB">
<feFlood flood-opacity="0" result="BackgroundImageFix"/>
<feColorMatrix in="SourceAlpha" type="matrix" values="0 0 0 0 0 0 0 0 0 0 0 0 0 0 0 0 0 0 127 0" result="hardAlpha"/>
<feOffset dy="4"/>
<feGaussianBlur stdDeviation="2"/>
<feComposite in2="hardAlpha" operator="out"/>
<feColorMatrix type="matrix" values="0 0 0 0 0 0 0 0 0 0 0 0 0 0 0 0 0 0 0.25 0"/>
<feBlend mode="normal" in2="BackgroundImageFix" result="effect1_dropShadow_2772_8644"/>
<feBlend mode="normal" in="SourceGraphic" in2="effect1_dropShadow_2772_8644" result="shape"/>
</filter>
</defs>
</svg>
