<svg width="177" height="36" viewBox="0 0 177 36" fill="none" xmlns="http://www.w3.org/2000/svg">
<rect x="0.5" y="0.5" width="176" height="35" rx="1.5" stroke="#463C61"/>
<g clip-path="url(#clip0_3287_12971)">
<path d="M15.2548 11C13.7254 11 12.4282 11.5326 11.3631 12.5977C10.298 13.6628 9.76517 14.9603 9.76465 16.4902C9.76465 17.8889 10.2256 19.108 11.1474 20.1475C12.0692 21.1869 13.2227 21.7848 14.6078 21.9412L13.9019 22.6863C13.7581 22.8431 13.6862 23.0261 13.6862 23.2353C13.6862 23.4444 13.7581 23.6209 13.9019 23.7647C14.0588 23.9216 14.2483 24 14.4705 24C14.6927 24 14.8758 23.9281 15.0195 23.7843L17.0588 21.7451C17.2156 21.5882 17.2941 21.4052 17.2941 21.1961C17.2941 20.9869 17.2156 20.8039 17.0588 20.6471L15.0392 18.6275C14.8823 18.4706 14.6961 18.3922 14.4807 18.3922C14.2653 18.3922 14.0789 18.4706 13.9215 18.6275C13.7777 18.7843 13.7058 18.9705 13.7058 19.1859C13.7058 19.4013 13.7777 19.5812 13.9215 19.7255L14.5294 20.3333C13.6012 20.1503 12.8365 19.6994 12.2352 18.9804C11.6339 18.2614 11.3333 17.4314 11.3333 16.4902C11.3333 15.4052 11.7158 14.4803 12.4807 13.7153C13.2457 12.9503 14.1704 12.5681 15.2548 12.5686H16.8235C17.0457 12.5686 17.2321 12.4933 17.3827 12.3428C17.5333 12.1922 17.6083 12.006 17.6078 11.7843C17.6073 11.5626 17.532 11.3762 17.3819 11.2251C17.2318 11.074 17.0457 10.999 16.8235 11H15.2548ZM19.9607 18.0588C19.7385 18.0588 19.5524 18.1341 19.4023 18.2847C19.2522 18.4353 19.1769 18.6214 19.1764 18.8431V22.7647C19.1764 22.9869 19.2517 23.1731 19.4023 23.3231C19.5529 23.4732 19.739 23.5485 19.9607 23.549H25.4509C25.6731 23.549 25.8595 23.4737 26.0101 23.3231C26.1607 23.1725 26.2357 22.9864 26.2352 22.7647V18.8431C26.2352 18.6209 26.1599 18.4345 26.0093 18.2839C25.8588 18.1333 25.6726 18.0583 25.4509 18.0588H19.9607ZM19.9607 11C19.7385 11 19.5524 11.0753 19.4023 11.2259C19.2522 11.3765 19.1769 11.5626 19.1764 11.7843V15.7059C19.1764 15.9281 19.2517 16.1143 19.4023 16.2643C19.5529 16.4144 19.739 16.4897 19.9607 16.4902H25.4509C25.6731 16.4902 25.8595 16.4149 26.0101 16.2643C26.1607 16.1137 26.2357 15.9276 26.2352 15.7059V11.7843C26.2352 11.5621 26.1599 11.3757 26.0093 11.2251C25.8588 11.0745 25.6726 10.9995 25.4509 11H19.9607ZM20.745 12.5686H24.6666V14.9216H20.745V12.5686Z" fill="#E1DDF4"/>
</g>
<path d="M37.9683 24V12.8H44.7523V14.016H39.2163V22.784H44.7203V24H37.9683ZM38.5443 18.848V17.632H43.8563V18.848H38.5443ZM47.0504 24V15.648H48.2504L48.2824 17.552L48.0424 17.632C48.1278 17.312 48.2664 17.024 48.4584 16.768C48.6611 16.5013 48.9011 16.272 49.1784 16.08C49.4558 15.888 49.7598 15.744 50.0904 15.648C50.4211 15.5413 50.7678 15.488 51.1304 15.488C51.5678 15.488 51.9571 15.5627 52.2984 15.712C52.6504 15.8507 52.9438 16.096 53.1784 16.448C53.4238 16.7893 53.6104 17.2427 53.7384 17.808L53.4504 17.664L53.5624 17.392C53.6691 17.1467 53.8238 16.912 54.0264 16.688C54.2398 16.4533 54.4798 16.2453 54.7464 16.064C55.0238 15.8827 55.3224 15.744 55.6424 15.648C55.9731 15.5413 56.3091 15.488 56.6504 15.488C57.2371 15.488 57.7331 15.616 58.1384 15.872C58.5438 16.1173 58.8478 16.496 59.0504 17.008C59.2638 17.52 59.3704 18.1707 59.3704 18.96V24H58.1384V19.024C58.1384 18.4693 58.0691 18.016 57.9304 17.664C57.7918 17.312 57.5838 17.0507 57.3064 16.88C57.0398 16.6987 56.6984 16.608 56.2824 16.608C55.9198 16.608 55.5838 16.672 55.2744 16.8C54.9758 16.9173 54.7144 17.088 54.4904 17.312C54.2771 17.5253 54.1064 17.7707 53.9784 18.048C53.8611 18.3253 53.8024 18.624 53.8024 18.944V24H52.5864V19.008C52.5864 18.4747 52.5118 18.032 52.3624 17.68C52.2238 17.328 52.0158 17.0613 51.7384 16.88C51.4611 16.6987 51.1198 16.608 50.7144 16.608C50.3624 16.608 50.0371 16.672 49.7384 16.8C49.4398 16.9173 49.1784 17.0827 48.9544 17.296C48.7411 17.5093 48.5704 17.7547 48.4424 18.032C48.3251 18.3093 48.2664 18.608 48.2664 18.928V24H47.0504ZM66.6089 24V12.8H70.9929C71.6436 12.8 72.2303 12.9547 72.7529 13.264C73.2863 13.5627 73.7076 13.9733 74.0169 14.496C74.3263 15.0187 74.4809 15.6107 74.4809 16.272C74.4809 16.8907 74.3316 17.4507 74.0329 17.952C73.7343 18.4533 73.3289 18.8533 72.8169 19.152C72.3049 19.44 71.7289 19.584 71.0889 19.584H67.8569V24H66.6089ZM73.4409 24L70.6249 19.072L71.8249 18.656L74.9289 24H73.4409ZM67.8569 18.368H71.2009C71.5956 18.368 71.9423 18.2773 72.2409 18.096C72.5396 17.9147 72.7743 17.6693 72.9449 17.36C73.1156 17.04 73.2009 16.6773 73.2009 16.272C73.2009 15.8347 73.0996 15.4453 72.8969 15.104C72.6943 14.7627 72.4116 14.496 72.0489 14.304C71.6969 14.112 71.2916 14.016 70.8329 14.016H67.8569V18.368ZM80.0589 24.16C79.2269 24.16 78.4856 23.9787 77.8349 23.616C77.1949 23.2533 76.6936 22.7467 76.3309 22.096C75.9683 21.4453 75.7869 20.6987 75.7869 19.856C75.7869 19.2053 75.8883 18.6187 76.0909 18.096C76.2936 17.5627 76.5763 17.0987 76.9389 16.704C77.3123 16.3093 77.7549 16.0053 78.2669 15.792C78.7789 15.568 79.3336 15.456 79.9309 15.456C80.4963 15.456 81.0083 15.5573 81.4669 15.76C81.9363 15.9627 82.3363 16.2453 82.6669 16.608C83.0083 16.96 83.2643 17.3813 83.4349 17.872C83.6056 18.3627 83.6803 18.9013 83.6589 19.488L83.6429 20.048H76.6829L76.5069 19.04H82.7309L82.4429 19.312V18.928C82.4216 18.544 82.3096 18.176 82.1069 17.824C81.9043 17.4613 81.6163 17.168 81.2429 16.944C80.8803 16.72 80.4429 16.608 79.9309 16.608C79.3336 16.608 78.8163 16.7307 78.3789 16.976C77.9416 17.2107 77.6056 17.5627 77.3709 18.032C77.1363 18.5013 77.0189 19.0827 77.0189 19.776C77.0189 20.4373 77.1469 21.0133 77.4029 21.504C77.6589 21.984 78.0216 22.3573 78.4909 22.624C78.9709 22.8907 79.5469 23.024 80.2189 23.024C80.6136 23.024 81.0029 22.96 81.3869 22.832C81.7816 22.6933 82.2136 22.4267 82.6829 22.032L83.3069 22.896C83.0616 23.1413 82.7683 23.36 82.4269 23.552C82.0856 23.7333 81.7123 23.8827 81.3069 24C80.9016 24.1067 80.4856 24.16 80.0589 24.16ZM88.6273 24.16C87.902 24.16 87.246 23.9733 86.6593 23.6C86.0726 23.216 85.6086 22.6987 85.2673 22.048C84.926 21.3867 84.7553 20.64 84.7553 19.808C84.7553 18.9653 84.9313 18.2187 85.2833 17.568C85.6353 16.9173 86.1046 16.4053 86.6913 16.032C87.2886 15.6587 87.9553 15.472 88.6913 15.472C89.1286 15.472 89.534 15.536 89.9073 15.664C90.2806 15.792 90.6113 15.9733 90.8993 16.208C91.198 16.432 91.4433 16.6987 91.6353 17.008C91.838 17.3067 91.9766 17.632 92.0513 17.984L91.6993 17.808L91.7473 15.648H92.9473V24H91.7313V21.952L92.0513 21.744C91.9766 22.064 91.8326 22.3733 91.6193 22.672C91.406 22.96 91.1446 23.216 90.8353 23.44C90.5366 23.664 90.1953 23.84 89.8113 23.968C89.438 24.096 89.0433 24.16 88.6273 24.16ZM88.8993 23.008C89.454 23.008 89.95 22.8747 90.3873 22.608C90.8246 22.3307 91.166 21.952 91.4113 21.472C91.6673 20.9813 91.7953 20.4267 91.7953 19.808C91.7953 19.1893 91.6673 18.64 91.4113 18.16C91.166 17.68 90.8246 17.3013 90.3873 17.024C89.95 16.7467 89.454 16.608 88.8993 16.608C88.334 16.608 87.8326 16.7467 87.3953 17.024C86.9686 17.3013 86.6273 17.68 86.3713 18.16C86.126 18.64 86.0033 19.1893 86.0033 19.808C86.0033 20.416 86.126 20.9653 86.3713 21.456C86.6166 21.936 86.958 22.3147 87.3953 22.592C87.8326 22.8693 88.334 23.008 88.8993 23.008ZM95.3172 24V12.16H96.5172V24H95.3172ZM102.419 24.16C101.587 24.16 100.845 23.9733 100.195 23.6C99.5547 23.2267 99.048 22.7093 98.6747 22.048C98.312 21.3867 98.1307 20.6347 98.1307 19.792C98.1307 18.96 98.312 18.2187 98.6747 17.568C99.048 16.9173 99.5547 16.4053 100.195 16.032C100.845 15.6587 101.587 15.472 102.419 15.472C103.24 15.472 103.971 15.6587 104.611 16.032C105.261 16.4053 105.768 16.9173 106.131 17.568C106.504 18.2187 106.691 18.96 106.691 19.792C106.691 20.6347 106.504 21.3867 106.131 22.048C105.768 22.7093 105.261 23.2267 104.611 23.6C103.971 23.9733 103.24 24.16 102.419 24.16ZM102.419 23.024C103.005 23.024 103.528 22.8853 103.987 22.608C104.445 22.32 104.803 21.936 105.059 21.456C105.315 20.9653 105.443 20.4107 105.443 19.792C105.443 19.1733 105.315 18.624 105.059 18.144C104.803 17.664 104.445 17.2907 103.987 17.024C103.528 16.7467 103.005 16.608 102.419 16.608C101.832 16.608 101.304 16.7467 100.835 17.024C100.376 17.2907 100.013 17.6693 99.7467 18.16C99.4907 18.64 99.368 19.184 99.3787 19.792C99.368 20.4107 99.4907 20.9653 99.7467 21.456C100.013 21.936 100.376 22.32 100.835 22.608C101.304 22.8853 101.832 23.024 102.419 23.024ZM111.961 24.16C111.172 24.16 110.468 23.9733 109.849 23.6C109.231 23.216 108.74 22.6987 108.377 22.048C108.025 21.3867 107.849 20.64 107.849 19.808C107.849 18.976 108.025 18.2347 108.377 17.584C108.74 16.9227 109.231 16.4053 109.849 16.032C110.468 15.6587 111.177 15.472 111.977 15.472C112.692 15.472 113.343 15.616 113.929 15.904C114.516 16.1813 114.985 16.5707 115.337 17.072L114.633 17.936C114.431 17.6693 114.185 17.4347 113.897 17.232C113.62 17.0293 113.316 16.8747 112.985 16.768C112.665 16.6507 112.345 16.592 112.025 16.592C111.46 16.592 110.953 16.736 110.505 17.024C110.057 17.3013 109.7 17.68 109.433 18.16C109.177 18.64 109.049 19.1893 109.049 19.808C109.049 20.4267 109.177 20.9813 109.433 21.472C109.7 21.952 110.057 22.3307 110.505 22.608C110.953 22.8853 111.455 23.024 112.009 23.024C112.329 23.024 112.644 22.976 112.953 22.88C113.263 22.7733 113.556 22.624 113.833 22.432C114.111 22.24 114.367 22 114.601 21.712L115.305 22.576C114.943 23.056 114.457 23.44 113.849 23.728C113.241 24.016 112.612 24.16 111.961 24.16ZM120.127 24.16C119.402 24.16 118.746 23.9733 118.159 23.6C117.573 23.216 117.109 22.6987 116.767 22.048C116.426 21.3867 116.255 20.64 116.255 19.808C116.255 18.9653 116.431 18.2187 116.783 17.568C117.135 16.9173 117.605 16.4053 118.191 16.032C118.789 15.6587 119.455 15.472 120.191 15.472C120.629 15.472 121.034 15.536 121.407 15.664C121.781 15.792 122.111 15.9733 122.399 16.208C122.698 16.432 122.943 16.6987 123.135 17.008C123.338 17.3067 123.477 17.632 123.551 17.984L123.199 17.808L123.247 15.648H124.447V24H123.231V21.952L123.551 21.744C123.477 22.064 123.333 22.3733 123.119 22.672C122.906 22.96 122.645 23.216 122.335 23.44C122.037 23.664 121.695 23.84 121.311 23.968C120.938 24.096 120.543 24.16 120.127 24.16ZM120.399 23.008C120.954 23.008 121.45 22.8747 121.887 22.608C122.325 22.3307 122.666 21.952 122.911 21.472C123.167 20.9813 123.295 20.4267 123.295 19.808C123.295 19.1893 123.167 18.64 122.911 18.16C122.666 17.68 122.325 17.3013 121.887 17.024C121.45 16.7467 120.954 16.608 120.399 16.608C119.834 16.608 119.333 16.7467 118.895 17.024C118.469 17.3013 118.127 17.68 117.871 18.16C117.626 18.64 117.503 19.1893 117.503 19.808C117.503 20.416 117.626 20.9653 117.871 21.456C118.117 21.936 118.458 22.3147 118.895 22.592C119.333 22.8693 119.834 23.008 120.399 23.008ZM130.305 24.16C129.516 24.16 128.812 23.9733 128.193 23.6C127.575 23.216 127.084 22.6987 126.721 22.048C126.369 21.3867 126.193 20.64 126.193 19.808C126.193 18.976 126.369 18.2347 126.721 17.584C127.084 16.9227 127.575 16.4053 128.193 16.032C128.812 15.6587 129.521 15.472 130.321 15.472C131.036 15.472 131.687 15.616 132.273 15.904C132.86 16.1813 133.329 16.5707 133.681 17.072L132.977 17.936C132.775 17.6693 132.529 17.4347 132.241 17.232C131.964 17.0293 131.66 16.8747 131.329 16.768C131.009 16.6507 130.689 16.592 130.369 16.592C129.804 16.592 129.297 16.736 128.849 17.024C128.401 17.3013 128.044 17.68 127.777 18.16C127.521 18.64 127.393 19.1893 127.393 19.808C127.393 20.4267 127.521 20.9813 127.777 21.472C128.044 21.952 128.401 22.3307 128.849 22.608C129.297 22.8853 129.799 23.024 130.353 23.024C130.673 23.024 130.988 22.976 131.297 22.88C131.607 22.7733 131.9 22.624 132.177 22.432C132.455 22.24 132.711 22 132.945 21.712L133.649 22.576C133.287 23.056 132.801 23.44 132.193 23.728C131.585 24.016 130.956 24.16 130.305 24.16ZM128.833 27.792L128.721 27.104C129.009 27.0933 129.292 27.0507 129.569 26.976C129.857 26.9013 130.092 26.7947 130.273 26.656C130.465 26.528 130.561 26.384 130.561 26.224C130.561 26.0533 130.476 25.92 130.305 25.824C130.135 25.728 129.932 25.6587 129.697 25.616C129.473 25.584 129.276 25.568 129.105 25.568L128.897 25.408L129.953 23.76H130.769L130.081 24.848C130.593 24.944 130.977 25.104 131.233 25.328C131.489 25.5627 131.617 25.8507 131.617 26.192C131.617 26.4693 131.532 26.7093 131.361 26.912C131.191 27.1253 130.967 27.296 130.689 27.424C130.423 27.552 130.124 27.6427 129.793 27.696C129.473 27.76 129.153 27.792 128.833 27.792ZM138.471 24.16C137.746 24.16 137.09 23.9733 136.503 23.6C135.916 23.216 135.452 22.6987 135.111 22.048C134.77 21.3867 134.599 20.64 134.599 19.808C134.599 18.9653 134.775 18.2187 135.127 17.568C135.479 16.9173 135.948 16.4053 136.535 16.032C137.132 15.6587 137.799 15.472 138.535 15.472C138.972 15.472 139.378 15.536 139.751 15.664C140.124 15.792 140.455 15.9733 140.743 16.208C141.042 16.432 141.287 16.6987 141.479 17.008C141.682 17.3067 141.82 17.632 141.895 17.984L141.543 17.808L141.591 15.648H142.791V24H141.575V21.952L141.895 21.744C141.82 22.064 141.676 22.3733 141.463 22.672C141.25 22.96 140.988 23.216 140.679 23.44C140.38 23.664 140.039 23.84 139.655 23.968C139.282 24.096 138.887 24.16 138.471 24.16ZM138.743 23.008C139.298 23.008 139.794 22.8747 140.231 22.608C140.668 22.3307 141.01 21.952 141.255 21.472C141.511 20.9813 141.639 20.4267 141.639 19.808C141.639 19.1893 141.511 18.64 141.255 18.16C141.01 17.68 140.668 17.3013 140.231 17.024C139.794 16.7467 139.298 16.608 138.743 16.608C138.178 16.608 137.676 16.7467 137.239 17.024C136.812 17.3013 136.471 17.68 136.215 18.16C135.97 18.64 135.847 19.1893 135.847 19.808C135.847 20.416 135.97 20.9653 136.215 21.456C136.46 21.936 136.802 22.3147 137.239 22.592C137.676 22.8693 138.178 23.008 138.743 23.008ZM139.943 14.192C139.719 14.192 139.522 14.144 139.351 14.048C139.191 13.952 139.004 13.808 138.791 13.616C138.642 13.4773 138.514 13.376 138.407 13.312C138.311 13.248 138.21 13.216 138.103 13.216C137.922 13.216 137.767 13.296 137.639 13.456C137.511 13.6053 137.426 13.8347 137.383 14.144L136.519 14.032C136.562 13.552 136.732 13.1467 137.031 12.816C137.33 12.4747 137.714 12.304 138.183 12.304C138.386 12.304 138.567 12.3467 138.727 12.432C138.887 12.5173 139.074 12.656 139.287 12.848C139.447 12.976 139.575 13.0773 139.671 13.152C139.767 13.2267 139.874 13.264 139.991 13.264C140.151 13.264 140.284 13.1893 140.391 13.04C140.508 12.8907 140.583 12.688 140.615 12.432L141.495 12.544C141.474 12.8427 141.394 13.12 141.255 13.376C141.127 13.6213 140.951 13.8187 140.727 13.968C140.503 14.1173 140.242 14.192 139.943 14.192ZM148.825 24.16C147.993 24.16 147.252 23.9733 146.601 23.6C145.961 23.2267 145.454 22.7093 145.081 22.048C144.718 21.3867 144.537 20.6347 144.537 19.792C144.537 18.96 144.718 18.2187 145.081 17.568C145.454 16.9173 145.961 16.4053 146.601 16.032C147.252 15.6587 147.993 15.472 148.825 15.472C149.646 15.472 150.377 15.6587 151.017 16.032C151.668 16.4053 152.174 16.9173 152.537 17.568C152.91 18.2187 153.097 18.96 153.097 19.792C153.097 20.6347 152.91 21.3867 152.537 22.048C152.174 22.7093 151.668 23.2267 151.017 23.6C150.377 23.9733 149.646 24.16 148.825 24.16ZM148.825 23.024C149.412 23.024 149.934 22.8853 150.393 22.608C150.852 22.32 151.209 21.936 151.465 21.456C151.721 20.9653 151.849 20.4107 151.849 19.792C151.849 19.1733 151.721 18.624 151.465 18.144C151.209 17.664 150.852 17.2907 150.393 17.024C149.934 16.7467 149.412 16.608 148.825 16.608C148.238 16.608 147.71 16.7467 147.241 17.024C146.782 17.2907 146.42 17.6693 146.153 18.16C145.897 18.64 145.774 19.184 145.785 19.792C145.774 20.4107 145.897 20.9653 146.153 21.456C146.42 21.936 146.782 22.32 147.241 22.608C147.71 22.8853 148.238 23.024 148.825 23.024Z" fill="white"/>
<defs>
<clipPath id="clip0_3287_12971">
<rect width="16" height="16" fill="white" transform="matrix(1 0 0 -1 10 26)"/>
</clipPath>
</defs>
</svg>
