<svg width="177" height="40" viewBox="0 0 177 40" fill="none" xmlns="http://www.w3.org/2000/svg">
<rect x="0.5" y="0.5" width="176" height="39" rx="1.5" stroke="#463C61"/>
<path fill-rule="evenodd" clip-rule="evenodd" d="M22 10C27.5138 10 32 14.4863 32 20C32 25.5137 27.5138 30 22 30C16.4863 30 12 25.5138 12 20C12 14.4863 16.4863 10 22 10ZM22.0428 15.4116C21.0944 14.6902 19.8545 14.4415 18.966 14.6424L20.5044 16.1808L19.7352 17.7193L18.1967 18.4885L16.6582 16.9501C16.4573 17.8387 16.7061 19.0785 17.4275 20.027C18.411 20.7835 19.6209 21.0386 20.5043 20.7962L24.0139 24.1278C24.6794 24.715 25.3449 24.6759 26.0104 24.0104C26.7175 23.3033 26.7175 22.5962 26.0104 21.8891C23.8479 19.7674 22.7818 18.6339 22.8121 18.4885C23.0544 17.6052 22.7993 16.3952 22.0429 15.4117" fill="#E1DDF4"/>
<path d="M45.6714 26V14.8H52.4554V16.016H46.9194V24.784H52.4234V26H45.6714ZM46.2474 20.848V19.632H51.5594V20.848H46.2474ZM54.7536 26V17.648H55.9536L55.9856 19.552L55.7456 19.632C55.8309 19.312 55.9696 19.024 56.1616 18.768C56.3642 18.5013 56.6042 18.272 56.8816 18.08C57.1589 17.888 57.4629 17.744 57.7936 17.648C58.1242 17.5413 58.4709 17.488 58.8336 17.488C59.2709 17.488 59.6602 17.5627 60.0016 17.712C60.3536 17.8507 60.6469 18.096 60.8816 18.448C61.1269 18.7893 61.3136 19.2427 61.4416 19.808L61.1536 19.664L61.2656 19.392C61.3722 19.1467 61.5269 18.912 61.7296 18.688C61.9429 18.4533 62.1829 18.2453 62.4496 18.064C62.7269 17.8827 63.0256 17.744 63.3456 17.648C63.6762 17.5413 64.0122 17.488 64.3536 17.488C64.9402 17.488 65.4362 17.616 65.8416 17.872C66.2469 18.1173 66.5509 18.496 66.7536 19.008C66.9669 19.52 67.0736 20.1707 67.0736 20.96V26H65.8416V21.024C65.8416 20.4693 65.7722 20.016 65.6336 19.664C65.4949 19.312 65.2869 19.0507 65.0096 18.88C64.7429 18.6987 64.4016 18.608 63.9856 18.608C63.6229 18.608 63.2869 18.672 62.9776 18.8C62.6789 18.9173 62.4176 19.088 62.1936 19.312C61.9802 19.5253 61.8096 19.7707 61.6816 20.048C61.5642 20.3253 61.5056 20.624 61.5056 20.944V26H60.2896V21.008C60.2896 20.4747 60.2149 20.032 60.0656 19.68C59.9269 19.328 59.7189 19.0613 59.4416 18.88C59.1642 18.6987 58.8229 18.608 58.4176 18.608C58.0656 18.608 57.7402 18.672 57.4416 18.8C57.1429 18.9173 56.8816 19.0827 56.6576 19.296C56.4442 19.5093 56.2736 19.7547 56.1456 20.032C56.0282 20.3093 55.9696 20.608 55.9696 20.928V26H54.7536ZM74.3121 26V14.8H75.5281L79.8321 21.792L79.2561 21.776L83.6081 14.8H84.7441V26H83.4961V20.88C83.4961 19.92 83.5121 19.056 83.5441 18.288C83.5761 17.52 83.6347 16.7573 83.7201 16L83.9441 16.448L79.9281 22.752H79.0641L75.1601 16.528L75.3361 16C75.4214 16.7147 75.4801 17.4507 75.5121 18.208C75.5441 18.9547 75.5601 19.8453 75.5601 20.88V26H74.3121ZM90.8304 26.16C90.1051 26.16 89.4491 25.9733 88.8624 25.6C88.2758 25.216 87.8118 24.6987 87.4704 24.048C87.1291 23.3867 86.9584 22.64 86.9584 21.808C86.9584 20.9653 87.1344 20.2187 87.4864 19.568C87.8384 18.9173 88.3078 18.4053 88.8944 18.032C89.4918 17.6587 90.1584 17.472 90.8944 17.472C91.3318 17.472 91.7371 17.536 92.1104 17.664C92.4838 17.792 92.8144 17.9733 93.1024 18.208C93.4011 18.432 93.6464 18.6987 93.8384 19.008C94.0411 19.3067 94.1798 19.632 94.2544 19.984L93.9024 19.808L93.9504 17.648H95.1504V26H93.9344V23.952L94.2544 23.744C94.1798 24.064 94.0358 24.3733 93.8224 24.672C93.6091 24.96 93.3478 25.216 93.0384 25.44C92.7398 25.664 92.3984 25.84 92.0144 25.968C91.6411 26.096 91.2464 26.16 90.8304 26.16ZM91.1024 25.008C91.6571 25.008 92.1531 24.8747 92.5904 24.608C93.0278 24.3307 93.3691 23.952 93.6144 23.472C93.8704 22.9813 93.9984 22.4267 93.9984 21.808C93.9984 21.1893 93.8704 20.64 93.6144 20.16C93.3691 19.68 93.0278 19.3013 92.5904 19.024C92.1531 18.7467 91.6571 18.608 91.1024 18.608C90.5371 18.608 90.0358 18.7467 89.5984 19.024C89.1718 19.3013 88.8304 19.68 88.5744 20.16C88.3291 20.64 88.2064 21.1893 88.2064 21.808C88.2064 22.416 88.3291 22.9653 88.5744 23.456C88.8198 23.936 89.1611 24.3147 89.5984 24.592C90.0358 24.8693 90.5371 25.008 91.1024 25.008ZM97.4883 26V17.648H98.6723L98.7203 19.392L98.5283 19.472C98.635 19.1093 98.843 18.7787 99.1523 18.48C99.4616 18.1813 99.8296 17.9413 100.256 17.76C100.694 17.568 101.142 17.472 101.6 17.472C102.219 17.472 102.736 17.5947 103.152 17.84C103.568 18.0853 103.883 18.464 104.096 18.976C104.31 19.488 104.416 20.1387 104.416 20.928V26H103.2V20.992C103.2 20.4373 103.126 19.984 102.976 19.632C102.838 19.2693 102.619 19.0027 102.32 18.832C102.022 18.6613 101.654 18.5813 101.216 18.592C100.854 18.592 100.518 18.656 100.208 18.784C99.899 18.9013 99.6323 19.0667 99.4083 19.28C99.1843 19.4933 99.0083 19.7387 98.8803 20.016C98.7523 20.2933 98.6883 20.592 98.6883 20.912V26H98.0963C98.0216 26 97.9363 26 97.8403 26C97.7443 26 97.627 26 97.4883 26ZM109.667 26.16C109.027 26.16 108.483 26.032 108.035 25.776C107.598 25.5093 107.262 25.1253 107.027 24.624C106.803 24.1227 106.691 23.4987 106.691 22.752V17.648H107.907V22.512C107.907 23.0773 107.982 23.552 108.131 23.936C108.291 24.3093 108.526 24.592 108.835 24.784C109.155 24.976 109.544 25.072 110.003 25.072C110.355 25.072 110.68 25.0133 110.979 24.896C111.278 24.768 111.539 24.5973 111.763 24.384C111.987 24.1707 112.163 23.92 112.291 23.632C112.419 23.344 112.483 23.04 112.483 22.72V17.648H113.683V26H112.499L112.451 24.24L112.643 24.144C112.515 24.5173 112.302 24.8587 112.003 25.168C111.704 25.4667 111.347 25.7067 110.931 25.888C110.526 26.0693 110.104 26.16 109.667 26.16ZM117.172 26V15.456H118.372V26H117.172ZM115.284 18.8V17.648H120.484V18.8H115.284ZM125.559 26.16C124.727 26.16 123.986 25.9787 123.335 25.616C122.695 25.2533 122.194 24.7467 121.831 24.096C121.468 23.4453 121.287 22.6987 121.287 21.856C121.287 21.2053 121.388 20.6187 121.591 20.096C121.794 19.5627 122.076 19.0987 122.439 18.704C122.812 18.3093 123.255 18.0053 123.767 17.792C124.279 17.568 124.834 17.456 125.431 17.456C125.996 17.456 126.508 17.5573 126.967 17.76C127.436 17.9627 127.836 18.2453 128.167 18.608C128.508 18.96 128.764 19.3813 128.935 19.872C129.106 20.3627 129.18 20.9013 129.159 21.488L129.143 22.048H122.183L122.007 21.04H128.231L127.943 21.312V20.928C127.922 20.544 127.81 20.176 127.607 19.824C127.404 19.4613 127.116 19.168 126.743 18.944C126.38 18.72 125.943 18.608 125.431 18.608C124.834 18.608 124.316 18.7307 123.879 18.976C123.442 19.2107 123.106 19.5627 122.871 20.032C122.636 20.5013 122.519 21.0827 122.519 21.776C122.519 22.4373 122.647 23.0133 122.903 23.504C123.159 23.984 123.522 24.3573 123.991 24.624C124.471 24.8907 125.047 25.024 125.719 25.024C126.114 25.024 126.503 24.96 126.887 24.832C127.282 24.6933 127.714 24.4267 128.183 24.032L128.807 24.896C128.562 25.1413 128.268 25.36 127.927 25.552C127.586 25.7333 127.212 25.8827 126.807 26C126.402 26.1067 125.986 26.16 125.559 26.16ZM130.863 26V17.648H132.047L132.095 19.392L131.903 19.472C132.01 19.1093 132.218 18.7787 132.527 18.48C132.837 18.1813 133.205 17.9413 133.631 17.76C134.069 17.568 134.517 17.472 134.975 17.472C135.594 17.472 136.111 17.5947 136.527 17.84C136.943 18.0853 137.258 18.464 137.471 18.976C137.685 19.488 137.791 20.1387 137.791 20.928V26H136.575V20.992C136.575 20.4373 136.501 19.984 136.351 19.632C136.213 19.2693 135.994 19.0027 135.695 18.832C135.397 18.6613 135.029 18.5813 134.591 18.592C134.229 18.592 133.893 18.656 133.583 18.784C133.274 18.9013 133.007 19.0667 132.783 19.28C132.559 19.4933 132.383 19.7387 132.255 20.016C132.127 20.2933 132.063 20.592 132.063 20.912V26H131.471C131.397 26 131.311 26 131.215 26C131.119 26 131.002 26 130.863 26ZM143.602 26.16C142.813 26.16 142.109 25.9733 141.49 25.6C140.871 25.216 140.381 24.6987 140.018 24.048C139.666 23.3867 139.49 22.64 139.49 21.808C139.49 20.976 139.666 20.2347 140.018 19.584C140.381 18.9227 140.871 18.4053 141.49 18.032C142.109 17.6587 142.818 17.472 143.618 17.472C144.333 17.472 144.983 17.616 145.57 17.904C146.157 18.1813 146.626 18.5707 146.978 19.072L146.274 19.936C146.071 19.6693 145.826 19.4347 145.538 19.232C145.261 19.0293 144.957 18.8747 144.626 18.768C144.306 18.6507 143.986 18.592 143.666 18.592C143.101 18.592 142.594 18.736 142.146 19.024C141.698 19.3013 141.341 19.68 141.074 20.16C140.818 20.64 140.69 21.1893 140.69 21.808C140.69 22.4267 140.818 22.9813 141.074 23.472C141.341 23.952 141.698 24.3307 142.146 24.608C142.594 24.8853 143.095 25.024 143.65 25.024C143.97 25.024 144.285 24.976 144.594 24.88C144.903 24.7733 145.197 24.624 145.474 24.432C145.751 24.24 146.007 24 146.242 23.712L146.946 24.576C146.583 25.056 146.098 25.44 145.49 25.728C144.882 26.016 144.253 26.16 143.602 26.16ZM142.13 29.792L142.018 29.104C142.306 29.0933 142.589 29.0507 142.866 28.976C143.154 28.9013 143.389 28.7947 143.57 28.656C143.762 28.528 143.858 28.384 143.858 28.224C143.858 28.0533 143.773 27.92 143.602 27.824C143.431 27.728 143.229 27.6587 142.994 27.616C142.77 27.584 142.573 27.568 142.402 27.568L142.194 27.408L143.25 25.76H144.066L143.378 26.848C143.89 26.944 144.274 27.104 144.53 27.328C144.786 27.5627 144.914 27.8507 144.914 28.192C144.914 28.4693 144.829 28.7093 144.658 28.912C144.487 29.1253 144.263 29.296 143.986 29.424C143.719 29.552 143.421 29.6427 143.09 29.696C142.77 29.76 142.45 29.792 142.13 29.792ZM151.768 26.16C151.043 26.16 150.387 25.9733 149.8 25.6C149.213 25.216 148.749 24.6987 148.408 24.048C148.067 23.3867 147.896 22.64 147.896 21.808C147.896 20.9653 148.072 20.2187 148.424 19.568C148.776 18.9173 149.245 18.4053 149.832 18.032C150.429 17.6587 151.096 17.472 151.832 17.472C152.269 17.472 152.675 17.536 153.048 17.664C153.421 17.792 153.752 17.9733 154.04 18.208C154.339 18.432 154.584 18.6987 154.776 19.008C154.979 19.3067 155.117 19.632 155.192 19.984L154.84 19.808L154.888 17.648H156.088V26H154.872V23.952L155.192 23.744C155.117 24.064 154.973 24.3733 154.76 24.672C154.547 24.96 154.285 25.216 153.976 25.44C153.677 25.664 153.336 25.84 152.952 25.968C152.579 26.096 152.184 26.16 151.768 26.16ZM152.04 25.008C152.595 25.008 153.091 24.8747 153.528 24.608C153.965 24.3307 154.307 23.952 154.552 23.472C154.808 22.9813 154.936 22.4267 154.936 21.808C154.936 21.1893 154.808 20.64 154.552 20.16C154.307 19.68 153.965 19.3013 153.528 19.024C153.091 18.7467 152.595 18.608 152.04 18.608C151.475 18.608 150.973 18.7467 150.536 19.024C150.109 19.3013 149.768 19.68 149.512 20.16C149.267 20.64 149.144 21.1893 149.144 21.808C149.144 22.416 149.267 22.9653 149.512 23.456C149.757 23.936 150.099 24.3147 150.536 24.592C150.973 24.8693 151.475 25.008 152.04 25.008ZM153.24 16.192C153.016 16.192 152.819 16.144 152.648 16.048C152.488 15.952 152.301 15.808 152.088 15.616C151.939 15.4773 151.811 15.376 151.704 15.312C151.608 15.248 151.507 15.216 151.4 15.216C151.219 15.216 151.064 15.296 150.936 15.456C150.808 15.6053 150.723 15.8347 150.68 16.144L149.816 16.032C149.859 15.552 150.029 15.1467 150.328 14.816C150.627 14.4747 151.011 14.304 151.48 14.304C151.683 14.304 151.864 14.3467 152.024 14.432C152.184 14.5173 152.371 14.656 152.584 14.848C152.744 14.976 152.872 15.0773 152.968 15.152C153.064 15.2267 153.171 15.264 153.288 15.264C153.448 15.264 153.581 15.1893 153.688 15.04C153.805 14.8907 153.88 14.688 153.912 14.432L154.792 14.544C154.771 14.8427 154.691 15.12 154.552 15.376C154.424 15.6213 154.248 15.8187 154.024 15.968C153.8 16.1173 153.539 16.192 153.24 16.192ZM162.122 26.16C161.29 26.16 160.548 25.9733 159.898 25.6C159.258 25.2267 158.751 24.7093 158.378 24.048C158.015 23.3867 157.834 22.6347 157.834 21.792C157.834 20.96 158.015 20.2187 158.378 19.568C158.751 18.9173 159.258 18.4053 159.898 18.032C160.548 17.6587 161.29 17.472 162.122 17.472C162.943 17.472 163.674 17.6587 164.314 18.032C164.964 18.4053 165.471 18.9173 165.834 19.568C166.207 20.2187 166.394 20.96 166.394 21.792C166.394 22.6347 166.207 23.3867 165.834 24.048C165.471 24.7093 164.964 25.2267 164.314 25.6C163.674 25.9733 162.943 26.16 162.122 26.16ZM162.122 25.024C162.708 25.024 163.231 24.8853 163.69 24.608C164.148 24.32 164.506 23.936 164.762 23.456C165.018 22.9653 165.146 22.4107 165.146 21.792C165.146 21.1733 165.018 20.624 164.762 20.144C164.506 19.664 164.148 19.2907 163.69 19.024C163.231 18.7467 162.708 18.608 162.122 18.608C161.535 18.608 161.007 18.7467 160.538 19.024C160.079 19.2907 159.716 19.6693 159.45 20.16C159.194 20.64 159.071 21.184 159.082 21.792C159.071 22.4107 159.194 22.9653 159.45 23.456C159.716 23.936 160.079 24.32 160.538 24.608C161.007 24.8853 161.535 25.024 162.122 25.024Z" fill="white"/>
</svg>
