<svg width="185" height="48" viewBox="0 0 185 48" fill="none" xmlns="http://www.w3.org/2000/svg">
<g filter="url(#filter0_d_2772_8689)">
<rect x="4" width="177" height="40" rx="2" fill="#E1DDF4" shape-rendering="crispEdges"/>
<path fill-rule="evenodd" clip-rule="evenodd" d="M26 10C31.5138 10 36 14.4863 36 20C36 25.5137 31.5138 30 26 30C20.4863 30 16 25.5138 16 20C16 14.4863 20.4863 10 26 10ZM26.0428 15.4116C25.0944 14.6902 23.8545 14.4415 22.966 14.6424L24.5044 16.1808L23.7352 17.7193L22.1967 18.4885L20.6582 16.9501C20.4573 17.8387 20.7061 19.0785 21.4275 20.027C22.411 20.7835 23.6209 21.0386 24.5043 20.7962L28.0139 24.1278C28.6794 24.715 29.3449 24.6759 30.0104 24.0104C30.7175 23.3033 30.7175 22.5962 30.0104 21.8891C27.8479 19.7674 26.7818 18.6339 26.8121 18.4885C27.0544 17.6052 26.7993 16.3952 26.0429 15.4117" fill="#1D1933"/>
<path d="M49.6714 26V14.8H56.4554V16.016H50.9194V24.784H56.4234V26H49.6714ZM50.2474 20.848V19.632H55.5594V20.848H50.2474ZM58.7536 26V17.648H59.9536L59.9856 19.552L59.7456 19.632C59.8309 19.312 59.9696 19.024 60.1616 18.768C60.3642 18.5013 60.6042 18.272 60.8816 18.08C61.1589 17.888 61.4629 17.744 61.7936 17.648C62.1242 17.5413 62.4709 17.488 62.8336 17.488C63.2709 17.488 63.6602 17.5627 64.0016 17.712C64.3536 17.8507 64.6469 18.096 64.8816 18.448C65.1269 18.7893 65.3136 19.2427 65.4416 19.808L65.1536 19.664L65.2656 19.392C65.3722 19.1467 65.5269 18.912 65.7296 18.688C65.9429 18.4533 66.1829 18.2453 66.4496 18.064C66.7269 17.8827 67.0256 17.744 67.3456 17.648C67.6762 17.5413 68.0122 17.488 68.3536 17.488C68.9402 17.488 69.4362 17.616 69.8416 17.872C70.2469 18.1173 70.5509 18.496 70.7536 19.008C70.9669 19.52 71.0736 20.1707 71.0736 20.96V26H69.8416V21.024C69.8416 20.4693 69.7722 20.016 69.6336 19.664C69.4949 19.312 69.2869 19.0507 69.0096 18.88C68.7429 18.6987 68.4016 18.608 67.9856 18.608C67.6229 18.608 67.2869 18.672 66.9776 18.8C66.6789 18.9173 66.4176 19.088 66.1936 19.312C65.9802 19.5253 65.8096 19.7707 65.6816 20.048C65.5642 20.3253 65.5056 20.624 65.5056 20.944V26H64.2896V21.008C64.2896 20.4747 64.2149 20.032 64.0656 19.68C63.9269 19.328 63.7189 19.0613 63.4416 18.88C63.1642 18.6987 62.8229 18.608 62.4176 18.608C62.0656 18.608 61.7402 18.672 61.4416 18.8C61.1429 18.9173 60.8816 19.0827 60.6576 19.296C60.4442 19.5093 60.2736 19.7547 60.1456 20.032C60.0282 20.3093 59.9696 20.608 59.9696 20.928V26H58.7536ZM78.3121 26V14.8H79.5281L83.8321 21.792L83.2561 21.776L87.6081 14.8H88.7441V26H87.4961V20.88C87.4961 19.92 87.5121 19.056 87.5441 18.288C87.5761 17.52 87.6347 16.7573 87.7201 16L87.9441 16.448L83.9281 22.752H83.0641L79.1601 16.528L79.3361 16C79.4214 16.7147 79.4801 17.4507 79.5121 18.208C79.5441 18.9547 79.5601 19.8453 79.5601 20.88V26H78.3121ZM94.8304 26.16C94.1051 26.16 93.4491 25.9733 92.8624 25.6C92.2758 25.216 91.8118 24.6987 91.4704 24.048C91.1291 23.3867 90.9584 22.64 90.9584 21.808C90.9584 20.9653 91.1344 20.2187 91.4864 19.568C91.8384 18.9173 92.3078 18.4053 92.8944 18.032C93.4918 17.6587 94.1584 17.472 94.8944 17.472C95.3318 17.472 95.7371 17.536 96.1104 17.664C96.4838 17.792 96.8144 17.9733 97.1024 18.208C97.4011 18.432 97.6464 18.6987 97.8384 19.008C98.0411 19.3067 98.1798 19.632 98.2544 19.984L97.9024 19.808L97.9504 17.648H99.1504V26H97.9344V23.952L98.2544 23.744C98.1798 24.064 98.0358 24.3733 97.8224 24.672C97.6091 24.96 97.3478 25.216 97.0384 25.44C96.7398 25.664 96.3984 25.84 96.0144 25.968C95.6411 26.096 95.2464 26.16 94.8304 26.16ZM95.1024 25.008C95.6571 25.008 96.1531 24.8747 96.5904 24.608C97.0278 24.3307 97.3691 23.952 97.6144 23.472C97.8704 22.9813 97.9984 22.4267 97.9984 21.808C97.9984 21.1893 97.8704 20.64 97.6144 20.16C97.3691 19.68 97.0278 19.3013 96.5904 19.024C96.1531 18.7467 95.6571 18.608 95.1024 18.608C94.5371 18.608 94.0358 18.7467 93.5984 19.024C93.1718 19.3013 92.8304 19.68 92.5744 20.16C92.3291 20.64 92.2064 21.1893 92.2064 21.808C92.2064 22.416 92.3291 22.9653 92.5744 23.456C92.8198 23.936 93.1611 24.3147 93.5984 24.592C94.0358 24.8693 94.5371 25.008 95.1024 25.008ZM101.488 26V17.648H102.672L102.72 19.392L102.528 19.472C102.635 19.1093 102.843 18.7787 103.152 18.48C103.462 18.1813 103.83 17.9413 104.256 17.76C104.694 17.568 105.142 17.472 105.6 17.472C106.219 17.472 106.736 17.5947 107.152 17.84C107.568 18.0853 107.883 18.464 108.096 18.976C108.31 19.488 108.416 20.1387 108.416 20.928V26H107.2V20.992C107.2 20.4373 107.126 19.984 106.976 19.632C106.838 19.2693 106.619 19.0027 106.32 18.832C106.022 18.6613 105.654 18.5813 105.216 18.592C104.854 18.592 104.518 18.656 104.208 18.784C103.899 18.9013 103.632 19.0667 103.408 19.28C103.184 19.4933 103.008 19.7387 102.88 20.016C102.752 20.2933 102.688 20.592 102.688 20.912V26H102.096C102.022 26 101.936 26 101.84 26C101.744 26 101.627 26 101.488 26ZM113.667 26.16C113.027 26.16 112.483 26.032 112.035 25.776C111.598 25.5093 111.262 25.1253 111.027 24.624C110.803 24.1227 110.691 23.4987 110.691 22.752V17.648H111.907V22.512C111.907 23.0773 111.982 23.552 112.131 23.936C112.291 24.3093 112.526 24.592 112.835 24.784C113.155 24.976 113.544 25.072 114.003 25.072C114.355 25.072 114.68 25.0133 114.979 24.896C115.278 24.768 115.539 24.5973 115.763 24.384C115.987 24.1707 116.163 23.92 116.291 23.632C116.419 23.344 116.483 23.04 116.483 22.72V17.648H117.683V26H116.499L116.451 24.24L116.643 24.144C116.515 24.5173 116.302 24.8587 116.003 25.168C115.704 25.4667 115.347 25.7067 114.931 25.888C114.526 26.0693 114.104 26.16 113.667 26.16ZM121.172 26V15.456H122.372V26H121.172ZM119.284 18.8V17.648H124.484V18.8H119.284ZM129.559 26.16C128.727 26.16 127.986 25.9787 127.335 25.616C126.695 25.2533 126.194 24.7467 125.831 24.096C125.468 23.4453 125.287 22.6987 125.287 21.856C125.287 21.2053 125.388 20.6187 125.591 20.096C125.794 19.5627 126.076 19.0987 126.439 18.704C126.812 18.3093 127.255 18.0053 127.767 17.792C128.279 17.568 128.834 17.456 129.431 17.456C129.996 17.456 130.508 17.5573 130.967 17.76C131.436 17.9627 131.836 18.2453 132.167 18.608C132.508 18.96 132.764 19.3813 132.935 19.872C133.106 20.3627 133.18 20.9013 133.159 21.488L133.143 22.048H126.183L126.007 21.04H132.231L131.943 21.312V20.928C131.922 20.544 131.81 20.176 131.607 19.824C131.404 19.4613 131.116 19.168 130.743 18.944C130.38 18.72 129.943 18.608 129.431 18.608C128.834 18.608 128.316 18.7307 127.879 18.976C127.442 19.2107 127.106 19.5627 126.871 20.032C126.636 20.5013 126.519 21.0827 126.519 21.776C126.519 22.4373 126.647 23.0133 126.903 23.504C127.159 23.984 127.522 24.3573 127.991 24.624C128.471 24.8907 129.047 25.024 129.719 25.024C130.114 25.024 130.503 24.96 130.887 24.832C131.282 24.6933 131.714 24.4267 132.183 24.032L132.807 24.896C132.562 25.1413 132.268 25.36 131.927 25.552C131.586 25.7333 131.212 25.8827 130.807 26C130.402 26.1067 129.986 26.16 129.559 26.16ZM134.863 26V17.648H136.047L136.095 19.392L135.903 19.472C136.01 19.1093 136.218 18.7787 136.527 18.48C136.837 18.1813 137.205 17.9413 137.631 17.76C138.069 17.568 138.517 17.472 138.975 17.472C139.594 17.472 140.111 17.5947 140.527 17.84C140.943 18.0853 141.258 18.464 141.471 18.976C141.685 19.488 141.791 20.1387 141.791 20.928V26H140.575V20.992C140.575 20.4373 140.501 19.984 140.351 19.632C140.213 19.2693 139.994 19.0027 139.695 18.832C139.397 18.6613 139.029 18.5813 138.591 18.592C138.229 18.592 137.893 18.656 137.583 18.784C137.274 18.9013 137.007 19.0667 136.783 19.28C136.559 19.4933 136.383 19.7387 136.255 20.016C136.127 20.2933 136.063 20.592 136.063 20.912V26H135.471C135.397 26 135.311 26 135.215 26C135.119 26 135.002 26 134.863 26ZM147.602 26.16C146.813 26.16 146.109 25.9733 145.49 25.6C144.871 25.216 144.381 24.6987 144.018 24.048C143.666 23.3867 143.49 22.64 143.49 21.808C143.49 20.976 143.666 20.2347 144.018 19.584C144.381 18.9227 144.871 18.4053 145.49 18.032C146.109 17.6587 146.818 17.472 147.618 17.472C148.333 17.472 148.983 17.616 149.57 17.904C150.157 18.1813 150.626 18.5707 150.978 19.072L150.274 19.936C150.071 19.6693 149.826 19.4347 149.538 19.232C149.261 19.0293 148.957 18.8747 148.626 18.768C148.306 18.6507 147.986 18.592 147.666 18.592C147.101 18.592 146.594 18.736 146.146 19.024C145.698 19.3013 145.341 19.68 145.074 20.16C144.818 20.64 144.69 21.1893 144.69 21.808C144.69 22.4267 144.818 22.9813 145.074 23.472C145.341 23.952 145.698 24.3307 146.146 24.608C146.594 24.8853 147.095 25.024 147.65 25.024C147.97 25.024 148.285 24.976 148.594 24.88C148.903 24.7733 149.197 24.624 149.474 24.432C149.751 24.24 150.007 24 150.242 23.712L150.946 24.576C150.583 25.056 150.098 25.44 149.49 25.728C148.882 26.016 148.253 26.16 147.602 26.16ZM146.13 29.792L146.018 29.104C146.306 29.0933 146.589 29.0507 146.866 28.976C147.154 28.9013 147.389 28.7947 147.57 28.656C147.762 28.528 147.858 28.384 147.858 28.224C147.858 28.0533 147.773 27.92 147.602 27.824C147.431 27.728 147.229 27.6587 146.994 27.616C146.77 27.584 146.573 27.568 146.402 27.568L146.194 27.408L147.25 25.76H148.066L147.378 26.848C147.89 26.944 148.274 27.104 148.53 27.328C148.786 27.5627 148.914 27.8507 148.914 28.192C148.914 28.4693 148.829 28.7093 148.658 28.912C148.487 29.1253 148.263 29.296 147.986 29.424C147.719 29.552 147.421 29.6427 147.09 29.696C146.77 29.76 146.45 29.792 146.13 29.792ZM155.768 26.16C155.043 26.16 154.387 25.9733 153.8 25.6C153.213 25.216 152.749 24.6987 152.408 24.048C152.067 23.3867 151.896 22.64 151.896 21.808C151.896 20.9653 152.072 20.2187 152.424 19.568C152.776 18.9173 153.245 18.4053 153.832 18.032C154.429 17.6587 155.096 17.472 155.832 17.472C156.269 17.472 156.675 17.536 157.048 17.664C157.421 17.792 157.752 17.9733 158.04 18.208C158.339 18.432 158.584 18.6987 158.776 19.008C158.979 19.3067 159.117 19.632 159.192 19.984L158.84 19.808L158.888 17.648H160.088V26H158.872V23.952L159.192 23.744C159.117 24.064 158.973 24.3733 158.76 24.672C158.547 24.96 158.285 25.216 157.976 25.44C157.677 25.664 157.336 25.84 156.952 25.968C156.579 26.096 156.184 26.16 155.768 26.16ZM156.04 25.008C156.595 25.008 157.091 24.8747 157.528 24.608C157.965 24.3307 158.307 23.952 158.552 23.472C158.808 22.9813 158.936 22.4267 158.936 21.808C158.936 21.1893 158.808 20.64 158.552 20.16C158.307 19.68 157.965 19.3013 157.528 19.024C157.091 18.7467 156.595 18.608 156.04 18.608C155.475 18.608 154.973 18.7467 154.536 19.024C154.109 19.3013 153.768 19.68 153.512 20.16C153.267 20.64 153.144 21.1893 153.144 21.808C153.144 22.416 153.267 22.9653 153.512 23.456C153.757 23.936 154.099 24.3147 154.536 24.592C154.973 24.8693 155.475 25.008 156.04 25.008ZM157.24 16.192C157.016 16.192 156.819 16.144 156.648 16.048C156.488 15.952 156.301 15.808 156.088 15.616C155.939 15.4773 155.811 15.376 155.704 15.312C155.608 15.248 155.507 15.216 155.4 15.216C155.219 15.216 155.064 15.296 154.936 15.456C154.808 15.6053 154.723 15.8347 154.68 16.144L153.816 16.032C153.859 15.552 154.029 15.1467 154.328 14.816C154.627 14.4747 155.011 14.304 155.48 14.304C155.683 14.304 155.864 14.3467 156.024 14.432C156.184 14.5173 156.371 14.656 156.584 14.848C156.744 14.976 156.872 15.0773 156.968 15.152C157.064 15.2267 157.171 15.264 157.288 15.264C157.448 15.264 157.581 15.1893 157.688 15.04C157.805 14.8907 157.88 14.688 157.912 14.432L158.792 14.544C158.771 14.8427 158.691 15.12 158.552 15.376C158.424 15.6213 158.248 15.8187 158.024 15.968C157.8 16.1173 157.539 16.192 157.24 16.192ZM166.122 26.16C165.29 26.16 164.548 25.9733 163.898 25.6C163.258 25.2267 162.751 24.7093 162.378 24.048C162.015 23.3867 161.834 22.6347 161.834 21.792C161.834 20.96 162.015 20.2187 162.378 19.568C162.751 18.9173 163.258 18.4053 163.898 18.032C164.548 17.6587 165.29 17.472 166.122 17.472C166.943 17.472 167.674 17.6587 168.314 18.032C168.964 18.4053 169.471 18.9173 169.834 19.568C170.207 20.2187 170.394 20.96 170.394 21.792C170.394 22.6347 170.207 23.3867 169.834 24.048C169.471 24.7093 168.964 25.2267 168.314 25.6C167.674 25.9733 166.943 26.16 166.122 26.16ZM166.122 25.024C166.708 25.024 167.231 24.8853 167.69 24.608C168.148 24.32 168.506 23.936 168.762 23.456C169.018 22.9653 169.146 22.4107 169.146 21.792C169.146 21.1733 169.018 20.624 168.762 20.144C168.506 19.664 168.148 19.2907 167.69 19.024C167.231 18.7467 166.708 18.608 166.122 18.608C165.535 18.608 165.007 18.7467 164.538 19.024C164.079 19.2907 163.716 19.6693 163.45 20.16C163.194 20.64 163.071 21.184 163.082 21.792C163.071 22.4107 163.194 22.9653 163.45 23.456C163.716 23.936 164.079 24.32 164.538 24.608C165.007 24.8853 165.535 25.024 166.122 25.024Z" fill="#1D1933"/>
</g>
<defs>
<filter id="filter0_d_2772_8689" x="0" y="0" width="185" height="48" filterUnits="userSpaceOnUse" color-interpolation-filters="sRGB">
<feFlood flood-opacity="0" result="BackgroundImageFix"/>
<feColorMatrix in="SourceAlpha" type="matrix" values="0 0 0 0 0 0 0 0 0 0 0 0 0 0 0 0 0 0 127 0" result="hardAlpha"/>
<feOffset dy="4"/>
<feGaussianBlur stdDeviation="2"/>
<feComposite in2="hardAlpha" operator="out"/>
<feColorMatrix type="matrix" values="0 0 0 0 0 0 0 0 0 0 0 0 0 0 0 0 0 0 0.25 0"/>
<feBlend mode="normal" in2="BackgroundImageFix" result="effect1_dropShadow_2772_8689"/>
<feBlend mode="normal" in="SourceGraphic" in2="effect1_dropShadow_2772_8689" result="shape"/>
</filter>
</defs>
</svg>
