<svg width="185" height="48" viewBox="0 0 185 48" fill="none" xmlns="http://www.w3.org/2000/svg">
<g filter="url(#filter0_d_2772_8680)">
<rect x="4" width="177" height="40" rx="2" fill="#E1DDF4" shape-rendering="crispEdges"/>
<path d="M22.7983 22.8187C23.2447 22.9674 23.7256 22.9777 24.1779 22.8483C24.6302 22.7188 25.0329 22.4557 25.333 22.0933V29.0153L17.3331 26V20.9973L22.7983 22.8187Z" fill="#1D1933"/>
<path fill-rule="evenodd" clip-rule="evenodd" d="M34.6662 26L26.6663 29.0153V22.0933C26.9664 22.4557 27.369 22.7188 27.8213 22.8483C28.2737 22.9777 28.7546 22.9674 29.2009 22.8187L34.6662 20.9973V26ZM26.2176 11.0367C26.0764 10.9878 25.9229 10.9878 25.7816 11.0367L17.1164 14.0367L17.1011 14.0413C16.9846 14.0847 16.8825 14.1597 16.8064 14.258L14.1464 17.5833C14.0793 17.6672 14.0333 17.766 14.0126 17.8714C13.9918 17.9768 13.9968 18.0857 14.0272 18.1887C14.0576 18.2918 14.1124 18.386 14.187 18.4633C14.2617 18.5405 14.3538 18.5987 14.4558 18.6326L23.4557 21.6327C23.592 21.678 23.7392 21.678 23.8756 21.6329C24.0119 21.5877 24.13 21.4997 24.2123 21.382L25.9996 18.8287L27.7863 21.382C27.8686 21.4998 27.9868 21.5879 28.1233 21.6331C28.2598 21.6783 28.4072 21.6781 28.5436 21.6327L37.5435 18.6326C37.6455 18.5987 37.7377 18.5407 37.8124 18.4634C37.8871 18.3862 37.942 18.292 37.9725 18.1889C38.0029 18.0859 38.008 17.977 37.9873 17.8715C37.9666 17.7661 37.9207 17.6672 37.8535 17.5833L35.1935 14.258C35.1138 14.1553 35.0058 14.0781 34.8828 14.036L26.2176 11.0367ZM25.9996 16.9613L32.6282 14.6667L25.9996 12.372L19.371 14.6667L25.9996 16.9613Z" fill="#1D1933"/>
<path d="M49.8121 26V14.8H56.5961V16.016H51.0601V24.784H56.5641V26H49.8121ZM50.3881 20.848V19.632H55.7001V20.848H50.3881ZM58.8942 26V17.648H60.0942L60.1262 19.552L59.8862 19.632C59.9715 19.312 60.1102 19.024 60.3022 18.768C60.5049 18.5013 60.7449 18.272 61.0222 18.08C61.2995 17.888 61.6035 17.744 61.9342 17.648C62.2649 17.5413 62.6115 17.488 62.9742 17.488C63.4115 17.488 63.8009 17.5627 64.1422 17.712C64.4942 17.8507 64.7875 18.096 65.0222 18.448C65.2675 18.7893 65.4542 19.2427 65.5822 19.808L65.2942 19.664L65.4062 19.392C65.5129 19.1467 65.6675 18.912 65.8702 18.688C66.0835 18.4533 66.3235 18.2453 66.5902 18.064C66.8675 17.8827 67.1662 17.744 67.4862 17.648C67.8169 17.5413 68.1529 17.488 68.4942 17.488C69.0809 17.488 69.5769 17.616 69.9822 17.872C70.3875 18.1173 70.6915 18.496 70.8942 19.008C71.1075 19.52 71.2142 20.1707 71.2142 20.96V26H69.9822V21.024C69.9822 20.4693 69.9129 20.016 69.7742 19.664C69.6355 19.312 69.4275 19.0507 69.1502 18.88C68.8835 18.6987 68.5422 18.608 68.1262 18.608C67.7635 18.608 67.4275 18.672 67.1182 18.8C66.8195 18.9173 66.5582 19.088 66.3342 19.312C66.1209 19.5253 65.9502 19.7707 65.8222 20.048C65.7049 20.3253 65.6462 20.624 65.6462 20.944V26H64.4302V21.008C64.4302 20.4747 64.3555 20.032 64.2062 19.68C64.0675 19.328 63.8595 19.0613 63.5822 18.88C63.3049 18.6987 62.9635 18.608 62.5582 18.608C62.2062 18.608 61.8809 18.672 61.5822 18.8C61.2835 18.9173 61.0222 19.0827 60.7982 19.296C60.5849 19.5093 60.4142 19.7547 60.2862 20.032C60.1689 20.3093 60.1102 20.608 60.1102 20.928V26H58.8942ZM78.4527 26V14.8H85.2367V16.016H79.7007V24.784H85.2047V26H78.4527ZM79.0287 20.848V19.632H84.3407V20.848H79.0287ZM90.2868 26.16C89.5721 26.16 88.9321 26.0267 88.3668 25.76C87.8015 25.4933 87.3535 25.1413 87.0228 24.704L87.8708 23.968C88.1801 24.3413 88.5428 24.624 88.9588 24.816C89.3855 25.008 89.8601 25.104 90.3828 25.104C90.6495 25.104 90.8895 25.0773 91.1028 25.024C91.3161 24.96 91.5028 24.8693 91.6628 24.752C91.8228 24.6347 91.9455 24.496 92.0308 24.336C92.1161 24.176 92.1588 24 92.1588 23.808C92.1588 23.456 92.0041 23.1627 91.6948 22.928C91.5561 22.832 91.3588 22.736 91.1028 22.64C90.8468 22.5333 90.5375 22.432 90.1748 22.336C89.5775 22.1653 89.0815 21.9947 88.6868 21.824C88.2921 21.6427 87.9828 21.4347 87.7588 21.2C87.5988 21.008 87.4761 20.8 87.3908 20.576C87.3161 20.352 87.2788 20.1067 87.2788 19.84C87.2788 19.4987 87.3481 19.184 87.4868 18.896C87.6361 18.608 87.8388 18.3573 88.0948 18.144C88.3615 17.92 88.6708 17.7547 89.0228 17.648C89.3855 17.5307 89.7748 17.472 90.1908 17.472C90.5855 17.472 90.9748 17.5253 91.3588 17.632C91.7428 17.7387 92.1001 17.8933 92.4308 18.096C92.7615 18.2987 93.0441 18.5387 93.2788 18.816L92.5428 19.616C92.3401 19.4027 92.1161 19.2107 91.8708 19.04C91.6255 18.8693 91.3641 18.736 91.0868 18.64C90.8201 18.544 90.5428 18.496 90.2548 18.496C89.9988 18.496 89.7588 18.528 89.5348 18.592C89.3215 18.656 89.1348 18.7467 88.9748 18.864C88.8255 18.9707 88.7081 19.104 88.6228 19.264C88.5481 19.424 88.5108 19.6 88.5108 19.792C88.5108 19.952 88.5428 20.096 88.6068 20.224C88.6708 20.352 88.7615 20.464 88.8788 20.56C89.0281 20.6773 89.2361 20.7893 89.5028 20.896C89.7801 20.992 90.1215 21.0933 90.5268 21.2C90.9961 21.328 91.3908 21.4613 91.7108 21.6C92.0415 21.728 92.3135 21.8827 92.5268 22.064C92.8148 22.2773 93.0175 22.5227 93.1348 22.8C93.2628 23.0773 93.3268 23.392 93.3268 23.744C93.3268 24.2133 93.1935 24.6293 92.9268 24.992C92.6708 25.3547 92.3135 25.6427 91.8548 25.856C91.3961 26.0587 90.8735 26.16 90.2868 26.16ZM96.3591 26V15.456H97.5591V26H96.3591ZM94.4711 18.8V17.648H99.6711V18.8H94.4711ZM104.762 26.16C103.93 26.16 103.189 25.9733 102.538 25.6C101.898 25.2267 101.392 24.7093 101.018 24.048C100.656 23.3867 100.474 22.6347 100.474 21.792C100.474 20.96 100.656 20.2187 101.018 19.568C101.392 18.9173 101.898 18.4053 102.538 18.032C103.189 17.6587 103.93 17.472 104.762 17.472C105.584 17.472 106.314 17.6587 106.954 18.032C107.605 18.4053 108.112 18.9173 108.474 19.568C108.848 20.2187 109.034 20.96 109.034 21.792C109.034 22.6347 108.848 23.3867 108.474 24.048C108.112 24.7093 107.605 25.2267 106.954 25.6C106.314 25.9733 105.584 26.16 104.762 26.16ZM104.762 25.024C105.349 25.024 105.872 24.8853 106.33 24.608C106.789 24.32 107.146 23.936 107.402 23.456C107.658 22.9653 107.786 22.4107 107.786 21.792C107.786 21.1733 107.658 20.624 107.402 20.144C107.146 19.664 106.789 19.2907 106.33 19.024C105.872 18.7467 105.349 18.608 104.762 18.608C104.176 18.608 103.648 18.7467 103.178 19.024C102.72 19.2907 102.357 19.6693 102.09 20.16C101.834 20.64 101.712 21.184 101.722 21.792C101.712 22.4107 101.834 22.9653 102.09 23.456C102.357 23.936 102.72 24.32 103.178 24.608C103.648 24.8853 104.176 25.024 104.762 25.024ZM117.169 29.52V23.952L117.425 23.808C117.383 24.1067 117.26 24.4 117.057 24.688C116.865 24.9653 116.62 25.216 116.321 25.44C116.023 25.664 115.687 25.84 115.313 25.968C114.94 26.096 114.556 26.16 114.161 26.16C113.404 26.16 112.727 25.9733 112.129 25.6C111.532 25.2267 111.057 24.7147 110.705 24.064C110.364 23.4027 110.193 22.656 110.193 21.824C110.193 20.9813 110.364 20.2347 110.705 19.584C111.057 18.9227 111.532 18.4053 112.129 18.032C112.727 17.6587 113.393 17.472 114.129 17.472C114.556 17.472 114.956 17.5413 115.329 17.68C115.713 17.808 116.06 17.984 116.369 18.208C116.679 18.432 116.935 18.6933 117.137 18.992C117.34 19.28 117.463 19.584 117.505 19.904L117.121 19.808L117.169 17.632H118.369V29.52H117.169ZM114.305 25.008C114.86 25.008 115.356 24.8747 115.793 24.608C116.241 24.3307 116.593 23.952 116.849 23.472C117.105 22.992 117.233 22.4373 117.233 21.808C117.233 21.1893 117.105 20.64 116.849 20.16C116.593 19.68 116.247 19.3013 115.809 19.024C115.372 18.7467 114.871 18.608 114.305 18.608C113.74 18.608 113.239 18.7467 112.801 19.024C112.364 19.3013 112.017 19.68 111.761 20.16C111.516 20.64 111.393 21.1893 111.393 21.808C111.393 22.416 111.516 22.9653 111.761 23.456C112.007 23.936 112.348 24.3147 112.785 24.592C113.223 24.8693 113.729 25.008 114.305 25.008ZM123.667 26.16C123.027 26.16 122.483 26.032 122.035 25.776C121.598 25.5093 121.262 25.1253 121.027 24.624C120.803 24.1227 120.691 23.4987 120.691 22.752V17.648H121.907V22.512C121.907 23.0773 121.982 23.552 122.131 23.936C122.291 24.3093 122.526 24.592 122.835 24.784C123.155 24.976 123.544 25.072 124.003 25.072C124.355 25.072 124.68 25.0133 124.979 24.896C125.278 24.768 125.539 24.5973 125.763 24.384C125.987 24.1707 126.163 23.92 126.291 23.632C126.419 23.344 126.483 23.04 126.483 22.72V17.648H127.683V26H126.499L126.451 24.24L126.643 24.144C126.515 24.5173 126.302 24.8587 126.003 25.168C125.704 25.4667 125.347 25.7067 124.931 25.888C124.526 26.0693 124.104 26.16 123.667 26.16ZM133.7 26.16C132.868 26.16 132.126 25.9787 131.476 25.616C130.836 25.2533 130.334 24.7467 129.972 24.096C129.609 23.4453 129.428 22.6987 129.428 21.856C129.428 21.2053 129.529 20.6187 129.732 20.096C129.934 19.5627 130.217 19.0987 130.58 18.704C130.953 18.3093 131.396 18.0053 131.908 17.792C132.42 17.568 132.974 17.456 133.572 17.456C134.137 17.456 134.649 17.5573 135.108 17.76C135.577 17.9627 135.977 18.2453 136.308 18.608C136.649 18.96 136.905 19.3813 137.076 19.872C137.246 20.3627 137.321 20.9013 137.3 21.488L137.284 22.048H130.324L130.148 21.04H136.372L136.084 21.312V20.928C136.062 20.544 135.95 20.176 135.748 19.824C135.545 19.4613 135.257 19.168 134.884 18.944C134.521 18.72 134.084 18.608 133.572 18.608C132.974 18.608 132.457 18.7307 132.02 18.976C131.582 19.2107 131.246 19.5627 131.012 20.032C130.777 20.5013 130.66 21.0827 130.66 21.776C130.66 22.4373 130.788 23.0133 131.044 23.504C131.3 23.984 131.662 24.3573 132.132 24.624C132.612 24.8907 133.188 25.024 133.86 25.024C134.254 25.024 134.644 24.96 135.028 24.832C135.422 24.6933 135.854 24.4267 136.324 24.032L136.948 24.896C136.702 25.1413 136.409 25.36 136.068 25.552C135.726 25.7333 135.353 25.8827 134.948 26C134.542 26.1067 134.126 26.16 133.7 26.16Z" fill="#1D1933"/>
</g>
<defs>
<filter id="filter0_d_2772_8680" x="0" y="0" width="185" height="48" filterUnits="userSpaceOnUse" color-interpolation-filters="sRGB">
<feFlood flood-opacity="0" result="BackgroundImageFix"/>
<feColorMatrix in="SourceAlpha" type="matrix" values="0 0 0 0 0 0 0 0 0 0 0 0 0 0 0 0 0 0 127 0" result="hardAlpha"/>
<feOffset dy="4"/>
<feGaussianBlur stdDeviation="2"/>
<feComposite in2="hardAlpha" operator="out"/>
<feColorMatrix type="matrix" values="0 0 0 0 0 0 0 0 0 0 0 0 0 0 0 0 0 0 0.25 0"/>
<feBlend mode="normal" in2="BackgroundImageFix" result="effect1_dropShadow_2772_8680"/>
<feBlend mode="normal" in="SourceGraphic" in2="effect1_dropShadow_2772_8680" result="shape"/>
</filter>
</defs>
</svg>
