<svg width="177" height="39" viewBox="0 0 177 39" fill="none" xmlns="http://www.w3.org/2000/svg">
<rect x="0.5" y="0.5" width="176" height="37.0125" rx="1.5" stroke="#463C61"/>
<path d="M21.2 19C21.2 18.1167 20.8875 17.3625 20.2625 16.7375C19.6375 16.1125 18.8833 15.8 18 15.8C17.1167 15.8 16.3625 16.1125 15.7375 16.7375C15.1125 17.3625 14.8 18.1167 14.8 19C14.8 19.8833 15.1125 20.6375 15.7375 21.2625C16.3625 21.8875 17.1167 22.2 18 22.2C18.8833 22.2 19.6375 21.8875 20.2625 21.2625C20.8875 20.6375 21.2 19.8833 21.2 19ZM30.8 25.4C30.8 24.9667 30.6417 24.5917 30.325 24.275C30.0083 23.9583 29.6333 23.8 29.2 23.8C28.7667 23.8 28.3917 23.9583 28.075 24.275C27.7583 24.5917 27.6 24.9667 27.6 25.4C27.6 25.8417 27.7563 26.2188 28.0688 26.5312C28.3813 26.8438 28.7583 27 29.2 27C29.6417 27 30.0188 26.8438 30.3313 26.5312C30.6438 26.2188 30.8 25.8417 30.8 25.4ZM30.8 12.6C30.8 12.1667 30.6417 11.7917 30.325 11.475C30.0083 11.1583 29.6333 11 29.2 11C28.7667 11 28.3917 11.1583 28.075 11.475C27.7583 11.7917 27.6 12.1667 27.6 12.6C27.6 13.0417 27.7563 13.4188 28.0688 13.7313C28.3813 14.0438 28.7583 14.2 29.2 14.2C29.6417 14.2 30.0188 14.0438 30.3313 13.7313C30.6438 13.4188 30.8 13.0417 30.8 12.6ZM26 17.8625V20.175C26 20.2583 25.9708 20.3396 25.9125 20.4187C25.8542 20.4979 25.7875 20.5417 25.7125 20.55L23.775 20.85C23.6833 21.1417 23.55 21.4583 23.375 21.8C23.6583 22.2 24.0333 22.6792 24.5 23.2375C24.5583 23.3292 24.5875 23.4125 24.5875 23.4875C24.5875 23.5875 24.5583 23.6667 24.5 23.725C24.3083 23.975 23.9646 24.3479 23.4688 24.8438C22.9729 25.3396 22.6458 25.5875 22.4875 25.5875C22.3958 25.5875 22.3083 25.5583 22.225 25.5L20.7875 24.375C20.4792 24.5333 20.1583 24.6625 19.825 24.7625C19.7333 25.6625 19.6375 26.3083 19.5375 26.7C19.4792 26.9 19.3542 27 19.1625 27H16.8375C16.7458 27 16.6625 26.9688 16.5875 26.9062C16.5125 26.8438 16.4708 26.7708 16.4625 26.6875L16.175 24.775C15.8917 24.6917 15.5792 24.5625 15.2375 24.3875L13.7625 25.5C13.7042 25.5583 13.6208 25.5875 13.5125 25.5875C13.4208 25.5875 13.3333 25.5542 13.25 25.4875C12.05 24.3792 11.45 23.7125 11.45 23.4875C11.45 23.4125 11.4792 23.3333 11.5375 23.25C11.6208 23.1333 11.7917 22.9125 12.05 22.5875C12.3083 22.2625 12.5042 22.0083 12.6375 21.825C12.4458 21.4583 12.3 21.1167 12.2 20.8L10.3 20.5C10.2167 20.4917 10.1458 20.4521 10.0875 20.3813C10.0292 20.3104 10 20.2292 10 20.1375V17.825C10 17.7417 10.0292 17.6604 10.0875 17.5813C10.1458 17.5021 10.2125 17.4583 10.2875 17.45L12.225 17.15C12.3167 16.8583 12.45 16.5417 12.625 16.2C12.3417 15.8 11.9667 15.3208 11.5 14.7625C11.4417 14.6708 11.4125 14.5875 11.4125 14.5125C11.4125 14.4125 11.4417 14.3292 11.5 14.2625C11.6833 14.0125 12.025 13.6417 12.525 13.15C13.025 12.6583 13.3542 12.4125 13.5125 12.4125C13.6042 12.4125 13.6917 12.4417 13.775 12.5L15.2125 13.625C15.4958 13.475 15.8167 13.3417 16.175 13.225C16.2667 12.325 16.3625 11.6833 16.4625 11.3C16.5208 11.1 16.6458 11 16.8375 11H19.1625C19.2542 11 19.3375 11.0312 19.4125 11.0938C19.4875 11.1562 19.5292 11.2292 19.5375 11.3125L19.825 13.225C20.1083 13.3083 20.4208 13.4375 20.7625 13.6125L22.2375 12.5C22.3042 12.4417 22.3875 12.4125 22.4875 12.4125C22.5792 12.4125 22.6667 12.4458 22.75 12.5125C23.95 13.6208 24.55 14.2875 24.55 14.5125C24.55 14.5792 24.5208 14.6583 24.4625 14.75C24.3625 14.8833 24.1875 15.1083 23.9375 15.425C23.6875 15.7417 23.5 15.9917 23.375 16.175C23.5667 16.575 23.7083 16.9167 23.8 17.2L25.7 17.4875C25.7833 17.5042 25.8542 17.5479 25.9125 17.6188C25.9708 17.6896 26 17.7708 26 17.8625ZM34 24.525V26.275C34 26.4083 33.3792 26.5375 32.1375 26.6625C32.0375 26.8875 31.9125 27.1042 31.7625 27.3125C32.1875 28.2542 32.4 28.8292 32.4 29.0375C32.4 29.0708 32.3833 29.1 32.35 29.125C31.3333 29.7167 30.8167 30.0125 30.8 30.0125C30.7333 30.0125 30.5417 29.8167 30.225 29.425C29.9083 29.0333 29.6917 28.75 29.575 28.575C29.4083 28.5917 29.2833 28.6 29.2 28.6C29.1167 28.6 28.9917 28.5917 28.825 28.575C28.7083 28.75 28.4917 29.0333 28.175 29.425C27.8583 29.8167 27.6667 30.0125 27.6 30.0125C27.5833 30.0125 27.0667 29.7167 26.05 29.125C26.0167 29.1 26 29.0708 26 29.0375C26 28.8292 26.2125 28.2542 26.6375 27.3125C26.4875 27.1042 26.3625 26.8875 26.2625 26.6625C25.0208 26.5375 24.4 26.4083 24.4 26.275V24.525C24.4 24.3917 25.0208 24.2625 26.2625 24.1375C26.3708 23.8958 26.4958 23.6792 26.6375 23.4875C26.2125 22.5458 26 21.9708 26 21.7625C26 21.7292 26.0167 21.7 26.05 21.675C26.0833 21.6583 26.2292 21.575 26.4875 21.425C26.7458 21.275 26.9917 21.1333 27.225 21C27.4583 20.8667 27.5833 20.8 27.6 20.8C27.6667 20.8 27.8583 20.9938 28.175 21.3813C28.4917 21.7688 28.7083 22.05 28.825 22.225C28.9917 22.2083 29.1167 22.2 29.2 22.2C29.2833 22.2 29.4083 22.2083 29.575 22.225C30 21.6333 30.3833 21.1667 30.725 20.825L30.8 20.8C30.8333 20.8 31.35 21.0917 32.35 21.675C32.3833 21.7 32.4 21.7292 32.4 21.7625C32.4 21.9708 32.1875 22.5458 31.7625 23.4875C31.9042 23.6792 32.0292 23.8958 32.1375 24.1375C33.3792 24.2625 34 24.3917 34 24.525ZM34 11.725V13.475C34 13.6083 33.3792 13.7375 32.1375 13.8625C32.0375 14.0875 31.9125 14.3042 31.7625 14.5125C32.1875 15.4542 32.4 16.0292 32.4 16.2375C32.4 16.2708 32.3833 16.3 32.35 16.325C31.3333 16.9167 30.8167 17.2125 30.8 17.2125C30.7333 17.2125 30.5417 17.0167 30.225 16.625C29.9083 16.2333 29.6917 15.95 29.575 15.775C29.4083 15.7917 29.2833 15.8 29.2 15.8C29.1167 15.8 28.9917 15.7917 28.825 15.775C28.7083 15.95 28.4917 16.2333 28.175 16.625C27.8583 17.0167 27.6667 17.2125 27.6 17.2125C27.5833 17.2125 27.0667 16.9167 26.05 16.325C26.0167 16.3 26 16.2708 26 16.2375C26 16.0292 26.2125 15.4542 26.6375 14.5125C26.4875 14.3042 26.3625 14.0875 26.2625 13.8625C25.0208 13.7375 24.4 13.6083 24.4 13.475V11.725C24.4 11.5917 25.0208 11.4625 26.2625 11.3375C26.3708 11.0958 26.4958 10.8792 26.6375 10.6875C26.2125 9.74583 26 9.17083 26 8.9625C26 8.92917 26.0167 8.9 26.05 8.875C26.0833 8.85833 26.2292 8.775 26.4875 8.625C26.7458 8.475 26.9917 8.33333 27.225 8.2C27.4583 8.06667 27.5833 8 27.6 8C27.6667 8 27.8583 8.19375 28.175 8.58125C28.4917 8.96875 28.7083 9.25 28.825 9.425C28.9917 9.40833 29.1167 9.4 29.2 9.4C29.2833 9.4 29.4083 9.40833 29.575 9.425C30 8.83333 30.3833 8.36667 30.725 8.025L30.8 8C30.8333 8 31.35 8.29167 32.35 8.875C32.3833 8.9 32.4 8.92917 32.4 8.9625C32.4 9.17083 32.1875 9.74583 31.7625 10.6875C31.9042 10.8792 32.0292 11.0958 32.1375 11.3375C33.3792 11.4625 34 11.5917 34 11.725Z" fill="#E1DDF4"/>
<path d="M45.9839 25.0062V13.8062H52.7679V15.0222H47.2319V23.7902H52.7359V25.0062H45.9839ZM46.5599 19.8542V18.6382H51.8719V19.8542H46.5599ZM55.0661 25.0062V16.6542H56.2661L56.2981 18.5582L56.0581 18.6382C56.1434 18.3182 56.2821 18.0302 56.4741 17.7742C56.6767 17.5076 56.9167 17.2782 57.1941 17.0862C57.4714 16.8942 57.7754 16.7502 58.1061 16.6542C58.4367 16.5476 58.7834 16.4942 59.1461 16.4942C59.5834 16.4942 59.9727 16.5689 60.3141 16.7182C60.6661 16.8569 60.9594 17.1022 61.1941 17.4542C61.4394 17.7956 61.6261 18.2489 61.7541 18.8142L61.4661 18.6702L61.5781 18.3982C61.6847 18.1529 61.8394 17.9182 62.0421 17.6942C62.2554 17.4596 62.4954 17.2516 62.7621 17.0702C63.0394 16.8889 63.3381 16.7502 63.6581 16.6542C63.9887 16.5476 64.3247 16.4942 64.6661 16.4942C65.2527 16.4942 65.7487 16.6222 66.1541 16.8782C66.5594 17.1236 66.8634 17.5022 67.0661 18.0142C67.2794 18.5262 67.3861 19.1769 67.3861 19.9662V25.0062H66.1541V20.0302C66.1541 19.4756 66.0847 19.0222 65.9461 18.6702C65.8074 18.3182 65.5994 18.0569 65.3221 17.8862C65.0554 17.7049 64.7141 17.6142 64.2981 17.6142C63.9354 17.6142 63.5994 17.6782 63.2901 17.8062C62.9914 17.9236 62.7301 18.0942 62.5061 18.3182C62.2927 18.5316 62.1221 18.7769 61.9941 19.0542C61.8767 19.3316 61.8181 19.6302 61.8181 19.9502V25.0062H60.6021V20.0142C60.6021 19.4809 60.5274 19.0382 60.3781 18.6862C60.2394 18.3342 60.0314 18.0676 59.7541 17.8862C59.4767 17.7049 59.1354 17.6142 58.7301 17.6142C58.3781 17.6142 58.0527 17.6782 57.7541 17.8062C57.4554 17.9236 57.1941 18.0889 56.9701 18.3022C56.7567 18.5156 56.5861 18.7609 56.4581 19.0382C56.3407 19.3156 56.2821 19.6142 56.2821 19.9342V25.0062H55.0661ZM77.1046 25.1662C76.4646 25.1662 75.9206 25.0382 75.4726 24.7822C75.0352 24.5156 74.6992 24.1316 74.4646 23.6302C74.2406 23.1289 74.1286 22.5049 74.1286 21.7582V16.6542H75.3446V21.5182C75.3446 22.0836 75.4192 22.5582 75.5686 22.9422C75.7286 23.3156 75.9632 23.5982 76.2726 23.7902C76.5926 23.9822 76.9819 24.0782 77.4406 24.0782C77.7926 24.0782 78.1179 24.0196 78.4166 23.9022C78.7152 23.7742 78.9766 23.6036 79.2006 23.3902C79.4246 23.1769 79.6006 22.9262 79.7286 22.6382C79.8566 22.3502 79.9206 22.0462 79.9206 21.7262V16.6542H81.1206V25.0062H79.9366L79.8886 23.2462L80.0806 23.1502C79.9526 23.5236 79.7392 23.8649 79.4406 24.1742C79.1419 24.4729 78.7846 24.7129 78.3686 24.8942C77.9632 25.0756 77.5419 25.1662 77.1046 25.1662ZM86.1931 25.1662C85.4784 25.1662 84.8384 25.0329 84.2731 24.7662C83.7077 24.4996 83.2597 24.1476 82.9291 23.7102L83.7771 22.9742C84.0864 23.3476 84.4491 23.6302 84.8651 23.8222C85.2917 24.0142 85.7664 24.1102 86.2891 24.1102C86.5557 24.1102 86.7957 24.0836 87.0091 24.0302C87.2224 23.9662 87.4091 23.8756 87.5691 23.7582C87.7291 23.6409 87.8517 23.5022 87.9371 23.3422C88.0224 23.1822 88.0651 23.0062 88.0651 22.8142C88.0651 22.4622 87.9104 22.1689 87.6011 21.9342C87.4624 21.8382 87.2651 21.7422 87.0091 21.6462C86.7531 21.5396 86.4437 21.4382 86.0811 21.3422C85.4837 21.1716 84.9877 21.0009 84.5931 20.8302C84.1984 20.6489 83.8891 20.4409 83.6651 20.2062C83.5051 20.0142 83.3824 19.8062 83.2971 19.5822C83.2224 19.3582 83.1851 19.1129 83.1851 18.8462C83.1851 18.5049 83.2544 18.1902 83.3931 17.9022C83.5424 17.6142 83.7451 17.3636 84.0011 17.1502C84.2677 16.9262 84.5771 16.7609 84.9291 16.6542C85.2917 16.5369 85.6811 16.4782 86.0971 16.4782C86.4917 16.4782 86.8811 16.5316 87.2651 16.6382C87.6491 16.7449 88.0064 16.8996 88.3371 17.1022C88.6677 17.3049 88.9504 17.5449 89.1851 17.8222L88.4491 18.6222C88.2464 18.4089 88.0224 18.2169 87.7771 18.0462C87.5317 17.8756 87.2704 17.7422 86.9931 17.6462C86.7264 17.5502 86.4491 17.5022 86.1611 17.5022C85.9051 17.5022 85.6651 17.5342 85.4411 17.5982C85.2277 17.6622 85.0411 17.7529 84.8811 17.8702C84.7317 17.9769 84.6144 18.1102 84.5291 18.2702C84.4544 18.4302 84.4171 18.6062 84.4171 18.7982C84.4171 18.9582 84.4491 19.1022 84.5131 19.2302C84.5771 19.3582 84.6677 19.4702 84.7851 19.5662C84.9344 19.6836 85.1424 19.7956 85.4091 19.9022C85.6864 19.9982 86.0277 20.0996 86.4331 20.2062C86.9024 20.3342 87.2971 20.4676 87.6171 20.6062C87.9477 20.7342 88.2197 20.8889 88.4331 21.0702C88.7211 21.2836 88.9237 21.5289 89.0411 21.8062C89.1691 22.0836 89.2331 22.3982 89.2331 22.7502C89.2331 23.2196 89.0997 23.6356 88.8331 23.9982C88.5771 24.3609 88.2197 24.6489 87.7611 24.8622C87.3024 25.0649 86.7797 25.1662 86.1931 25.1662ZM94.8093 25.1662C93.9773 25.1662 93.236 24.9796 92.5853 24.6062C91.9453 24.2329 91.4386 23.7156 91.0653 23.0542C90.7026 22.3929 90.5213 21.6409 90.5213 20.7982C90.5213 19.9662 90.7026 19.2249 91.0653 18.5742C91.4386 17.9236 91.9453 17.4116 92.5853 17.0382C93.236 16.6649 93.9773 16.4782 94.8093 16.4782C95.6306 16.4782 96.3613 16.6649 97.0013 17.0382C97.652 17.4116 98.1586 17.9236 98.5213 18.5742C98.8946 19.2249 99.0813 19.9662 99.0813 20.7982C99.0813 21.6409 98.8946 22.3929 98.5213 23.0542C98.1586 23.7156 97.652 24.2329 97.0013 24.6062C96.3613 24.9796 95.6306 25.1662 94.8093 25.1662ZM94.8093 24.0302C95.396 24.0302 95.9186 23.8916 96.3773 23.6142C96.836 23.3262 97.1933 22.9422 97.4493 22.4622C97.7053 21.9716 97.8333 21.4169 97.8333 20.7982C97.8333 20.1796 97.7053 19.6302 97.4493 19.1502C97.1933 18.6702 96.836 18.2969 96.3773 18.0302C95.9186 17.7529 95.396 17.6142 94.8093 17.6142C94.2226 17.6142 93.6946 17.7529 93.2253 18.0302C92.7666 18.2969 92.404 18.6756 92.1373 19.1662C91.8813 19.6462 91.7586 20.1902 91.7693 20.7982C91.7586 21.4169 91.8813 21.9716 92.1373 22.4622C92.404 22.9422 92.7666 23.3262 93.2253 23.6142C93.6946 23.8916 94.2226 24.0302 94.8093 24.0302Z" fill="white"/>
</svg>
