<svg width="185" height="48" viewBox="0 0 185 48" fill="none" xmlns="http://www.w3.org/2000/svg">
<g filter="url(#filter0_d_2772_8653)">
<rect x="4" width="177" height="40" rx="2" fill="#E1DDF4" shape-rendering="crispEdges"/>
<path d="M33 10C34.6569 10 36 11.3431 36 13V27C36 28.6569 34.6569 30 33 30H19C17.3431 30 16 28.6569 16 27V13C16 11.3431 17.3431 10 19 10H33ZM25.9199 23.3115C25.5146 23.3115 25.1837 23.4453 24.9277 23.7119C24.6718 23.9786 24.544 24.3254 24.5439 24.752C24.5439 25.2106 24.6618 25.5623 24.8965 25.8076C25.1418 26.0529 25.4827 26.1758 25.9199 26.1758C26.3357 26.1758 26.6718 26.0428 26.9277 25.7764C27.1837 25.5097 27.3125 25.168 27.3125 24.752C27.3125 24.2935 27.1895 23.9416 26.9443 23.6963C26.699 23.4403 26.3573 23.3115 25.9199 23.3115ZM26.1924 14.5596C25.467 14.5596 24.7677 14.7626 24.0957 15.168C23.4345 15.5733 22.8637 16.144 22.3838 16.8799L24.1279 18.4961C24.4266 17.9414 24.7525 17.5412 25.1045 17.2959C25.4564 17.0401 25.8083 16.9121 26.1602 16.9121C26.4054 16.9121 26.6185 16.9548 26.7998 17.04C26.9811 17.1254 27.1258 17.2482 27.2324 17.4082C27.3389 17.5575 27.3916 17.739 27.3916 17.9521C27.3916 18.1653 27.3439 18.3677 27.248 18.5596C27.152 18.7409 27.0183 18.9123 26.8477 19.0723C26.6877 19.2215 26.4904 19.3544 26.2559 19.4717C26.0213 19.589 25.7655 19.701 25.4883 19.8076C25.211 19.9036 24.9176 19.9898 24.6084 20.0645L25.1201 22.1602H26.4961L26.6562 21.5518C27.1361 21.4131 27.5732 21.2159 27.9678 20.96C28.3624 20.704 28.7042 20.4107 28.9922 20.0801C29.2908 19.7388 29.5197 19.3761 29.6797 18.9922C29.8503 18.6083 29.9355 18.2188 29.9355 17.8242C29.9355 17.2057 29.771 16.6508 29.4404 16.1602C29.1098 15.6588 28.661 15.2695 28.0957 14.9922C27.5305 14.7043 26.8962 14.5596 26.1924 14.5596Z" fill="#1D1933"/>
<path d="M49.7496 26V14.8H56.5336V16.016H50.9976V24.784H56.5016V26H49.7496ZM50.3256 20.848V19.632H55.6376V20.848H50.3256ZM64.5277 26L61.6317 22.272L61.4877 22.096L58.0157 17.648H59.5357L62.3837 21.312L62.5437 21.52L66.0317 26H64.5277ZM57.9517 26L61.3597 21.6L62.0797 22.464L59.3917 26H57.9517ZM62.6237 21.904L61.9357 21.056L64.3677 17.648H65.8237L62.6237 21.904ZM68.6091 26V15.456H69.8091V26H68.6091ZM66.7211 18.8V17.648H71.9211V18.8H66.7211ZM73.3946 26V17.648H74.5946L74.6266 19.872L74.4986 19.568C74.6159 19.1947 74.8026 18.848 75.0586 18.528C75.3252 18.208 75.6399 17.952 76.0026 17.76C76.3652 17.568 76.7652 17.472 77.2026 17.472C77.3839 17.472 77.5546 17.488 77.7146 17.52C77.8746 17.5413 78.0079 17.5733 78.1146 17.616L77.7786 18.96C77.6399 18.896 77.4959 18.8533 77.3466 18.832C77.2079 18.8 77.0746 18.784 76.9466 18.784C76.5839 18.784 76.2586 18.848 75.9706 18.976C75.6826 19.104 75.4372 19.2853 75.2346 19.52C75.0319 19.744 74.8772 20.0053 74.7706 20.304C74.6639 20.6027 74.6106 20.9227 74.6106 21.264V26H73.3946ZM82.2679 26.16C81.5426 26.16 80.8866 25.9733 80.2999 25.6C79.7133 25.216 79.2493 24.6987 78.9079 24.048C78.5666 23.3867 78.3959 22.64 78.3959 21.808C78.3959 20.9653 78.5719 20.2187 78.9239 19.568C79.2759 18.9173 79.7453 18.4053 80.3319 18.032C80.9293 17.6587 81.5959 17.472 82.3319 17.472C82.7693 17.472 83.1746 17.536 83.5479 17.664C83.9213 17.792 84.2519 17.9733 84.5399 18.208C84.8386 18.432 85.0839 18.6987 85.2759 19.008C85.4786 19.3067 85.6173 19.632 85.6919 19.984L85.3399 19.808L85.3879 17.648H86.5879V26H85.3719V23.952L85.6919 23.744C85.6173 24.064 85.4733 24.3733 85.2599 24.672C85.0466 24.96 84.7853 25.216 84.4759 25.44C84.1773 25.664 83.8359 25.84 83.4519 25.968C83.0786 26.096 82.6839 26.16 82.2679 26.16ZM82.5399 25.008C83.0946 25.008 83.5906 24.8747 84.0279 24.608C84.4653 24.3307 84.8066 23.952 85.0519 23.472C85.3079 22.9813 85.4359 22.4267 85.4359 21.808C85.4359 21.1893 85.3079 20.64 85.0519 20.16C84.8066 19.68 84.4653 19.3013 84.0279 19.024C83.5906 18.7467 83.0946 18.608 82.5399 18.608C81.9746 18.608 81.4733 18.7467 81.0359 19.024C80.6093 19.3013 80.2679 19.68 80.0119 20.16C79.7666 20.64 79.6439 21.1893 79.6439 21.808C79.6439 22.416 79.7666 22.9653 80.0119 23.456C80.2573 23.936 80.5986 24.3147 81.0359 24.592C81.4733 24.8693 81.9746 25.008 82.5399 25.008ZM91.3303 26L87.8103 17.648H89.1383L91.9223 24.48L91.6023 24.656L94.6583 17.648H95.9383L92.1943 26H91.3303ZM97.6677 26V17.648H98.8677V26H97.6677ZM98.2597 15.84C97.961 15.84 97.7317 15.7653 97.5717 15.616C97.4224 15.456 97.3477 15.2427 97.3477 14.976C97.3477 14.7093 97.4277 14.496 97.5877 14.336C97.7477 14.176 97.9717 14.096 98.2597 14.096C98.5477 14.096 98.7717 14.176 98.9317 14.336C99.0917 14.4853 99.1717 14.6987 99.1717 14.976C99.1717 15.232 99.0917 15.44 98.9317 15.6C98.7717 15.76 98.5477 15.84 98.2597 15.84ZM104.752 26.16C104.027 26.16 103.371 25.9733 102.784 25.6C102.198 25.216 101.734 24.6987 101.392 24.048C101.051 23.3867 100.88 22.64 100.88 21.808C100.88 20.9653 101.056 20.2187 101.408 19.568C101.76 18.9173 102.23 18.4053 102.816 18.032C103.414 17.6587 104.08 17.472 104.816 17.472C105.254 17.472 105.659 17.536 106.032 17.664C106.406 17.792 106.736 17.9733 107.024 18.208C107.323 18.432 107.568 18.6987 107.76 19.008C107.963 19.3067 108.102 19.632 108.176 19.984L107.824 19.808L107.872 17.648H109.072V26H107.856V23.952L108.176 23.744C108.102 24.064 107.958 24.3733 107.744 24.672C107.531 24.96 107.27 25.216 106.96 25.44C106.662 25.664 106.32 25.84 105.936 25.968C105.563 26.096 105.168 26.16 104.752 26.16ZM105.024 25.008C105.579 25.008 106.075 24.8747 106.512 24.608C106.95 24.3307 107.291 23.952 107.536 23.472C107.792 22.9813 107.92 22.4267 107.92 21.808C107.92 21.1893 107.792 20.64 107.536 20.16C107.291 19.68 106.95 19.3013 106.512 19.024C106.075 18.7467 105.579 18.608 105.024 18.608C104.459 18.608 103.958 18.7467 103.52 19.024C103.094 19.3013 102.752 19.68 102.496 20.16C102.251 20.64 102.128 21.1893 102.128 21.808C102.128 22.416 102.251 22.9653 102.496 23.456C102.742 23.936 103.083 24.3147 103.52 24.592C103.958 24.8693 104.459 25.008 105.024 25.008ZM114.802 26.16C114.045 26.16 113.362 25.9733 112.754 25.6C112.157 25.2267 111.682 24.7147 111.33 24.064C110.989 23.4027 110.818 22.656 110.818 21.824C110.818 20.9813 110.994 20.2347 111.346 19.584C111.698 18.9227 112.173 18.4053 112.77 18.032C113.368 17.6587 114.04 17.472 114.786 17.472C115.202 17.472 115.602 17.536 115.986 17.664C116.381 17.792 116.733 17.9733 117.042 18.208C117.352 18.432 117.608 18.6933 117.81 18.992C118.013 19.28 118.136 19.584 118.178 19.904L117.81 19.776V14.16H119.01V26H117.826L117.794 23.92L118.098 23.808C118.056 24.1067 117.933 24.4 117.73 24.688C117.538 24.9653 117.293 25.216 116.994 25.44C116.696 25.664 116.354 25.84 115.97 25.968C115.597 26.096 115.208 26.16 114.802 26.16ZM114.978 25.056C115.533 25.056 116.029 24.9173 116.466 24.64C116.904 24.3627 117.245 23.9787 117.49 23.488C117.746 22.9973 117.874 22.4373 117.874 21.808C117.874 21.1787 117.746 20.624 117.49 20.144C117.245 19.6533 116.904 19.2693 116.466 18.992C116.029 18.704 115.533 18.56 114.978 18.56C114.402 18.56 113.896 18.704 113.458 18.992C113.032 19.2693 112.69 19.6533 112.434 20.144C112.189 20.624 112.066 21.1787 112.066 21.808C112.066 22.4267 112.189 22.9813 112.434 23.472C112.68 23.9627 113.021 24.352 113.458 24.64C113.896 24.9173 114.402 25.056 114.978 25.056ZM125.044 26.16C124.212 26.16 123.47 25.9733 122.82 25.6C122.18 25.2267 121.673 24.7093 121.3 24.048C120.937 23.3867 120.756 22.6347 120.756 21.792C120.756 20.96 120.937 20.2187 121.3 19.568C121.673 18.9173 122.18 18.4053 122.82 18.032C123.47 17.6587 124.212 17.472 125.044 17.472C125.865 17.472 126.596 17.6587 127.236 18.032C127.886 18.4053 128.393 18.9173 128.756 19.568C129.129 20.2187 129.316 20.96 129.316 21.792C129.316 22.6347 129.129 23.3867 128.756 24.048C128.393 24.7093 127.886 25.2267 127.236 25.6C126.596 25.9733 125.865 26.16 125.044 26.16ZM125.044 25.024C125.63 25.024 126.153 24.8853 126.612 24.608C127.07 24.32 127.428 23.936 127.684 23.456C127.94 22.9653 128.068 22.4107 128.068 21.792C128.068 21.1733 127.94 20.624 127.684 20.144C127.428 19.664 127.07 19.2907 126.612 19.024C126.153 18.7467 125.63 18.608 125.044 18.608C124.457 18.608 123.929 18.7467 123.46 19.024C123.001 19.2907 122.638 19.6693 122.372 20.16C122.116 20.64 121.993 21.184 122.004 21.792C121.993 22.4107 122.116 22.9653 122.372 23.456C122.638 23.936 123.001 24.32 123.46 24.608C123.929 24.8853 124.457 25.024 125.044 25.024Z" fill="#1D1933"/>
</g>
<defs>
<filter id="filter0_d_2772_8653" x="0" y="0" width="185" height="48" filterUnits="userSpaceOnUse" color-interpolation-filters="sRGB">
<feFlood flood-opacity="0" result="BackgroundImageFix"/>
<feColorMatrix in="SourceAlpha" type="matrix" values="0 0 0 0 0 0 0 0 0 0 0 0 0 0 0 0 0 0 127 0" result="hardAlpha"/>
<feOffset dy="4"/>
<feGaussianBlur stdDeviation="2"/>
<feComposite in2="hardAlpha" operator="out"/>
<feColorMatrix type="matrix" values="0 0 0 0 0 0 0 0 0 0 0 0 0 0 0 0 0 0 0.25 0"/>
<feBlend mode="normal" in2="BackgroundImageFix" result="effect1_dropShadow_2772_8653"/>
<feBlend mode="normal" in="SourceGraphic" in2="effect1_dropShadow_2772_8653" result="shape"/>
</filter>
</defs>
</svg>
