<svg width="185" height="48" viewBox="0 0 185 48" fill="none" xmlns="http://www.w3.org/2000/svg">
<g filter="url(#filter0_d_2772_8671)">
<rect x="4" width="177" height="40" rx="2" fill="#E1DDF4" shape-rendering="crispEdges"/>
<path d="M19 29C18.45 29 17.9793 28.8043 17.588 28.413C17.1967 28.0217 17.0007 27.5507 17 27V20.4L19.3 22.7C19.5 22.9 19.7333 23 20 23C20.2667 23 20.5 22.9 20.7 22.7L24 19.4L27.3 22.7C27.5 22.9 27.7333 23 28 23C28.2667 23 28.5 22.9 28.7 22.7L32 19.4L35 22.4V27C35 27.55 34.8043 28.021 34.413 28.413C34.0217 28.805 33.5507 29.0007 33 29H19ZM19 11H33C33.55 11 34.021 11.196 34.413 11.588C34.805 11.98 35.0007 12.4507 35 13V19.575L32.7 17.275C32.5 17.075 32.2667 16.975 32 16.975C31.7333 16.975 31.5 17.075 31.3 17.275L28 20.575L24.7 17.275C24.5 17.075 24.2667 16.975 24 16.975C23.7333 16.975 23.5 17.075 23.3 17.275L20 20.575L17 17.575V13C17 12.45 17.196 11.9793 17.588 11.588C17.98 11.1967 18.4507 11.0007 19 11Z" fill="#1D1933"/>
<path d="M48.4234 26L52.7114 14.8H54.1354L58.3914 26H57.0314L54.2954 18.736C54.2208 18.5333 54.1354 18.2987 54.0394 18.032C53.9541 17.7547 53.8581 17.472 53.7514 17.184C53.6554 16.8853 53.5594 16.5973 53.4634 16.32C53.3781 16.0427 53.2981 15.7973 53.2234 15.584H53.5434C53.4581 15.8507 53.3674 16.1227 53.2714 16.4C53.1861 16.6667 53.0954 16.9387 52.9994 17.216C52.9034 17.4827 52.8074 17.7493 52.7114 18.016C52.6154 18.2827 52.5194 18.5493 52.4234 18.816L49.7034 26H48.4234ZM50.2474 22.912L50.7114 21.696H56.0074L56.5194 22.912H50.2474ZM61.7522 26L58.2322 17.648H59.5602L62.3442 24.48L62.0242 24.656L65.0802 17.648H66.3602L62.6162 26H61.7522ZM70.7992 26.16C70.0739 26.16 69.4179 25.9733 68.8312 25.6C68.2445 25.216 67.7805 24.6987 67.4392 24.048C67.0979 23.3867 66.9272 22.64 66.9272 21.808C66.9272 20.9653 67.1032 20.2187 67.4552 19.568C67.8072 18.9173 68.2765 18.4053 68.8632 18.032C69.4605 17.6587 70.1272 17.472 70.8632 17.472C71.3005 17.472 71.7059 17.536 72.0792 17.664C72.4525 17.792 72.7832 17.9733 73.0712 18.208C73.3699 18.432 73.6152 18.6987 73.8072 19.008C74.0099 19.3067 74.1485 19.632 74.2232 19.984L73.8712 19.808L73.9192 17.648H75.1192V26H73.9032V23.952L74.2232 23.744C74.1485 24.064 74.0045 24.3733 73.7912 24.672C73.5779 24.96 73.3165 25.216 73.0072 25.44C72.7085 25.664 72.3672 25.84 71.9832 25.968C71.6099 26.096 71.2152 26.16 70.7992 26.16ZM71.0712 25.008C71.6259 25.008 72.1219 24.8747 72.5592 24.608C72.9965 24.3307 73.3379 23.952 73.5832 23.472C73.8392 22.9813 73.9672 22.4267 73.9672 21.808C73.9672 21.1893 73.8392 20.64 73.5832 20.16C73.3379 19.68 72.9965 19.3013 72.5592 19.024C72.1219 18.7467 71.6259 18.608 71.0712 18.608C70.5059 18.608 70.0045 18.7467 69.5672 19.024C69.1405 19.3013 68.7992 19.68 68.5432 20.16C68.2979 20.64 68.1752 21.1893 68.1752 21.808C68.1752 22.416 68.2979 22.9653 68.5432 23.456C68.7885 23.936 69.1299 24.3147 69.5672 24.592C70.0045 24.8693 70.5059 25.008 71.0712 25.008ZM77.4571 26V17.648H78.6571L78.6891 19.872L78.5611 19.568C78.6784 19.1947 78.8651 18.848 79.1211 18.528C79.3877 18.208 79.7024 17.952 80.0651 17.76C80.4277 17.568 80.8277 17.472 81.2651 17.472C81.4464 17.472 81.6171 17.488 81.7771 17.52C81.9371 17.5413 82.0704 17.5733 82.1771 17.616L81.8411 18.96C81.7024 18.896 81.5584 18.8533 81.4091 18.832C81.2704 18.8 81.1371 18.784 81.0091 18.784C80.6464 18.784 80.3211 18.848 80.0331 18.976C79.7451 19.104 79.4997 19.2853 79.2971 19.52C79.0944 19.744 78.9397 20.0053 78.8331 20.304C78.7264 20.6027 78.6731 20.9227 78.6731 21.264V26H77.4571ZM83.7458 26V17.648H84.9458V26H83.7458ZM84.3378 15.84C84.0391 15.84 83.8098 15.7653 83.6498 15.616C83.5005 15.456 83.4258 15.2427 83.4258 14.976C83.4258 14.7093 83.5058 14.496 83.6658 14.336C83.8258 14.176 84.0498 14.096 84.3378 14.096C84.6258 14.096 84.8498 14.176 85.0098 14.336C85.1698 14.4853 85.2498 14.6987 85.2498 14.976C85.2498 15.232 85.1698 15.44 85.0098 15.6C84.8498 15.76 84.6258 15.84 84.3378 15.84ZM90.8304 26.16C90.1051 26.16 89.4491 25.9733 88.8624 25.6C88.2758 25.216 87.8118 24.6987 87.4704 24.048C87.1291 23.3867 86.9584 22.64 86.9584 21.808C86.9584 20.9653 87.1344 20.2187 87.4864 19.568C87.8384 18.9173 88.3078 18.4053 88.8944 18.032C89.4918 17.6587 90.1584 17.472 90.8944 17.472C91.3318 17.472 91.7371 17.536 92.1104 17.664C92.4838 17.792 92.8144 17.9733 93.1024 18.208C93.4011 18.432 93.6464 18.6987 93.8384 19.008C94.0411 19.3067 94.1798 19.632 94.2544 19.984L93.9024 19.808L93.9504 17.648H95.1504V26H93.9344V23.952L94.2544 23.744C94.1798 24.064 94.0358 24.3733 93.8224 24.672C93.6091 24.96 93.3478 25.216 93.0384 25.44C92.7398 25.664 92.3984 25.84 92.0144 25.968C91.6411 26.096 91.2464 26.16 90.8304 26.16ZM91.1024 25.008C91.6571 25.008 92.1531 24.8747 92.5904 24.608C93.0278 24.3307 93.3691 23.952 93.6144 23.472C93.8704 22.9813 93.9984 22.4267 93.9984 21.808C93.9984 21.1893 93.8704 20.64 93.6144 20.16C93.3691 19.68 93.0278 19.3013 92.5904 19.024C92.1531 18.7467 91.6571 18.608 91.1024 18.608C90.5371 18.608 90.0358 18.7467 89.5984 19.024C89.1718 19.3013 88.8304 19.68 88.5744 20.16C88.3291 20.64 88.2064 21.1893 88.2064 21.808C88.2064 22.416 88.3291 22.9653 88.5744 23.456C88.8198 23.936 89.1611 24.3147 89.5984 24.592C90.0358 24.8693 90.5371 25.008 91.1024 25.008ZM100.88 26.16C100.123 26.16 99.4403 25.9733 98.8323 25.6C98.235 25.2267 97.7603 24.7147 97.4083 24.064C97.067 23.4027 96.8963 22.656 96.8963 21.824C96.8963 20.9813 97.0723 20.2347 97.4243 19.584C97.7763 18.9227 98.251 18.4053 98.8483 18.032C99.4456 17.6587 100.118 17.472 100.864 17.472C101.28 17.472 101.68 17.536 102.064 17.664C102.459 17.792 102.811 17.9733 103.12 18.208C103.43 18.432 103.686 18.6933 103.888 18.992C104.091 19.28 104.214 19.584 104.256 19.904L103.888 19.776V14.16H105.088V26H103.904L103.872 23.92L104.176 23.808C104.134 24.1067 104.011 24.4 103.808 24.688C103.616 24.9653 103.371 25.216 103.072 25.44C102.774 25.664 102.432 25.84 102.048 25.968C101.675 26.096 101.286 26.16 100.88 26.16ZM101.056 25.056C101.611 25.056 102.107 24.9173 102.544 24.64C102.982 24.3627 103.323 23.9787 103.568 23.488C103.824 22.9973 103.952 22.4373 103.952 21.808C103.952 21.1787 103.824 20.624 103.568 20.144C103.323 19.6533 102.982 19.2693 102.544 18.992C102.107 18.704 101.611 18.56 101.056 18.56C100.48 18.56 99.9736 18.704 99.5363 18.992C99.1096 19.2693 98.7683 19.6533 98.5123 20.144C98.267 20.624 98.1443 21.1787 98.1443 21.808C98.1443 22.4267 98.267 22.9813 98.5123 23.472C98.7576 23.9627 99.099 24.352 99.5363 24.64C99.9736 24.9173 100.48 25.056 101.056 25.056ZM111.122 26.16C110.29 26.16 109.548 25.9733 108.898 25.6C108.258 25.2267 107.751 24.7093 107.378 24.048C107.015 23.3867 106.834 22.6347 106.834 21.792C106.834 20.96 107.015 20.2187 107.378 19.568C107.751 18.9173 108.258 18.4053 108.898 18.032C109.548 17.6587 110.29 17.472 111.122 17.472C111.943 17.472 112.674 17.6587 113.314 18.032C113.964 18.4053 114.471 18.9173 114.834 19.568C115.207 20.2187 115.394 20.96 115.394 21.792C115.394 22.6347 115.207 23.3867 114.834 24.048C114.471 24.7093 113.964 25.2267 113.314 25.6C112.674 25.9733 111.943 26.16 111.122 26.16ZM111.122 25.024C111.708 25.024 112.231 24.8853 112.69 24.608C113.148 24.32 113.506 23.936 113.762 23.456C114.018 22.9653 114.146 22.4107 114.146 21.792C114.146 21.1733 114.018 20.624 113.762 20.144C113.506 19.664 113.148 19.2907 112.69 19.024C112.231 18.7467 111.708 18.608 111.122 18.608C110.535 18.608 110.007 18.7467 109.538 19.024C109.079 19.2907 108.716 19.6693 108.45 20.16C108.194 20.64 108.071 21.184 108.082 21.792C108.071 22.4107 108.194 22.9653 108.45 23.456C108.716 23.936 109.079 24.32 109.538 24.608C110.007 24.8853 110.535 25.024 111.122 25.024Z" fill="#1D1933"/>
</g>
<defs>
<filter id="filter0_d_2772_8671" x="0" y="0" width="185" height="48" filterUnits="userSpaceOnUse" color-interpolation-filters="sRGB">
<feFlood flood-opacity="0" result="BackgroundImageFix"/>
<feColorMatrix in="SourceAlpha" type="matrix" values="0 0 0 0 0 0 0 0 0 0 0 0 0 0 0 0 0 0 127 0" result="hardAlpha"/>
<feOffset dy="4"/>
<feGaussianBlur stdDeviation="2"/>
<feComposite in2="hardAlpha" operator="out"/>
<feColorMatrix type="matrix" values="0 0 0 0 0 0 0 0 0 0 0 0 0 0 0 0 0 0 0.25 0"/>
<feBlend mode="normal" in2="BackgroundImageFix" result="effect1_dropShadow_2772_8671"/>
<feBlend mode="normal" in="SourceGraphic" in2="effect1_dropShadow_2772_8671" result="shape"/>
</filter>
</defs>
</svg>
