<svg width="177" height="40" viewBox="0 0 177 40" fill="none" xmlns="http://www.w3.org/2000/svg">
<rect x="0.5" y="0.5" width="176" height="39" rx="1.5" stroke="#463C61"/>
<path d="M29 10C30.6569 10 32 11.3431 32 13V27C32 28.6569 30.6569 30 29 30H15C13.3431 30 12 28.6569 12 27V13C12 11.3431 13.3431 10 15 10H29ZM21.9199 23.3115C21.5146 23.3115 21.1837 23.4453 20.9277 23.7119C20.6718 23.9786 20.544 24.3254 20.5439 24.752C20.5439 25.2106 20.6618 25.5623 20.8965 25.8076C21.1418 26.0529 21.4827 26.1758 21.9199 26.1758C22.3357 26.1758 22.6718 26.0428 22.9277 25.7764C23.1837 25.5097 23.3125 25.168 23.3125 24.752C23.3125 24.2935 23.1895 23.9416 22.9443 23.6963C22.699 23.4403 22.3573 23.3115 21.9199 23.3115ZM22.1924 14.5596C21.467 14.5596 20.7677 14.7626 20.0957 15.168C19.4345 15.5733 18.8637 16.144 18.3838 16.8799L20.1279 18.4961C20.4266 17.9414 20.7525 17.5412 21.1045 17.2959C21.4564 17.0401 21.8083 16.9121 22.1602 16.9121C22.4054 16.9121 22.6185 16.9548 22.7998 17.04C22.9811 17.1254 23.1258 17.2482 23.2324 17.4082C23.3389 17.5575 23.3916 17.739 23.3916 17.9521C23.3916 18.1653 23.3439 18.3677 23.248 18.5596C23.152 18.7409 23.0183 18.9123 22.8477 19.0723C22.6877 19.2215 22.4904 19.3544 22.2559 19.4717C22.0213 19.589 21.7655 19.701 21.4883 19.8076C21.211 19.9036 20.9176 19.9898 20.6084 20.0645L21.1201 22.1602H22.4961L22.6562 21.5518C23.1361 21.4131 23.5732 21.2159 23.9678 20.96C24.3624 20.704 24.7042 20.4107 24.9922 20.0801C25.2908 19.7388 25.5197 19.3761 25.6797 18.9922C25.8503 18.6083 25.9355 18.2188 25.9355 17.8242C25.9355 17.2057 25.771 16.6508 25.4404 16.1602C25.1098 15.6588 24.661 15.2695 24.0957 14.9922C23.5305 14.7043 22.8962 14.5596 22.1924 14.5596Z" fill="#E1DDF4"/>
<path d="M45.7496 26V14.8H52.5336V16.016H46.9976V24.784H52.5016V26H45.7496ZM46.3256 20.848V19.632H51.6376V20.848H46.3256ZM60.5277 26L57.6317 22.272L57.4877 22.096L54.0157 17.648H55.5357L58.3837 21.312L58.5437 21.52L62.0317 26H60.5277ZM53.9517 26L57.3597 21.6L58.0797 22.464L55.3917 26H53.9517ZM58.6237 21.904L57.9357 21.056L60.3677 17.648H61.8237L58.6237 21.904ZM64.6091 26V15.456H65.8091V26H64.6091ZM62.7211 18.8V17.648H67.9211V18.8H62.7211ZM69.3946 26V17.648H70.5946L70.6266 19.872L70.4986 19.568C70.6159 19.1947 70.8026 18.848 71.0586 18.528C71.3252 18.208 71.6399 17.952 72.0026 17.76C72.3652 17.568 72.7652 17.472 73.2026 17.472C73.3839 17.472 73.5546 17.488 73.7146 17.52C73.8746 17.5413 74.0079 17.5733 74.1146 17.616L73.7786 18.96C73.6399 18.896 73.4959 18.8533 73.3466 18.832C73.2079 18.8 73.0746 18.784 72.9466 18.784C72.5839 18.784 72.2586 18.848 71.9706 18.976C71.6826 19.104 71.4372 19.2853 71.2346 19.52C71.0319 19.744 70.8772 20.0053 70.7706 20.304C70.6639 20.6027 70.6106 20.9227 70.6106 21.264V26H69.3946ZM78.2679 26.16C77.5426 26.16 76.8866 25.9733 76.2999 25.6C75.7133 25.216 75.2493 24.6987 74.9079 24.048C74.5666 23.3867 74.3959 22.64 74.3959 21.808C74.3959 20.9653 74.5719 20.2187 74.9239 19.568C75.2759 18.9173 75.7453 18.4053 76.3319 18.032C76.9293 17.6587 77.5959 17.472 78.3319 17.472C78.7693 17.472 79.1746 17.536 79.5479 17.664C79.9213 17.792 80.2519 17.9733 80.5399 18.208C80.8386 18.432 81.0839 18.6987 81.2759 19.008C81.4786 19.3067 81.6173 19.632 81.6919 19.984L81.3399 19.808L81.3879 17.648H82.5879V26H81.3719V23.952L81.6919 23.744C81.6173 24.064 81.4733 24.3733 81.2599 24.672C81.0466 24.96 80.7853 25.216 80.4759 25.44C80.1773 25.664 79.8359 25.84 79.4519 25.968C79.0786 26.096 78.6839 26.16 78.2679 26.16ZM78.5399 25.008C79.0946 25.008 79.5906 24.8747 80.0279 24.608C80.4653 24.3307 80.8066 23.952 81.0519 23.472C81.3079 22.9813 81.4359 22.4267 81.4359 21.808C81.4359 21.1893 81.3079 20.64 81.0519 20.16C80.8066 19.68 80.4653 19.3013 80.0279 19.024C79.5906 18.7467 79.0946 18.608 78.5399 18.608C77.9746 18.608 77.4733 18.7467 77.0359 19.024C76.6093 19.3013 76.2679 19.68 76.0119 20.16C75.7666 20.64 75.6439 21.1893 75.6439 21.808C75.6439 22.416 75.7666 22.9653 76.0119 23.456C76.2573 23.936 76.5986 24.3147 77.0359 24.592C77.4733 24.8693 77.9746 25.008 78.5399 25.008ZM87.3303 26L83.8103 17.648H85.1383L87.9223 24.48L87.6023 24.656L90.6583 17.648H91.9383L88.1943 26H87.3303ZM93.6677 26V17.648H94.8677V26H93.6677ZM94.2597 15.84C93.961 15.84 93.7317 15.7653 93.5717 15.616C93.4224 15.456 93.3477 15.2427 93.3477 14.976C93.3477 14.7093 93.4277 14.496 93.5877 14.336C93.7477 14.176 93.9717 14.096 94.2597 14.096C94.5477 14.096 94.7717 14.176 94.9317 14.336C95.0917 14.4853 95.1717 14.6987 95.1717 14.976C95.1717 15.232 95.0917 15.44 94.9317 15.6C94.7717 15.76 94.5477 15.84 94.2597 15.84ZM100.752 26.16C100.027 26.16 99.371 25.9733 98.7843 25.6C98.1976 25.216 97.7336 24.6987 97.3923 24.048C97.051 23.3867 96.8803 22.64 96.8803 21.808C96.8803 20.9653 97.0563 20.2187 97.4083 19.568C97.7603 18.9173 98.2296 18.4053 98.8163 18.032C99.4136 17.6587 100.08 17.472 100.816 17.472C101.254 17.472 101.659 17.536 102.032 17.664C102.406 17.792 102.736 17.9733 103.024 18.208C103.323 18.432 103.568 18.6987 103.76 19.008C103.963 19.3067 104.102 19.632 104.176 19.984L103.824 19.808L103.872 17.648H105.072V26H103.856V23.952L104.176 23.744C104.102 24.064 103.958 24.3733 103.744 24.672C103.531 24.96 103.27 25.216 102.96 25.44C102.662 25.664 102.32 25.84 101.936 25.968C101.563 26.096 101.168 26.16 100.752 26.16ZM101.024 25.008C101.579 25.008 102.075 24.8747 102.512 24.608C102.95 24.3307 103.291 23.952 103.536 23.472C103.792 22.9813 103.92 22.4267 103.92 21.808C103.92 21.1893 103.792 20.64 103.536 20.16C103.291 19.68 102.95 19.3013 102.512 19.024C102.075 18.7467 101.579 18.608 101.024 18.608C100.459 18.608 99.9576 18.7467 99.5203 19.024C99.0936 19.3013 98.7523 19.68 98.4963 20.16C98.251 20.64 98.1283 21.1893 98.1283 21.808C98.1283 22.416 98.251 22.9653 98.4963 23.456C98.7416 23.936 99.083 24.3147 99.5203 24.592C99.9576 24.8693 100.459 25.008 101.024 25.008ZM110.802 26.16C110.045 26.16 109.362 25.9733 108.754 25.6C108.157 25.2267 107.682 24.7147 107.33 24.064C106.989 23.4027 106.818 22.656 106.818 21.824C106.818 20.9813 106.994 20.2347 107.346 19.584C107.698 18.9227 108.173 18.4053 108.77 18.032C109.368 17.6587 110.04 17.472 110.786 17.472C111.202 17.472 111.602 17.536 111.986 17.664C112.381 17.792 112.733 17.9733 113.042 18.208C113.352 18.432 113.608 18.6933 113.81 18.992C114.013 19.28 114.136 19.584 114.178 19.904L113.81 19.776V14.16H115.01V26H113.826L113.794 23.92L114.098 23.808C114.056 24.1067 113.933 24.4 113.73 24.688C113.538 24.9653 113.293 25.216 112.994 25.44C112.696 25.664 112.354 25.84 111.97 25.968C111.597 26.096 111.208 26.16 110.802 26.16ZM110.978 25.056C111.533 25.056 112.029 24.9173 112.466 24.64C112.904 24.3627 113.245 23.9787 113.49 23.488C113.746 22.9973 113.874 22.4373 113.874 21.808C113.874 21.1787 113.746 20.624 113.49 20.144C113.245 19.6533 112.904 19.2693 112.466 18.992C112.029 18.704 111.533 18.56 110.978 18.56C110.402 18.56 109.896 18.704 109.458 18.992C109.032 19.2693 108.69 19.6533 108.434 20.144C108.189 20.624 108.066 21.1787 108.066 21.808C108.066 22.4267 108.189 22.9813 108.434 23.472C108.68 23.9627 109.021 24.352 109.458 24.64C109.896 24.9173 110.402 25.056 110.978 25.056ZM121.044 26.16C120.212 26.16 119.47 25.9733 118.82 25.6C118.18 25.2267 117.673 24.7093 117.3 24.048C116.937 23.3867 116.756 22.6347 116.756 21.792C116.756 20.96 116.937 20.2187 117.3 19.568C117.673 18.9173 118.18 18.4053 118.82 18.032C119.47 17.6587 120.212 17.472 121.044 17.472C121.865 17.472 122.596 17.6587 123.236 18.032C123.886 18.4053 124.393 18.9173 124.756 19.568C125.129 20.2187 125.316 20.96 125.316 21.792C125.316 22.6347 125.129 23.3867 124.756 24.048C124.393 24.7093 123.886 25.2267 123.236 25.6C122.596 25.9733 121.865 26.16 121.044 26.16ZM121.044 25.024C121.63 25.024 122.153 24.8853 122.612 24.608C123.07 24.32 123.428 23.936 123.684 23.456C123.94 22.9653 124.068 22.4107 124.068 21.792C124.068 21.1733 123.94 20.624 123.684 20.144C123.428 19.664 123.07 19.2907 122.612 19.024C122.153 18.7467 121.63 18.608 121.044 18.608C120.457 18.608 119.929 18.7467 119.46 19.024C119.001 19.2907 118.638 19.6693 118.372 20.16C118.116 20.64 117.993 21.184 118.004 21.792C117.993 22.4107 118.116 22.9653 118.372 23.456C118.638 23.936 119.001 24.32 119.46 24.608C119.929 24.8853 120.457 25.024 121.044 25.024Z" fill="white"/>
</svg>
