<svg width="209" height="88" viewBox="0 0 209 88" fill="none" xmlns="http://www.w3.org/2000/svg">
<path d="M86.5 22.5L98.5 34.5L121 12" stroke="url(#paint0_linear_3295_10700)" stroke-width="6"/>
<path d="M7.89925 82.24C7.05125 82.24 6.25125 82.12 5.49925 81.88C4.74725 81.64 4.05925 81.28 3.43525 80.8C2.81125 80.32 2.25925 79.728 1.77925 79.024L3.07525 77.584C3.82725 78.656 4.59525 79.408 5.37925 79.84C6.17925 80.272 7.07525 80.488 8.06725 80.488C8.78725 80.488 9.44325 80.368 10.0353 80.128C10.6273 79.888 11.0913 79.552 11.4273 79.12C11.7633 78.688 11.9313 78.192 11.9313 77.632C11.9313 77.264 11.8673 76.936 11.7393 76.648C11.6273 76.36 11.4513 76.104 11.2113 75.88C10.9713 75.656 10.6753 75.456 10.3233 75.28C9.97125 75.104 9.56325 74.944 9.09925 74.8C8.65125 74.656 8.14725 74.512 7.58725 74.368C6.77125 74.176 6.05125 73.952 5.42725 73.696C4.81925 73.424 4.29925 73.096 3.86725 72.712C3.45125 72.328 3.13125 71.888 2.90725 71.392C2.69925 70.88 2.59525 70.28 2.59525 69.592C2.59525 68.936 2.73125 68.328 3.00325 67.768C3.29125 67.208 3.68325 66.728 4.17925 66.328C4.67525 65.912 5.25925 65.592 5.93125 65.368C6.60325 65.144 7.32325 65.032 8.09125 65.032C8.95525 65.032 9.72325 65.152 10.3953 65.392C11.0833 65.616 11.6913 65.952 12.2193 66.4C12.7473 66.848 13.2033 67.384 13.5873 68.008L12.2673 69.304C11.9313 68.776 11.5473 68.32 11.1153 67.936C10.6993 67.552 10.2353 67.264 9.72325 67.072C9.22725 66.864 8.67525 66.76 8.06725 66.76C7.36325 66.76 6.73925 66.88 6.19525 67.12C5.66725 67.36 5.25125 67.696 4.94725 68.128C4.64325 68.544 4.49125 69.024 4.49125 69.568C4.49125 69.968 4.56325 70.328 4.70725 70.648C4.85125 70.952 5.07525 71.224 5.37925 71.464C5.69925 71.688 6.10725 71.896 6.60325 72.088C7.11525 72.264 7.72325 72.432 8.42725 72.592C9.25925 72.784 10.0033 73.016 10.6593 73.288C11.3313 73.56 11.8993 73.888 12.3633 74.272C12.8433 74.64 13.2033 75.072 13.4433 75.568C13.6993 76.064 13.8273 76.632 13.8273 77.272C13.8273 78.264 13.5793 79.136 13.0833 79.888C12.5873 80.624 11.8913 81.2 10.9953 81.616C10.1153 82.032 9.08325 82.24 7.89925 82.24ZM18.6128 82V66.184H20.4128V82H18.6128ZM15.7808 71.2V69.472H23.5808V71.2H15.7808ZM30.5699 82.24C29.4819 82.24 28.4979 81.96 27.6179 81.4C26.7379 80.824 26.0419 80.048 25.5299 79.072C25.0179 78.08 24.7619 76.96 24.7619 75.712C24.7619 74.448 25.0259 73.328 25.5539 72.352C26.0819 71.376 26.7859 70.608 27.6659 70.048C28.5619 69.488 29.5619 69.208 30.6659 69.208C31.3219 69.208 31.9299 69.304 32.4899 69.496C33.0499 69.688 33.5459 69.96 33.9779 70.312C34.4259 70.648 34.7939 71.048 35.0819 71.512C35.3859 71.96 35.5939 72.448 35.7059 72.976L35.1779 72.712L35.2499 69.472H37.0499V82H35.2259V78.928L35.7059 78.616C35.5939 79.096 35.3779 79.56 35.0579 80.008C34.7379 80.44 34.3459 80.824 33.8819 81.16C33.4339 81.496 32.9219 81.76 32.3459 81.952C31.7859 82.144 31.1939 82.24 30.5699 82.24ZM30.9779 80.512C31.8099 80.512 32.5539 80.312 33.2099 79.912C33.8659 79.496 34.3779 78.928 34.7459 78.208C35.1299 77.472 35.3219 76.64 35.3219 75.712C35.3219 74.784 35.1299 73.96 34.7459 73.24C34.3779 72.52 33.8659 71.952 33.2099 71.536C32.5539 71.12 31.8099 70.912 30.9779 70.912C30.1299 70.912 29.3779 71.12 28.7219 71.536C28.0819 71.952 27.5699 72.52 27.1859 73.24C26.8179 73.96 26.6339 74.784 26.6339 75.712C26.6339 76.624 26.8179 77.448 27.1859 78.184C27.5539 78.904 28.0659 79.472 28.7219 79.888C29.3779 80.304 30.1299 80.512 30.9779 80.512ZM42.2847 82V66.184H44.0847V82H42.2847ZM39.4527 71.2V69.472H47.2527V71.2H39.4527ZM53.9029 82.24C52.9429 82.24 52.1269 82.048 51.4549 81.664C50.7989 81.264 50.2949 80.688 49.9429 79.936C49.6069 79.184 49.4389 78.248 49.4389 77.128V69.472H51.2629V76.768C51.2629 77.616 51.3749 78.328 51.5989 78.904C51.8389 79.464 52.1909 79.888 52.6549 80.176C53.1349 80.464 53.7189 80.608 54.4069 80.608C54.9349 80.608 55.4229 80.52 55.8709 80.344C56.3189 80.152 56.7109 79.896 57.0469 79.576C57.3829 79.256 57.6469 78.88 57.8389 78.448C58.0309 78.016 58.1269 77.56 58.1269 77.08V69.472H59.9269V82H58.1509L58.0789 79.36L58.3669 79.216C58.1749 79.776 57.8549 80.288 57.4069 80.752C56.9589 81.2 56.4229 81.56 55.7989 81.832C55.1909 82.104 54.5589 82.24 53.9029 82.24ZM67.5357 82.24C66.4637 82.24 65.5037 82.04 64.6557 81.64C63.8077 81.24 63.1357 80.712 62.6397 80.056L63.9117 78.952C64.3757 79.512 64.9197 79.936 65.5437 80.224C66.1837 80.512 66.8957 80.656 67.6797 80.656C68.0797 80.656 68.4397 80.616 68.7597 80.536C69.0797 80.44 69.3597 80.304 69.5997 80.128C69.8397 79.952 70.0237 79.744 70.1517 79.504C70.2797 79.264 70.3437 79 70.3437 78.712C70.3437 78.184 70.1117 77.744 69.6477 77.392C69.4397 77.248 69.1437 77.104 68.7597 76.96C68.3757 76.8 67.9117 76.648 67.3677 76.504C66.4717 76.248 65.7277 75.992 65.1357 75.736C64.5437 75.464 64.0797 75.152 63.7437 74.8C63.5037 74.512 63.3197 74.2 63.1917 73.864C63.0797 73.528 63.0237 73.16 63.0237 72.76C63.0237 72.248 63.1277 71.776 63.3357 71.344C63.5597 70.912 63.8637 70.536 64.2477 70.216C64.6477 69.88 65.1117 69.632 65.6397 69.472C66.1837 69.296 66.7677 69.208 67.3917 69.208C67.9837 69.208 68.5677 69.288 69.1437 69.448C69.7197 69.608 70.2557 69.84 70.7517 70.144C71.2477 70.448 71.6717 70.808 72.0237 71.224L70.9197 72.424C70.6157 72.104 70.2797 71.816 69.9117 71.56C69.5437 71.304 69.1517 71.104 68.7357 70.96C68.3357 70.816 67.9197 70.744 67.4877 70.744C67.1037 70.744 66.7437 70.792 66.4077 70.888C66.0877 70.984 65.8077 71.12 65.5677 71.296C65.3437 71.456 65.1677 71.656 65.0397 71.896C64.9277 72.136 64.8717 72.4 64.8717 72.688C64.8717 72.928 64.9197 73.144 65.0157 73.336C65.1117 73.528 65.2477 73.696 65.4237 73.84C65.6477 74.016 65.9597 74.184 66.3597 74.344C66.7757 74.488 67.2877 74.64 67.8957 74.8C68.5997 74.992 69.1917 75.192 69.6717 75.4C70.1677 75.592 70.5757 75.824 70.8957 76.096C71.3277 76.416 71.6317 76.784 71.8077 77.2C71.9997 77.616 72.0957 78.088 72.0957 78.616C72.0957 79.32 71.8957 79.944 71.4957 80.488C71.1117 81.032 70.5757 81.464 69.8877 81.784C69.1997 82.088 68.4157 82.24 67.5357 82.24ZM82.3626 82V65.2H84.1866L90.6426 75.688L89.7786 75.664L96.3066 65.2H98.0106V82H96.1386V74.32C96.1386 72.88 96.1626 71.584 96.2106 70.432C96.2586 69.28 96.3466 68.136 96.4746 67L96.8106 67.672L90.7866 77.128H89.4906L83.6346 67.792L83.8986 67C84.0266 68.072 84.1146 69.176 84.1626 70.312C84.2106 71.432 84.2346 72.768 84.2346 74.32V82H82.3626ZM107.788 82.24C106.54 82.24 105.428 81.96 104.452 81.4C103.492 80.84 102.732 80.064 102.172 79.072C101.628 78.08 101.356 76.952 101.356 75.688C101.356 74.44 101.628 73.328 102.172 72.352C102.732 71.376 103.492 70.608 104.452 70.048C105.428 69.488 106.54 69.208 107.788 69.208C109.02 69.208 110.116 69.488 111.076 70.048C112.052 70.608 112.812 71.376 113.356 72.352C113.916 73.328 114.196 74.44 114.196 75.688C114.196 76.952 113.916 78.08 113.356 79.072C112.812 80.064 112.052 80.84 111.076 81.4C110.116 81.96 109.02 82.24 107.788 82.24ZM107.788 80.536C108.668 80.536 109.452 80.328 110.14 79.912C110.828 79.48 111.364 78.904 111.748 78.184C112.132 77.448 112.324 76.616 112.324 75.688C112.324 74.76 112.132 73.936 111.748 73.216C111.364 72.496 110.828 71.936 110.14 71.536C109.452 71.12 108.668 70.912 107.788 70.912C106.908 70.912 106.116 71.12 105.412 71.536C104.724 71.936 104.18 72.504 103.78 73.24C103.396 73.96 103.212 74.776 103.228 75.688C103.212 76.616 103.396 77.448 103.78 78.184C104.18 78.904 104.724 79.48 105.412 79.912C106.116 80.328 106.908 80.536 107.788 80.536ZM121.91 82.24C120.774 82.24 119.75 81.96 118.838 81.4C117.942 80.84 117.23 80.072 116.702 79.096C116.19 78.104 115.934 76.984 115.934 75.736C115.934 74.472 116.198 73.352 116.726 72.376C117.254 71.384 117.966 70.608 118.862 70.048C119.758 69.488 120.766 69.208 121.886 69.208C122.51 69.208 123.11 69.304 123.686 69.496C124.278 69.688 124.806 69.96 125.27 70.312C125.734 70.648 126.118 71.04 126.422 71.488C126.726 71.92 126.91 72.376 126.974 72.856L126.422 72.664V64.24H128.222V82H126.446L126.398 78.88L126.854 78.712C126.79 79.16 126.606 79.6 126.302 80.032C126.014 80.448 125.646 80.824 125.198 81.16C124.75 81.496 124.238 81.76 123.662 81.952C123.102 82.144 122.518 82.24 121.91 82.24ZM122.174 80.584C123.006 80.584 123.75 80.376 124.406 79.96C125.062 79.544 125.574 78.968 125.942 78.232C126.326 77.496 126.518 76.656 126.518 75.712C126.518 74.768 126.326 73.936 125.942 73.216C125.574 72.48 125.062 71.904 124.406 71.488C123.75 71.056 123.006 70.84 122.174 70.84C121.31 70.84 120.55 71.056 119.894 71.488C119.254 71.904 118.742 72.48 118.358 73.216C117.99 73.936 117.806 74.768 117.806 75.712C117.806 76.64 117.99 77.472 118.358 78.208C118.726 78.944 119.238 79.528 119.894 79.96C120.55 80.376 121.31 80.584 122.174 80.584ZM132.209 82V69.472H134.009V82H132.209ZM133.097 66.76C132.649 66.76 132.305 66.648 132.065 66.424C131.841 66.184 131.729 65.864 131.729 65.464C131.729 65.064 131.849 64.744 132.089 64.504C132.329 64.264 132.665 64.144 133.097 64.144C133.529 64.144 133.865 64.264 134.105 64.504C134.345 64.728 134.465 65.048 134.465 65.464C134.465 65.848 134.345 66.16 134.105 66.4C133.865 66.64 133.529 66.76 133.097 66.76ZM139.38 82V67.528C139.38 66.904 139.516 66.352 139.788 65.872C140.06 65.392 140.444 65.016 140.94 64.744C141.452 64.456 142.044 64.312 142.716 64.312C143.228 64.312 143.684 64.408 144.084 64.6C144.5 64.776 144.844 65.024 145.116 65.344L144.492 66.76C144.236 66.488 143.956 66.296 143.652 66.184C143.364 66.056 143.084 65.992 142.812 65.992C142.46 65.992 142.164 66.056 141.924 66.184C141.684 66.296 141.5 66.472 141.372 66.712C141.26 66.936 141.204 67.208 141.204 67.528V82H140.364C140.188 82 140.02 82 139.86 82C139.7 82 139.54 82 139.38 82ZM137.148 71.248V69.568H144.396V71.248H137.148ZM147.492 82V69.472H149.292V82H147.492ZM148.38 66.76C147.932 66.76 147.588 66.648 147.348 66.424C147.124 66.184 147.012 65.864 147.012 65.464C147.012 65.064 147.132 64.744 147.372 64.504C147.612 64.264 147.948 64.144 148.38 64.144C148.812 64.144 149.148 64.264 149.388 64.504C149.628 64.728 149.747 65.048 149.747 65.464C149.747 65.848 149.628 66.16 149.388 66.4C149.148 66.64 148.812 66.76 148.38 66.76ZM158.501 82.24C157.317 82.24 156.261 81.96 155.333 81.4C154.405 80.824 153.669 80.048 153.125 79.072C152.597 78.08 152.333 76.96 152.333 75.712C152.333 74.464 152.597 73.352 153.125 72.376C153.669 71.384 154.405 70.608 155.333 70.048C156.261 69.488 157.325 69.208 158.525 69.208C159.597 69.208 160.573 69.424 161.453 69.856C162.333 70.272 163.037 70.856 163.565 71.608L162.509 72.904C162.205 72.504 161.837 72.152 161.405 71.848C160.989 71.544 160.533 71.312 160.037 71.152C159.557 70.976 159.077 70.888 158.597 70.888C157.749 70.888 156.989 71.104 156.317 71.536C155.645 71.952 155.109 72.52 154.709 73.24C154.325 73.96 154.133 74.784 154.133 75.712C154.133 76.64 154.325 77.472 154.709 78.208C155.109 78.928 155.645 79.496 156.317 79.912C156.989 80.328 157.741 80.536 158.573 80.536C159.053 80.536 159.525 80.464 159.989 80.32C160.453 80.16 160.893 79.936 161.309 79.648C161.725 79.36 162.109 79 162.461 78.568L163.517 79.864C162.973 80.584 162.245 81.16 161.333 81.592C160.421 82.024 159.477 82.24 158.501 82.24ZM170.75 82.24C169.662 82.24 168.678 81.96 167.798 81.4C166.918 80.824 166.222 80.048 165.71 79.072C165.198 78.08 164.942 76.96 164.942 75.712C164.942 74.448 165.206 73.328 165.734 72.352C166.262 71.376 166.966 70.608 167.846 70.048C168.742 69.488 169.742 69.208 170.846 69.208C171.502 69.208 172.11 69.304 172.67 69.496C173.23 69.688 173.726 69.96 174.158 70.312C174.606 70.648 174.974 71.048 175.262 71.512C175.566 71.96 175.774 72.448 175.886 72.976L175.358 72.712L175.43 69.472H177.23V82H175.406V78.928L175.886 78.616C175.774 79.096 175.558 79.56 175.238 80.008C174.918 80.44 174.526 80.824 174.062 81.16C173.614 81.496 173.102 81.76 172.526 81.952C171.966 82.144 171.374 82.24 170.75 82.24ZM171.158 80.512C171.99 80.512 172.734 80.312 173.39 79.912C174.046 79.496 174.558 78.928 174.926 78.208C175.31 77.472 175.502 76.64 175.502 75.712C175.502 74.784 175.31 73.96 174.926 73.24C174.558 72.52 174.046 71.952 173.39 71.536C172.734 71.12 171.99 70.912 171.158 70.912C170.31 70.912 169.558 71.12 168.902 71.536C168.262 71.952 167.75 72.52 167.366 73.24C166.998 73.96 166.814 74.784 166.814 75.712C166.814 76.624 166.998 77.448 167.366 78.184C167.734 78.904 168.246 79.472 168.902 79.888C169.558 80.304 170.31 80.512 171.158 80.512ZM185.824 82.24C184.688 82.24 183.664 81.96 182.752 81.4C181.856 80.84 181.144 80.072 180.616 79.096C180.104 78.104 179.848 76.984 179.848 75.736C179.848 74.472 180.112 73.352 180.64 72.376C181.168 71.384 181.88 70.608 182.776 70.048C183.672 69.488 184.68 69.208 185.8 69.208C186.424 69.208 187.024 69.304 187.6 69.496C188.192 69.688 188.72 69.96 189.184 70.312C189.648 70.648 190.032 71.04 190.336 71.488C190.64 71.92 190.824 72.376 190.888 72.856L190.336 72.664V64.24H192.136V82H190.36L190.312 78.88L190.768 78.712C190.704 79.16 190.52 79.6 190.216 80.032C189.928 80.448 189.56 80.824 189.112 81.16C188.664 81.496 188.152 81.76 187.576 81.952C187.016 82.144 186.432 82.24 185.824 82.24ZM186.088 80.584C186.92 80.584 187.664 80.376 188.32 79.96C188.976 79.544 189.488 78.968 189.856 78.232C190.24 77.496 190.432 76.656 190.432 75.712C190.432 74.768 190.24 73.936 189.856 73.216C189.488 72.48 188.976 71.904 188.32 71.488C187.664 71.056 186.92 70.84 186.088 70.84C185.224 70.84 184.464 71.056 183.808 71.488C183.168 71.904 182.656 72.48 182.272 73.216C181.904 73.936 181.72 74.768 181.72 75.712C181.72 76.64 181.904 77.472 182.272 78.208C182.64 78.944 183.152 79.528 183.808 79.96C184.464 80.376 185.224 80.584 186.088 80.584ZM201.187 82.24C199.939 82.24 198.827 81.96 197.851 81.4C196.891 80.84 196.131 80.064 195.571 79.072C195.027 78.08 194.755 76.952 194.755 75.688C194.755 74.44 195.027 73.328 195.571 72.352C196.131 71.376 196.891 70.608 197.851 70.048C198.827 69.488 199.939 69.208 201.187 69.208C202.419 69.208 203.515 69.488 204.475 70.048C205.451 70.608 206.211 71.376 206.755 72.352C207.315 73.328 207.595 74.44 207.595 75.688C207.595 76.952 207.315 78.08 206.755 79.072C206.211 80.064 205.451 80.84 204.475 81.4C203.515 81.96 202.419 82.24 201.187 82.24ZM201.187 80.536C202.067 80.536 202.851 80.328 203.539 79.912C204.227 79.48 204.763 78.904 205.147 78.184C205.531 77.448 205.723 76.616 205.723 75.688C205.723 74.76 205.531 73.936 205.147 73.216C204.763 72.496 204.227 71.936 203.539 71.536C202.851 71.12 202.067 70.912 201.187 70.912C200.307 70.912 199.515 71.12 198.811 71.536C198.123 71.936 197.579 72.504 197.179 73.24C196.795 73.96 196.611 74.776 196.627 75.688C196.611 76.616 196.795 77.448 197.179 78.184C197.579 78.904 198.123 79.48 198.811 79.912C199.515 80.328 200.307 80.536 201.187 80.536Z" fill="url(#paint1_linear_3295_10700)"/>
<defs>
<linearGradient id="paint0_linear_3295_10700" x1="121" y1="23.25" x2="86.5" y2="23.25" gradientUnits="userSpaceOnUse">
<stop stop-color="#43A3D5"/>
<stop offset="1" stop-color="#9C60DA"/>
</linearGradient>
<linearGradient id="paint1_linear_3295_10700" x1="208.5" y1="73" x2="0.5" y2="73" gradientUnits="userSpaceOnUse">
<stop stop-color="#43A3D5"/>
<stop offset="1" stop-color="#9C60DA"/>
</linearGradient>
</defs>
</svg>
